<?xml version="1.0" encoding="UTF-8"?>
<svg id="Layer_1" xmlns="http://www.w3.org/2000/svg" xmlns:xlink="http://www.w3.org/1999/xlink" version="1.1" viewBox="0 0 377 344">
  <!-- Generator: Adobe Illustrator 29.0.0, SVG Export Plug-In . SVG Version: 2.1.0 Build 186)  -->
  <defs>
    <style>
      .st0, .st1, .st2 {
        fill: none;
      }

      .st3 {
        fill: #d28a7f;
      }

      .st4 {
        font-family: MyanmarSangamMN, 'Myanmar Sangam MN';
        font-size: 8px;
      }

      .st4, .st5, .st6, .st7, .st8 {
        isolation: isolate;
      }

      .st9 {
        fill: #618b7d;
      }

      .st10 {
        clip-path: url(#clippath-17);
      }

      .st11 {
        clip-path: url(#clippath-19);
      }

      .st12 {
        clip-path: url(#clippath-11);
      }

      .st13 {
        clip-path: url(#clippath-16);
      }

      .st14 {
        clip-path: url(#clippath-18);
      }

      .st15 {
        clip-path: url(#clippath-10);
      }

      .st16 {
        clip-path: url(#clippath-15);
      }

      .st17 {
        clip-path: url(#clippath-13);
      }

      .st18 {
        clip-path: url(#clippath-14);
      }

      .st19 {
        clip-path: url(#clippath-12);
      }

      .st20 {
        clip-path: url(#clippath-20);
      }

      .st21 {
        clip-path: url(#clippath-1);
      }

      .st22 {
        clip-path: url(#clippath-3);
      }

      .st23 {
        clip-path: url(#clippath-4);
      }

      .st24 {
        clip-path: url(#clippath-2);
      }

      .st25 {
        clip-path: url(#clippath-7);
      }

      .st26 {
        clip-path: url(#clippath-6);
      }

      .st27 {
        clip-path: url(#clippath-9);
      }

      .st28 {
        clip-path: url(#clippath-8);
      }

      .st29 {
        clip-path: url(#clippath-5);
      }

      .st6 {
        font-size: 10px;
      }

      .st6, .st7, .st8 {
        font-family: TamilSangamMN, 'Tamil Sangam MN';
      }

      .st7 {
        font-size: 6px;
      }

      .st1 {
        stroke-width: 1.1px;
      }

      .st1, .st2 {
        stroke: #ebebeb;
        stroke-linejoin: round;
      }

      .st8 {
        font-size: 14px;
      }

      .st30 {
        clip-path: url(#clippath);
      }

      .st2 {
        stroke-width: .5px;
      }
    </style>
    <clipPath id="clippath">
      <rect class="st0" x="48.4" y="250.5" width="293.6" height=".8"/>
    </clipPath>
    <clipPath id="clippath-1">
      <rect class="st0" x="48.4" y="194.3" width="293.6" height="1.5"/>
    </clipPath>
    <clipPath id="clippath-2">
      <rect class="st0" x="48.4" y="138.1" width="293.6" height="1.5"/>
    </clipPath>
    <clipPath id="clippath-3">
      <rect class="st0" x="48.4" y="82.7" width="293.6" height=".8"/>
    </clipPath>
    <clipPath id="clippath-4">
      <rect class="st0" x="68.4" y="43.8" width="1.7" height="246.4"/>
    </clipPath>
    <clipPath id="clippath-5">
      <rect class="st0" x="112.8" y="43.8" width=".9" height="246.4"/>
    </clipPath>
    <clipPath id="clippath-6">
      <rect class="st0" x="157.2" y="43.8" width=".9" height="246.4"/>
    </clipPath>
    <clipPath id="clippath-7">
      <rect class="st0" x="200.7" y="43.8" width="1.7" height="246.4"/>
    </clipPath>
    <clipPath id="clippath-8">
      <rect class="st0" x="245.1" y="43.8" width="1.7" height="246.4"/>
    </clipPath>
    <clipPath id="clippath-9">
      <rect class="st0" x="289.5" y="43.8" width=".9" height="246.4"/>
    </clipPath>
    <clipPath id="clippath-10">
      <rect class="st0" x="48.4" y="278.3" width="293.6" height="1.5"/>
    </clipPath>
    <clipPath id="clippath-11">
      <rect class="st0" x="48.4" y="222.1" width="293.6" height="1.5"/>
    </clipPath>
    <clipPath id="clippath-12">
      <rect class="st0" x="48.4" y="165.8" width="293.6" height="1.5"/>
    </clipPath>
    <clipPath id="clippath-13">
      <rect class="st0" x="48.4" y="110.4" width="293.6" height="1.5"/>
    </clipPath>
    <clipPath id="clippath-14">
      <rect class="st0" x="48.4" y="54.2" width="293.6" height="1.5"/>
    </clipPath>
    <clipPath id="clippath-15">
      <rect class="st0" x="90.6" y="43.8" width="1.7" height="246.4"/>
    </clipPath>
    <clipPath id="clippath-16">
      <rect class="st0" x="134.1" y="43.8" width="1.7" height="246.4"/>
    </clipPath>
    <clipPath id="clippath-17">
      <rect class="st0" x="178.5" y="43.8" width="1.7" height="246.4"/>
    </clipPath>
    <clipPath id="clippath-18">
      <rect class="st0" x="222.9" y="43.8" width="1.7" height="246.4"/>
    </clipPath>
    <clipPath id="clippath-19">
      <rect class="st0" x="267.3" y="43.8" width="1.7" height="246.4"/>
    </clipPath>
    <clipPath id="clippath-20">
      <rect class="st0" x="310.8" y="43.8" width="2.6" height="246.4"/>
    </clipPath>
  </defs>
  <g class="st30">
    <path class="st2" d="M48.4,251h293.6"/>
  </g>
  <g class="st21">
    <path class="st2" d="M48.4,195h293.6"/>
  </g>
  <g class="st24">
    <path class="st2" d="M48.4,139h293.6"/>
  </g>
  <g class="st22">
    <path class="st2" d="M48.4,83h293.6"/>
  </g>
  <g class="st23">
    <path class="st2" d="M69.1,290.2V43.8"/>
  </g>
  <g class="st29">
    <path class="st2" d="M113.3,290.2V43.8"/>
  </g>
  <g class="st26">
    <path class="st2" d="M157.4,290.2V43.8"/>
  </g>
  <g class="st25">
    <path class="st2" d="M201.6,290.2V43.8"/>
  </g>
  <g class="st28">
    <path class="st2" d="M245.8,290.2V43.8"/>
  </g>
  <g class="st27">
    <path class="st2" d="M290,290.2V43.8"/>
  </g>
  <g class="st15">
    <path class="st1" d="M48.4,279h293.6"/>
  </g>
  <g class="st12">
    <path class="st1" d="M48.4,223h293.6"/>
  </g>
  <g class="st19">
    <path class="st1" d="M48.4,167h293.6"/>
  </g>
  <g class="st17">
    <path class="st1" d="M48.4,111h293.6"/>
  </g>
  <g class="st18">
    <path class="st1" d="M48.4,55h293.6"/>
  </g>
  <g class="st16">
    <path class="st1" d="M91.2,290.2V43.8"/>
  </g>
  <g class="st13">
    <path class="st1" d="M135.3,290.2V43.8"/>
  </g>
  <g class="st10">
    <path class="st1" d="M179.6,290.2V43.8"/>
  </g>
  <g class="st14">
    <path class="st1" d="M223.7,290.2V43.8"/>
  </g>
  <g class="st11">
    <path class="st1" d="M267.9,290.2V43.8"/>
  </g>
  <g class="st20">
    <path class="st1" d="M312.1,290.2V43.8"/>
  </g>
  <path class="st9" d="M61.7,55h266.9v88.7l-3.4.3h-3.4c0,.1-3.4.2-3.4.2l-3.4-.2-3.4-.4-3.4-.4-3.4-.4-3.4-.3-3.4-.5-3.4-.6-3.4,1-3.4,1.9-3.4.6-3.4-2.7-3.4-4.9-3.4-3-3.4,1.8-3.4,5.8-3.4,5.8-3.4,4.3-3.4,3.6-3.4,4.6-3.4,5.5-3.4,4.8-3.4-3.8-3.4-9.7-3.4-7.9-3.4.9-3.4,7.9-3.4,5.1-3.4,1.9-3.4.3h-3.4c0,0-3.4.4-3.4.4l-3.4,1.1-3.4,1.5-3.4,1.5-3.4,1-3.4.8-3.4.8-3.4,1-3.4,1.4-3.4,1.5-3.4,1.2-3.4.9-3.4.6-3.4.7-3.4,1.1-3.4,1.4-3.4,1.2-3.4.6-3.4.2-3.4.2-3.4.7-3.4.6-3.4.2-3.4-.2-3.4-.4-3.4-.2-3.4-.2-3.4-.2h-3.4c0-.1-3.4-.2-3.4-.2l-3.4-.2-3.4-.6-3.4-.6h-3.4s-3.4,1-3.4,1l-3.4,1.6-3.4,1.1-3.4.2h-3.4s-3.4-.3-3.4-.3l-3.4-.8h-3.4s-3.4.5-3.4.5l-3.4.7-3.4.9-3.4.9V55Z"/>
  <path class="st3" d="M61.7,188.8l3.4-.9,3.4-.9,3.4-.7,3.4-.5h3.4s3.4.9,3.4.9l3.4.3h3.4s3.4-.2,3.4-.2l3.4-1.1,3.4-1.6,3.4-1h3.4s3.4.6,3.4.6l3.4.6,3.4.2h3.4s3.4.2,3.4.2l3.4.2,3.4.2,3.4.2,3.4.4,3.4.2,3.4-.2,3.4-.6,3.4-.7,3.4-.2,3.4-.2,3.4-.6,3.4-1.2,3.4-1.4,3.4-1.1,3.4-.7,3.4-.6,3.4-.9,3.4-1.2,3.4-1.5,3.4-1.4,3.4-1,3.4-.8,3.4-.8,3.4-1,3.4-1.5,3.4-1.5,3.4-1.1,3.4-.5h3.4c0,0,3.4-.2,3.4-.2l3.4-1.9,3.4-5.1,3.4-7.9,3.4-.9,3.4,7.9,3.4,9.7,3.4,3.8,3.4-4.8,3.4-5.5,3.4-4.6,3.4-3.6,3.4-4.3,3.4-5.8,3.4-5.8,3.4-1.8,3.4,3,3.4,4.9,3.4,2.7,3.4-.6,3.4-1.9,3.4-1,3.4.6,3.4.5,3.4.3,3.4.4,3.4.4,3.4.4,3.4.2h3.4s3.4-.2,3.4-.2l3.4-.3v135.3H61.7v-90.2Z"/>
  <rect class="st9" x="30.2" y="316.3" width="13.1" height="13.1" rx="2.3" ry="2.3"/>
  <rect class="st3" x="117.5" y="316.6" width="13.2" height="13.2" rx="2.4" ry="2.4"/>
  <text class="st6" transform="translate(48.3 326)"><tspan x="0" y="0">Active Players</tspan></text>
  <g class="st5">
    <g class="st5">
      <text class="st6" transform="translate(137.5 326.3)"><tspan x="0" y="0">Inactive Players</tspan></text>
    </g>
  </g>
  <g class="st5">
    <g class="st5">
      <text class="st7" transform="translate(253.4 338.5)"><tspan x="0" y="0">Created by: jpmoore | Source: ratings.fide.com</tspan></text>
    </g>
  </g>
  <g class="st5">
    <g class="st5">
      <text class="st4" transform="translate(77.9 298.4) scale(1.1 1)"><tspan x="0" y="0">2014</tspan></text>
    </g>
  </g>
  <g class="st5">
    <g class="st5">
      <text class="st4" transform="translate(121.8 298.4) scale(1.1 1)"><tspan x="0" y="0">2016</tspan></text>
    </g>
  </g>
  <g class="st5">
    <g class="st5">
      <text class="st4" transform="translate(167.9 298.4) scale(1.1 1)"><tspan x="0" y="0">2018</tspan></text>
    </g>
  </g>
  <g class="st5">
    <g class="st5">
      <text class="st4" transform="translate(212.6 298.4) scale(1.1 1)"><tspan x="0" y="0">2020</tspan></text>
    </g>
  </g>
  <g class="st5">
    <g class="st5">
      <text class="st4" transform="translate(258.2 298.4) scale(1.1 1)"><tspan x="0" y="0">2022</tspan></text>
    </g>
  </g>
  <g class="st5">
    <g class="st5">
      <text class="st4" transform="translate(303.1 298.4) scale(1.1 1)"><tspan x="0" y="0">2024</tspan></text>
    </g>
  </g>
  <text class="st8" transform="translate(108.7 28.7)"><tspan x="0" y="0">Active vs. Inactive Players (%)</tspan></text>
  <g class="st5">
    <g class="st5">
      <text class="st4" transform="translate(40.2 281.8) scale(1.1 1)"><tspan x="0" y="0">0</tspan></text>
    </g>
  </g>
  <g class="st5">
    <g class="st5">
      <text class="st4" transform="translate(35.4 225.8) scale(1.1 1)"><tspan x="0" y="0">25</tspan></text>
    </g>
  </g>
  <g class="st5">
    <g class="st5">
      <text class="st4" transform="translate(35.4 169.5) scale(1.1 1)"><tspan x="0" y="0">50</tspan></text>
    </g>
  </g>
  <g class="st5">
    <g class="st5">
      <text class="st4" transform="translate(35.4 113.6) scale(1.1 1)"><tspan x="0" y="0">75</tspan></text>
    </g>
  </g>
  <g class="st5">
    <g class="st5">
      <text class="st4" transform="translate(30.5 57.1) scale(1.1 1)"><tspan x="0" y="0">100</tspan></text>
    </g>
  </g>
</svg>