<?xml version="1.0" encoding="UTF-8"?>
<svg id="Layer_1" xmlns="http://www.w3.org/2000/svg" xmlns:xlink="http://www.w3.org/1999/xlink" version="1.1" viewBox="0 0 387.2 256.2">
  <!-- Generator: Adobe Illustrator 29.1.0, SVG Export Plug-In . SVG Version: 2.1.0 Build 142)  -->
  <defs>
    <style>
      .st0, .st1, .st2, .st3, .st4 {
        fill: none;
      }

      .st5 {
        clip-path: url(#clippath-17);
      }

      .st6 {
        clip-path: url(#clippath-19);
      }

      .st7 {
        clip-path: url(#clippath-11);
      }

      .st8 {
        clip-path: url(#clippath-16);
      }

      .st9 {
        clip-path: url(#clippath-18);
      }

      .st10 {
        clip-path: url(#clippath-10);
      }

      .st11 {
        clip-path: url(#clippath-15);
      }

      .st12 {
        clip-path: url(#clippath-13);
      }

      .st13 {
        clip-path: url(#clippath-14);
      }

      .st14 {
        clip-path: url(#clippath-12);
      }

      .st15 {
        clip-path: url(#clippath-31);
      }

      .st16 {
        clip-path: url(#clippath-32);
      }

      .st17 {
        clip-path: url(#clippath-33);
      }

      .st18 {
        clip-path: url(#clippath-34);
      }

      .st19 {
        clip-path: url(#clippath-35);
      }

      .st20 {
        clip-path: url(#clippath-30);
      }

      .st21 {
        clip-path: url(#clippath-27);
      }

      .st22 {
        clip-path: url(#clippath-29);
      }

      .st23 {
        clip-path: url(#clippath-26);
      }

      .st24 {
        clip-path: url(#clippath-28);
      }

      .st25 {
        clip-path: url(#clippath-20);
      }

      .st26 {
        clip-path: url(#clippath-21);
      }

      .st27 {
        clip-path: url(#clippath-22);
      }

      .st28 {
        clip-path: url(#clippath-23);
      }

      .st29 {
        clip-path: url(#clippath-24);
      }

      .st30 {
        clip-path: url(#clippath-25);
      }

      .st31 {
        clip-path: url(#clippath-1);
      }

      .st32 {
        clip-path: url(#clippath-3);
      }

      .st33 {
        clip-path: url(#clippath-4);
      }

      .st34 {
        clip-path: url(#clippath-2);
      }

      .st35 {
        clip-path: url(#clippath-7);
      }

      .st36 {
        clip-path: url(#clippath-6);
      }

      .st37 {
        clip-path: url(#clippath-9);
      }

      .st38 {
        clip-path: url(#clippath-8);
      }

      .st39 {
        clip-path: url(#clippath-5);
      }

      .st40, .st41, .st42 {
        fill: #fff;
      }

      .st1, .st2, .st3, .st4, .st43, .st44, .st41, .st42 {
        stroke-linejoin: round;
      }

      .st1, .st2, .st43, .st44, .st41, .st42 {
        stroke-width: 1.1px;
      }

      .st1, .st44, .st41 {
        stroke: #83c27f;
      }

      .st2, .st43, .st42 {
        stroke: #df808d;
      }

      .st3 {
        stroke-width: .3px;
      }

      .st3, .st4 {
        stroke: #ccc;
      }

      .st4 {
        stroke-width: .4px;
      }

      .st45 {
        clip-path: url(#clippath);
      }
    </style>
    <clipPath id="clippath">
      <rect class="st0" y="254.9" width="387.2" height="1.3"/>
    </clipPath>
    <clipPath id="clippath-1">
      <rect class="st0" y="235.9" width="387.2" height="2"/>
    </clipPath>
    <clipPath id="clippath-2">
      <rect class="st0" y="216.9" width="387.2" height="2"/>
    </clipPath>
    <clipPath id="clippath-3">
      <rect class="st0" y="197.9" width="387.2" height="1"/>
    </clipPath>
    <clipPath id="clippath-4">
      <rect class="st0" y="178.9" width="387.2" height="1"/>
    </clipPath>
    <clipPath id="clippath-5">
      <rect class="st0" y="159.9" width="387.2" height="1"/>
    </clipPath>
    <clipPath id="clippath-6">
      <rect class="st0" y="140.9" width="387.2" height="1"/>
    </clipPath>
    <clipPath id="clippath-7">
      <rect class="st0" y="121.9" width="387.2" height="1"/>
    </clipPath>
    <clipPath id="clippath-8">
      <rect class="st0" y="102.9" width="387.2" height="1"/>
    </clipPath>
    <clipPath id="clippath-9">
      <rect class="st0" y="83.9" width="387.2" height="1"/>
    </clipPath>
    <clipPath id="clippath-10">
      <rect class="st0" y="64.9" width="387.2" height="1"/>
    </clipPath>
    <clipPath id="clippath-11">
      <rect class="st0" y="44.9" width="387.2" height="2"/>
    </clipPath>
    <clipPath id="clippath-12">
      <rect class="st0" y="25.9" width="387.2" height="2"/>
    </clipPath>
    <clipPath id="clippath-13">
      <rect class="st0" y="6.9" width="387.2" height="2"/>
    </clipPath>
    <clipPath id="clippath-14">
      <rect class="st0" y="245.9" width="387.2" height="1"/>
    </clipPath>
    <clipPath id="clippath-15">
      <rect class="st0" y="226.9" width="387.2" height="1"/>
    </clipPath>
    <clipPath id="clippath-16">
      <rect class="st0" y="207.9" width="387.2" height="1"/>
    </clipPath>
    <clipPath id="clippath-17">
      <rect class="st0" y="188.9" width="387.2" height="1"/>
    </clipPath>
    <clipPath id="clippath-18">
      <rect class="st0" y="168.9" width="387.2" height="2"/>
    </clipPath>
    <clipPath id="clippath-19">
      <rect class="st0" y="149.9" width="387.2" height="2"/>
    </clipPath>
    <clipPath id="clippath-20">
      <rect class="st0" y="130.9" width="387.2" height="2"/>
    </clipPath>
    <clipPath id="clippath-21">
      <rect class="st0" y="111.9" width="387.2" height="2"/>
    </clipPath>
    <clipPath id="clippath-22">
      <rect class="st0" y="92.9" width="387.2" height="2"/>
    </clipPath>
    <clipPath id="clippath-23">
      <rect class="st0" y="73.9" width="387.2" height="1"/>
    </clipPath>
    <clipPath id="clippath-24">
      <rect class="st0" y="54.9" width="387.2" height="1"/>
    </clipPath>
    <clipPath id="clippath-25">
      <rect class="st0" y="35.9" width="387.2" height="1"/>
    </clipPath>
    <clipPath id="clippath-26">
      <rect class="st0" y="16.9" width="387.2" height="1"/>
    </clipPath>
    <clipPath id="clippath-27">
      <rect class="st0" x="25" width="1" height="256.2"/>
    </clipPath>
    <clipPath id="clippath-28">
      <rect class="st0" x="67" width="1" height="256.2"/>
    </clipPath>
    <clipPath id="clippath-29">
      <rect class="st0" x="109" width="1" height="256.2"/>
    </clipPath>
    <clipPath id="clippath-30">
      <rect class="st0" x="151" width="1" height="256.2"/>
    </clipPath>
    <clipPath id="clippath-31">
      <rect class="st0" x="193" width="1" height="256.2"/>
    </clipPath>
    <clipPath id="clippath-32">
      <rect class="st0" x="235" width="1" height="256.2"/>
    </clipPath>
    <clipPath id="clippath-33">
      <rect class="st0" x="277" width="1" height="256.2"/>
    </clipPath>
    <clipPath id="clippath-34">
      <rect class="st0" x="319" width="2" height="256.2"/>
    </clipPath>
    <clipPath id="clippath-35">
      <rect class="st0" x="361" width="2" height="256.2"/>
    </clipPath>
  </defs>
  <rect class="st40" x="-120.4" y="-129.3" width="652.8" height="507.6"/>
  <g>
    <g>
      <g class="st45">
        <path class="st3" d="M0,256h387.2"/>
      </g>
      <g class="st31">
        <path class="st3" d="M0,236.9h387.2"/>
      </g>
      <g class="st34">
        <path class="st3" d="M0,217.8h387.2"/>
      </g>
      <g class="st32">
        <path class="st3" d="M0,198.7h387.2"/>
      </g>
      <g class="st33">
        <path class="st3" d="M0,179.6h387.2"/>
      </g>
      <g class="st39">
        <path class="st3" d="M0,160.5h387.2"/>
      </g>
      <g class="st36">
        <path class="st3" d="M0,141.4h387.2"/>
      </g>
      <g class="st35">
        <path class="st3" d="M0,122.3h387.2"/>
      </g>
      <g class="st38">
        <path class="st3" d="M0,103.3h387.2"/>
      </g>
      <g class="st37">
        <path class="st3" d="M0,84.2h387.2"/>
      </g>
      <g class="st10">
        <path class="st3" d="M0,65.1h387.2"/>
      </g>
      <g class="st7">
        <path class="st3" d="M0,46h387.2"/>
      </g>
      <g class="st14">
        <path class="st3" d="M0,26.9h387.2"/>
      </g>
      <g class="st12">
        <path class="st3" d="M0,7.8h387.2"/>
      </g>
      <g class="st13">
        <path class="st4" d="M0,246.4h387.2"/>
      </g>
      <g class="st11">
        <path class="st4" d="M0,227.3h387.2"/>
      </g>
      <g class="st8">
        <path class="st4" d="M0,208.2h387.2"/>
      </g>
      <g class="st5">
        <path class="st4" d="M0,189.2h387.2"/>
      </g>
      <g class="st9">
        <path class="st4" d="M0,170.1h387.2"/>
      </g>
      <g class="st6">
        <path class="st4" d="M0,151h387.2"/>
      </g>
      <g class="st25">
        <path class="st4" d="M0,131.9h387.2"/>
      </g>
      <g class="st26">
        <path class="st4" d="M0,112.8h387.2"/>
      </g>
      <g class="st27">
        <path class="st4" d="M0,93.7h387.2"/>
      </g>
      <g class="st28">
        <path class="st4" d="M0,74.6h387.2"/>
      </g>
      <g class="st29">
        <path class="st4" d="M0,55.5h387.2"/>
      </g>
      <g class="st30">
        <path class="st4" d="M0,36.5h387.2"/>
      </g>
      <g class="st23">
        <path class="st4" d="M0,17.4h387.2"/>
      </g>
    </g>
    <g>
      <g class="st21">
        <path class="st4" d="M25.2,256.2V0"/>
      </g>
      <g class="st24">
        <path class="st4" d="M67.3,256.2V0"/>
      </g>
      <g class="st22">
        <path class="st4" d="M109.4,256.2V0"/>
      </g>
      <g class="st20">
        <path class="st4" d="M151.5,256.2V0"/>
      </g>
      <g class="st15">
        <path class="st4" d="M193.6,256.2V0"/>
      </g>
      <g class="st16">
        <path class="st4" d="M235.7,256.2V0"/>
      </g>
      <g class="st17">
        <path class="st4" d="M277.8,256.2V0"/>
      </g>
      <g class="st18">
        <path class="st4" d="M319.8,256.2V0"/>
      </g>
      <g class="st19">
        <path class="st4" d="M361.9,256.2V0"/>
      </g>
    </g>
  </g>
  <path class="st2" d="M25.2,76.5l42.1-15.3,42.1,147L151.5,21.2l42.1,13.4,42.1,7.6,42.1,64.9,42.1,49.6L361.9,11.6"/>
  <path class="st1" d="M25.2,244.5l42.1-171.8,42.1-5.7,42.1-43.9,42.1,21h42.1l42.1,59.2,42.1,57.3L361.9,13.6"/>
  <path class="st42" d="M69.8,61.3c0,3.3-5,3.3-5,0s5-3.3,5,0"/>
  <path class="st43" d="M27.7,76.5c0,3.3-5,3.3-5,0s5-3.3,5,0"/>
  <path class="st41" d="M27.7,244.5c0,3.3-5,3.3-5,0s5-3.3,5,0"/>
  <path class="st44" d="M69.8,72.7c0,3.3-5,3.3-5,0s5-3.3,5,0"/>
  <path class="st41" d="M111.9,67c0,3.3-5,3.3-5,0s5-3.3,5,0"/>
  <path class="st44" d="M154,23.1c0,3.3-5,3.3-5,0s5-3.3,5,0"/>
  <path class="st42" d="M154,21.2c0,3.3-5,3.3-5,0s5-3.3,5,0"/>
  <path class="st41" d="M196.1,44.1c0,3.3-5,3.3-5,0s5-3.3,5,0"/>
  <path class="st43" d="M196.1,34.5c0,3.3-5,3.3-5,0s5-3.3,5,0"/>
  <path class="st44" d="M238.2,44.1c0,3.3-5,3.3-5,0s5-3.3,5,0"/>
  <path class="st42" d="M238.2,42.2c0,3.3-5,3.3-5,0s5-3.3,5,0"/>
  <path class="st43" d="M280.2,107.1c0,3.3-5,3.3-5,0s5-3.3,5,0"/>
  <path class="st41" d="M280.2,103.3c0,3.3-5,3.3-5,0s5-3.3,5,0"/>
  <path class="st44" d="M322.3,160.5c0,3.3-5,3.3-5,0s5-3.3,5,0"/>
  <path class="st42" d="M322.3,156.7c0,3.3-5,3.3-5,0s5-3.3,5,0"/>
  <path class="st41" d="M364.4,13.6c0,3.3-5,3.3-5,0s5-3.3,5,0"/>
  <path class="st43" d="M364.4,11.6c0,3.3-5,3.3-5,0s5-3.3,5,0"/>
  <path class="st43" d="M111.9,208.2c0,3.3-5,3.3-5,0s5-3.3,5,0"/>
</svg>