<?xml version="1.0" encoding="UTF-8"?>
<svg id="Layer_1" xmlns="http://www.w3.org/2000/svg" version="1.1" viewBox="0 0 896 560">
  <!-- Generator: Adobe Illustrator 29.2.1, SVG Export Plug-In . SVG Version: 2.1.0 Build 116)  -->
  <defs>
    <style>
      .st0 {
        fill: #aec6b3;
      }

      .st1 {
        fill: #579363;
      }

      .st2 {
        fill: #75abb6;
      }

      .st3 {
        fill: #7ba884;
      }

      .st4 {
        fill: #abc7cd;
      }

      .st5 {
        fill: #327988;
      }
    </style>
  </defs>
  <path class="st1" d="M-37.1-1.5h485.1v290.3l-6.3,4.5-6.3,4-6.3,3.5-6.3,3.5-6.3,3-6.3,2.5-6.3,2-6.3,2.5-6.3,2.5-6.3,1.5h-6.3l-6.3,1h-6.3l-6.3-1.5-6.3-1h-31.5l-6.3,3h-6.3l-6.3-2-6.3-3-6.3-4.5-6.3-8.6-6.3-7.1-6.3-6-6.3-5.5-6.3-3h-6.3l-6.3-1h-6.3l-6.3,1.5h-6.3l-6.3,2-6.3,1h-6.3l-6.3-1h-6.3l-6.3-1h-6.3l-6.3-2-6.3-1.5h-6.3l-6.3-1.5h-12.6l-6.3,1h-18.9l-6.3,2.5-6.3,2-6.3,2.5-6.3,4-6.3,4-6.3,3-6.3,3-6.3,4-6.3,5-6.3,4.5-6.3,5-6.3,5-6.3,5-6.3,4.5-6.3,4.5-6.3,5-6.3,4.5-6.3,2H.7l-6.3,2-6.3,2-6.3,1h-12.6l-6.3-1-6.3-1.5-6.3-2.5V-1.5s12.6,0,12.6,0Z"/>
  <path class="st3" d="M-49.7,346.8l6.3,2.5,6.3,1.5,6.3,1h12.6l6.3-1,6.3-2,6.3-1.5h6.3l6.3-2.5,6.3-4.5,6.3-5,6.3-4.5,6.3-4.5,6.3-5,6.3-5,6.3-5,6.3-4.5,6.3-5,6.3-4,6.3-3,6.3-3,6.3-4,6.3-4,6.3-2.5,6.3-2,6.3-1.5h18.9l6.3-1.5h18.9l6.3,1.5,6.3,1.5,6.3,1.5h6.3l6.3,1h6.3l6.3,1.5h6.3l6.3-1,6.3-1.5h6.3l6.3-1.5h18.9l6.3,3.5,6.3,5.5,6.3,6,6.3,7.1,6.3,8.6,6.3,4.5,6.3,3,6.3,2h6.3l6.3-2.5h31.5l6.3,1,6.3,1h18.9l6.3-2.5,6.3-2.5,6.3-2.5,6.3-2,6.3-2.5,6.3-3,6.3-3.5,6.3-3.5,6.3-4,6.3-4.5v157.8l-6.3,5-6.3,4.5-6.3,3.5-6.3,3-6.3,2.5-6.3,1.5-6.3,1-6.3,1.5-6.3,2-6.3,1.5-6.3,1-6.3,1h-18.9l-6.3,1-6.3,1-6.3,1-6.3,1-6.3,1-6.3,2.5h-6.3l-6.3-3-6.3-4-6.3-5-6.3-8.6-6.3-7.6-6.3-6.6-6.3-6-6.3-4-6.3-2-6.3-1h-18.9c0-.5-6.3,0-6.3,0h-6.3l-6.3-1.5-6.3-2.5-6.3-1.5h-6.3l-6.3-1-6.3-2-6.3-2-6.3-1-6.3-1.5-6.3-1h-6.3l-6.3,2h-6.3c0,.5-6.3,0-6.3,0h-6.3c0,.5-6.3,2.5-6.3,2.5l-6.3,2-6.3,2.5-6.3,3.5-6.3,3-6.3,1.5-6.3,1.5-6.3,3.5-6.3,4.5-6.3,4.5-6.3,5-6.3,5.5-6.3,4.5-6.3,4-6.3,4-6.3,4.5-6.3,4-6.3,2H.7l-6.3,2-6.3,1.5-6.3,1.5h-6.3c0,.5-6.3,1-6.3,1h-6.3l-6.3-1-6.3-1v-142.1h0v.5Z"/>
  <path class="st0" d="M-49.7,487.9l6.3,1h6.3c0,.5,6.3,1,6.3,1h6.3l6.3-1,6.3-1.5,6.3-1.5,6.3-1.5h6.3l6.3-2.5,6.3-4,6.3-4.5,6.3-4,6.3-4,6.3-4.5,6.3-5.5,6.3-5,6.3-4.5,6.3-4.5,6.3-3.5,6.3-1.5,6.3-1.5,6.3-3,6.3-3.5,6.3-2.5,6.3-2,6.3-2h6.3c0-.5,6.3,0,6.3,0h6.3c0-.5,6.3-2,6.3-2h12.6c0,.5,6.3,2,6.3,2l6.3,1,6.3,2,6.3,2h6.3c0,.5,6.3,1,6.3,1l6.3,1.5,6.3,2.5,6.3,1.5h18.9c0,.5,6.3,0,6.3,0h6.3l6.3,1,6.3,2,6.3,4,6.3,6,6.3,6.6,6.3,7.6,6.3,8.6,6.3,5,6.3,4,6.3,3h6.3l6.3-2.5,6.3-1,6.3-1,6.3-1,6.3-1,6.3-1h18.9l6.3-1.5,6.3-1,6.3-1.5,6.3-2,6.3-1.5,6.3-1,6.3-1.5,6.3-2.5,6.3-3,6.3-3.5,6.3-4.5,6.3-5v116.9H-49.7v-73.1h0v-.5Z"/>
  <g>
    <path class="st5" d="M455.6.3h490.1v434.4l-6.3,4.5-6.3,4-6.3,3.5-6.3,3-6.3,2.5-6.3,2-6.3,1.5-6.3,1.5-6.3,1.5-6.3,1-6.3,1-12.6,1.5h-6.3c0,.5-6.3,1-6.3,1l-6.3,1-6.3,1h-12.6c0-.5-6.3-.5-6.3-.5h-6.3c0-.5-6.3-.5-6.3-.5,0-.5-6.3-1.5-6.3-1.5l-6.3-1-6.3-1.5-6.3-2.5-6.3-2.5-6.3-2.5-6.3-2.5-6.3-1.5-6.3-1h-18.9c0,.5-6.3,1-6.3,1l-6.3,1-6.3,1h-18.9l-6.3,1h-6.3c0,.5-6.3.5-6.3.5h-50.4c0,.5-6.3.5-6.3.5,0,.5-6.3,2-6.3,2l-6.3,1.5-6.3,1.5-6.3,2-6.3,2-6.3,1.5-6.3,1.5-6.3,2-6.3,2.5-6.3,2.5-6.3,3-6.3,3-6.3,3-6.3,3-6.3,2.5-6.3,2.5-6.3,2-6.3,1h-6.3l-6.3,1h-6.3c0,.5-6.3,1-6.3,1h-18.9l-6.3-1-6.3-1V.3h7.6Z"/>
    <path class="st2" d="M448,491.2l6.3,1h6.3c0,.5,6.3,1,6.3,1h18.9l6.3-1h6.3c0-.5,6.3-1,6.3-1l6.3-1,6.3-2,6.3-2.5,6.3-2.5,6.3-3,6.3-3,6.3-3,6.3-3,6.3-2.5,6.3-2.5,6.3-2,6.3-1.5,6.3-1.5,6.3-2,6.3-2,6.3-1.5,6.3-1.5,6.3-1.5h6.3c0-.5,6.3-1,6.3-1h12.6c0-.5,6.3-.5,6.3-.5h37.8c0-.5,6.3-1,6.3-1h18.9l6.3-1,6.3-1h6.3c0-.5,6.3-1,6.3-1h12.6l6.3,1,6.3,1.5,6.3,2.5,6.3,2.5,6.3,2.5,6.3,2.5,6.3,1.5,6.3,1,6.3,1h6.3c0,.5,6.3,1,6.3,1h6.3l6.3,1h12.6c0-.5,6.3-1.5,6.3-1.5h6.3c0-.5,6.3-1,6.3-1l12.6-1.5,6.3-1,6.3-1,6.3-1.5,6.3-1.5,6.3-1.5,6.3-2,6.3-2.5,6.3-3,6.3-3.5,6.3-4,6.3-4.5v75.1l-6.3,2.5-6.3,2-6.3,2-6.3,1.5-6.3,1.5-6.3,1h-6.3c0,.5-6.3,1.5-6.3,1.5h-6.3c0,.5-6.3,1.5-6.3,1.5h-6.3c0,.5-6.3,1-6.3,1h-6.3c0,.5-6.3,1-6.3,1h-6.3l-6.3,1.5-6.3,1h-12.6c0,.5-6.3.5-6.3.5h-6.3c0,.5-6.3.5-6.3.5l-6.3-1.5-6.3-1.5-6.3-2-6.3-3-6.3-2.5-6.3-2.5-6.3-2.5-6.3-2-6.3-1.5h-6.3c0-.5-6.3-.5-6.3-.5h-18.9l-6.3,1h-12.6c0-.5-6.3-.5-6.3-.5h-37.8l-6.3-1h-31.5l-6.3,1.5-6.3,1-6.3,1-6.3,2-6.3,1.5-6.3,1-6.3,1-6.3,1.5-6.3,2-6.3,2-6.3,2-6.3,2.5-6.3,2-6.3,1.5-6.3,1.5-6.3,1.5-6.3,1.5h-6.3c0,.5-6.3.5-6.3.5h-6.3l-6.3,1h-31.5l-6.3-1v-45.4h0Z"/>
    <path class="st4" d="M453,536.5h37l6.3-1h12.6c0-.5,6.3-2,6.3-2l6.3-1.5,6.3-1.5,6.3-1.5,6.3-2,6.3-2.5,6.3-2,6.3-2,6.3-2,6.3-1.5,6.3-1,6.3-1,6.3-1.5,6.3-2,6.3-1,6.3-1,6.3-1h25.6c0-.5,6.3-.5,6.3-.5h19.3c0,.5,6.3.5,6.3.5h19.3c0-.5,6.3-.5,6.3-.5h6.3c0,.5,6.3.5,6.3.5h19.3c0-.5,6.3-.5,6.3-.5h12.6c0,.5,6.3,2,6.3,2l6.3,2,6.3,2.5,6.3,2.5,6.3,2.5,6.3,3,6.3,2,6.3,1.5,6.3,1h31.9l6.3-1,6.3-1h6.3l6.3-1h6.3c0-.5,6.3-1,6.3-1h6.3c0-.5,6.3-1,6.3-1h6.3c0-.5,6.3-1.5,6.3-1.5h6.3c0-.5,6.3-1.5,6.3-1.5l6.3-1.5,6.3-1.5,6.3-2,6.3-2,6.3-2.5v51.9h-497.7v-24.7h5,0Z"/>
  </g>
</svg>