<?xml version="1.0" encoding="UTF-8"?>
<svg id="Layer_1" xmlns="http://www.w3.org/2000/svg" xmlns:xlink="http://www.w3.org/1999/xlink" version="1.1" viewBox="0 0 377 344">
  <!-- Generator: Adobe Illustrator 29.0.0, SVG Export Plug-In . SVG Version: 2.1.0 Build 186)  -->
  <defs>
    <style>
      .st0, .st1, .st2 {
        fill: none;
      }

      .st3, .st4 {
        font-size: 8px;
      }

      .st3, .st4, .st5, .st6, .st7, .st8 {
        isolation: isolate;
      }

      .st3, .st6, .st7, .st8 {
        font-family: TamilSangamMN, 'Tamil Sangam MN';
      }

      .st4 {
        font-family: MyanmarSangamMN, 'Myanmar Sangam MN';
      }

      .st9 {
        clip-path: url(#clippath-17);
      }

      .st10 {
        clip-path: url(#clippath-19);
      }

      .st11 {
        clip-path: url(#clippath-11);
      }

      .st12 {
        clip-path: url(#clippath-16);
      }

      .st13 {
        clip-path: url(#clippath-18);
      }

      .st14 {
        clip-path: url(#clippath-10);
      }

      .st15 {
        clip-path: url(#clippath-15);
      }

      .st16 {
        clip-path: url(#clippath-13);
      }

      .st17 {
        clip-path: url(#clippath-14);
      }

      .st18 {
        clip-path: url(#clippath-12);
      }

      .st19 {
        clip-path: url(#clippath-20);
      }

      .st20 {
        clip-path: url(#clippath-21);
      }

      .st21 {
        clip-path: url(#clippath-22);
      }

      .st22 {
        clip-path: url(#clippath-1);
      }

      .st23 {
        clip-path: url(#clippath-3);
      }

      .st24 {
        clip-path: url(#clippath-4);
      }

      .st25 {
        clip-path: url(#clippath-2);
      }

      .st26 {
        clip-path: url(#clippath-7);
      }

      .st27 {
        clip-path: url(#clippath-6);
      }

      .st28 {
        clip-path: url(#clippath-9);
      }

      .st29 {
        clip-path: url(#clippath-8);
      }

      .st30 {
        clip-path: url(#clippath-5);
      }

      .st6 {
        font-size: 10px;
      }

      .st31 {
        fill: #81b78d;
      }

      .st7 {
        font-size: 6px;
      }

      .st1 {
        stroke-width: 1.1px;
      }

      .st1, .st2 {
        stroke: #ebebeb;
        stroke-linejoin: round;
      }

      .st8 {
        font-size: 14px;
      }

      .st32 {
        fill: #327988;
      }

      .st33 {
        clip-path: url(#clippath);
      }

      .st2 {
        stroke-width: .5px;
      }
    </style>
    <clipPath id="clippath">
      <rect class="st0" x="46.2" y="256.2" width="299.4" height=".7"/>
    </clipPath>
    <clipPath id="clippath-1">
      <rect class="st0" x="46.2" y="210.8" width="299.4" height=".7"/>
    </clipPath>
    <clipPath id="clippath-2">
      <rect class="st0" x="46.2" y="165.4" width="299.4" height=".7"/>
    </clipPath>
    <clipPath id="clippath-3">
      <rect class="st0" x="46.2" y="120" width="299.4" height="1.5"/>
    </clipPath>
    <clipPath id="clippath-4">
      <rect class="st0" x="46.2" y="74.7" width="299.4" height="1.5"/>
    </clipPath>
    <clipPath id="clippath-5">
      <rect class="st0" x="66.9" y="51.9" width="1" height="238.1"/>
    </clipPath>
    <clipPath id="clippath-6">
      <rect class="st0" x="111.4" y="51.9" width="1.8" height="238.1"/>
    </clipPath>
    <clipPath id="clippath-7">
      <rect class="st0" x="157" y="51.9" width="1" height="238.1"/>
    </clipPath>
    <clipPath id="clippath-8">
      <rect class="st0" x="201.4" y="51.9" width="1.8" height="238.1"/>
    </clipPath>
    <clipPath id="clippath-9">
      <rect class="st0" x="247" y="51.9" width="1" height="238.1"/>
    </clipPath>
    <clipPath id="clippath-10">
      <rect class="st0" x="291.5" y="51.9" width="1.8" height="238.1"/>
    </clipPath>
    <clipPath id="clippath-11">
      <rect class="st0" x="46.2" y="279.1" width="299.4" height="1.5"/>
    </clipPath>
    <clipPath id="clippath-12">
      <rect class="st0" x="46.2" y="233.1" width="299.4" height="1.5"/>
    </clipPath>
    <clipPath id="clippath-13">
      <rect class="st0" x="46.2" y="187.8" width="299.4" height="1.5"/>
    </clipPath>
    <clipPath id="clippath-14">
      <rect class="st0" x="46.2" y="142.4" width="299.4" height="1.5"/>
    </clipPath>
    <clipPath id="clippath-15">
      <rect class="st0" x="46.2" y="97" width="299.4" height="1.5"/>
    </clipPath>
    <clipPath id="clippath-16">
      <rect class="st0" x="46.2" y="52.1" width="299.4" height="1.9"/>
    </clipPath>
    <clipPath id="clippath-17">
      <rect class="st0" x="88.8" y="51.9" width="1.8" height="238.1"/>
    </clipPath>
    <clipPath id="clippath-18">
      <rect class="st0" x="134.2" y="51.9" width="1.8" height="238.1"/>
    </clipPath>
    <clipPath id="clippath-19">
      <rect class="st0" x="178.8" y="51.9" width="1.8" height="238.1"/>
    </clipPath>
    <clipPath id="clippath-20">
      <rect class="st0" x="224.2" y="51.9" width="1.8" height="238.1"/>
    </clipPath>
    <clipPath id="clippath-21">
      <rect class="st0" x="268.8" y="51.9" width="1.8" height="238.1"/>
    </clipPath>
    <clipPath id="clippath-22">
      <rect class="st0" x="314.2" y="51.9" width="1.8" height="238.1"/>
    </clipPath>
  </defs>
  <g class="st33">
    <path class="st2" d="M46.2,256.5h299.4"/>
  </g>
  <g class="st22">
    <path class="st2" d="M46.2,211.2h299.4"/>
  </g>
  <g class="st25">
    <path class="st2" d="M46.2,165.9h299.4"/>
  </g>
  <g class="st23">
    <path class="st2" d="M46.2,120.6h299.4"/>
  </g>
  <g class="st24">
    <path class="st2" d="M46.2,75.3h299.4"/>
  </g>
  <g class="st30">
    <path class="st2" d="M67.3,290V51.9"/>
  </g>
  <g class="st27">
    <path class="st2" d="M112.4,290V51.9"/>
  </g>
  <g class="st26">
    <path class="st2" d="M157.4,290V51.9"/>
  </g>
  <g class="st29">
    <path class="st2" d="M202.5,290V51.9"/>
  </g>
  <g class="st28">
    <path class="st2" d="M247.5,290V51.9"/>
  </g>
  <g class="st14">
    <path class="st2" d="M292.6,290V51.9"/>
  </g>
  <g class="st11">
    <path class="st1" d="M46.2,279.8h299.4"/>
  </g>
  <g class="st18">
    <path class="st1" d="M46.2,233.9h299.4"/>
  </g>
  <g class="st16">
    <path class="st1" d="M46.2,188.6h299.4"/>
  </g>
  <g class="st17">
    <path class="st1" d="M46.2,143.3h299.4"/>
  </g>
  <g class="st15">
    <path class="st1" d="M46.2,98h299.4"/>
  </g>
  <g class="st12">
    <path class="st1" d="M46.2,52.8h299.4"/>
  </g>
  <g class="st9">
    <path class="st1" d="M89.8,290V51.9"/>
  </g>
  <g class="st13">
    <path class="st1" d="M134.8,290V51.9"/>
  </g>
  <g class="st10">
    <path class="st1" d="M179.9,290V51.9"/>
  </g>
  <g class="st19">
    <path class="st1" d="M225,290V51.9"/>
  </g>
  <g class="st20">
    <path class="st1" d="M270.1,290V51.9"/>
  </g>
  <g class="st21">
    <path class="st1" d="M315.1,290V51.9"/>
  </g>
  <path class="st32" d="M59.8,210.4l3.5-.2,3.5-.6,3.5-.9,3.5-1.3,3.5-1.6,3.5-1.3,3.5-1.2,3.5-1.1,3.5-1.2,3.5-1.4,3.5-1.5,3.5-1.7,3.5-1.9,3.5-2,3.5-2.1,3.5-2.2,3.5-2.4,3.5-2.5,3.5-2.4,3.5-2.2,3.5-2.2,3.5-2.4,3.5-2.5,3.5-2.5,3.5-2.4,3.5-2.2,3.5-2.1,3.5-2.2,3.5-2.3,3.5-2.4,3.5-2.3,3.5-1.9,3.5-1.9,3.5-2,3.5-2.2,3.5-2.3,3.5-2.2,3.5-2.2,3.5-1.9,3.5-1.8,3.5-1.8,3.5-2,3.5-2.2,3.5-2.2,3.5-2.1,3.5-2,3.5-2,3.5-1.9,3.5-1.6,3.5-.9,3.5-.2h3.5l3.5-.3,3.5-.3,3.5-.4,3.5-.5,3.5-.7,3.5-1,3.5-1.2,3.5-1.4,3.5-1.5,3.5-1.7,3.5-1.9,3.5-2.1,3.5-2.1,3.5-2.1,3.5-2,3.5-2.2,3.5-2.4,3.5-2.6,3.5-2.5,3.5-2.3,3.5-2.3,3.5-3,3.5-3.7,3.5-3.7,3.5-3.4,3.5-3,3.5-2.6v192.9l-3.5.3-3.5.4-3.5.4-3.5.5-3.5.4-3.5.3-3.5.3-3.5.3-3.5.3-3.5.3-3.5.3-3.5.2-3.5.2-3.5.2-3.5.3-3.5.2-3.5.2-3.5.2-3.5.2-3.5.2-3.5.2h-3.5c0,.1-3.5.2-3.5.2h-7c0,.1-3.5.1-3.5.1h-14c0,.1-3.5.3-3.5.3l-3.5.2-3.5.2-3.5.3-3.5.3-3.5.3-3.5.2-3.5.2-3.5.2-3.5.2-3.5.3-3.5.3-3.5.2-3.5.2-3.5.2-3.5.2-3.5.2-3.5.3-3.5.3-3.5.3-3.5.2-3.5.3-3.5.3-3.5.3-3.5.3-3.5.3-3.5.3-3.5.3-3.5.3-3.5.3-3.5.3-3.5.3-3.5.3-3.5.2-3.5.3-3.5.3-3.5.3-3.5.2-3.5.2-3.5.2h-3.5c0,.1-3.5.3-3.5.3h-3.5c0,.1-3.5.3-3.5.3l-3.5.2h-3.5c0,.1-3.5.2-3.5.2h-7c0,.1,0-62.7,0-62.7v-.4h0Z"/>
  <path class="st31" d="M59.8,273.2h7c0-.1,3.5-.1,3.5-.1l3.5-.2,3.5-.2,3.5-.2h3.5c0-.1,3.5-.3,3.5-.3h3.5c0-.1,3.5-.3,3.5-.3l3.5-.2,3.5-.2,3.5-.3,3.5-.3,3.5-.3,3.5-.2,3.5-.3,3.5-.3,3.5-.3,3.5-.3,3.5-.3,3.5-.3,3.5-.3,3.5-.3,3.5-.3,3.5-.3,3.5-.3,3.5-.3,3.5-.2,3.5-.3,3.5-.3,3.5-.3,3.5-.2,3.5-.2,3.5-.2,3.5-.2,3.5-.2,3.5-.3,3.5-.3,3.5-.2,3.5-.2,3.5-.2,3.5-.2,3.5-.3,3.5-.3,3.5-.3,3.5-.2,3.5-.2,3.5-.2h3.5c0-.1,3.5-.1,3.5-.1h17.5l3.5-.2h3.5c0-.1,3.5-.3,3.5-.3l3.5-.2,3.5-.2,3.5-.2,3.5-.2,3.5-.2,3.5-.3,3.5-.2,3.5-.2,3.5-.2,3.5-.3,3.5-.3,3.5-.3,3.5-.3,3.5-.3,3.5-.3,3.5-.4,3.5-.5,3.5-.4,3.5-.4,3.5-.3v23.5H59.8v-6,.2h0Z"/>
  <rect class="st32" x="30.2" y="316.3" width="13.1" height="13.1" rx="2.3" ry="2.3"/>
  <rect class="st31" x="117.5" y="316.6" width="13.2" height="13.2" rx="2.4" ry="2.4"/>
  <text class="st6" transform="translate(48.3 326)"><tspan x="0" y="0">Male Players</tspan></text>
  <g class="st5">
    <g class="st5">
      <text class="st6" transform="translate(137.5 326.3)"><tspan x="0" y="0">Female Players</tspan></text>
    </g>
  </g>
  <g class="st5">
    <g class="st5">
      <text class="st7" transform="translate(253.4 338.5)"><tspan x="0" y="0">Created by: jpmoore | Source: ratings.fide.com</tspan></text>
    </g>
  </g>
  <g class="st5">
    <text class="st3" transform="translate(28.6 236.6)"><tspan x="0" y="0">100</tspan></text>
  </g>
  <g class="st5">
    <text class="st3" transform="translate(28.6 191.7)"><tspan x="0" y="0">200</tspan></text>
  </g>
  <g class="st5">
    <text class="st3" transform="translate(28.6 146.4)"><tspan x="0" y="0">300</tspan></text>
  </g>
  <g class="st5">
    <text class="st3" transform="translate(28.6 100.3)"><tspan x="0" y="0">400</tspan></text>
  </g>
  <g class="st5">
    <text class="st3" transform="translate(28.6 54.8)"><tspan x="0" y="0">500</tspan></text>
  </g>
  <g class="st5">
    <text class="st3" transform="translate(38.2 281.7)"><tspan x="0" y="0">0</tspan></text>
  </g>
  <g class="st5">
    <g class="st5">
      <text class="st4" transform="translate(76.9 299.8) scale(1.1 1)"><tspan x="0" y="0">2014</tspan></text>
    </g>
  </g>
  <g class="st5">
    <g class="st5">
      <text class="st4" transform="translate(120.8 299.8) scale(1.1 1)"><tspan x="0" y="0">2016</tspan></text>
    </g>
  </g>
  <g class="st5">
    <g class="st5">
      <text class="st4" transform="translate(166.9 299.8) scale(1.1 1)"><tspan x="0" y="0">2018</tspan></text>
    </g>
  </g>
  <g class="st5">
    <g class="st5">
      <text class="st4" transform="translate(211.6 299.8) scale(1.1 1)"><tspan x="0" y="0">2020</tspan></text>
    </g>
  </g>
  <g class="st5">
    <g class="st5">
      <text class="st4" transform="translate(257.2 299.8) scale(1.1 1)"><tspan x="0" y="0">2022</tspan></text>
    </g>
  </g>
  <g class="st5">
    <g class="st5">
      <text class="st4" transform="translate(302.1 299.8) scale(1.1 1)"><tspan x="0" y="0">2024</tspan></text>
    </g>
  </g>
  <g class="st5">
    <text class="st8" transform="translate(103.1 28.7)"><tspan x="0" y="0">Total Registered Players (’000)</tspan></text>
  </g>
</svg>