<?xml version="1.0" encoding="UTF-8"?>
<svg id="Layer_1" xmlns="http://www.w3.org/2000/svg" xmlns:xlink="http://www.w3.org/1999/xlink" version="1.1" viewBox="0 0 386 344">
  <!-- Generator: Adobe Illustrator 29.0.0, SVG Export Plug-In . SVG Version: 2.1.0 Build 186)  -->
  <defs>
    <style>
      .st0, .st1, .st2 {
        fill: none;
      }

      .st3 {
        font-size: 8px;
      }

      .st3, .st4, .st5, .st6 {
        isolation: isolate;
      }

      .st3, .st5, .st6 {
        font-family: TamilSangamMN, 'Tamil Sangam MN';
      }

      .st7 {
        fill: #d28a7f;
      }

      .st8 {
        fill: #618b7d;
      }

      .st9 {
        clip-path: url(#clippath-17);
      }

      .st10 {
        clip-path: url(#clippath-19);
      }

      .st11 {
        clip-path: url(#clippath-11);
      }

      .st12 {
        clip-path: url(#clippath-16);
      }

      .st13 {
        clip-path: url(#clippath-18);
      }

      .st14 {
        clip-path: url(#clippath-10);
      }

      .st15 {
        clip-path: url(#clippath-15);
      }

      .st16 {
        clip-path: url(#clippath-13);
      }

      .st17 {
        clip-path: url(#clippath-14);
      }

      .st18 {
        clip-path: url(#clippath-12);
      }

      .st19 {
        clip-path: url(#clippath-20);
      }

      .st20 {
        clip-path: url(#clippath-1);
      }

      .st21 {
        clip-path: url(#clippath-3);
      }

      .st22 {
        clip-path: url(#clippath-4);
      }

      .st23 {
        clip-path: url(#clippath-2);
      }

      .st24 {
        clip-path: url(#clippath-7);
      }

      .st25 {
        clip-path: url(#clippath-6);
      }

      .st26 {
        clip-path: url(#clippath-9);
      }

      .st27 {
        clip-path: url(#clippath-8);
      }

      .st28 {
        clip-path: url(#clippath-5);
      }

      .st5 {
        font-size: 12px;
      }

      .st6 {
        font-size: 6px;
      }

      .st1 {
        stroke-width: 1.1px;
      }

      .st1, .st2 {
        stroke: #ebebeb;
        stroke-linejoin: round;
      }

      .st29 {
        clip-path: url(#clippath);
      }

      .st2 {
        stroke-width: .5px;
      }
    </style>
    <clipPath id="clippath">
      <rect class="st0" x="52.4" y="250.5" width="293.6" height=".8"/>
    </clipPath>
    <clipPath id="clippath-1">
      <rect class="st0" x="52.4" y="194.3" width="293.6" height="1.5"/>
    </clipPath>
    <clipPath id="clippath-2">
      <rect class="st0" x="52.4" y="138.1" width="293.6" height="1.5"/>
    </clipPath>
    <clipPath id="clippath-3">
      <rect class="st0" x="52.4" y="82.7" width="293.6" height=".8"/>
    </clipPath>
    <clipPath id="clippath-4">
      <rect class="st0" x="72.4" y="43.8" width="1.7" height="246.4"/>
    </clipPath>
    <clipPath id="clippath-5">
      <rect class="st0" x="116.8" y="43.8" width=".9" height="246.4"/>
    </clipPath>
    <clipPath id="clippath-6">
      <rect class="st0" x="161.2" y="43.8" width=".9" height="246.4"/>
    </clipPath>
    <clipPath id="clippath-7">
      <rect class="st0" x="204.7" y="43.8" width="1.7" height="246.4"/>
    </clipPath>
    <clipPath id="clippath-8">
      <rect class="st0" x="249.1" y="43.8" width="1.7" height="246.4"/>
    </clipPath>
    <clipPath id="clippath-9">
      <rect class="st0" x="293.5" y="43.8" width=".9" height="246.4"/>
    </clipPath>
    <clipPath id="clippath-10">
      <rect class="st0" x="52.4" y="278.3" width="293.6" height="1.5"/>
    </clipPath>
    <clipPath id="clippath-11">
      <rect class="st0" x="52.4" y="222.1" width="293.6" height="1.5"/>
    </clipPath>
    <clipPath id="clippath-12">
      <rect class="st0" x="52.4" y="165.8" width="293.6" height="1.5"/>
    </clipPath>
    <clipPath id="clippath-13">
      <rect class="st0" x="52.4" y="110.4" width="293.6" height="1.5"/>
    </clipPath>
    <clipPath id="clippath-14">
      <rect class="st0" x="52.4" y="54.2" width="293.6" height="1.5"/>
    </clipPath>
    <clipPath id="clippath-15">
      <rect class="st0" x="94.6" y="43.8" width="1.7" height="246.4"/>
    </clipPath>
    <clipPath id="clippath-16">
      <rect class="st0" x="138.1" y="43.8" width="1.7" height="246.4"/>
    </clipPath>
    <clipPath id="clippath-17">
      <rect class="st0" x="182.5" y="43.8" width="1.7" height="246.4"/>
    </clipPath>
    <clipPath id="clippath-18">
      <rect class="st0" x="226.9" y="43.8" width="1.7" height="246.4"/>
    </clipPath>
    <clipPath id="clippath-19">
      <rect class="st0" x="271.3" y="43.8" width="1.7" height="246.4"/>
    </clipPath>
    <clipPath id="clippath-20">
      <rect class="st0" x="314.8" y="43.8" width="2.6" height="246.4"/>
    </clipPath>
  </defs>
  <g class="st29">
    <path class="st2" d="M52.4,251h293.6"/>
  </g>
  <g class="st20">
    <path class="st2" d="M52.4,195h293.6"/>
  </g>
  <g class="st23">
    <path class="st2" d="M52.4,139h293.6"/>
  </g>
  <g class="st21">
    <path class="st2" d="M52.4,83h293.6"/>
  </g>
  <g class="st22">
    <path class="st2" d="M73.1,290.2V43.8"/>
  </g>
  <g class="st28">
    <path class="st2" d="M117.3,290.2V43.8"/>
  </g>
  <g class="st25">
    <path class="st2" d="M161.4,290.2V43.8"/>
  </g>
  <g class="st24">
    <path class="st2" d="M205.6,290.2V43.8"/>
  </g>
  <g class="st27">
    <path class="st2" d="M249.8,290.2V43.8"/>
  </g>
  <g class="st26">
    <path class="st2" d="M294,290.2V43.8"/>
  </g>
  <g class="st14">
    <path class="st1" d="M52.4,279h293.6"/>
  </g>
  <g class="st11">
    <path class="st1" d="M52.4,223h293.6"/>
  </g>
  <g class="st18">
    <path class="st1" d="M52.4,167h293.6"/>
  </g>
  <g class="st16">
    <path class="st1" d="M52.4,111h293.6"/>
  </g>
  <g class="st17">
    <path class="st1" d="M52.4,55h293.6"/>
  </g>
  <g class="st15">
    <path class="st1" d="M95.2,290.2V43.8"/>
  </g>
  <g class="st12">
    <path class="st1" d="M139.3,290.2V43.8"/>
  </g>
  <g class="st9">
    <path class="st1" d="M183.6,290.2V43.8"/>
  </g>
  <g class="st13">
    <path class="st1" d="M227.7,290.2V43.8"/>
  </g>
  <g class="st10">
    <path class="st1" d="M271.9,290.2V43.8"/>
  </g>
  <g class="st19">
    <path class="st1" d="M316.1,290.2V43.8"/>
  </g>
  <path class="st8" d="M65.7,55h266.9v88.7l-3.4.3h-3.4c0,.1-3.4.2-3.4.2l-3.4-.2-3.4-.4-3.4-.4-3.4-.4-3.4-.3-3.4-.5-3.4-.6-3.4,1-3.4,1.9-3.4.6-3.4-2.7-3.4-4.9-3.4-3-3.4,1.8-3.4,5.8-3.4,5.8-3.4,4.3-3.4,3.6-3.4,4.6-3.4,5.5-3.4,4.8-3.4-3.8-3.4-9.7-3.4-7.9-3.4.9-3.4,7.9-3.4,5.1-3.4,1.9-3.4.3h-3.4l-3.4.4-3.4,1.1-3.4,1.5-3.4,1.5-3.4,1-3.4.8-3.4.8-3.4,1-3.4,1.4-3.4,1.5-3.4,1.2-3.4.9-3.4.6-3.4.7-3.4,1.1-3.4,1.4-3.4,1.2-3.4.6-3.4.2-3.4.2-3.4.7-3.4.6-3.4.2-3.4-.2-3.4-.4-3.4-.2-3.4-.2-3.4-.2h-3.4c0-.1-3.4-.2-3.4-.2l-3.4-.2-3.4-.6-3.4-.6h-3.4l-3.4,1-3.4,1.6-3.4,1.1-3.4.2h-3.4l-3.4-.3-3.4-.8h-3.4l-3.4.5-3.4.7-3.4.9-3.4.9V55h1.7Z"/>
  <path class="st7" d="M64,188.5l3.4-.9,3.4-.9,3.4-.7,3.4-.5h3.4l3.4.9,3.4.3h3.4l3.4-.2,3.4-1.1,3.4-1.6,3.4-1h3.4l3.4.6,3.4.6,3.4.2h3.4l3.4.2,3.4.2,3.4.2,3.4.2,3.4.4,3.4.2,3.4-.2,3.4-.6,3.4-.7,3.4-.2,3.4-.2,3.4-.6,3.4-1.2,3.4-1.4,3.4-1.1,3.4-.7,3.4-.6,3.4-.9,3.4-1.2,3.4-1.5,3.4-1.4,3.4-1,3.4-.8,3.4-.8,3.4-1,3.4-1.5,3.4-1.5,3.4-1.1,3.4-.5h3.4l3.4-.2,3.4-1.9,3.4-5.1,3.4-7.9,3.4-.9,3.4,7.9,3.4,9.7,3.4,3.8,3.4-4.8,3.4-5.5,3.4-4.6,3.4-3.6,3.4-4.3,3.4-5.8,3.4-5.8,3.4-1.8,3.4,3,3.4,4.9,3.4,2.7,3.4-.6,3.4-1.9,3.4-1,3.4.6,3.4.5,3.4.3,3.4.4,3.4.4,3.4.4,3.4.2h3.4l3.4-.2,3.4-.3v135.3H64v-90.2h0Z"/>
  <g>
    <rect class="st8" x="149.4" y="315.8" width="10.8" height="10.8" rx="1.9" ry="1.9"/>
    <rect class="st7" x="201.3" y="315.8" width="10.8" height="10.8" rx="2" ry="2"/>
    <g class="st4">
      <text class="st3" transform="translate(165.5 324)"><tspan x="0" y="0">Active</tspan></text>
    </g>
    <g class="st4">
      <g class="st4">
        <g class="st4">
          <text class="st3" transform="translate(218.7 324.3)"><tspan x="0" y="0">Inactive</tspan></text>
        </g>
      </g>
    </g>
  </g>
  <g class="st4">
    <g class="st4">
      <g class="st4">
        <text class="st6" transform="translate(138.3 342.5)"><tspan x="0" y="0">Created by: jpmoore | Source: ratings.fide.com</tspan></text>
      </g>
    </g>
  </g>
  <g class="st4">
    <g class="st4">
      <g class="st4">
        <text class="st3" transform="translate(81.9 298.4) scale(1.1 1)"><tspan x="0" y="0">2014</tspan></text>
      </g>
    </g>
  </g>
  <g class="st4">
    <g class="st4">
      <g class="st4">
        <text class="st3" transform="translate(125.8 298.4) scale(1.1 1)"><tspan x="0" y="0">2016</tspan></text>
      </g>
    </g>
  </g>
  <g class="st4">
    <g class="st4">
      <g class="st4">
        <text class="st3" transform="translate(171.9 298.4) scale(1.1 1)"><tspan x="0" y="0">2018</tspan></text>
      </g>
    </g>
  </g>
  <g class="st4">
    <g class="st4">
      <g class="st4">
        <text class="st3" transform="translate(216.6 298.4) scale(1.1 1)"><tspan x="0" y="0">2020</tspan></text>
      </g>
    </g>
  </g>
  <g class="st4">
    <g class="st4">
      <g class="st4">
        <text class="st3" transform="translate(262.2 298.4) scale(1.1 1)"><tspan x="0" y="0">2022</tspan></text>
      </g>
    </g>
  </g>
  <g class="st4">
    <g class="st4">
      <g class="st4">
        <text class="st3" transform="translate(307.1 298.4) scale(1.1 1)"><tspan x="0" y="0">2024</tspan></text>
      </g>
    </g>
  </g>
  <g class="st4">
    <text class="st5" transform="translate(82.7 28.7)"><tspan x="0" y="0">Proportion of Actively Competing FIDE Players</tspan></text>
  </g>
  <g class="st4">
    <g class="st4">
      <g class="st4">
        <text class="st3" transform="translate(44.2 281.8) scale(1.1 1)"><tspan x="0" y="0">0</tspan></text>
      </g>
    </g>
  </g>
  <g class="st4">
    <g class="st4">
      <g class="st4">
        <text class="st3" transform="translate(39.4 225.8) scale(1.1 1)"><tspan x="0" y="0">25</tspan></text>
      </g>
    </g>
  </g>
  <g class="st4">
    <g class="st4">
      <g class="st4">
        <text class="st3" transform="translate(39.4 169.5) scale(1.1 1)"><tspan x="0" y="0">50</tspan></text>
      </g>
    </g>
  </g>
  <g class="st4">
    <g class="st4">
      <g class="st4">
        <text class="st3" transform="translate(39.4 113.6) scale(1.1 1)"><tspan x="0" y="0">75</tspan></text>
      </g>
    </g>
  </g>
  <g class="st4">
    <g class="st4">
      <g class="st4">
        <text class="st3" transform="translate(34.5 57.1) scale(1.1 1)"><tspan x="0" y="0">100</tspan></text>
      </g>
    </g>
  </g>
  <g class="st4">
    <g class="st4">
      <g class="st4">
        <text class="st3" transform="translate(11.5 169.5)"><tspan x="0" y="0">(%)</tspan></text>
      </g>
    </g>
  </g>
</svg>