<?xml version="1.0" encoding="UTF-8"?>
<svg id="Layer_1" xmlns="http://www.w3.org/2000/svg" xmlns:xlink="http://www.w3.org/1999/xlink" version="1.1" viewBox="0 0 377 219.3">
  <!-- Generator: Adobe Illustrator 29.0.0, SVG Export Plug-In . SVG Version: 2.1.0 Build 186)  -->
  <defs>
    <style>
      .st0, .st1, .st2, .st3 {
        fill: none;
      }

      .st4 {
        fill: #aec6b3;
      }

      .st5 {
        fill: #579363;
      }

      .st6, .st7, .st8, .st9, .st10, .st11 {
        isolation: isolate;
      }

      .st12 {
        clip-path: url(#clippath-17);
      }

      .st13 {
        clip-path: url(#clippath-19);
      }

      .st14 {
        clip-path: url(#clippath-11);
      }

      .st15 {
        clip-path: url(#clippath-16);
      }

      .st16 {
        clip-path: url(#clippath-18);
      }

      .st17 {
        clip-path: url(#clippath-10);
      }

      .st18 {
        clip-path: url(#clippath-15);
      }

      .st19 {
        clip-path: url(#clippath-13);
      }

      .st20 {
        clip-path: url(#clippath-14);
      }

      .st21 {
        clip-path: url(#clippath-12);
      }

      .st22 {
        clip-path: url(#clippath-31);
      }

      .st23 {
        clip-path: url(#clippath-32);
      }

      .st24 {
        clip-path: url(#clippath-33);
      }

      .st25 {
        clip-path: url(#clippath-34);
      }

      .st26 {
        clip-path: url(#clippath-35);
      }

      .st27 {
        clip-path: url(#clippath-39);
      }

      .st28 {
        clip-path: url(#clippath-30);
      }

      .st29 {
        clip-path: url(#clippath-36);
      }

      .st30 {
        clip-path: url(#clippath-37);
      }

      .st31 {
        clip-path: url(#clippath-38);
      }

      .st32 {
        clip-path: url(#clippath-27);
      }

      .st33 {
        clip-path: url(#clippath-29);
      }

      .st34 {
        clip-path: url(#clippath-26);
      }

      .st35 {
        clip-path: url(#clippath-28);
      }

      .st36 {
        clip-path: url(#clippath-20);
      }

      .st37 {
        clip-path: url(#clippath-21);
      }

      .st38 {
        clip-path: url(#clippath-22);
      }

      .st39 {
        clip-path: url(#clippath-23);
      }

      .st40 {
        clip-path: url(#clippath-24);
      }

      .st41 {
        clip-path: url(#clippath-25);
      }

      .st42 {
        clip-path: url(#clippath-41);
      }

      .st43 {
        clip-path: url(#clippath-40);
      }

      .st44 {
        clip-path: url(#clippath-1);
      }

      .st45 {
        clip-path: url(#clippath-3);
      }

      .st46 {
        clip-path: url(#clippath-4);
      }

      .st47 {
        clip-path: url(#clippath-2);
      }

      .st48 {
        clip-path: url(#clippath-7);
      }

      .st49 {
        clip-path: url(#clippath-6);
      }

      .st50 {
        clip-path: url(#clippath-9);
      }

      .st51 {
        clip-path: url(#clippath-8);
      }

      .st52 {
        clip-path: url(#clippath-5);
      }

      .st53 {
        fill: #75abb6;
      }

      .st54 {
        fill: #7ba884;
      }

      .st1 {
        stroke: #000;
        stroke-miterlimit: 10;
        stroke-width: .2px;
      }

      .st55 {
        fill: #abc7cd;
      }

      .st7 {
        font-size: 6px;
      }

      .st7, .st8, .st9 {
        font-family: TamilSangamMN, 'Tamil Sangam MN';
      }

      .st8, .st11 {
        font-size: 7px;
      }

      .st2 {
        stroke-width: 1.1px;
      }

      .st2, .st3 {
        stroke: #ebebeb;
        stroke-linejoin: round;
      }

      .st9 {
        font-size: 14px;
      }

      .st56 {
        fill: #327988;
      }

      .st10 {
        font-size: 7.5px;
      }

      .st10, .st11 {
        font-family: MyanmarSangamMN, 'Myanmar Sangam MN';
      }

      .st57 {
        clip-path: url(#clippath);
      }

      .st3 {
        stroke-width: .5px;
      }
    </style>
    <clipPath id="clippath">
      <rect class="st0" x="37.1" y="152.7" width="127.1" height=".4"/>
    </clipPath>
    <clipPath id="clippath-1">
      <rect class="st0" x="37.1" y="124.5" width="127.1" height=".8"/>
    </clipPath>
    <clipPath id="clippath-2">
      <rect class="st0" x="37.1" y="96.4" width="127.1" height=".8"/>
    </clipPath>
    <clipPath id="clippath-3">
      <rect class="st0" x="37.1" y="68.6" width="127.1" height=".4"/>
    </clipPath>
    <clipPath id="clippath-4">
      <rect class="st0" x="45.7" y="49.2" width=".8" height="123.3"/>
    </clipPath>
    <clipPath id="clippath-5">
      <rect class="st0" x="64.9" y="49.2" width=".8" height="123.3"/>
    </clipPath>
    <clipPath id="clippath-6">
      <rect class="st0" x="84" y="49.2" width=".4" height="123.3"/>
    </clipPath>
    <clipPath id="clippath-7">
      <rect class="st0" x="103.2" y="49.2" width=".4" height="123.3"/>
    </clipPath>
    <clipPath id="clippath-8">
      <rect class="st0" x="122.4" y="49.2" width=".4" height="123.3"/>
    </clipPath>
    <clipPath id="clippath-9">
      <rect class="st0" x="141.2" y="49.2" width=".8" height="123.3"/>
    </clipPath>
    <clipPath id="clippath-10">
      <rect class="st0" x="37.1" y="166.5" width="127.1" height=".8"/>
    </clipPath>
    <clipPath id="clippath-11">
      <rect class="st0" x="37.1" y="138.4" width="127.1" height=".8"/>
    </clipPath>
    <clipPath id="clippath-12">
      <rect class="st0" x="37.1" y="110.3" width="127.1" height=".8"/>
    </clipPath>
    <clipPath id="clippath-13">
      <rect class="st0" x="37.1" y="82.5" width="127.1" height=".8"/>
    </clipPath>
    <clipPath id="clippath-14">
      <rect class="st0" x="37.1" y="54.4" width="127.1" height=".8"/>
    </clipPath>
    <clipPath id="clippath-15">
      <rect class="st0" x="55.3" y="49.2" width=".8" height="123.3"/>
    </clipPath>
    <clipPath id="clippath-16">
      <rect class="st0" x="74.4" y="49.2" width=".8" height="123.3"/>
    </clipPath>
    <clipPath id="clippath-17">
      <rect class="st0" x="93.6" y="49.2" width=".8" height="123.3"/>
    </clipPath>
    <clipPath id="clippath-18">
      <rect class="st0" x="112.4" y="49.2" width=".8" height="123.3"/>
    </clipPath>
    <clipPath id="clippath-19">
      <rect class="st0" x="131.6" y="49.2" width=".8" height="123.3"/>
    </clipPath>
    <clipPath id="clippath-20">
      <rect class="st0" x="150.8" y="49.2" width=".8" height="123.3"/>
    </clipPath>
    <clipPath id="clippath-21">
      <rect class="st0" x="210.8" y="152.2" width="128.4" height=".4"/>
    </clipPath>
    <clipPath id="clippath-22">
      <rect class="st0" x="210.8" y="124.3" width="128.4" height=".8"/>
    </clipPath>
    <clipPath id="clippath-23">
      <rect class="st0" x="210.8" y="96.3" width="128.4" height=".8"/>
    </clipPath>
    <clipPath id="clippath-24">
      <rect class="st0" x="210.8" y="68.7" width="128.4" height=".4"/>
    </clipPath>
    <clipPath id="clippath-25">
      <rect class="st0" x="219.5" y="49.4" width=".8" height="122.5"/>
    </clipPath>
    <clipPath id="clippath-26">
      <rect class="st0" x="238.9" y="49.4" width=".8" height="122.5"/>
    </clipPath>
    <clipPath id="clippath-27">
      <rect class="st0" x="258.2" y="49.4" width=".4" height="122.5"/>
    </clipPath>
    <clipPath id="clippath-28">
      <rect class="st0" x="277.6" y="49.4" width=".4" height="122.5"/>
    </clipPath>
    <clipPath id="clippath-29">
      <rect class="st0" x="297" y="49.4" width=".4" height="122.5"/>
    </clipPath>
    <clipPath id="clippath-30">
      <rect class="st0" x="316" y="49.4" width=".8" height="122.5"/>
    </clipPath>
    <clipPath id="clippath-31">
      <rect class="st0" x="210.8" y="166" width="128.4" height=".8"/>
    </clipPath>
    <clipPath id="clippath-32">
      <rect class="st0" x="210.8" y="138" width="128.4" height=".8"/>
    </clipPath>
    <clipPath id="clippath-33">
      <rect class="st0" x="210.8" y="110.1" width="128.4" height=".8"/>
    </clipPath>
    <clipPath id="clippath-34">
      <rect class="st0" x="210.8" y="82.5" width="128.4" height=".8"/>
    </clipPath>
    <clipPath id="clippath-35">
      <rect class="st0" x="210.8" y="54.5" width="128.4" height=".8"/>
    </clipPath>
    <clipPath id="clippath-36">
      <rect class="st0" x="229.2" y="49.4" width=".8" height="122.5"/>
    </clipPath>
    <clipPath id="clippath-37">
      <rect class="st0" x="248.5" y="49.4" width=".8" height="122.5"/>
    </clipPath>
    <clipPath id="clippath-38">
      <rect class="st0" x="267.9" y="49.4" width=".8" height="122.5"/>
    </clipPath>
    <clipPath id="clippath-39">
      <rect class="st0" x="286.9" y="49.4" width=".8" height="122.5"/>
    </clipPath>
    <clipPath id="clippath-40">
      <rect class="st0" x="306.3" y="49.4" width=".8" height="122.5"/>
    </clipPath>
    <clipPath id="clippath-41">
      <rect class="st0" x="325.7" y="49.4" width=".8" height="122.5"/>
    </clipPath>
  </defs>
  <g class="st6">
    <g class="st6">
      <g class="st6">
        <g class="st6">
          <text class="st7" transform="translate(132.4 213)"><tspan x="0" y="0">Created by: jpmoore | Source: ratings.fide.com</tspan></text>
        </g>
      </g>
    </g>
  </g>
  <g class="st6">
    <g class="st6">
      <text class="st10" transform="translate(46.1 182.7) scale(1.1 1)"><tspan x="0" y="0">2014</tspan></text>
    </g>
  </g>
  <g class="st6">
    <g class="st6">
      <g class="st6">
        <g class="st6">
          <text class="st10" transform="translate(93.6 182.7) scale(1.1 1)"><tspan x="0" y="0">2019</tspan></text>
        </g>
      </g>
    </g>
  </g>
  <g class="st6">
    <g class="st6">
      <g class="st6">
        <g class="st6">
          <text class="st10" transform="translate(142 182.8) scale(1.1 1)"><tspan x="0" y="0">2024</tspan></text>
        </g>
      </g>
    </g>
  </g>
  <g class="st57">
    <path class="st3" d="M37.1,152.9h127.1"/>
  </g>
  <g class="st44">
    <path class="st3" d="M37.1,124.8h127.1"/>
  </g>
  <g class="st47">
    <path class="st3" d="M37.1,96.8h127.1"/>
  </g>
  <g class="st45">
    <path class="st3" d="M37.1,68.8h127.1"/>
  </g>
  <g class="st46">
    <path class="st3" d="M46,172.5V49.2"/>
  </g>
  <g class="st52">
    <path class="st3" d="M65.2,172.5V49.2"/>
  </g>
  <g class="st49">
    <path class="st3" d="M84.3,172.5V49.2"/>
  </g>
  <g class="st48">
    <path class="st3" d="M103.4,172.5V49.2"/>
  </g>
  <g class="st51">
    <path class="st3" d="M122.6,172.5V49.2"/>
  </g>
  <g class="st50">
    <path class="st3" d="M141.7,172.5V49.2"/>
  </g>
  <g class="st17">
    <path class="st2" d="M37.1,166.9h127.1"/>
  </g>
  <g class="st14">
    <path class="st2" d="M37.1,138.8h127.1"/>
  </g>
  <g class="st21">
    <path class="st2" d="M37.1,110.8h127.1"/>
  </g>
  <g class="st19">
    <path class="st2" d="M37.1,82.8h127.1"/>
  </g>
  <g class="st20">
    <path class="st2" d="M37.1,54.8h127.1"/>
  </g>
  <g class="st18">
    <path class="st2" d="M55.6,172.5V49.2"/>
  </g>
  <g class="st15">
    <path class="st2" d="M74.7,172.5V49.2"/>
  </g>
  <g class="st12">
    <path class="st2" d="M93.9,172.5V49.2"/>
  </g>
  <g class="st16">
    <path class="st2" d="M113,172.5V49.2"/>
  </g>
  <g class="st13">
    <path class="st2" d="M132.1,172.5V49.2"/>
  </g>
  <g class="st36">
    <path class="st2" d="M151.2,172.5V49.2"/>
  </g>
  <path class="st5" d="M42.9,54.8h115.5v57.6l-1.5.9-1.5.8-1.5.7-1.5.7-1.5.6-1.5.5-1.5.4-1.5.5-1.5.5-1.5.3h-1.5l-1.5.2h-1.5l-1.5-.3-1.5-.2h-7.5l-1.5.6h-1.5l-1.5-.4-1.5-.6-1.5-.9-1.5-1.7-1.5-1.4-1.5-1.2-1.5-1.1-1.5-.6h-1.5l-1.5-.2h-1.5l-1.5.3h-1.5l-1.5.4-1.5.2h-1.5l-1.5-.2h-1.5l-1.5-.2h-1.5l-1.5-.4-1.5-.3h-1.5l-1.5-.3h-3l-1.5.2h-4.5l-1.5.5-1.5.4-1.5.5-1.5.8-1.5.8-1.5.6-1.5.6-1.5.8-1.5,1-1.5.9-1.5,1-1.5,1-1.5,1-1.5.9-1.5.9-1.5,1-1.5.9-1.5.4h-1.5l-1.5.4-1.5.4-1.5.2h-3l-1.5-.2-1.5-.3-1.5-.5V54.8h3Z"/>
  <path class="st54" d="M39.9,123.9l1.5.5,1.5.3,1.5.2h3l1.5-.2,1.5-.4,1.5-.3h1.5l1.5-.5,1.5-.9,1.5-1,1.5-.9,1.5-.9,1.5-1,1.5-1,1.5-1,1.5-.9,1.5-1,1.5-.8,1.5-.6,1.5-.6,1.5-.8,1.5-.8,1.5-.5,1.5-.4,1.5-.3h4.5l1.5-.3h4.5l1.5.3,1.5.3,1.5.3h1.5l1.5.2h1.5l1.5.3h1.5l1.5-.2,1.5-.3h1.5l1.5-.3h4.5l1.5.7,1.5,1.1,1.5,1.2,1.5,1.4,1.5,1.7,1.5.9,1.5.6,1.5.4h1.5l1.5-.5h7.5l1.5.2,1.5.2h4.5l1.5-.5,1.5-.5,1.5-.5,1.5-.4,1.5-.5,1.5-.6,1.5-.7,1.5-.7,1.5-.8,1.5-.9v31.3l-1.5,1-1.5.9-1.5.7-1.5.6-1.5.5-1.5.3-1.5.2-1.5.3-1.5.4-1.5.3-1.5.2-1.5.2h-4.5l-1.5.2-1.5.2-1.5.2-1.5.2-1.5.2-1.5.5h-1.5l-1.5-.6-1.5-.8-1.5-1-1.5-1.7-1.5-1.5-1.5-1.3-1.5-1.2-1.5-.8-1.5-.4-1.5-.2h-4.5c0-.1-1.5,0-1.5,0h-1.5l-1.5-.3-1.5-.5-1.5-.3h-1.5l-1.5-.2-1.5-.4-1.5-.4-1.5-.2-1.5-.3-1.5-.2h-1.5l-1.5.4h-1.5c0,.1-1.5,0-1.5,0h-1.5c0,.1-1.5.5-1.5.5l-1.5.4-1.5.5-1.5.7-1.5.6-1.5.3-1.5.3-1.5.7-1.5.9-1.5.9-1.5,1-1.5,1.1-1.5.9-1.5.8-1.5.8-1.5.9-1.5.8-1.5.4h-1.5l-1.5.4-1.5.3-1.5.3h-1.5c0,.1-1.5.2-1.5.2h-1.5l-1.5-.2-1.5-.2v-28.2h0Z"/>
  <path class="st4" d="M39.9,151.9l1.5.2h1.5c0,.1,1.5.2,1.5.2h1.5l1.5-.2,1.5-.3,1.5-.3,1.5-.3h1.5l1.5-.5,1.5-.8,1.5-.9,1.5-.8,1.5-.8,1.5-.9,1.5-1.1,1.5-1,1.5-.9,1.5-.9,1.5-.7,1.5-.3,1.5-.3,1.5-.6,1.5-.7,1.5-.5,1.5-.4,1.5-.4h1.5c0-.1,1.5,0,1.5,0h1.5c0-.1,1.5-.4,1.5-.4h3c0,.1,1.5.4,1.5.4l1.5.2,1.5.4,1.5.4h1.5c0,.1,1.5.2,1.5.2l1.5.3,1.5.5,1.5.3h4.5c0,.1,1.5,0,1.5,0h1.5l1.5.2,1.5.4,1.5.8,1.5,1.2,1.5,1.3,1.5,1.5,1.5,1.7,1.5,1,1.5.8,1.5.6h1.5l1.5-.5,1.5-.2,1.5-.2,1.5-.2,1.5-.2,1.5-.2h4.5l1.5-.3,1.5-.2,1.5-.3,1.5-.4,1.5-.3,1.5-.2,1.5-.3,1.5-.5,1.5-.6,1.5-.7,1.5-.9,1.5-1v23.2H39.9v-14.5h0Z"/>
  <g class="st6">
    <g class="st6">
      <text class="st9" transform="translate(103.2 28.7)"><tspan x="0" y="0">Players by Age and Gender (%)</tspan></text>
    </g>
  </g>
  <g class="st37">
    <path class="st3" d="M210.8,152.4h128.4"/>
  </g>
  <g class="st38">
    <path class="st3" d="M210.8,124.6h128.4"/>
  </g>
  <g class="st39">
    <path class="st3" d="M210.8,96.7h128.4"/>
  </g>
  <g class="st40">
    <path class="st3" d="M210.8,68.9h128.4"/>
  </g>
  <g class="st41">
    <path class="st3" d="M219.9,171.9V49.4"/>
  </g>
  <g class="st34">
    <path class="st3" d="M239.2,171.9V49.4"/>
  </g>
  <g class="st32">
    <path class="st3" d="M258.5,171.9V49.4"/>
  </g>
  <g class="st35">
    <path class="st3" d="M277.8,171.9V49.4"/>
  </g>
  <g class="st33">
    <path class="st3" d="M297.1,171.9V49.4"/>
  </g>
  <g class="st28">
    <path class="st3" d="M316.5,171.9V49.4"/>
  </g>
  <g class="st22">
    <path class="st2" d="M210.8,166.3h128.4"/>
  </g>
  <g class="st23">
    <path class="st2" d="M210.8,138.5h128.4"/>
  </g>
  <g class="st24">
    <path class="st2" d="M210.8,110.6h128.4"/>
  </g>
  <g class="st25">
    <path class="st2" d="M210.8,82.8h128.4"/>
  </g>
  <g class="st26">
    <path class="st2" d="M210.8,54.9h128.4"/>
  </g>
  <g class="st29">
    <path class="st2" d="M229.5,171.9V49.4"/>
  </g>
  <g class="st30">
    <path class="st2" d="M248.8,171.9V49.4"/>
  </g>
  <g class="st31">
    <path class="st2" d="M268.2,171.9V49.4"/>
  </g>
  <g class="st27">
    <path class="st2" d="M287.5,171.9V49.4"/>
  </g>
  <g class="st43">
    <path class="st2" d="M306.8,171.9V49.4"/>
  </g>
  <g class="st42">
    <path class="st2" d="M326.1,171.9V49.4"/>
  </g>
  <path class="st56" d="M216.7,54.9h116.7v86.2l-1.5.9-1.5.8-1.5.7-1.5.6-1.5.5-1.5.4-1.5.3-1.5.3-1.5.3-1.5.2-1.5.2-3,.3h-1.5c0,.1-1.5.2-1.5.2l-1.5.2-1.5.2h-3c0-.1-1.5-.1-1.5-.1h-1.5c0-.1-1.5-.1-1.5-.1,0-.1-1.5-.3-1.5-.3l-1.5-.2-1.5-.3-1.5-.5-1.5-.5-1.5-.5-1.5-.5-1.5-.3-1.5-.2h-4.5c0,.1-1.5.2-1.5.2l-1.5.2-1.5.2h-4.5l-1.5.2h-1.5c0,.1-1.5.1-1.5.1h-12c0,.1-1.5.1-1.5.1,0,.1-1.5.4-1.5.4l-1.5.3-1.5.3-1.5.4-1.5.4-1.5.3-1.5.3-1.5.4-1.5.5-1.5.5-1.5.6-1.5.6-1.5.6-1.5.6-1.5.5-1.5.5-1.5.4-1.5.2h-1.5l-1.5.2h-1.5c0,.1-1.5.2-1.5.2h-4.5l-1.5-.2-1.5-.2V54.9h1.8Z"/>
  <path class="st53" d="M214.9,152.3l1.5.2h1.5c0,.1,1.5.2,1.5.2h4.5l1.5-.2h1.5c0-.1,1.5-.2,1.5-.2l1.5-.2,1.5-.4,1.5-.5,1.5-.5,1.5-.6,1.5-.6,1.5-.6,1.5-.6,1.5-.5,1.5-.5,1.5-.4,1.5-.3,1.5-.3,1.5-.4,1.5-.4,1.5-.3,1.5-.3,1.5-.3h1.5c0-.1,1.5-.2,1.5-.2h3c0-.1,1.5-.1,1.5-.1h9c0-.1,1.5-.2,1.5-.2h4.5l1.5-.2,1.5-.2h1.5c0-.1,1.5-.2,1.5-.2h3l1.5.2,1.5.3,1.5.5,1.5.5,1.5.5,1.5.5,1.5.3,1.5.2,1.5.2h1.5c0,.1,1.5.2,1.5.2h1.5l1.5.2h3c0-.1,1.5-.3,1.5-.3h1.5c0-.1,1.5-.2,1.5-.2l3-.3,1.5-.2,1.5-.2,1.5-.3,1.5-.3,1.5-.3,1.5-.4,1.5-.5,1.5-.6,1.5-.7,1.5-.8,1.5-.9v14.9l-1.5.5-1.5.4-1.5.4-1.5.3-1.5.3-1.5.2h-1.5c0,.1-1.5.3-1.5.3h-1.5c0,.1-1.5.3-1.5.3h-1.5c0,.1-1.5.2-1.5.2h-1.5c0,.1-1.5.2-1.5.2h-1.5l-1.5.3-1.5.2h-3c0,.1-1.5.1-1.5.1h-1.5c0,.1-1.5.1-1.5.1l-1.5-.3-1.5-.3-1.5-.4-1.5-.6-1.5-.5-1.5-.5-1.5-.5-1.5-.4-1.5-.3h-1.5c0-.1-1.5-.1-1.5-.1h-4.5l-1.5.2h-3c0-.1-1.5-.1-1.5-.1h-9l-1.5-.2h-7.5l-1.5.3-1.5.2-1.5.2-1.5.4-1.5.3-1.5.2-1.5.2-1.5.3-1.5.4-1.5.4-1.5.4-1.5.5-1.5.4-1.5.3-1.5.3-1.5.3-1.5.3h-1.5c0,.1-1.5.1-1.5.1h-1.5l-1.5.2h-7.5l-1.5-.2v-9h0Z"/>
  <path class="st55" d="M216.1,161.3h8.8l1.5-.2h3c0-.1,1.5-.4,1.5-.4l1.5-.3,1.5-.3,1.5-.3,1.5-.4,1.5-.5,1.5-.4,1.5-.4,1.5-.4,1.5-.3,1.5-.2,1.5-.2,1.5-.3,1.5-.4,1.5-.2,1.5-.2,1.5-.2h6.1c0-.1,1.5-.1,1.5-.1h4.6c0,.1,1.5.1,1.5.1h4.6c0-.1,1.5-.1,1.5-.1h1.5c0,.1,1.5.1,1.5.1h4.6c0-.1,1.5-.1,1.5-.1h3c0,.1,1.5.4,1.5.4l1.5.4,1.5.5,1.5.5,1.5.5,1.5.6,1.5.4,1.5.3,1.5.2h7.6l1.5-.2,1.5-.2h1.5l1.5-.2h1.5c0-.1,1.5-.2,1.5-.2h1.5c0-.1,1.5-.2,1.5-.2h1.5c0-.1,1.5-.3,1.5-.3h1.5c0-.1,1.5-.3,1.5-.3l1.5-.3,1.5-.3,1.5-.4,1.5-.4,1.5-.5v10.3h-118.5v-4.9h1.2Z"/>
  <g class="st6">
    <g class="st6">
      <g class="st6">
        <g class="st6">
          <text class="st10" transform="translate(220.3 182.7) scale(1.1 1)"><tspan x="0" y="0">2014</tspan></text>
        </g>
      </g>
    </g>
  </g>
  <g class="st6">
    <g class="st6">
      <g class="st6">
        <g class="st6">
          <text class="st10" transform="translate(267.9 182.7) scale(1.1 1)"><tspan x="0" y="0">2019</tspan></text>
        </g>
      </g>
    </g>
  </g>
  <g class="st6">
    <g class="st6">
      <g class="st6">
        <g class="st6">
          <text class="st10" transform="translate(316 182.8) scale(1.1 1)"><tspan x="0" y="0">2024</tspan></text>
        </g>
      </g>
    </g>
  </g>
  <g>
    <g class="st6">
      <g class="st6">
        <text class="st11" transform="translate(20.9 57.2)"><tspan x="0" y="0">100</tspan></text>
      </g>
    </g>
    <g class="st6">
      <g class="st6">
        <text class="st11" transform="translate(25.5 85.7)"><tspan x="0" y="0">75</tspan></text>
      </g>
    </g>
    <g class="st6">
      <g class="st6">
        <text class="st11" transform="translate(25.5 113.5)"><tspan x="0" y="0">50</tspan></text>
      </g>
    </g>
    <g class="st6">
      <g class="st6">
        <text class="st11" transform="translate(26 141.3)"><tspan x="0" y="0">25</tspan></text>
      </g>
    </g>
    <g class="st6">
      <g class="st6">
        <text class="st11" transform="translate(31 169.8)"><tspan x="0" y="0">0</tspan></text>
      </g>
    </g>
  </g>
  <g class="st6">
    <g class="st6">
      <text class="st11" transform="translate(342.2 57.2)"><tspan x="0" y="0">100</tspan></text>
    </g>
  </g>
  <g class="st6">
    <g class="st6">
      <text class="st11" transform="translate(342.2 85.7)"><tspan x="0" y="0">75</tspan></text>
    </g>
  </g>
  <g class="st6">
    <g class="st6">
      <text class="st11" transform="translate(342.2 113.5)"><tspan x="0" y="0">50</tspan></text>
    </g>
  </g>
  <g class="st6">
    <g class="st6">
      <text class="st11" transform="translate(342.2 141.3)"><tspan x="0" y="0">25</tspan></text>
    </g>
  </g>
  <g class="st6">
    <g class="st6">
      <text class="st11" transform="translate(342.2 169.8)"><tspan x="0" y="0">0</tspan></text>
    </g>
  </g>
  <g class="st6">
    <g class="st6">
      <text class="st8" transform="translate(181.8 86.7)"><tspan x="0" y="0">over</tspan></text>
    </g>
    <g class="st6">
      <text class="st8" transform="translate(184.3 95.1)"><tspan x="0" y="0">18</tspan></text>
    </g>
  </g>
  <g class="st6">
    <g class="st6">
      <text class="st8" transform="translate(175.4 131.5)"><tspan x="0" y="0">13 to 17</tspan></text>
    </g>
  </g>
  <g class="st6">
    <g class="st6">
      <text class="st8" transform="translate(174.7 161.8)"><tspan x="0" y="0">under 13</tspan></text>
    </g>
  </g>
  <path class="st1" d="M213.3,164.4"/>
  <path class="st1" d="M203.5,159.4c4.5,0,4.3,4.7,9.7,4.7"/>
  <path class="st1" d="M203.1,129.1c7,0,2.8,28.2,10,28.2"/>
  <path class="st1" d="M197.4,89.6c8.5,0,5.2,10.7,14.7,11.2"/>
  <path class="st1" d="M180.1,88.8c-9,0-6.9-3.3-16.8-3.8"/>
  <path class="st1" d="M174.2,128.9c-7.2.1-5.7-1.8-11.5-1.8"/>
  <path class="st1" d="M173,159.9c-5.9,0-6-2.9-11.8-2.6"/>
</svg>