<?xml version="1.0" encoding="UTF-8"?>
<svg id="Layer_1" xmlns="http://www.w3.org/2000/svg" xmlns:xlink="http://www.w3.org/1999/xlink" version="1.1" viewBox="0 0 387.9 344">
  <!-- Generator: Adobe Illustrator 29.0.0, SVG Export Plug-In . SVG Version: 2.1.0 Build 186)  -->
  <defs>
    <style>
      .st0, .st1, .st2 {
        fill: none;
      }

      .st3 {
        font-size: 8px;
      }

      .st3, .st4, .st5, .st6 {
        isolation: isolate;
      }

      .st3, .st5, .st6 {
        font-family: TamilSangamMN, 'Tamil Sangam MN';
      }

      .st7 {
        fill: #579363;
      }

      .st8 {
        clip-path: url(#clippath-17);
      }

      .st9 {
        clip-path: url(#clippath-19);
      }

      .st10 {
        clip-path: url(#clippath-11);
      }

      .st11 {
        clip-path: url(#clippath-16);
      }

      .st12 {
        clip-path: url(#clippath-18);
      }

      .st13 {
        clip-path: url(#clippath-10);
      }

      .st14 {
        clip-path: url(#clippath-15);
      }

      .st15 {
        clip-path: url(#clippath-13);
      }

      .st16 {
        clip-path: url(#clippath-14);
      }

      .st17 {
        clip-path: url(#clippath-12);
      }

      .st18 {
        clip-path: url(#clippath-20);
      }

      .st19 {
        clip-path: url(#clippath-21);
      }

      .st20 {
        clip-path: url(#clippath-22);
      }

      .st21 {
        clip-path: url(#clippath-1);
      }

      .st22 {
        clip-path: url(#clippath-3);
      }

      .st23 {
        clip-path: url(#clippath-4);
      }

      .st24 {
        clip-path: url(#clippath-2);
      }

      .st25 {
        clip-path: url(#clippath-7);
      }

      .st26 {
        clip-path: url(#clippath-6);
      }

      .st27 {
        clip-path: url(#clippath-9);
      }

      .st28 {
        clip-path: url(#clippath-8);
      }

      .st29 {
        clip-path: url(#clippath-5);
      }

      .st5 {
        font-size: 12px;
      }

      .st30 {
        fill: #81b78d;
      }

      .st6 {
        font-size: 6px;
      }

      .st1 {
        stroke-width: 1.1px;
      }

      .st1, .st2 {
        stroke: #ebebeb;
        stroke-linejoin: round;
      }

      .st31 {
        fill: #327988;
      }

      .st32 {
        clip-path: url(#clippath);
      }

      .st2 {
        stroke-width: .5px;
      }
    </style>
    <clipPath id="clippath">
      <rect class="st0" x="57.1" y="256.2" width="299.4" height=".7"/>
    </clipPath>
    <clipPath id="clippath-1">
      <rect class="st0" x="57.1" y="210.8" width="299.4" height=".7"/>
    </clipPath>
    <clipPath id="clippath-2">
      <rect class="st0" x="57.1" y="165.4" width="299.4" height=".7"/>
    </clipPath>
    <clipPath id="clippath-3">
      <rect class="st0" x="57.1" y="120" width="299.4" height="1.5"/>
    </clipPath>
    <clipPath id="clippath-4">
      <rect class="st0" x="57.1" y="74.7" width="299.4" height="1.5"/>
    </clipPath>
    <clipPath id="clippath-5">
      <rect class="st0" x="77.8" y="51.9" width="1" height="238.1"/>
    </clipPath>
    <clipPath id="clippath-6">
      <rect class="st0" x="122.3" y="51.9" width="1.8" height="238.1"/>
    </clipPath>
    <clipPath id="clippath-7">
      <rect class="st0" x="167.9" y="51.9" width="1" height="238.1"/>
    </clipPath>
    <clipPath id="clippath-8">
      <rect class="st0" x="212.3" y="51.9" width="1.8" height="238.1"/>
    </clipPath>
    <clipPath id="clippath-9">
      <rect class="st0" x="257.9" y="51.9" width="1" height="238.1"/>
    </clipPath>
    <clipPath id="clippath-10">
      <rect class="st0" x="302.4" y="51.9" width="1.8" height="238.1"/>
    </clipPath>
    <clipPath id="clippath-11">
      <rect class="st0" x="57.1" y="279.1" width="299.4" height="1.5"/>
    </clipPath>
    <clipPath id="clippath-12">
      <rect class="st0" x="57.1" y="233.1" width="299.4" height="1.5"/>
    </clipPath>
    <clipPath id="clippath-13">
      <rect class="st0" x="57.1" y="187.8" width="299.4" height="1.5"/>
    </clipPath>
    <clipPath id="clippath-14">
      <rect class="st0" x="57.1" y="142.4" width="299.4" height="1.5"/>
    </clipPath>
    <clipPath id="clippath-15">
      <rect class="st0" x="57.1" y="97" width="299.4" height="1.5"/>
    </clipPath>
    <clipPath id="clippath-16">
      <rect class="st0" x="57.1" y="52.1" width="299.4" height="1.9"/>
    </clipPath>
    <clipPath id="clippath-17">
      <rect class="st0" x="99.7" y="51.9" width="1.8" height="238.1"/>
    </clipPath>
    <clipPath id="clippath-18">
      <rect class="st0" x="145.1" y="51.9" width="1.8" height="238.1"/>
    </clipPath>
    <clipPath id="clippath-19">
      <rect class="st0" x="189.7" y="51.9" width="1.8" height="238.1"/>
    </clipPath>
    <clipPath id="clippath-20">
      <rect class="st0" x="235.1" y="51.9" width="1.8" height="238.1"/>
    </clipPath>
    <clipPath id="clippath-21">
      <rect class="st0" x="279.7" y="51.9" width="1.8" height="238.1"/>
    </clipPath>
    <clipPath id="clippath-22">
      <rect class="st0" x="325.1" y="51.9" width="1.8" height="238.1"/>
    </clipPath>
  </defs>
  <g class="st32">
    <path class="st2" d="M57.1,256.5h299.4"/>
  </g>
  <g class="st21">
    <path class="st2" d="M57.1,211.2h299.4"/>
  </g>
  <g class="st24">
    <path class="st2" d="M57.1,165.9h299.4"/>
  </g>
  <g class="st22">
    <path class="st2" d="M57.1,120.6h299.4"/>
  </g>
  <g class="st23">
    <path class="st2" d="M57.1,75.3h299.4"/>
  </g>
  <g class="st29">
    <path class="st2" d="M78.2,290V51.9"/>
  </g>
  <g class="st26">
    <path class="st2" d="M123.3,290V51.9"/>
  </g>
  <g class="st25">
    <path class="st2" d="M168.3,290V51.9"/>
  </g>
  <g class="st28">
    <path class="st2" d="M213.4,290V51.9"/>
  </g>
  <g class="st27">
    <path class="st2" d="M258.4,290V51.9"/>
  </g>
  <g class="st13">
    <path class="st2" d="M303.5,290V51.9"/>
  </g>
  <g class="st10">
    <path class="st1" d="M57.1,279.8h299.4"/>
  </g>
  <g class="st17">
    <path class="st1" d="M57.1,233.9h299.4"/>
  </g>
  <g class="st15">
    <path class="st1" d="M57.1,188.6h299.4"/>
  </g>
  <g class="st16">
    <path class="st1" d="M57.1,143.3h299.4"/>
  </g>
  <g class="st14">
    <path class="st1" d="M57.1,98h299.4"/>
  </g>
  <g class="st11">
    <path class="st1" d="M57.1,52.8h299.4"/>
  </g>
  <g class="st8">
    <path class="st1" d="M100.7,290V51.9"/>
  </g>
  <g class="st12">
    <path class="st1" d="M145.7,290V51.9"/>
  </g>
  <g class="st9">
    <path class="st1" d="M190.8,290V51.9"/>
  </g>
  <g class="st18">
    <path class="st1" d="M235.9,290V51.9"/>
  </g>
  <g class="st19">
    <path class="st1" d="M281,290V51.9"/>
  </g>
  <g class="st20">
    <path class="st1" d="M326,290V51.9"/>
  </g>
  <path class="st31" d="M70.7,210.4l3.5-.2,3.5-.6,3.5-.9,3.5-1.3,3.5-1.6,3.5-1.3,3.5-1.2,3.5-1.1,3.5-1.2,3.5-1.4,3.5-1.5,3.5-1.7,3.5-1.9,3.5-2,3.5-2.1,3.5-2.2,3.5-2.4,3.5-2.5,3.5-2.4,3.5-2.2,3.5-2.2,3.5-2.4,3.5-2.5,3.5-2.5,3.5-2.4,3.5-2.2,3.5-2.1,3.5-2.2,3.5-2.3,3.5-2.4,3.5-2.3,3.5-1.9,3.5-1.9,3.5-2,3.5-2.2,3.5-2.3,3.5-2.2,3.5-2.2,3.5-1.9,3.5-1.8,3.5-1.8,3.5-2,3.5-2.2,3.5-2.2,3.5-2.1,3.5-2,3.5-2,3.5-1.9,3.5-1.6,3.5-.9,3.5-.2h3.5l3.5-.3,3.5-.3,3.5-.4,3.5-.5,3.5-.7,3.5-1,3.5-1.2,3.5-1.4,3.5-1.5,3.5-1.7,3.5-1.9,3.5-2.1,3.5-2.1,3.5-2.1,3.5-2,3.5-2.2,3.5-2.4,3.5-2.6,3.5-2.5,3.5-2.3,3.5-2.3,3.5-3,3.5-3.7,3.5-3.7,3.5-3.4,3.5-3,3.5-2.6v192.9l-3.5.3-3.5.4-3.5.4-3.5.5-3.5.4-3.5.3-3.5.3-3.5.3-3.5.3-3.5.3-3.5.3-3.5.2-3.5.2-3.5.2-3.5.3-3.5.2-3.5.2-3.5.2-3.5.2-3.5.2-3.5.2h-3.5c0,.1-3.5.2-3.5.2h-7c0,.1-3.5.1-3.5.1h-14c0,.1-3.5.3-3.5.3l-3.5.2-3.5.2-3.5.3-3.5.3-3.5.3-3.5.2-3.5.2-3.5.2-3.5.2-3.5.3-3.5.3-3.5.2-3.5.2-3.5.2-3.5.2-3.5.2-3.5.3-3.5.3-3.5.3-3.5.2-3.5.3-3.5.3-3.5.3-3.5.3-3.5.3-3.5.3-3.5.3-3.5.3-3.5.3-3.5.3-3.5.3-3.5.3-3.5.2-3.5.3-3.5.3-3.5.3-3.5.2-3.5.2-3.5.2h-3.5c0,.1-3.5.3-3.5.3h-3.5c0,.1-3.5.3-3.5.3l-3.5.2h-3.5c0,.1-3.5.2-3.5.2h-7c0,.1,0-62.7,0-62.7v-.4h0Z"/>
  <path class="st30" d="M70.7,273.2h7c0-.1,3.5-.1,3.5-.1l3.5-.2,3.5-.2,3.5-.2h3.5c0-.1,3.5-.3,3.5-.3h3.5c0-.1,3.5-.3,3.5-.3l3.5-.2,3.5-.2,3.5-.3,3.5-.3,3.5-.3,3.5-.2,3.5-.3,3.5-.3,3.5-.3,3.5-.3,3.5-.3,3.5-.3,3.5-.3,3.5-.3,3.5-.3,3.5-.3,3.5-.3,3.5-.3,3.5-.2,3.5-.3,3.5-.3,3.5-.3,3.5-.2,3.5-.2,3.5-.2,3.5-.2,3.5-.2,3.5-.3,3.5-.3,3.5-.2,3.5-.2,3.5-.2,3.5-.2,3.5-.3,3.5-.3,3.5-.3,3.5-.2,3.5-.2,3.5-.2h3.5c0-.1,3.5-.1,3.5-.1h17.5l3.5-.2h3.5c0-.1,3.5-.3,3.5-.3l3.5-.2,3.5-.2,3.5-.2,3.5-.2,3.5-.2,3.5-.3,3.5-.2,3.5-.2,3.5-.2,3.5-.3,3.5-.3,3.5-.3,3.5-.3,3.5-.3,3.5-.3,3.5-.4,3.5-.5,3.5-.4,3.5-.4,3.5-.3v23.5H70.7v-6,.2h0Z"/>
  <g class="st4">
    <g class="st4">
      <g class="st4">
        <text class="st6" transform="translate(140.2 341.5)"><tspan x="0" y="0">Created by: jpmoore | Source: ratings.fide.com</tspan></text>
      </g>
    </g>
  </g>
  <g class="st4">
    <g class="st4">
      <text class="st3" transform="translate(39.5 236.6)"><tspan x="0" y="0">100</tspan></text>
    </g>
  </g>
  <g class="st4">
    <g class="st4">
      <text class="st3" transform="translate(39.5 191.7)"><tspan x="0" y="0">200</tspan></text>
    </g>
  </g>
  <g class="st4">
    <g class="st4">
      <text class="st3" transform="translate(39.5 146.4)"><tspan x="0" y="0">300</tspan></text>
    </g>
  </g>
  <g class="st4">
    <g class="st4">
      <text class="st3" transform="translate(39.5 100.3)"><tspan x="0" y="0">400</tspan></text>
    </g>
  </g>
  <g class="st4">
    <g class="st4">
      <text class="st3" transform="translate(39.5 54.8)"><tspan x="0" y="0">500</tspan></text>
    </g>
  </g>
  <g class="st4">
    <g class="st4">
      <text class="st3" transform="translate(49.1 281.7)"><tspan x="0" y="0">0</tspan></text>
    </g>
  </g>
  <g class="st4">
    <g class="st4">
      <g class="st4">
        <text class="st3" transform="translate(89.8 299.8) scale(1.1 1)"><tspan x="0" y="0">2014</tspan></text>
      </g>
    </g>
  </g>
  <g class="st4">
    <g class="st4">
      <g class="st4">
        <text class="st3" transform="translate(133.7 299.8) scale(1.1 1)"><tspan x="0" y="0">2016</tspan></text>
      </g>
    </g>
  </g>
  <g class="st4">
    <g class="st4">
      <g class="st4">
        <text class="st3" transform="translate(179.8 299.8) scale(1.1 1)"><tspan x="0" y="0">2018</tspan></text>
      </g>
    </g>
  </g>
  <g class="st4">
    <g class="st4">
      <g class="st4">
        <text class="st3" transform="translate(224.5 299.8) scale(1.1 1)"><tspan x="0" y="0">2020</tspan></text>
      </g>
    </g>
  </g>
  <g class="st4">
    <g class="st4">
      <g class="st4">
        <text class="st3" transform="translate(270.1 299.8) scale(1.1 1)"><tspan x="0" y="0">2022</tspan></text>
      </g>
    </g>
  </g>
  <g class="st4">
    <g class="st4">
      <g class="st4">
        <text class="st3" transform="translate(315 299.8) scale(1.1 1)"><tspan x="0" y="0">2024</tspan></text>
      </g>
    </g>
  </g>
  <g class="st4">
    <g class="st4">
      <text class="st5" transform="translate(108.8 28.7)"><tspan x="0" y="0">Number of Registered FIDE Players</tspan></text>
    </g>
  </g>
  <g>
    <rect class="st7" x="157.5" y="315.3" width="10.8" height="10.8" rx="1.9" ry="1.9"/>
    <rect class="st31" x="209.4" y="315.3" width="10.8" height="10.8" rx="2" ry="2"/>
    <g class="st4">
      <text class="st3" transform="translate(172.6 323.5)"><tspan x="0" y="0">Female</tspan></text>
    </g>
    <g class="st4">
      <g class="st4">
        <g class="st4">
          <text class="st3" transform="translate(224.8 323.8)"><tspan x="0" y="0">Male</tspan></text>
        </g>
      </g>
    </g>
  </g>
  <g class="st4">
    <g class="st4">
      <g class="st4">
        <text class="st3" transform="translate(10.5 146.4)"><tspan x="0" y="0">(’000)</tspan></text>
      </g>
    </g>
  </g>
</svg>