<?xml version="1.0" encoding="UTF-8"?>
<svg id="Layer_1" xmlns="http://www.w3.org/2000/svg" xmlns:xlink="http://www.w3.org/1999/xlink" version="1.1" viewBox="0 0 391.9 344">
  <!-- Generator: Adobe Illustrator 29.0.0, SVG Export Plug-In . SVG Version: 2.1.0 Build 186)  -->
  <defs>
    <style>
      .st0, .st1, .st2 {
        fill: none;
      }

      .st3 {
        font-size: 8px;
      }

      .st3, .st4, .st5, .st6 {
        isolation: isolate;
      }

      .st3, .st5, .st6 {
        font-family: TamilSangamMN, 'Tamil Sangam MN';
      }

      .st7 {
        fill: #579363;
      }

      .st8 {
        clip-path: url(#clippath-17);
      }

      .st9 {
        clip-path: url(#clippath-19);
      }

      .st10 {
        clip-path: url(#clippath-11);
      }

      .st11 {
        clip-path: url(#clippath-16);
      }

      .st12 {
        clip-path: url(#clippath-18);
      }

      .st13 {
        clip-path: url(#clippath-10);
      }

      .st14 {
        clip-path: url(#clippath-15);
      }

      .st15 {
        clip-path: url(#clippath-13);
      }

      .st16 {
        clip-path: url(#clippath-14);
      }

      .st17 {
        clip-path: url(#clippath-12);
      }

      .st18 {
        clip-path: url(#clippath-20);
      }

      .st19 {
        clip-path: url(#clippath-1);
      }

      .st20 {
        clip-path: url(#clippath-3);
      }

      .st21 {
        clip-path: url(#clippath-4);
      }

      .st22 {
        clip-path: url(#clippath-2);
      }

      .st23 {
        clip-path: url(#clippath-7);
      }

      .st24 {
        clip-path: url(#clippath-6);
      }

      .st25 {
        clip-path: url(#clippath-9);
      }

      .st26 {
        clip-path: url(#clippath-8);
      }

      .st27 {
        clip-path: url(#clippath-5);
      }

      .st5 {
        font-size: 12px;
      }

      .st28 {
        fill: #81b78d;
      }

      .st6 {
        font-size: 6px;
      }

      .st1 {
        stroke-width: 1.1px;
      }

      .st1, .st2 {
        stroke: #ebebeb;
        stroke-linejoin: round;
      }

      .st29 {
        fill: #327988;
      }

      .st30 {
        clip-path: url(#clippath);
      }

      .st2 {
        stroke-width: .5px;
      }
    </style>
    <clipPath id="clippath">
      <rect class="st0" x="62.4" y="248.8" width="297" height=".7"/>
    </clipPath>
    <clipPath id="clippath-1">
      <rect class="st0" x="62.4" y="196.6" width="297" height=".7"/>
    </clipPath>
    <clipPath id="clippath-2">
      <rect class="st0" x="62.4" y="144.4" width="297" height="1.4"/>
    </clipPath>
    <clipPath id="clippath-3">
      <rect class="st0" x="62.4" y="92.1" width="297" height="1.4"/>
    </clipPath>
    <clipPath id="clippath-4">
      <rect class="st0" x="82.8" y="68.1" width=".8" height="217"/>
    </clipPath>
    <clipPath id="clippath-5">
      <rect class="st0" x="127.1" y="68.1" width="1.6" height="217"/>
    </clipPath>
    <clipPath id="clippath-6">
      <rect class="st0" x="172.4" y="68.1" width=".8" height="217"/>
    </clipPath>
    <clipPath id="clippath-7">
      <rect class="st0" x="216.7" y="68.1" width="1.6" height="217"/>
    </clipPath>
    <clipPath id="clippath-8">
      <rect class="st0" x="261.1" y="68.1" width="1.6" height="217"/>
    </clipPath>
    <clipPath id="clippath-9">
      <rect class="st0" x="306.3" y="68.1" width=".8" height="217"/>
    </clipPath>
    <clipPath id="clippath-10">
      <rect class="st0" x="62.4" y="274.6" width="297" height="1.4"/>
    </clipPath>
    <clipPath id="clippath-11">
      <rect class="st0" x="62.4" y="222.4" width="297" height="1.4"/>
    </clipPath>
    <clipPath id="clippath-12">
      <rect class="st0" x="62.4" y="170.1" width="297" height="1.4"/>
    </clipPath>
    <clipPath id="clippath-13">
      <rect class="st0" x="62.4" y="117.9" width="297" height="1.4"/>
    </clipPath>
    <clipPath id="clippath-14">
      <rect class="st0" x="105" y="68.1" width="1.6" height="217"/>
    </clipPath>
    <clipPath id="clippath-15">
      <rect class="st0" x="149.3" y="68.1" width="1.6" height="217"/>
    </clipPath>
    <clipPath id="clippath-16">
      <rect class="st0" x="194.5" y="68.1" width="1.6" height="217"/>
    </clipPath>
    <clipPath id="clippath-17">
      <rect class="st0" x="238.9" y="68.1" width="1.6" height="217"/>
    </clipPath>
    <clipPath id="clippath-18">
      <rect class="st0" x="283.3" y="68.1" width="1.6" height="217"/>
    </clipPath>
    <clipPath id="clippath-19">
      <rect class="st0" x="328.5" y="68.1" width="1.6" height="217"/>
    </clipPath>
    <clipPath id="clippath-20">
      <rect class="st0" x="62.4" y="66.6" width="297" height="1.4"/>
    </clipPath>
  </defs>
  <g class="st4">
    <g class="st4">
      <g class="st4">
        <g class="st4">
          <text class="st6" transform="translate(144.1 341.5)"><tspan x="0" y="0">Created by: jpmoore | Source: ratings.fide.com</tspan></text>
        </g>
      </g>
    </g>
  </g>
  <g class="st4">
    <g class="st4">
      <g class="st4">
        <g class="st4">
          <text class="st3" transform="translate(94.8 296.8) scale(1.1 1)"><tspan x="0" y="0">2014</tspan></text>
        </g>
      </g>
    </g>
  </g>
  <g class="st4">
    <g class="st4">
      <g class="st4">
        <g class="st4">
          <text class="st3" transform="translate(138.7 296.8) scale(1.1 1)"><tspan x="0" y="0">2016</tspan></text>
        </g>
      </g>
    </g>
  </g>
  <g class="st4">
    <g class="st4">
      <g class="st4">
        <g class="st4">
          <text class="st3" transform="translate(184.8 296.8) scale(1.1 1)"><tspan x="0" y="0">2018</tspan></text>
        </g>
      </g>
    </g>
  </g>
  <g class="st4">
    <g class="st4">
      <g class="st4">
        <g class="st4">
          <text class="st3" transform="translate(229.5 296.8) scale(1.1 1)"><tspan x="0" y="0">2020</tspan></text>
        </g>
      </g>
    </g>
  </g>
  <g class="st4">
    <g class="st4">
      <g class="st4">
        <g class="st4">
          <text class="st3" transform="translate(275.1 296.8) scale(1.1 1)"><tspan x="0" y="0">2022</tspan></text>
        </g>
      </g>
    </g>
  </g>
  <g class="st4">
    <g class="st4">
      <g class="st4">
        <g class="st4">
          <text class="st3" transform="translate(320 296.8) scale(1.1 1)"><tspan x="0" y="0">2024</tspan></text>
        </g>
      </g>
    </g>
  </g>
  <g class="st30">
    <path class="st2" d="M62.4,249.1h297"/>
  </g>
  <g class="st19">
    <path class="st2" d="M62.4,197h297"/>
  </g>
  <g class="st22">
    <path class="st2" d="M62.4,144.9h297"/>
  </g>
  <g class="st20">
    <path class="st2" d="M62.4,92.7h297"/>
  </g>
  <g class="st21">
    <path class="st2" d="M83.3,285.1V68.1"/>
  </g>
  <g class="st27">
    <path class="st2" d="M128,285.1V68.1"/>
  </g>
  <g class="st24">
    <path class="st2" d="M172.7,285.1V68.1"/>
  </g>
  <g class="st23">
    <path class="st2" d="M217.4,285.1V68.1"/>
  </g>
  <g class="st26">
    <path class="st2" d="M262.1,285.1V68.1"/>
  </g>
  <g class="st25">
    <path class="st2" d="M306.8,285.1V68.1"/>
  </g>
  <g class="st13">
    <path class="st1" d="M62.4,275.2h297"/>
  </g>
  <g class="st10">
    <path class="st1" d="M62.4,223.1h297"/>
  </g>
  <g class="st17">
    <path class="st1" d="M62.4,170.9h297"/>
  </g>
  <g class="st15">
    <path class="st1" d="M62.4,118.8h297"/>
  </g>
  <g class="st16">
    <path class="st1" d="M105.7,285.1V68.1"/>
  </g>
  <g class="st14">
    <path class="st1" d="M150.3,285.1V68.1"/>
  </g>
  <g class="st11">
    <path class="st1" d="M195.1,285.1V68.1"/>
  </g>
  <g class="st8">
    <path class="st1" d="M239.7,285.1V68.1"/>
  </g>
  <g class="st12">
    <path class="st1" d="M284.5,285.1V68.1"/>
  </g>
  <g class="st9">
    <path class="st1" d="M329.1,285.1V68.1"/>
  </g>
  <path class="st29" d="M75.9,180.6l3.4.3,3.4-.2,3.4-.7,3.4-1.4,3.4-2.2,3.4-2.4,3.4-1.9,3.4-1.6,3.4-1.5,3.4-1,3.4-.7,3.4-1.4,3.4-2.5,3.4-3.2,3.4-3.3,3.4-3.1,3.4-3.2,3.4-3.5,3.4-3.5,3.4-3.2,3.4-3.1,3.4-3.6,3.4-3.6,3.4-3.2,3.4-2.5,3.4-2.1,3.4-2.5,3.4-2.7,3.4-2.3,3.4-1.6,3.4-1.1,3.4-1.1,3.4-1.5,3.4-1.8,3.4-1.6,3.4-1.2,3.4-.5,3.4-.6,3.4-.8,3.4-1,3.4-1,3.4-.9,3.4-.3,3.4-.2,3.4-.7,3.4-1.4,3.4-2.3,3.4-1.7,3.4,1.3,3.4,7.5,3.4,13.1,3.4,1.4,3.4-13.5,3.4-16.7,3.4-6.8,3.4,7.5,3.4,8.6,3.4,6.8,3.4,5,3.4,6.2,3.4,8.8,3.4,8.8,3.4,1.6,3.4-7.1,3.4-10.8,3.4-6.9,3.4-.7,3.4,1.7,3.4-.2,3.4-3.5,3.4-3.3,3.4-2.8,3.4-2.9,3.4-3.6,3.4-4.1,3.4-3.8,3.4-3.1,3.4-2.4,3.4-1.8v176.8l-3.4.3-3.4.4-3.4.5-3.4.6-3.4.5-3.4.3-3.4.3-3.4.3-3.4.4-3.4.4h-3.4l-3.4-.3h-3.4l-3.4.7-3.4,1.1-3.4.9h-3.4l-3.4-.9-3.4-1-3.4-.8-3.4-.7-3.4-.8-3.4-.8-3.4-.7-3.4.9-3.4,1.8-3.4,1.4-3.4-.3-3.4-1.4-3.4-.8h-3.4c0-.1-3.4,0-3.4,0l-3.4.2h-3.4c0,.1-3.4.2-3.4.2h-6.8c0,.1-3.4.3-3.4.3l-3.4.2-3.4.2h-3.4c0,.1-3.4.2-3.4.2h-3.4c0,.1-3.4.3-3.4.3h-3.4c0,.1-3.4.2-3.4.2h-3.4l-3.4.2h-3.4c0,.1-3.4.3-3.4.3l-3.4.2-3.4.3-3.4.3-3.4.3-3.4.3-3.4.3-3.4.4-3.4.4-3.4.4-3.4.4-3.4.5-3.4.5-3.4.4-3.4.3-3.4.4-3.4.4-3.4.4-3.4.2h-3.4c0,.1-3.4.3-3.4.3l-3.4.2-3.4.2-3.4.2-3.4.2-3.4.2h-3.4c0,.1-3.4.2-3.4.2h-6.8c0,.1,0-86.6,0-86.6h0Z"/>
  <path class="st28" d="M75.9,267.3h6.8c0-.1,3.4-.1,3.4-.1l3.4-.2,3.4-.2,3.4-.2,3.4-.2,3.4-.2,3.4-.2,3.4-.2h3.4c0-.1,3.4-.4,3.4-.4l3.4-.4,3.4-.4,3.4-.4,3.4-.3,3.4-.4,3.4-.5,3.4-.5,3.4-.4,3.4-.4,3.4-.4,3.4-.4,3.4-.3,3.4-.3,3.4-.3,3.4-.3,3.4-.3,3.4-.2h3.4c0-.1,3.4-.3,3.4-.3h3.4c0-.1,3.4-.2,3.4-.2h3.4l3.4-.2h3.4c0-.1,3.4-.3,3.4-.3h3.4c0-.1,3.4-.2,3.4-.2l3.4-.2,3.4-.2,3.4-.2h6.8c0-.1,3.4-.1,3.4-.1l3.4-.2,3.4-.2,3.4-.2h3.4c0,.1,3.4.9,3.4.9l3.4,1.4,3.4.3,3.4-1.4,3.4-1.8,3.4-.9,3.4.7,3.4.8,3.4.8,3.4.7,3.4.8,3.4,1,3.4.9h3.4l3.4-.8,3.4-1.1,3.4-.7h3.4l3.4.3h3.4l3.4-.4,3.4-.4,3.4-.3,3.4-.3,3.4-.3,3.4-.5,3.4-.6,3.4-.5,3.4-.4,3.4-.3v20.5H75.9v-7.9h0Z"/>
  <g class="st4">
    <g class="st4">
      <g class="st4">
        <g class="st4">
          <text class="st3" transform="translate(40.4 120.9) scale(1.1 1)"><tspan x="0" y="0">150</tspan></text>
        </g>
      </g>
    </g>
  </g>
  <g class="st4">
    <g class="st4">
      <g class="st4">
        <g class="st4">
          <text class="st3" transform="translate(40.4 173.1) scale(1.1 1)"><tspan x="0" y="0">100</tspan></text>
        </g>
      </g>
    </g>
  </g>
  <g class="st4">
    <g class="st4">
      <g class="st4">
        <g class="st4">
          <text class="st3" transform="translate(45.7 225.2) scale(1.1 1)"><tspan x="0" y="0">50</tspan></text>
        </g>
      </g>
    </g>
  </g>
  <g class="st4">
    <g class="st4">
      <g class="st4">
        <g class="st4">
          <text class="st3" transform="translate(51 276.6) scale(1.1 1)"><tspan x="0" y="0">0</tspan></text>
        </g>
      </g>
    </g>
  </g>
  <g class="st18">
    <path class="st1" d="M62.4,67.5h297"/>
  </g>
  <g class="st4">
    <g class="st4">
      <g class="st4">
        <g class="st4">
          <text class="st3" transform="translate(40.4 69.1) scale(1.1 1)"><tspan x="0" y="0">200</tspan></text>
        </g>
      </g>
    </g>
  </g>
  <g class="st4">
    <g class="st4">
      <g class="st4">
        <text class="st5" transform="translate(90.1 38.1)"><tspan x="0" y="0">Number of Actively Competing FIDE Players</tspan></text>
      </g>
    </g>
  </g>
  <g>
    <rect class="st7" x="161.5" y="314" width="10.8" height="10.8" rx="1.9" ry="1.9"/>
    <rect class="st29" x="213.4" y="314" width="10.8" height="10.8" rx="2" ry="2"/>
    <g class="st4">
      <text class="st3" transform="translate(176.6 322.2)"><tspan x="0" y="0">Female</tspan></text>
    </g>
    <g class="st4">
      <g class="st4">
        <g class="st4">
          <text class="st3" transform="translate(228.8 322.5)"><tspan x="0" y="0">Male</tspan></text>
        </g>
      </g>
    </g>
  </g>
  <g class="st4">
    <g class="st4">
      <g class="st4">
        <text class="st3" transform="translate(8.9 173.2)"><tspan x="0" y="0">(’000)</tspan></text>
      </g>
    </g>
  </g>
</svg>