<?xml version="1.0" encoding="UTF-8"?>
<svg id="Layer_1" xmlns="http://www.w3.org/2000/svg" xmlns:xlink="http://www.w3.org/1999/xlink" version="1.1" viewBox="0 0 377 344">
  <!-- Generator: Adobe Illustrator 29.0.0, SVG Export Plug-In . SVG Version: 2.1.0 Build 186)  -->
  <defs>
    <style>
      .st0, .st1, .st2 {
        fill: none;
      }

      .st3 {
        font-family: MyanmarSangamMN, 'Myanmar Sangam MN';
        font-size: 8px;
      }

      .st3, .st4, .st5, .st6, .st7 {
        isolation: isolate;
      }

      .st8 {
        clip-path: url(#clippath-17);
      }

      .st9 {
        clip-path: url(#clippath-19);
      }

      .st10 {
        clip-path: url(#clippath-11);
      }

      .st11 {
        clip-path: url(#clippath-16);
      }

      .st12 {
        clip-path: url(#clippath-18);
      }

      .st13 {
        clip-path: url(#clippath-10);
      }

      .st14 {
        clip-path: url(#clippath-15);
      }

      .st15 {
        clip-path: url(#clippath-13);
      }

      .st16 {
        clip-path: url(#clippath-14);
      }

      .st17 {
        clip-path: url(#clippath-12);
      }

      .st18 {
        clip-path: url(#clippath-20);
      }

      .st19 {
        clip-path: url(#clippath-1);
      }

      .st20 {
        clip-path: url(#clippath-3);
      }

      .st21 {
        clip-path: url(#clippath-4);
      }

      .st22 {
        clip-path: url(#clippath-2);
      }

      .st23 {
        clip-path: url(#clippath-7);
      }

      .st24 {
        clip-path: url(#clippath-6);
      }

      .st25 {
        clip-path: url(#clippath-9);
      }

      .st26 {
        clip-path: url(#clippath-8);
      }

      .st27 {
        clip-path: url(#clippath-5);
      }

      .st5 {
        font-size: 10px;
      }

      .st5, .st6, .st7 {
        font-family: TamilSangamMN, 'Tamil Sangam MN';
      }

      .st28 {
        fill: #81b78d;
      }

      .st6 {
        font-size: 6px;
      }

      .st1 {
        stroke-width: 1.1px;
      }

      .st1, .st2 {
        stroke: #ebebeb;
        stroke-linejoin: round;
      }

      .st7 {
        font-size: 14px;
      }

      .st29 {
        fill: #327988;
      }

      .st30 {
        clip-path: url(#clippath);
      }

      .st2 {
        stroke-width: .5px;
      }
    </style>
    <clipPath id="clippath">
      <rect class="st0" x="52.5" y="251.8" width="297" height=".7"/>
    </clipPath>
    <clipPath id="clippath-1">
      <rect class="st0" x="52.5" y="199.6" width="297" height=".7"/>
    </clipPath>
    <clipPath id="clippath-2">
      <rect class="st0" x="52.5" y="147.4" width="297" height="1.4"/>
    </clipPath>
    <clipPath id="clippath-3">
      <rect class="st0" x="52.5" y="95.1" width="297" height="1.4"/>
    </clipPath>
    <clipPath id="clippath-4">
      <rect class="st0" x="72.9" y="71.1" width=".8" height="217"/>
    </clipPath>
    <clipPath id="clippath-5">
      <rect class="st0" x="117.2" y="71.1" width="1.6" height="217"/>
    </clipPath>
    <clipPath id="clippath-6">
      <rect class="st0" x="162.5" y="71.1" width=".8" height="217"/>
    </clipPath>
    <clipPath id="clippath-7">
      <rect class="st0" x="206.8" y="71.1" width="1.6" height="217"/>
    </clipPath>
    <clipPath id="clippath-8">
      <rect class="st0" x="251.2" y="71.1" width="1.6" height="217"/>
    </clipPath>
    <clipPath id="clippath-9">
      <rect class="st0" x="296.4" y="71.1" width=".8" height="217"/>
    </clipPath>
    <clipPath id="clippath-10">
      <rect class="st0" x="52.5" y="277.6" width="297" height="1.4"/>
    </clipPath>
    <clipPath id="clippath-11">
      <rect class="st0" x="52.5" y="225.4" width="297" height="1.4"/>
    </clipPath>
    <clipPath id="clippath-12">
      <rect class="st0" x="52.5" y="173.1" width="297" height="1.4"/>
    </clipPath>
    <clipPath id="clippath-13">
      <rect class="st0" x="52.5" y="120.9" width="297" height="1.4"/>
    </clipPath>
    <clipPath id="clippath-14">
      <rect class="st0" x="95.1" y="71.1" width="1.6" height="217"/>
    </clipPath>
    <clipPath id="clippath-15">
      <rect class="st0" x="139.4" y="71.1" width="1.6" height="217"/>
    </clipPath>
    <clipPath id="clippath-16">
      <rect class="st0" x="184.6" y="71.1" width="1.6" height="217"/>
    </clipPath>
    <clipPath id="clippath-17">
      <rect class="st0" x="229" y="71.1" width="1.6" height="217"/>
    </clipPath>
    <clipPath id="clippath-18">
      <rect class="st0" x="273.4" y="71.1" width="1.6" height="217"/>
    </clipPath>
    <clipPath id="clippath-19">
      <rect class="st0" x="318.6" y="71.1" width="1.6" height="217"/>
    </clipPath>
    <clipPath id="clippath-20">
      <rect class="st0" x="52.5" y="69.6" width="297" height="1.4"/>
    </clipPath>
  </defs>
  <rect class="st29" x="30.2" y="316.3" width="13.1" height="13.1" rx="2.3" ry="2.3"/>
  <rect class="st28" x="117.5" y="316.6" width="13.2" height="13.2" rx="2.4" ry="2.4"/>
  <g class="st4">
    <text class="st5" transform="translate(48.3 326)"><tspan x="0" y="0">Male Players</tspan></text>
  </g>
  <g class="st4">
    <g class="st4">
      <g class="st4">
        <text class="st5" transform="translate(137.5 326.3)"><tspan x="0" y="0">Female Players</tspan></text>
      </g>
    </g>
  </g>
  <g class="st4">
    <g class="st4">
      <g class="st4">
        <text class="st6" transform="translate(253.4 338.5)"><tspan x="0" y="0">Created by: jpmoore | Source: ratings.fide.com</tspan></text>
      </g>
    </g>
  </g>
  <g class="st4">
    <g class="st4">
      <g class="st4">
        <text class="st3" transform="translate(76.9 299.8) scale(1.1 1)"><tspan x="0" y="0">2014</tspan></text>
      </g>
    </g>
  </g>
  <g class="st4">
    <g class="st4">
      <g class="st4">
        <text class="st3" transform="translate(120.8 299.8) scale(1.1 1)"><tspan x="0" y="0">2016</tspan></text>
      </g>
    </g>
  </g>
  <g class="st4">
    <g class="st4">
      <g class="st4">
        <text class="st3" transform="translate(166.9 299.8) scale(1.1 1)"><tspan x="0" y="0">2018</tspan></text>
      </g>
    </g>
  </g>
  <g class="st4">
    <g class="st4">
      <g class="st4">
        <text class="st3" transform="translate(211.6 299.8) scale(1.1 1)"><tspan x="0" y="0">2020</tspan></text>
      </g>
    </g>
  </g>
  <g class="st4">
    <g class="st4">
      <g class="st4">
        <text class="st3" transform="translate(257.2 299.8) scale(1.1 1)"><tspan x="0" y="0">2022</tspan></text>
      </g>
    </g>
  </g>
  <g class="st4">
    <g class="st4">
      <g class="st4">
        <text class="st3" transform="translate(302.1 299.8) scale(1.1 1)"><tspan x="0" y="0">2024</tspan></text>
      </g>
    </g>
  </g>
  <g class="st30">
    <path class="st2" d="M52.5,252.1h297"/>
  </g>
  <g class="st19">
    <path class="st2" d="M52.5,200h297"/>
  </g>
  <g class="st22">
    <path class="st2" d="M52.5,147.9h297"/>
  </g>
  <g class="st20">
    <path class="st2" d="M52.5,95.7h297"/>
  </g>
  <g class="st21">
    <path class="st2" d="M73.4,288.1V71.1"/>
  </g>
  <g class="st27">
    <path class="st2" d="M118.1,288.1V71.1"/>
  </g>
  <g class="st24">
    <path class="st2" d="M162.8,288.1V71.1"/>
  </g>
  <g class="st23">
    <path class="st2" d="M207.5,288.1V71.1"/>
  </g>
  <g class="st26">
    <path class="st2" d="M252.2,288.1V71.1"/>
  </g>
  <g class="st25">
    <path class="st2" d="M296.9,288.1V71.1"/>
  </g>
  <g class="st13">
    <path class="st1" d="M52.5,278.2h297"/>
  </g>
  <g class="st10">
    <path class="st1" d="M52.5,226.1h297"/>
  </g>
  <g class="st17">
    <path class="st1" d="M52.5,173.9h297"/>
  </g>
  <g class="st15">
    <path class="st1" d="M52.5,121.8h297"/>
  </g>
  <g class="st16">
    <path class="st1" d="M95.8,288.1V71.1"/>
  </g>
  <g class="st14">
    <path class="st1" d="M140.4,288.1V71.1"/>
  </g>
  <g class="st11">
    <path class="st1" d="M185.2,288.1V71.1"/>
  </g>
  <g class="st8">
    <path class="st1" d="M229.8,288.1V71.1"/>
  </g>
  <g class="st12">
    <path class="st1" d="M274.6,288.1V71.1"/>
  </g>
  <g class="st9">
    <path class="st1" d="M319.2,288.1V71.1"/>
  </g>
  <path class="st29" d="M66,183.6l3.4.3,3.4-.2,3.4-.7,3.4-1.4,3.4-2.2,3.4-2.4,3.4-1.9,3.4-1.6,3.4-1.5,3.4-1,3.4-.7,3.4-1.4,3.4-2.5,3.4-3.2,3.4-3.3,3.4-3.1,3.4-3.2,3.4-3.5,3.4-3.5,3.4-3.2,3.4-3.1,3.4-3.6,3.4-3.6,3.4-3.2,3.4-2.5,3.4-2.1,3.4-2.5,3.4-2.7,3.4-2.3,3.4-1.6,3.4-1.1,3.4-1.1,3.4-1.5,3.4-1.8,3.4-1.6,3.4-1.2,3.4-.5,3.4-.6,3.4-.8,3.4-1,3.4-1,3.4-.9,3.4-.3,3.4-.2,3.4-.7,3.4-1.4,3.4-2.3,3.4-1.7,3.4,1.3,3.4,7.5,3.4,13.1,3.4,1.4,3.4-13.5,3.4-16.7,3.4-6.8,3.4,7.5,3.4,8.6,3.4,6.8,3.4,5,3.4,6.2,3.4,8.8,3.4,8.8,3.4,1.6,3.4-7.1,3.4-10.8,3.4-6.9,3.4-.7,3.4,1.7,3.4-.2,3.4-3.5,3.4-3.3,3.4-2.8,3.4-2.9,3.4-3.6,3.4-4.1,3.4-3.8,3.4-3.1,3.4-2.4,3.4-1.8v176.8l-3.4.3-3.4.4-3.4.5-3.4.6-3.4.5-3.4.3-3.4.3-3.4.3-3.4.4-3.4.4h-3.4s-3.4-.3-3.4-.3h-3.4l-3.4.7-3.4,1.1-3.4.9h-3.4s-3.4-.9-3.4-.9l-3.4-1-3.4-.8-3.4-.7-3.4-.8-3.4-.8-3.4-.7-3.4.9-3.4,1.8-3.4,1.4-3.4-.3-3.4-1.4-3.4-.8h-3.4c0-.1-3.4,0-3.4,0l-3.4.2h-3.4c0,.1-3.4.2-3.4.2h-3.4s-3.4.1-3.4.1l-3.4.2-3.4.2-3.4.2h-3.4c0,.1-3.4.2-3.4.2h-3.4c0,.1-3.4.3-3.4.3h-3.4c0,.1-3.4.2-3.4.2h-3.4c0,0-3.4.2-3.4.2h-3.4c0,.1-3.4.3-3.4.3l-3.4.2-3.4.3-3.4.3-3.4.3-3.4.3-3.4.3-3.4.4-3.4.4-3.4.4-3.4.4-3.4.5-3.4.5-3.4.4-3.4.3-3.4.4-3.4.4-3.4.4-3.4.2h-3.4c0,.1-3.4.3-3.4.3l-3.4.2-3.4.2-3.4.2-3.4.2-3.4.2h-3.4c0,.1-3.4.2-3.4.2h-3.4c0,0-3.4.1-3.4.1v-86.7Z"/>
  <path class="st28" d="M66,270.3h3.4c0,0,3.4-.1,3.4-.1h3.4c0,0,3.4-.2,3.4-.2l3.4-.2,3.4-.2,3.4-.2,3.4-.2,3.4-.2,3.4-.2h3.4c0-.1,3.4-.4,3.4-.4l3.4-.4,3.4-.4,3.4-.4,3.4-.3,3.4-.4,3.4-.5,3.4-.5,3.4-.4,3.4-.4,3.4-.4,3.4-.4,3.4-.3,3.4-.3,3.4-.3,3.4-.3,3.4-.3,3.4-.2h3.4c0-.1,3.4-.3,3.4-.3h3.4c0-.1,3.4-.2,3.4-.2h3.4c0,0,3.4-.2,3.4-.2h3.4c0-.1,3.4-.3,3.4-.3h3.4c0-.1,3.4-.2,3.4-.2l3.4-.2,3.4-.2,3.4-.2h3.4c0,0,3.4-.1,3.4-.1h3.4c0,0,3.4-.2,3.4-.2l3.4-.2,3.4-.2h3.4c0,.1,3.4.9,3.4.9l3.4,1.4,3.4.3,3.4-1.4,3.4-1.8,3.4-.9,3.4.7,3.4.8,3.4.8,3.4.7,3.4.8,3.4,1,3.4.9h3.4s3.4-.8,3.4-.8l3.4-1.1,3.4-.7h3.4l3.4.3h3.4s3.4-.4,3.4-.4l3.4-.4,3.4-.3,3.4-.3,3.4-.3,3.4-.5,3.4-.6,3.4-.5,3.4-.4,3.4-.3v20.5H66v-7.9Z"/>
  <g class="st4">
    <g class="st4">
      <g class="st4">
        <text class="st3" transform="translate(31.6 124.9) scale(1.1 1)"><tspan x="0" y="0">150</tspan></text>
      </g>
    </g>
  </g>
  <g class="st4">
    <g class="st4">
      <g class="st4">
        <text class="st3" transform="translate(32.5 177.1) scale(1.1 1)"><tspan x="0" y="0">100</tspan></text>
      </g>
    </g>
  </g>
  <g class="st4">
    <g class="st4">
      <g class="st4">
        <text class="st3" transform="translate(33.4 229.2) scale(1.1 1)"><tspan x="0" y="0">50</tspan></text>
      </g>
    </g>
  </g>
  <g class="st4">
    <g class="st4">
      <g class="st4">
        <text class="st3" transform="translate(32.5 280.6) scale(1.1 1)"><tspan x="0" y="0">0</tspan></text>
      </g>
    </g>
  </g>
  <g class="st18">
    <path class="st1" d="M52.5,70.5h297"/>
  </g>
  <g class="st4">
    <g class="st4">
      <g class="st4">
        <text class="st3" transform="translate(32.5 73.1) scale(1.1 1)"><tspan x="0" y="0">200</tspan></text>
      </g>
    </g>
  </g>
  <g class="st4">
    <g class="st4">
      <text class="st7" transform="translate(125.6 38.1)"><tspan x="0" y="0">Total Active Players (’000)</tspan></text>
    </g>
  </g>
</svg>