<?xml version="1.0" encoding="UTF-8"?>
<svg id="Layer_1" xmlns="http://www.w3.org/2000/svg" xmlns:xlink="http://www.w3.org/1999/xlink" version="1.1" viewBox="0 0 377 249">
  <!-- Generator: Adobe Illustrator 29.0.0, SVG Export Plug-In . SVG Version: 2.1.0 Build 186)  -->
  <defs>
    <style>
      .st0, .st1, .st2 {
        fill: none;
      }

      .st3 {
        font-size: 8px;
      }

      .st3, .st4, .st5, .st6, .st7, .st8 {
        isolation: isolate;
      }

      .st3, .st5, .st6 {
        font-family: TamilSangamMN, 'Tamil Sangam MN';
      }

      .st9 {
        fill: #43a3b8;
      }

      .st10 {
        clip-path: url(#clippath-17);
      }

      .st11 {
        clip-path: url(#clippath-19);
      }

      .st12 {
        clip-path: url(#clippath-11);
      }

      .st13 {
        clip-path: url(#clippath-16);
      }

      .st14 {
        clip-path: url(#clippath-18);
      }

      .st15 {
        clip-path: url(#clippath-10);
      }

      .st16 {
        clip-path: url(#clippath-15);
      }

      .st17 {
        clip-path: url(#clippath-13);
      }

      .st18 {
        clip-path: url(#clippath-14);
      }

      .st19 {
        clip-path: url(#clippath-12);
      }

      .st20 {
        clip-path: url(#clippath-31);
      }

      .st21 {
        clip-path: url(#clippath-32);
      }

      .st22 {
        clip-path: url(#clippath-33);
      }

      .st23 {
        clip-path: url(#clippath-34);
      }

      .st24 {
        clip-path: url(#clippath-35);
      }

      .st25 {
        clip-path: url(#clippath-39);
      }

      .st26 {
        clip-path: url(#clippath-30);
      }

      .st27 {
        clip-path: url(#clippath-36);
      }

      .st28 {
        clip-path: url(#clippath-37);
      }

      .st29 {
        clip-path: url(#clippath-38);
      }

      .st30 {
        clip-path: url(#clippath-27);
      }

      .st31 {
        clip-path: url(#clippath-29);
      }

      .st32 {
        clip-path: url(#clippath-26);
      }

      .st33 {
        clip-path: url(#clippath-28);
      }

      .st34 {
        clip-path: url(#clippath-20);
      }

      .st35 {
        clip-path: url(#clippath-21);
      }

      .st36 {
        clip-path: url(#clippath-22);
      }

      .st37 {
        clip-path: url(#clippath-23);
      }

      .st38 {
        clip-path: url(#clippath-24);
      }

      .st39 {
        clip-path: url(#clippath-25);
      }

      .st40 {
        clip-path: url(#clippath-41);
      }

      .st41 {
        clip-path: url(#clippath-42);
      }

      .st42 {
        clip-path: url(#clippath-40);
      }

      .st43 {
        clip-path: url(#clippath-1);
      }

      .st44 {
        clip-path: url(#clippath-3);
      }

      .st45 {
        clip-path: url(#clippath-4);
      }

      .st46 {
        clip-path: url(#clippath-2);
      }

      .st47 {
        clip-path: url(#clippath-7);
      }

      .st48 {
        clip-path: url(#clippath-6);
      }

      .st49 {
        clip-path: url(#clippath-9);
      }

      .st50 {
        clip-path: url(#clippath-8);
      }

      .st51 {
        clip-path: url(#clippath-5);
      }

      .st52 {
        fill: #add6b6;
      }

      .st53 {
        fill: #81b78d;
      }

      .st54, .st7, .st8 {
        font-family: MyanmarSangamMN, 'Myanmar Sangam MN';
      }

      .st54, .st8 {
        font-size: 7px;
      }

      .st5 {
        font-size: 6px;
      }

      .st1 {
        stroke-width: 1.1px;
      }

      .st1, .st2 {
        stroke: #ebebeb;
        stroke-linejoin: round;
      }

      .st6 {
        font-size: 14px;
      }

      .st55 {
        fill: #327988;
      }

      .st7 {
        font-size: 7.5px;
      }

      .st56 {
        clip-path: url(#clippath);
      }

      .st2 {
        stroke-width: .5px;
      }
    </style>
    <clipPath id="clippath">
      <rect class="st0" x="27.5" y="188.1" width="180.7" height=".5"/>
    </clipPath>
    <clipPath id="clippath-1">
      <rect class="st0" x="27.5" y="155.5" width="180.7" height="1"/>
    </clipPath>
    <clipPath id="clippath-2">
      <rect class="st0" x="27.5" y="123.5" width="180.7" height=".5"/>
    </clipPath>
    <clipPath id="clippath-3">
      <rect class="st0" x="27.5" y="91.5" width="180.7" height=".5"/>
    </clipPath>
    <clipPath id="clippath-4">
      <rect class="st0" x="27.5" y="59" width="180.7" height="1"/>
    </clipPath>
    <clipPath id="clippath-5">
      <rect class="st0" x="39.5" y="54.4" width="1.4" height="157"/>
    </clipPath>
    <clipPath id="clippath-6">
      <rect class="st0" x="66.8" y="54.4" width="1.4" height="157"/>
    </clipPath>
    <clipPath id="clippath-7">
      <rect class="st0" x="94.1" y="54.4" width=".7" height="157"/>
    </clipPath>
    <clipPath id="clippath-8">
      <rect class="st0" x="121.4" y="54.4" width=".7" height="157"/>
    </clipPath>
    <clipPath id="clippath-9">
      <rect class="st0" x="148.7" y="54.4" width=".7" height="157"/>
    </clipPath>
    <clipPath id="clippath-10">
      <polygon class="st0" points="175.3 59.5 176.2 59.5 176.7 211.4 175.3 211.4 175.3 59.5"/>
    </clipPath>
    <clipPath id="clippath-11">
      <rect class="st0" x="27.5" y="203.8" width="180.7" height="1"/>
    </clipPath>
    <clipPath id="clippath-12">
      <rect class="st0" x="27.5" y="171.8" width="180.7" height="1"/>
    </clipPath>
    <clipPath id="clippath-13">
      <rect class="st0" x="27.5" y="139.3" width="180.7" height="1"/>
    </clipPath>
    <clipPath id="clippath-14">
      <rect class="st0" x="27.5" y="107.3" width="180.7" height="1"/>
    </clipPath>
    <clipPath id="clippath-15">
      <rect class="st0" x="27.5" y="75.3" width="180.7" height="1"/>
    </clipPath>
    <clipPath id="clippath-16">
      <rect class="st0" x="52.8" y="54.4" width="1.4" height="157"/>
    </clipPath>
    <clipPath id="clippath-17">
      <rect class="st0" x="80.1" y="54.4" width="1.4" height="157"/>
    </clipPath>
    <clipPath id="clippath-18">
      <rect class="st0" x="107.4" y="54.4" width="1.4" height="157"/>
    </clipPath>
    <clipPath id="clippath-19">
      <rect class="st0" x="134.7" y="54.4" width="1.4" height="157"/>
    </clipPath>
    <clipPath id="clippath-20">
      <polygon class="st0" points="162 59.5 163.1 59.5 163.4 211.4 162 211.4 162 59.5"/>
    </clipPath>
    <clipPath id="clippath-21">
      <rect class="st0" x="189.3" y="54.4" width="1.4" height="157"/>
    </clipPath>
    <clipPath id="clippath-22">
      <rect class="st0" x="215.9" y="192.2" width="131.4" height=".7"/>
    </clipPath>
    <clipPath id="clippath-23">
      <rect class="st0" x="215.9" y="168.8" width="131.4" height=".3"/>
    </clipPath>
    <clipPath id="clippath-24">
      <rect class="st0" x="215.9" y="145.3" width="131.4" height=".3"/>
    </clipPath>
    <clipPath id="clippath-25">
      <rect class="st0" x="215.9" y="121.5" width="131.4" height=".7"/>
    </clipPath>
    <clipPath id="clippath-26">
      <rect class="st0" x="224.6" y="105.4" width="1" height="103.6"/>
    </clipPath>
    <clipPath id="clippath-27">
      <rect class="st0" x="244.4" y="105.4" width="1" height="103.6"/>
    </clipPath>
    <clipPath id="clippath-28">
      <rect class="st0" x="264.3" y="105.4" width="1" height="103.6"/>
    </clipPath>
    <clipPath id="clippath-29">
      <rect class="st0" x="284.1" y="105.4" width=".5" height="103.6"/>
    </clipPath>
    <clipPath id="clippath-30">
      <rect class="st0" x="304" y="105.4" width=".5" height="103.6"/>
    </clipPath>
    <clipPath id="clippath-31">
      <rect class="st0" x="323.9" y="105.4" width=".5" height="103.6"/>
    </clipPath>
    <clipPath id="clippath-32">
      <rect class="st0" x="215.9" y="204" width="131.4" height=".7"/>
    </clipPath>
    <clipPath id="clippath-33">
      <rect class="st0" x="215.9" y="180.5" width="131.4" height=".7"/>
    </clipPath>
    <clipPath id="clippath-34">
      <rect class="st0" x="215.9" y="156.7" width="131.4" height=".7"/>
    </clipPath>
    <clipPath id="clippath-35">
      <rect class="st0" x="215.9" y="133.3" width="131.4" height=".7"/>
    </clipPath>
    <clipPath id="clippath-36">
      <rect class="st0" x="215.9" y="109.8" width="131.4" height=".7"/>
    </clipPath>
    <clipPath id="clippath-37">
      <rect class="st0" x="234.7" y="105.4" width="1" height="103.6"/>
    </clipPath>
    <clipPath id="clippath-38">
      <rect class="st0" x="254.1" y="105.4" width="1" height="103.6"/>
    </clipPath>
    <clipPath id="clippath-39">
      <rect class="st0" x="274" y="105.4" width="1" height="103.6"/>
    </clipPath>
    <clipPath id="clippath-40">
      <rect class="st0" x="293.8" y="105.4" width="1" height="103.6"/>
    </clipPath>
    <clipPath id="clippath-41">
      <rect class="st0" x="313.7" y="105.4" width="1" height="103.6"/>
    </clipPath>
    <clipPath id="clippath-42">
      <rect class="st0" x="333.5" y="105.4" width="1" height="103.6"/>
    </clipPath>
  </defs>
  <g class="st4">
    <g class="st4">
      <g class="st4">
        <g class="st4">
          <text class="st5" transform="translate(139.7 243)"><tspan x="0" y="0">Created by: jpmoore | Source: ratings.fide.com</tspan></text>
        </g>
      </g>
    </g>
  </g>
  <g class="st4">
    <g class="st4">
      <text class="st7" transform="translate(44.6 219.8) scale(1.1 1)"><tspan x="0" y="0">2014</tspan></text>
    </g>
  </g>
  <g class="st4">
    <g class="st4">
      <g class="st4">
        <g class="st4">
          <text class="st7" transform="translate(114.5 219.8) scale(1.1 1)"><tspan x="0" y="0">2019</tspan></text>
        </g>
      </g>
    </g>
  </g>
  <g class="st4">
    <g class="st4">
      <g class="st4">
        <g class="st4">
          <text class="st7" transform="translate(181.9 219.8) scale(1.1 1)"><tspan x="0" y="0">2024</tspan></text>
        </g>
      </g>
    </g>
  </g>
  <g class="st4">
    <g class="st4">
      <text class="st6" transform="translate(107.2 32.7)"><tspan x="0" y="0">Under 18 by Age and Gender</tspan></text>
    </g>
  </g>
  <g class="st4">
    <g class="st4">
      <text class="st8" transform="translate(15.4 77.4)"><tspan x="0" y="0">40</tspan></text>
    </g>
  </g>
  <g class="st4">
    <g class="st4">
      <text class="st8" transform="translate(15.4 110.4)"><tspan x="0" y="0">30</tspan></text>
    </g>
  </g>
  <g class="st4">
    <g class="st4">
      <text class="st8" transform="translate(15.4 142.7)"><tspan x="0" y="0">20</tspan></text>
    </g>
  </g>
  <g class="st4">
    <g class="st4">
      <text class="st8" transform="translate(15.4 174.3)"><tspan x="0" y="0">10</tspan></text>
    </g>
  </g>
  <g class="st4">
    <g class="st4">
      <text class="st8" transform="translate(19.6 206.9)"><tspan x="0" y="0">0</tspan></text>
    </g>
  </g>
  <g class="st56">
    <path class="st2" d="M27.5,188.2h180.7"/>
  </g>
  <g class="st43">
    <path class="st2" d="M27.5,156h180.7"/>
  </g>
  <g class="st46">
    <path class="st2" d="M27.5,123.9h180.7"/>
  </g>
  <g class="st44">
    <path class="st2" d="M27.5,91.8h180.7"/>
  </g>
  <g class="st45">
    <path class="st2" d="M27.5,59.6h180.7"/>
  </g>
  <g class="st51">
    <path class="st2" d="M40.2,211.4V59.6"/>
  </g>
  <g class="st48">
    <path class="st2" d="M67.4,211.4V59.5"/>
  </g>
  <g class="st47">
    <path class="st2" d="M94.6,211.4V59.4"/>
  </g>
  <g class="st50">
    <path class="st2" d="M121.8,211.4V59.4"/>
  </g>
  <g class="st49">
    <path class="st2" d="M149,211.4V59.5"/>
  </g>
  <g class="st15">
    <path class="st2" d="M176.2,211.4V54.4"/>
  </g>
  <g class="st12">
    <path class="st1" d="M27.5,204.3h180.7"/>
  </g>
  <g class="st19">
    <path class="st1" d="M27.5,172.1h180.7"/>
  </g>
  <g class="st17">
    <path class="st1" d="M27.5,140h180.7"/>
  </g>
  <g class="st18">
    <path class="st1" d="M27.5,107.8h180.7"/>
  </g>
  <g class="st16">
    <path class="st1" d="M27.5,75.7h180.7"/>
  </g>
  <g class="st13">
    <path class="st1" d="M53.8,211.4V59.5"/>
  </g>
  <g class="st10">
    <path class="st1" d="M81,211.4V59.5"/>
  </g>
  <g class="st14">
    <path class="st1" d="M108.2,211.4V59.4"/>
  </g>
  <g class="st11">
    <path class="st1" d="M135.4,216.4V59.4"/>
  </g>
  <g class="st34">
    <path class="st1" d="M162.6,211.4V54.4"/>
  </g>
  <g class="st35">
    <path class="st1" d="M189.8,211.4V59.8"/>
  </g>
  <path class="st55" d="M35.7,165.7h2.1c0,0,2.1,0,2.1,0l2.1-.3,2.1-.5,2.1-.6,2.1-.9,2.1-1.1,2.1-1.1,2.1-.7,2.1-1.3,2.1-2,2.1-2.3,2.1-2.6,2.1-3.1,2.1-3.3,2.1-3.8,2.1-3.8,2.1-3.6,2.1-3.7,2.1-3.4,2.1-3.1,2.1-3.1,2.1-3.4,2.1-3.5,2.1-3,2.1-2.9,2.1-2.6,2.1-1.8,2.1-1.2,2.1-1.4,2.1-1.3,2.1-1,2.1-.7,2.1-.6,2.1-.8,2.1-.7,2.1-.7,2.1-1,2.1-1.1,2.1-.6,2.1-.4,2.1-.7,2.1-1.4,2.1-1.6,2.1-1,2.1-1.4,2.1-.8,2.1,1.6,2.1,3.8,2.1,2.4,2.1,1.9,2.1,1.8,2.1.8h2.1c0-.1,2.1.5,2.1.5l2.1.5,2.1,1.3,2.1,4.3,2.1,6,2.1,3.9,2.1,3.8,2.1,2.2,2.1-.9,2.1-2.2,2.1-2,2.1-3.3,2.1-3.1,2.1-2,2.1-1.8,2.1-2.3,2.1-2.3,2.1-2.9,2.1-3.5,2.1-4.1,2.1-4.7,2.1-5.2,2.1-5.7,2.1-6.3,2.1-6.8v68.5l-2.1,4.2-2.1,3.7-2.1,3.3-2.1,2.9-2.1,2.6-2.1,2-2.1,1.7-2.1,1.5-2.1,1.3-2.1,1.2-2.1,1-2.1,1.1-2.1,1.7-2.1,1.7-2.1,1.1-2.1,1.4-2.1.8-2.1-.8-2.1-1.5-2.1-1.6-2.1-2.4-2.1-2.1-2.1-1.4-2.1-1.3-2.1-1.5-2.1-1.7-2.1-1.9-2.1-2.2-2.1-2.2-2.1-2.3-2.1-2.9-2.1-1.4-2.1.2-2.1.6-2.1.4-2.1,1-2.1.8-2.1.2h-2.1c0-.1-2.1,0-2.1,0l-2.1.7-2.1.5h-2.1c0,.1-2.1.2-2.1.2l-2.1.3h-2.1c0,0-2.1.3-2.1.3l-2.1.6-2.1.9-2.1.9-2.1.6-2.1,1.1-2.1,1.8-2.1,2-2.1,2.1-2.1,2.7-2.1,2.5-2.1,2.1-2.1,2.1-2.1,2.4-2.1,2.7-2.1,2.5-2.1,2.6-2.1,2.5-2.1,2.2-2.1,1.9-2.1,1.6-2.1,1.6-2.1,1.4-2.1.8-2.1.4-2.1.7-2.1.7-2.1.5-2.1.3-2.1.2h-2.1c0,.1-2.1.1-2.1.1h-2.1v-19.9Z"/>
  <path class="st9" d="M35.7,185.5h2.1c0,.1,2.1.1,2.1.1h2.1c0-.1,2.1-.4,2.1-.4l2.1-.3,2.1-.5,2.1-.7,2.1-.7,2.1-.4,2.1-.8,2.1-1.4,2.1-1.6,2.1-1.6,2.1-1.9,2.1-2.2,2.1-2.5,2.1-2.6,2.1-2.5,2.1-2.7,2.1-2.4,2.1-2.1,2.1-2.1,2.1-2.5,2.1-2.7,2.1-2.1,2.1-2,2.1-1.8,2.1-1.1,2.1-.6,2.1-.9,2.1-.9,2.1-.6,2.1-.2h2.1c0,0,2.1-.4,2.1-.4h2.1c0-.1,2.1-.2,2.1-.2l2.1-.5,2.1-.7h2.1c0-.1,2.1,0,2.1,0l2.1-.2,2.1-.8,2.1-1,2.1-.4,2.1-.6,2.1-.2,2.1,1.4,2.1,2.9,2.1,2.3,2.1,2.2,2.1,2.2,2.1,1.9,2.1,1.7,2.1,1.5,2.1,1.3,2.1,1.4,2.1,2.1,2.1,2.4,2.1,1.6,2.1,1.5,2.1.8,2.1-.8,2.1-1.4,2.1-1.1,2.1-1.7,2.1-1.7,2.1-1.1,2.1-1,2.1-1.2,2.1-1.3,2.1-1.5,2.1-1.7,2.1-2,2.1-2.6,2.1-2.9,2.1-3.3,2.1-3.7,2.1-4.2v47.4l-2.1,1.1-2.1,1-2.1,1-2.1.9-2.1.8-2.1.7-2.1.6-2.1.5-2.1.4-2.1.4-2.1.2-2.1.3-2.1.5-2.1.5-2.1.3-2.1.4h-2.1c0,.1-2.1-.3-2.1-.3l-2.1-.7-2.1-.7-2.1-1.1-2.1-.8-2.1-.3h-2.1c0-.1-2.1-.3-2.1-.3h-2.1s-2.1-.3-2.1-.3l-2.1-.4-2.1-.4-2.1-.5-2.1-.7-2.1-.3h-2.1c0,.1-2.1.4-2.1.4l-2.1.2-2.1.3-2.1.3-2.1.2h-2.1c0,.1-2.1.2-2.1.2l-2.1.2-2.1.2h-2.1s-2.1,0-2.1,0h-2.1c0,0-2.1.2-2.1.2h-2.1c0,.1-2.1.3-2.1.3l-2.1.2-2.1.3-2.1.2-2.1.4-2.1.5-2.1.5-2.1.6-2.1.8-2.1.7-2.1.7-2.1.7-2.1.8-2.1.8-2.1.8-2.1.8-2.1.7-2.1.7-2.1.6-2.1.5-2.1.5-2.1.4-2.1.3-2.1.2-2.1.3-2.1.3-2.1.2-2.1.2h-2.1c0,.1-2.1.2-2.1.2h-2.1s-2.1,0-2.1,0v-10.6Z"/>
  <path class="st53" d="M35.7,196.2h2.1s2.1,0,2.1,0h2.1c0,0,2.1-.2,2.1-.2l2.1-.2,2.1-.2,2.1-.3,2.1-.3,2.1-.2,2.1-.3,2.1-.4,2.1-.5,2.1-.5,2.1-.6,2.1-.7,2.1-.7,2.1-.8,2.1-.8,2.1-.8,2.1-.8,2.1-.7,2.1-.7,2.1-.7,2.1-.8,2.1-.6,2.1-.5,2.1-.5,2.1-.4,2.1-.2,2.1-.3,2.1-.2,2.1-.2h2.1c0-.1,2.1-.2,2.1-.2h2.1c0,0,2.1-.1,2.1-.1h2.1s2.1-.2,2.1-.2l2.1-.2h2.1c0-.1,2.1-.2,2.1-.2l2.1-.2,2.1-.3,2.1-.3,2.1-.2,2.1-.2h2.1c0-.1,2.1.2,2.1.2l2.1.7,2.1.5,2.1.4,2.1.4,2.1.2h2.1s2.1.2,2.1.2h2.1c0,.1,2.1.4,2.1.4l2.1.8,2.1,1.1,2.1.7,2.1.7,2.1.5h2.1c0-.1,2.1-.5,2.1-.5l2.1-.3,2.1-.5,2.1-.5,2.1-.3,2.1-.2,2.1-.4,2.1-.4,2.1-.5,2.1-.6,2.1-.7,2.1-.8,2.1-.9,2.1-1,2.1-1,2.1-1.1v15.4l-2.1.8-2.1.7-2.1.6-2.1.5-2.1.4-2.1.3-2.1.2-2.1.2-2.1.2-2.1.2h-2.1c0,.1-2.1.3-2.1.3l-2.1.2-2.1.2h-2.1c0,.1-2.1.4-2.1.4h-2.1c0,.1-2.1,0-2.1,0l-2.1-.2-2.1-.2-2.1-.2-2.1-.3-2.1-.3-2.1-.3-2.1-.4-2.1-.5-2.1-.5-2.1-.5-2.1-.5-2.1-.4-2.1-.5-2.1-.2h-2.1s-2.1.1-2.1.1h-2.1s-2.1.1-2.1.1h-2.1c0,0-2.1,0-2.1,0h-2.1c0-.1-2.1-.2-2.1-.2h-2.1c0,0-2.1.1-2.1.1h-2.1c0,0-2.1-.1-2.1-.1h-2.1s-2.1,0-2.1,0h-2.1s-2.1,0-2.1,0l-2.1.2-2.1.2h-2.1c0,0-2.1.3-2.1.3l-2.1.3-2.1.3-2.1.4-2.1.5-2.1.4-2.1.4-2.1.3-2.1.4-2.1.5-2.1.5-2.1.5-2.1.5-2.1.4-2.1.3-2.1.3-2.1.3-2.1.3-2.1.2h-2.1c0,0-2.1.2-2.1.2h-2.1c0,.1-2.1.2-2.1.2h-2.1c0,0-2.1.1-2.1.1h-2.1s-2.1,0-2.1,0h-2.1v-5.4Z"/>
  <path class="st52" d="M35.7,201.5h2.1s2.1,0,2.1,0h2.1s2.1,0,2.1,0h2.1c0,0,2.1-.2,2.1-.2h2.1c0-.1,2.1-.3,2.1-.3h2.1c0,0,2.1-.2,2.1-.2l2.1-.3,2.1-.3,2.1-.3,2.1-.3,2.1-.4,2.1-.5,2.1-.5,2.1-.5,2.1-.5,2.1-.4,2.1-.3,2.1-.4,2.1-.4,2.1-.5,2.1-.4,2.1-.3,2.1-.3,2.1-.2h2.1c0,0,2.1-.3,2.1-.3l2.1-.2h2.1c0-.1,2.1,0,2.1,0h2.1c0,0,2.1,0,2.1,0h2.1c0,0,2.1.1,2.1.1h2.1s2.1-.1,2.1-.1h2.1c0,0,2.1.2,2.1.2h2.1s2.1,0,2.1,0h2.1c0,0,2.1-.1,2.1-.1h2.1c0,0,2.1-.1,2.1-.1l2.1.2,2.1.5,2.1.4,2.1.5,2.1.5,2.1.5,2.1.5,2.1.4,2.1.3,2.1.3,2.1.3,2.1.2,2.1.2,2.1.2h2.1c0,0,2.1,0,2.1,0l2.1-.2h2.1c0-.1,2.1-.3,2.1-.3l2.1-.2,2.1-.2h2.1c0-.1,2.1-.3,2.1-.3l2.1-.2,2.1-.2,2.1-.2,2.1-.3,2.1-.4,2.1-.5,2.1-.6,2.1-.7,2.1-.8v11.4H35.7v-2.8Z"/>
  <text class="st54" transform="translate(5.7 61.1)"><tspan x="0" y="0">(’000)</tspan></text>
  <rect class="st55" x="223.5" y="71" width="10.8" height="10.8" rx="1.9" ry="1.9"/>
  <rect class="st53" x="245.8" y="71" width="10.8" height="10.8" rx="2" ry="2"/>
  <g class="st4">
    <g class="st4">
      <text class="st3" transform="translate(223 65.4)"><tspan x="0" y="0">Boys</tspan></text>
    </g>
  </g>
  <g class="st4">
    <g class="st4">
      <g class="st4">
        <g class="st4">
          <text class="st3" transform="translate(246 65.4)"><tspan x="0" y="0">Girls</tspan></text>
        </g>
      </g>
    </g>
  </g>
  <g class="st4">
    <g class="st4">
      <text class="st3" transform="translate(267 79.1)"><tspan x="0" y="0">13 to 17</tspan></text>
    </g>
  </g>
  <g class="st4">
    <g class="st4">
      <text class="st3" transform="translate(268 91.3)"><tspan x="0" y="0">under 13</tspan></text>
    </g>
  </g>
  <rect class="st9" x="223.5" y="83.4" width="10.8" height="10.8" rx="1.9" ry="1.9"/>
  <rect class="st52" x="245.8" y="83.6" width="10.8" height="10.8" rx="1.9" ry="1.9"/>
  <g class="st4">
    <g class="st4">
      <g class="st4">
        <g class="st4">
          <text class="st7" transform="translate(227.8 218.4) scale(1.1 1)"><tspan x="0" y="0">2014</tspan></text>
        </g>
      </g>
    </g>
  </g>
  <g class="st4">
    <g class="st4">
      <g class="st4">
        <g class="st4">
          <text class="st7" transform="translate(277.1 218.4) scale(1.1 1)"><tspan x="0" y="0">2019</tspan></text>
        </g>
      </g>
    </g>
  </g>
  <g class="st4">
    <g class="st4">
      <g class="st4">
        <g class="st4">
          <text class="st7" transform="translate(325.4 218.4) scale(1.1 1)"><tspan x="0" y="0">2024</tspan></text>
        </g>
      </g>
    </g>
  </g>
  <g class="st4">
    <g class="st4">
      <text class="st8" transform="translate(348.7 112.9)"><tspan x="0" y="0">100</tspan></text>
    </g>
  </g>
  <g class="st4">
    <g class="st4">
      <text class="st8" transform="translate(349.7 135.4)"><tspan x="0" y="0">75</tspan></text>
    </g>
  </g>
  <g class="st4">
    <g class="st4">
      <text class="st8" transform="translate(349.7 159.2)"><tspan x="0" y="0">50</tspan></text>
    </g>
  </g>
  <g class="st4">
    <g class="st4">
      <text class="st8" transform="translate(349.7 183)"><tspan x="0" y="0">25</tspan></text>
    </g>
  </g>
  <g class="st4">
    <g class="st4">
      <text class="st8" transform="translate(349.7 206.5)"><tspan x="0" y="0">0</tspan></text>
    </g>
  </g>
  <g class="st36">
    <path class="st2" d="M215.9,192.5h131.4"/>
  </g>
  <g class="st37">
    <path class="st2" d="M215.9,169h131.4"/>
  </g>
  <g class="st38">
    <path class="st2" d="M215.9,145.4h131.4"/>
  </g>
  <g class="st39">
    <path class="st2" d="M215.9,121.9h131.4"/>
  </g>
  <g class="st32">
    <path class="st2" d="M225.1,209v-103.6"/>
  </g>
  <g class="st30">
    <path class="st2" d="M244.9,209v-103.6"/>
  </g>
  <g class="st33">
    <path class="st2" d="M264.7,209v-103.6"/>
  </g>
  <g class="st31">
    <path class="st2" d="M284.5,209v-103.6"/>
  </g>
  <g class="st26">
    <path class="st2" d="M304.2,209v-103.6"/>
  </g>
  <g class="st20">
    <path class="st2" d="M324,209v-103.6"/>
  </g>
  <g class="st21">
    <path class="st1" d="M215.9,204.3h131.4"/>
  </g>
  <g class="st22">
    <path class="st1" d="M215.9,180.7h131.4"/>
  </g>
  <g class="st23">
    <path class="st1" d="M215.9,157.2h131.4"/>
  </g>
  <g class="st24">
    <path class="st1" d="M215.9,133.7h131.4"/>
  </g>
  <g class="st27">
    <path class="st1" d="M215.9,110.1h131.4"/>
  </g>
  <g class="st28">
    <path class="st1" d="M235,209v-103.6"/>
  </g>
  <g class="st29">
    <path class="st1" d="M254.8,209v-103.6"/>
  </g>
  <g class="st25">
    <path class="st1" d="M274.6,209v-103.6"/>
  </g>
  <g class="st42">
    <path class="st1" d="M294.4,209v-103.6"/>
  </g>
  <g class="st40">
    <path class="st1" d="M314.1,209v-103.6"/>
  </g>
  <g class="st41">
    <path class="st1" d="M333.9,209v-103.6"/>
  </g>
  <path class="st55" d="M221.8,110.1h119.5v45.2l-1.5.4-1.5.4-1.5.3-1.5.2-1.5.2h-1.5s-1.5-.2-1.5-.2h-1.5s-1.5,0-1.5,0h-1.5c0,0-1.5.2-1.5.2h-1.5c0,.1-1.5.2-1.5.2h-1.5c0,0-1.5.2-1.5.2l-1.5.3-1.5.4-1.5.3-1.5.3-1.5.3-1.5.5h-1.5c0,0-1.5-.8-1.5-.8l-1.5-.9-1.5-1-1.5-1.5-1.5-1.3-1.5-1.1-1.5-1-1.5-.8-1.5-.6-1.5-.3-1.5-.2-1.5-.2-1.5-.2h-1.5s-1.5,0-1.5,0l-1.5-.2-1.5-.3-1.5-.2h-1.5s-1.5,0-1.5,0l-1.5-.2-1.5-.3-1.5-.2-1.5-.3-1.5-.2h-1.5s-1.5,0-1.5,0h-1.5s-1.5-.1-1.5-.1h-1.5s-1.5.2-1.5.2l-1.5.3-1.5.3-1.5.7-1.5.6-1.5.4-1.5.4-1.5.6-1.5.8-1.5.7-1.5.8-1.5.8-1.5.7-1.5.4-1.5.6-1.5.8-1.5.8-1.5.3h-1.5s-1.5.3-1.5.3l-1.5.3-1.5.2h-1.5c0,0-1.5.1-1.5.1h-1.5c0,0-1.5-.2-1.5-.2l-1.5-.2v-48.3Z"/>
  <path class="st9" d="M221.8,158.5l1.5.2,1.5.2h1.5c0,0,1.5,0,1.5,0h1.5c0,0,1.5-.3,1.5-.3l1.5-.3,1.5-.3h1.5s1.5-.4,1.5-.4l1.5-.8,1.5-.8,1.5-.6,1.5-.4,1.5-.7,1.5-.8,1.5-.8,1.5-.7,1.5-.8,1.5-.6,1.5-.4,1.5-.4,1.5-.6,1.5-.7,1.5-.3,1.5-.3,1.5-.2h1.5s1.5.1,1.5.1h1.5s1.5-.1,1.5-.1h1.5s1.5.2,1.5.2l1.5.3,1.5.2,1.5.3,1.5.2h1.5s1.5,0,1.5,0l1.5.2,1.5.3,1.5.2h1.5s1.5,0,1.5,0l1.5.2,1.5.2,1.5.2,1.5.3,1.5.6,1.5.8,1.5,1,1.5,1.1,1.5,1.3,1.5,1.5,1.5,1,1.5.9,1.5.7h1.5c0,0,1.5-.4,1.5-.4l1.5-.3,1.5-.3,1.5-.3,1.5-.4,1.5-.3h1.5c0-.1,1.5-.2,1.5-.2h1.5c0-.1,1.5-.2,1.5-.2h1.5c0,0,1.5-.2,1.5-.2h1.5c0,0,1.5,0,1.5,0h1.5c0,.1,1.5.2,1.5.2l1.5-.2,1.5-.2,1.5-.3,1.5-.4,1.5-.4v31.3h-1.5c0-.1-1.5-.2-1.5-.2h-1.5c0,0-1.5-.2-1.5-.2h-1.5c0,0-1.5-.2-1.5-.2h-1.5c0,0-1.5-.1-1.5-.1h-1.5c0,0-1.5-.1-1.5-.1h-1.5c0-.1-1.5-.2-1.5-.2h-1.5c0-.1-1.5-.3-1.5-.3h-1.5c0-.1-1.5-.2-1.5-.2h-1.5c0,0-1.5,0-1.5,0h-1.5s-1.5,0-1.5,0h-1.5c0,0-1.5.1-1.5.1h-1.5s-1.5,0-1.5,0h-1.5s-1.5,0-1.5,0h-1.5s-1.5,0-1.5,0h-1.5s-1.5,0-1.5,0h-1.5s-1.5,0-1.5,0h-1.5s-1.5,0-1.5,0h-1.5s-1.5,0-1.5,0h-1.5s-1.5,0-1.5,0h-1.5s-1.5,0-1.5,0h-1.5s-1.5,0-1.5,0h-1.5c0,0-1.5-.2-1.5-.2h-1.5c0,0-1.5-.1-1.5-.1h-1.5s-1.5,0-1.5,0h-1.5s-1.5,0-1.5,0h-1.5s-1.5,0-1.5,0h-1.5c0,0-1.5-.1-1.5-.1h-1.5s-1.5,0-1.5,0h-1.5s-1.5,0-1.5,0h-1.5c0,0-1.5.1-1.5.1h-1.5s-1.5,0-1.5,0h-1.5c0,0-1.5-.2-1.5-.2h-1.5c0,0-1.5-.2-1.5-.2h-1.5s-1.5,0-1.5,0h-1.5s-1.5,0-1.5,0h-1.5c0,0-1.5.1-1.5.1h-1.5s-1.5,0-1.5,0h-1.5s-1.5,0-1.5,0h-1.5s-1.5,0-1.5,0h-1.5s0-26,0-26Z"/>
  <path class="st53" d="M221.8,184.5h1.5s1.5,0,1.5,0h1.5s1.5,0,1.5,0h1.5s1.5,0,1.5,0h1.5s1.5,0,1.5,0h1.5c0,0,1.5-.1,1.5-.1h1.5s1.5,0,1.5,0h1.5s1.5.1,1.5.1h1.5c0,0,1.5.2,1.5.2h1.5c0,0,1.5,0,1.5,0h1.5s1.5,0,1.5,0h1.5c0,0,1.5-.1,1.5-.1h1.5s1.5,0,1.5,0h1.5s1.5,0,1.5,0h1.5c0,0,1.5,0,1.5,0h1.5s1.5,0,1.5,0h1.5s1.5,0,1.5,0h1.5s1.5,0,1.5,0h1.5c0,0,1.5.2,1.5.2h1.5c0,0,1.5.1,1.5.1h1.5s1.5,0,1.5,0h1.5s1.5,0,1.5,0h1.5s1.5,0,1.5,0h1.5s1.5,0,1.5,0h1.5s1.5,0,1.5,0h1.5s1.5,0,1.5,0h1.5s1.5,0,1.5,0h1.5s1.5.1,1.5.1h1.5s1.5,0,1.5,0h1.5s1.5,0,1.5,0h1.5c0,0,1.5-.1,1.5-.1h1.5s1.5,0,1.5,0h1.5c0,0,1.5.2,1.5.2h1.5c0,.1,1.5.2,1.5.2h1.5c0,.1,1.5.2,1.5.2h1.5c0,.1,1.5.2,1.5.2h1.5c0,0,1.5.1,1.5.1h1.5c0,0,1.5.2,1.5.2h1.5c0,0,1.5.2,1.5.2h1.5c0,0,1.5.2,1.5.2h1.5v10.2h-1.5c0,.1-1.5.3-1.5.3h-1.5c0,.1-1.5.2-1.5.2h-1.5c0,0-1.5,0-1.5,0h-1.5s-1.5,0-1.5,0h-1.5s-1.5,0-1.5,0h-1.5s-1.5,0-1.5,0h-1.5s-1.5,0-1.5,0h-1.5s-1.5,0-1.5,0h-1.5c0,0-1.5.2-1.5.2h-1.5c0,0-1.5.2-1.5.2l-1.5.2h-1.5s-1.5-.2-1.5-.2l-1.5-.2-1.5-.3-1.5-.4-1.5-.3-1.5-.3-1.5-.3-1.5-.2h-1.5c0-.1-1.5-.2-1.5-.2h-1.5s-1.5,0-1.5,0h-1.5c0,0-1.5-.1-1.5-.1h-1.5c0,0-1.5-.1-1.5-.1h-1.5c0-.1-1.5-.2-1.5-.2h-1.5s-1.5,0-1.5,0h-1.5c0-.1-1.5-.2-1.5-.2h-1.5c0,0-1.5-.2-1.5-.2h-1.5c0,0-1.5,0-1.5,0h-1.5s-1.5,0-1.5,0h-1.5s-1.5,0-1.5,0h-1.5s-1.5,0-1.5,0h-1.5c0,0-1.5.2-1.5.2h-1.5c0,.1-1.5.2-1.5.2h-1.5s-1.5.2-1.5.2l-1.5.2-1.5.2-1.5.2-1.5.2-1.5.2h-1.5c0,.1-1.5.3-1.5.3l-1.5.3-1.5.3h-1.5c0,.1-1.5.2-1.5.2h-1.5c0,.1-1.5.2-1.5.2h-1.5c0,0-1.5.2-1.5.2h-1.5s-1.5,0-1.5,0h-1.5s-1.5,0-1.5,0v-13Z"/>
  <path class="st52" d="M221.8,197.5h1.5s1.5,0,1.5,0h1.5s1.5,0,1.5,0h1.5c0,0,1.5-.2,1.5-.2h1.5c0-.1,1.5-.2,1.5-.2h1.5s1.5-.2,1.5-.2l1.5-.3,1.5-.3,1.5-.2h1.5c0-.1,1.5-.3,1.5-.3l1.5-.2,1.5-.2,1.5-.2,1.5-.2h1.5c0-.1,1.5-.2,1.5-.2h1.5s1.5-.2,1.5-.2h1.5c0-.1,1.5-.2,1.5-.2h1.5c0,0,1.5,0,1.5,0h1.5s1.5,0,1.5,0h1.5s1.5,0,1.5,0h3c0,0,1.5.2,1.5.2h1.5c0,0,1.5.2,1.5.2h1.5c0,.1,1.5.2,1.5.2h1.5s1.5.1,1.5.1h1.5c0,.1,1.5.2,1.5.2h1.5c0,0,1.5,0,1.5,0h1.5c0,0,1.5,0,1.5,0h1.5s1.5,0,1.5,0h1.5c0,.1,1.5.3,1.5.3l1.5.3,1.5.3,1.5.3,1.5.4,1.5.3,1.5.2,1.5.2h1.5s1.5-.2,1.5-.2h1.5c0,0,1.5-.2,1.5-.2h1.5c0,0,1.5-.2,1.5-.2h1.5c0,0,1.5,0,1.5,0h1.5s1.5,0,1.5,0h1.5s1.5,0,1.5,0h1.5s1.5,0,1.5,0h1.5s1.5,0,1.5,0h1.5s1.5,0,1.5,0h1.5c0,0,1.5-.2,1.5-.2h1.5c0-.1,1.5-.3,1.5-.3v7.5h-119.5v-6.7Z"/>
  <text class="st54" transform="translate(360 159.5)"><tspan x="0" y="0">(%)</tspan></text>
</svg>