<?xml version="1.0" encoding="UTF-8"?>
<svg id="Layer_1" xmlns="http://www.w3.org/2000/svg" xmlns:xlink="http://www.w3.org/1999/xlink" version="1.1" viewBox="0 0 646.5 558.5">
  <!-- Generator: Adobe Illustrator 29.2.0, SVG Export Plug-In . SVG Version: 2.1.0 Build 108)  -->
  <defs>
    <style>
      .st0, .st1, .st2, .st3, .st4, .st5, .st6, .st7, .st8, .st9 {
        fill: none;
      }

      .st1 {
        stroke-dasharray: .9 .9;
      }

      .st1, .st2, .st5, .st6, .st7, .st9 {
        stroke-miterlimit: 10;
      }

      .st1, .st7, .st8, .st9 {
        stroke: #000;
      }

      .st1, .st7, .st9 {
        stroke-width: .5px;
      }

      .st10 {
        fill: #f3c677;
      }

      .st10, .st11, .st12, .st13, .st14, .st15, .st16 {
        fill-opacity: .9;
      }

      .st11 {
        fill: #c94f4f;
      }

      .st17, .st18, .st19, .st20, .st21 {
        isolation: isolate;
      }

      .st17, .st18, .st22, .st20, .st21 {
        font-family: Avenir-Book, Avenir;
      }

      .st17, .st22 {
        font-size: 13px;
      }

      .st12 {
        fill: #007f5f;
      }

      .st2 {
        stroke: #e58e53;
      }

      .st2, .st5, .st6 {
        stroke-width: .8px;
      }

      .st13 {
        fill: #e58e53;
      }

      .st3 {
        stroke-width: .5px;
      }

      .st3, .st4 {
        stroke: #fff;
      }

      .st3, .st4, .st8 {
        stroke-linejoin: round;
      }

      .st18 {
        font-size: 24px;
      }

      .st4 {
        stroke-width: 1.1px;
      }

      .st23 {
        clip-path: url(#clippath-11);
      }

      .st24 {
        clip-path: url(#clippath-16);
      }

      .st25 {
        clip-path: url(#clippath-10);
      }

      .st26 {
        clip-path: url(#clippath-15);
      }

      .st27 {
        clip-path: url(#clippath-13);
      }

      .st28 {
        clip-path: url(#clippath-14);
      }

      .st29 {
        clip-path: url(#clippath-12);
      }

      .st30 {
        fill: #f8f5ec;
      }

      .st31 {
        clip-path: url(#clippath-1);
      }

      .st32 {
        clip-path: url(#clippath-3);
      }

      .st33 {
        clip-path: url(#clippath-4);
      }

      .st34 {
        clip-path: url(#clippath-2);
      }

      .st35 {
        clip-path: url(#clippath-7);
      }

      .st36 {
        clip-path: url(#clippath-6);
      }

      .st37 {
        clip-path: url(#clippath-9);
      }

      .st38 {
        clip-path: url(#clippath-8);
      }

      .st39 {
        clip-path: url(#clippath-5);
      }

      .st5 {
        stroke: #c13e3e;
      }

      .st6 {
        stroke: #3bad9f;
      }

      .st8 {
        stroke-linecap: round;
        stroke-width: .6px;
      }

      .st9 {
        stroke-dasharray: 1 1;
      }

      .st20 {
        font-size: 11px;
      }

      .st14 {
        fill: #2a3b58;
      }

      .st15 {
        fill: #8f6aa3;
      }

      .st21 {
        font-size: 14px;
      }

      .st40 {
        clip-path: url(#clippath);
      }

      .st16 {
        fill: #90d1c9;
      }
    </style>
    <clipPath id="clippath">
      <rect class="st0" x="113.8" y="101.2" width="374.4" height="360.1"/>
    </clipPath>
    <clipPath id="clippath-1">
      <rect class="st0" x="127.9" y="91.6" width="2.2" height="360.1"/>
    </clipPath>
    <clipPath id="clippath-2">
      <rect class="st0" x="224.7" y="91.6" width="1.1" height="360.1"/>
    </clipPath>
    <clipPath id="clippath-3">
      <rect class="st0" x="319.9" y="91.6" width="1.1" height="360.1"/>
    </clipPath>
    <clipPath id="clippath-4">
      <rect class="st0" x="416.1" y="91.6" width="2.2" height="360.1"/>
    </clipPath>
    <clipPath id="clippath-5">
      <rect class="st0" x="113.8" y="436.1" width="374.4" height="1.7"/>
    </clipPath>
    <clipPath id="clippath-6">
      <rect class="st0" x="113.8" y="391.9" width="374.4" height="1.7"/>
    </clipPath>
    <clipPath id="clippath-7">
      <rect class="st0" x="113.8" y="348.6" width="374.4" height="1.7"/>
    </clipPath>
    <clipPath id="clippath-8">
      <rect class="st0" x="113.8" y="304.4" width="374.4" height="1.7"/>
    </clipPath>
    <clipPath id="clippath-9">
      <rect class="st0" x="113.8" y="260.3" width="374.4" height="1.7"/>
    </clipPath>
    <clipPath id="clippath-10">
      <rect class="st0" x="113.8" y="216.1" width="374.4" height="1.7"/>
    </clipPath>
    <clipPath id="clippath-11">
      <rect class="st0" x="129" y="171.9" width="374.4" height="1.7"/>
    </clipPath>
    <clipPath id="clippath-12">
      <rect class="st0" x="176.3" y="91.6" width="2.2" height="360.1"/>
    </clipPath>
    <clipPath id="clippath-13">
      <rect class="st0" x="272" y="91.6" width="2.2" height="360.1"/>
    </clipPath>
    <clipPath id="clippath-14">
      <rect class="st0" x="366.6" y="91.6" width="2.2" height="360.1"/>
    </clipPath>
    <clipPath id="clippath-15">
      <rect class="st0" x="464.5" y="91.6" width="2.2" height="360.1"/>
    </clipPath>
    <clipPath id="clippath-16">
      <rect class="st0" x="130.1" y="103.5" width="342.1" height="70.1"/>
    </clipPath>
  </defs>
  <rect class="st30" width="646.5" height="558.5"/>
  <g class="st19">
    <text class="st17" transform="translate(69.3 173.7)"><tspan x="0" y="0">Classics</tspan></text>
  </g>
  <g class="st19">
    <text class="st17" transform="translate(74.1 218.7)"><tspan x="0" y="0">Thriller</tspan></text>
  </g>
  <g class="st19">
    <text class="st17" transform="translate(31.7 262.7)"><tspan x="0" y="0">Literary Ficton</tspan></text>
  </g>
  <g class="st19">
    <text class="st17" transform="translate(41.8 306.7)"><tspan x="0" y="0">Young Adult</tspan></text>
  </g>
  <g class="st19">
    <text class="st17" transform="translate(26.8 351.7)"><tspan x="0" y="0">Science Fiction</tspan></text>
  </g>
  <g class="st19">
    <text class="st17" transform="translate(49.8 395.7)"><tspan x="0" y="0">Romantasy</tspan></text>
  </g>
  <g class="st19">
    <text class="st17" transform="translate(38.2 439.7)"><tspan x="0" y="0">High Fantasy</tspan></text>
  </g>
  <g class="st19">
    <text class="st18" transform="translate(18.8 42.3)"><tspan x="0" y="0">Fantasy Book Genres Rated the Highest</tspan></text>
  </g>
  <g class="st19">
    <text class="st20" transform="translate(168.9 470.7)"><tspan x="0" y="0">3.5</tspan></text>
  </g>
  <g class="st19">
    <text class="st20" transform="translate(265.4 470.9)"><tspan x="0" y="0">4.0</tspan></text>
  </g>
  <g class="st19">
    <text class="st20" transform="translate(362 471)"><tspan x="0" y="0">4.5</tspan></text>
  </g>
  <g class="st19">
    <text class="st20" transform="translate(457.7 471.1)"><tspan x="0" y="0">5.0</tspan></text>
  </g>
  <g class="st19">
    <text class="st21" transform="translate(20.7 63.2)"><tspan x="0" y="0">according to Goodreads’ 50-most-shelved per genre</tspan></text>
  </g>
  <text/>
  <g class="st40">
    <path class="st30" d="M113.8,461.3h374.4V101.2H113.8v360.1Z"/>
  </g>
  <g class="st31">
    <path class="st3" d="M128.9,451.7V91.6"/>
  </g>
  <g class="st34">
    <path class="st3" d="M225.1,451.7V91.6"/>
  </g>
  <g class="st32">
    <path class="st3" d="M320.6,451.7V91.6"/>
  </g>
  <g class="st33">
    <path class="st3" d="M417.3,451.7V91.6"/>
  </g>
  <g class="st39">
    <path class="st4" d="M129,437.2h359.2"/>
  </g>
  <g class="st36">
    <path class="st4" d="M128.9,393.1h359.3"/>
  </g>
  <g class="st35">
    <path class="st4" d="M128.9,349.1h359.3"/>
  </g>
  <g class="st38">
    <path class="st4" d="M129,305h359.2"/>
  </g>
  <g class="st37">
    <path class="st4" d="M128.9,260.9h359.3"/>
  </g>
  <g class="st25">
    <path class="st4" d="M129,216.8h359.2"/>
  </g>
  <g class="st23">
    <path class="st4" d="M129,172.8h374.4"/>
  </g>
  <g class="st29">
    <path class="st4" d="M177,451.7V91.6"/>
  </g>
  <g class="st27">
    <path class="st4" d="M273.1,451.7V91.6"/>
  </g>
  <g class="st28">
    <path class="st4" d="M368.1,451.7V91.6"/>
  </g>
  <g class="st26">
    <path class="st4" d="M465.4,451.7V91.6"/>
  </g>
  <g class="st24">
    <g>
      <path class="st12" d="M130.8,172.8h2s.7,0,.7,0h.7s2.7,0,2.7,0h2.7s.7,0,.7,0h.7s.7,0,.7,0h.7s1.3,0,1.3,0h1.3s.7,0,.7,0h1.3c0,0,.7,0,.7,0h.7s.7,0,.7,0h.7s.7,0,.7,0h.7s.7-.1.7-.1h.7c0,0,1.3-.2,1.3-.2h.7c0,0,1.3-.2,1.3-.2h.7c0,0,.7-.2.7-.2h.7c0,0,.7-.2.7-.2h.7c0-.1.7-.2.7-.2h.7c0-.1.7-.2.7-.2h.7c0-.1.7-.3.7-.3h.7c0-.1.7-.3.7-.3h.7c0-.1.7-.3.7-.3l.7-.2.7-.2.7-.2.7-.2.7-.2.7-.2.7-.2,1.3-.4,1.3-.4,1.3-.4,1.3-.4.7-.2.7-.2.7-.2.7-.2.7-.2.7-.2.7-.2.7-.2.7-.2.7-.2.7-.2.7-.2.7-.2.7-.2.7-.2.7-.2h.7c0-.1.7-.3.7-.3h.7c0-.1.7-.3.7-.3h.7c0-.1.7-.2.7-.2h.7c0-.1.7-.2.7-.2h.7c0,0,.7-.2.7-.2h.7c0,0,.7-.2.7-.2h.7c0,0,1.3-.2,1.3-.2h.7c0,0,2.7-.3,2.7-.3h.7s1.3-.2,1.3-.2h.7c0,0,.7-.1.7-.1h.7c0,0,.7-.2.7-.2h.7c0,0,.7-.2.7-.2h.7c0-.1.7-.2.7-.2h.7c0-.1.7-.3.7-.3l.7-.2.7-.2.7-.2.7-.2.7-.2.7-.3.7-.3.7-.3.7-.3.7-.3.7-.4.7-.4.7-.4.7-.4.7-.5.7-.5.7-.5.7-.5.7-.6.7-.6.7-.6.7-.6.7-.7.7-.7.7-.7.7-.7.7-.7.7-.8.7-.8.7-.8.7-.8.7-.8.7-.8.7-.9.7-.9.7-.9.7-.9.7-.9.7-.9.7-.9.7-.9,1.3-1.9.7-1,2-2.9,1.3-1.9.7-1,.7-.9.7-.9.7-.9.7-.9.7-.9.7-.9.7-.9.7-.9.7-.9.7-.9.7-.8.7-.8.7-.8.7-.8.7-.8.7-.8.7-.7.7-.7.7-.7.7-.7.7-.7.7-.6.7-.6.7-.6.7-.6.7-.5.7-.5.7-.5.7-.4.7-.4.7-.4.7-.4.7-.3.7-.3.7-.3.7-.3.7-.2.7-.2.7-.2h.7c0-.1.7-.3.7-.3h.7c0,0,.7-.2.7-.2h.7s.7,0,.7,0h.7s.7,0,.7,0h.7c0,0,.7.1.7.1h.7c0,.1.7.2.7.2h.7c0,.1.7.3.7.3l.7.2.7.2.7.2.7.2.7.2.7.3.7.3.7.3.7.3.7.3.7.3.7.3.7.3.7.4.7.4.7.4.7.4.7.4.7.4.7.4.7.4.7.4.7.4.7.4.7.4.7.4.7.4.7.4.7.5.7.5.7.5.7.5.7.5.7.5.7.5.7.5.7.5.7.5.7.5.7.6.7.6.7.6.7.6.7.6.7.6.7.6.7.6.7.7.7.7.7.7.7.7.7.7.7.7.7.7.7.7.7.7.7.7.7.7.7.8.7.8.7.8.7.8,2.7,3.1,1.3,1.5.7.8.7.8.7.8.7.7.7.7.7.7.7.7.7.7.7.7.7.7.7.7.7.7.7.7.7.7.7.6.7.6.7.6.7.6.7.6.7.6.7.6.7.5.7.5.7.5.7.5.7.5.7.5.7.5.7.5.7.4.7.4.7.4.7.4.7.4.7.4.7.4.7.4.7.4.7.4.7.4.7.4.7.3.7.3.7.3.7.3.7.3,1.3.6.7.3.7.3.7.3.7.3.7.3.7.3.7.3.7.3.7.2.7.2.7.2.7.2.7.2.7.2.7.2.7.2.7.2.7.2.7.2.7.2.7.2.7.2,1.3.3h.7c0,.1.7.3.7.3l1.3.3h.7c0,.1.7.2.7.2h.7c0,.1.7.2.7.2l1.3.2h.7c0,0,.7.2.7.2h.7c0,0,.7.2.7.2h.7c0,0,.7.1.7.1h1.3c0,.1.7.2.7.2h.7c0,0,.7.1.7.1h.7s.7,0,.7,0h1.3c0,0,1.3.2,1.3.2h.7s.7,0,.7,0h1.3c0,0,1.3,0,1.3,0h.7s2,0,2,0h2s2,0,2,0h3.3s.7,0,.7,0h.7s2.7,0,2.7,0h2s.7,0,.7,0h.7s1.3,0,1.3,0h.7s2,0,2,0h.7s4.7,0,4.7,0h.7s52.6,0,52.6,0H130.8Z"/>
      <path class="st8" d="M130.8,172.8h2s.7,0,.7,0h.7s2.7,0,2.7,0h2.7s.7,0,.7,0h.7s.7,0,.7,0h.7s1.3,0,1.3,0h1.3s.7,0,.7,0h1.3c0,0,.7,0,.7,0h.7s.7,0,.7,0h.7s.7,0,.7,0h.7s.7-.1.7-.1h.7c0,0,1.3-.2,1.3-.2h.7c0,0,1.3-.2,1.3-.2h.7c0,0,.7-.2.7-.2h.7c0,0,.7-.2.7-.2h.7c0-.1.7-.2.7-.2h.7c0-.1.7-.2.7-.2h.7c0-.1.7-.3.7-.3h.7c0-.1.7-.3.7-.3h.7c0-.1.7-.3.7-.3l.7-.2.7-.2.7-.2.7-.2.7-.2.7-.2.7-.2,1.3-.4,1.3-.4,1.3-.4,1.3-.4.7-.2.7-.2.7-.2.7-.2.7-.2.7-.2.7-.2.7-.2.7-.2.7-.2.7-.2.7-.2.7-.2.7-.2.7-.2.7-.2h.7c0-.1.7-.3.7-.3h.7c0-.1.7-.3.7-.3h.7c0-.1.7-.2.7-.2h.7c0-.1.7-.2.7-.2h.7c0,0,.7-.2.7-.2h.7c0,0,.7-.2.7-.2h.7c0,0,1.3-.2,1.3-.2h.7c0,0,2.7-.3,2.7-.3h.7s1.3-.2,1.3-.2h.7c0,0,.7-.1.7-.1h.7c0,0,.7-.2.7-.2h.7c0,0,.7-.2.7-.2h.7c0-.1.7-.2.7-.2h.7c0-.1.7-.3.7-.3l.7-.2.7-.2.7-.2.7-.2.7-.2.7-.3.7-.3.7-.3.7-.3.7-.3.7-.4.7-.4.7-.4.7-.4.7-.5.7-.5.7-.5.7-.5.7-.6.7-.6.7-.6.7-.6.7-.7.7-.7.7-.7.7-.7.7-.7.7-.8.7-.8.7-.8.7-.8.7-.8.7-.8.7-.9.7-.9.7-.9.7-.9.7-.9.7-.9.7-.9.7-.9,1.3-1.9.7-1,2-2.9,1.3-1.9.7-1,.7-.9.7-.9.7-.9.7-.9.7-.9.7-.9.7-.9.7-.9.7-.9.7-.9.7-.8.7-.8.7-.8.7-.8.7-.8.7-.8.7-.7.7-.7.7-.7.7-.7.7-.7.7-.6.7-.6.7-.6.7-.6.7-.5.7-.5.7-.5.7-.4.7-.4.7-.4.7-.4.7-.3.7-.3.7-.3.7-.3.7-.2.7-.2.7-.2h.7c0-.1.7-.3.7-.3h.7c0,0,.7-.2.7-.2h.7s.7,0,.7,0h.7s.7,0,.7,0h.7c0,0,.7.1.7.1h.7c0,.1.7.2.7.2h.7c0,.1.7.3.7.3l.7.2.7.2.7.2.7.2.7.2.7.3.7.3.7.3.7.3.7.3.7.3.7.3.7.3.7.4.7.4.7.4.7.4.7.4.7.4.7.4.7.4.7.4.7.4.7.4.7.4.7.4.7.4.7.4.7.5.7.5.7.5.7.5.7.5.7.5.7.5.7.5.7.5.7.5.7.5.7.6.7.6.7.6.7.6.7.6.7.6.7.6.7.6.7.7.7.7.7.7.7.7.7.7.7.7.7.7.7.7.7.7.7.7.7.7.7.8.7.8.7.8.7.8,2.7,3.1,1.3,1.5.7.8.7.8.7.8.7.7.7.7.7.7.7.7.7.7.7.7.7.7.7.7.7.7.7.7.7.7.7.6.7.6.7.6.7.6.7.6.7.6.7.6.7.5.7.5.7.5.7.5.7.5.7.5.7.5.7.5.7.4.7.4.7.4.7.4.7.4.7.4.7.4.7.4.7.4.7.4.7.4.7.4.7.3.7.3.7.3.7.3.7.3,1.3.6.7.3.7.3.7.3.7.3.7.3.7.3.7.3.7.3.7.2.7.2.7.2.7.2.7.2.7.2.7.2.7.2.7.2.7.2.7.2.7.2.7.2.7.2,1.3.3h.7c0,.1.7.3.7.3l1.3.3h.7c0,.1.7.2.7.2h.7c0,.1.7.2.7.2l1.3.2h.7c0,0,.7.2.7.2h.7c0,0,.7.2.7.2h.7c0,0,.7.1.7.1h1.3c0,.1.7.2.7.2h.7c0,0,.7.1.7.1h.7s.7,0,.7,0h1.3c0,0,1.3.2,1.3.2h.7s.7,0,.7,0h1.3c0,0,1.3,0,1.3,0h.7s2,0,2,0h2s2,0,2,0h3.3s.7,0,.7,0h.7s2.7,0,2.7,0h2s.7,0,.7,0h.7s1.3,0,1.3,0h.7s2,0,2,0h.7s4.7,0,4.7,0h.7s52.6,0,52.6,0"/>
    </g>
  </g>
  <path class="st14" d="M130.8,216.8h2.7s3.3,0,3.3,0h.7s1.3,0,1.3,0h.7s1.3,0,1.3,0h.7s.7,0,.7,0h4.7s.7,0,.7,0h.7s1.3,0,1.3,0h.7s.7,0,.7,0h1.3s.7,0,.7,0h.7s.7,0,.7,0h.7s.7,0,.7,0h1.3s1.3,0,1.3,0h1.3c0,0,1.3-.1,1.3-.1h.7s.7,0,.7,0h.7s.7,0,.7,0h.7s.7-.1.7-.1h.7c0,0,.7-.1.7-.1h.7c0,0,.7-.1.7-.1h.7c0,0,.7-.2.7-.2h.7c0,0,.7-.2.7-.2h.7c0,0,.7-.2.7-.2h.7c0-.1.7-.2.7-.2h.7c0-.1.7-.2.7-.2h.7c0-.1.7-.3.7-.3h.7c0-.1.7-.3.7-.3l.7-.2.7-.2.7-.2.7-.2.7-.2.7-.2.7-.2.7-.2.7-.2.7-.2.7-.2.7-.3.7-.3.7-.3.7-.3.7-.3.7-.3.7-.3.7-.3.7-.3.7-.3.7-.3.7-.3.7-.3.7-.3.7-.4.7-.4.7-.4,1.3-.7.7-.4.7-.4,1.3-.8,1.3-.8.7-.4.7-.4,1.3-.8,1.3-.8,1.3-.8.7-.4,2-1.3.7-.4.7-.4.7-.4,1.3-.9,2.7-1.8,1.3-.9,2-1.3.7-.5,1.3-.9.7-.5,1.3-.9.7-.5.7-.5,1.3-.9,1.3-1,.7-.5.7-.5.7-.5.7-.5.7-.5.7-.5.7-.5.7-.5.7-.5.7-.6.7-.6.7-.6.7-.6.7-.6.7-.6.7-.6.7-.6.7-.6.7-.6.7-.6.7-.6.7-.6.7-.7.7-.7,1.3-1.3,3.3-3.3.7-.7.7-.7.7-.7.7-.6.7-.6.7-.6.7-.6.7-.6.7-.6.7-.6.7-.6.7-.5.7-.5.7-.5.7-.5.7-.5.7-.4.7-.4.7-.4.7-.4.7-.3.7-.3.7-.3.7-.2.7-.2.7-.2h.7c0-.1.7-.3.7-.3h.7c0,0,.7-.1.7-.1h.7s.7,0,.7,0h.7s.7,0,.7,0h.7c0,0,.7.2.7.2h.7c0,.1.7.3.7.3l.7.2.7.2.7.2.7.2.7.3.7.3.7.3.7.3.7.3.7.3.7.3.7.3.7.3.7.3,1.3.7,2,1,.7.3.7.3.7.3.7.3.7.3.7.3.7.3.7.3.7.3.7.3.7.3.7.2.7.2.7.2.7.2.7.2.7.2.7.2.7.2.7.2h.7c0,.1.7.3.7.3h.7c0,.1.7.3.7.3h.7c0,.1.7.2.7.2h.7c0,.1.7.2.7.2l3.3.5,1.3.2h.7c0,.1.7.2.7.2h.7c0,.1.7.2.7.2h.7c0,.1.7.3.7.3l.7.2.7.2.7.2.7.2.7.2.7.2.7.2.7.3.7.3.7.3.7.3.7.3.7.4.7.4.7.4.7.4.7.5.7.5.7.5.7.5.7.6.7.6.7.6.7.6.7.6.7.7.7.7.7.7.7.7.7.7.7.8.7.8.7.8.7.8.7.8.7.8.7.8.7.8,1.3,1.7.7.8,1.3,1.7.7.8.7.8.7.8.7.8.7.8.7.8.7.8.7.8.7.8.7.8.7.7.7.7.7.7.7.7.7.7.7.7.7.6.7.6.7.6.7.6.7.5.7.5.7.5.7.5.7.5.7.4.7.4.7.4.7.4.7.4.7.3.7.3.7.3.7.3.7.3.7.3.7.2.7.2.7.2.7.2.7.2.7.2.7.2h.7c0,.1.7.3.7.3h.7c0,.1.7.2.7.2h.7c0,.1.7.2.7.2h.7c0,0,.7.2.7.2h.7c0,0,.7.1.7.1h.7c0,0,.7.1.7.1h.7c0,0,.7.1.7.1h.7s.7,0,.7,0h.7s.7,0,.7,0h.7s1.3,0,1.3,0h.7s.7,0,.7,0h.7s.7,0,.7,0h1.3s2,0,2,0h2.7s.7,0,.7,0h.7s2,0,2,0h2s1.3,0,1.3,0h.7s1.3,0,1.3,0h.7s2.7,0,2.7,0h.7s66.6,0,66.6,0H130.8Z"/>
  <path class="st8" d="M130.8,216.8h2.7s3.3,0,3.3,0h.7s1.3,0,1.3,0h.7s1.3,0,1.3,0h.7s.7,0,.7,0h4.7s.7,0,.7,0h.7s1.3,0,1.3,0h.7s.7,0,.7,0h1.3s.7,0,.7,0h.7s.7,0,.7,0h.7s.7,0,.7,0h1.3s1.3,0,1.3,0h1.3c0,0,1.3-.1,1.3-.1h.7s.7,0,.7,0h.7s.7,0,.7,0h.7s.7-.1.7-.1h.7c0,0,.7-.1.7-.1h.7c0,0,.7-.1.7-.1h.7c0,0,.7-.2.7-.2h.7c0,0,.7-.2.7-.2h.7c0,0,.7-.2.7-.2h.7c0-.1.7-.2.7-.2h.7c0-.1.7-.2.7-.2h.7c0-.1.7-.3.7-.3h.7c0-.1.7-.3.7-.3l.7-.2.7-.2.7-.2.7-.2.7-.2.7-.2.7-.2.7-.2.7-.2.7-.2.7-.2.7-.3.7-.3.7-.3.7-.3.7-.3.7-.3.7-.3.7-.3.7-.3.7-.3.7-.3.7-.3.7-.3.7-.3.7-.4.7-.4.7-.4,1.3-.7.7-.4.7-.4,1.3-.8,1.3-.8.7-.4.7-.4,1.3-.8,1.3-.8,1.3-.8.7-.4,2-1.3.7-.4.7-.4.7-.4,1.3-.9,2.7-1.8,1.3-.9,2-1.3.7-.5,1.3-.9.7-.5,1.3-.9.7-.5.7-.5,1.3-.9,1.3-1,.7-.5.7-.5.7-.5.7-.5.7-.5.7-.5.7-.5.7-.5.7-.5.7-.6.7-.6.7-.6.7-.6.7-.6.7-.6.7-.6.7-.6.7-.6.7-.6.7-.6.7-.6.7-.6.7-.7.7-.7,1.3-1.3,3.3-3.3.7-.7.7-.7.7-.7.7-.6.7-.6.7-.6.7-.6.7-.6.7-.6.7-.6.7-.6.7-.5.7-.5.7-.5.7-.5.7-.5.7-.4.7-.4.7-.4.7-.4.7-.3.7-.3.7-.3.7-.2.7-.2.7-.2h.7c0-.1.7-.3.7-.3h.7c0,0,.7-.1.7-.1h.7s.7,0,.7,0h.7s.7,0,.7,0h.7c0,0,.7.2.7.2h.7c0,.1.7.3.7.3l.7.2.7.2.7.2.7.2.7.3.7.3.7.3.7.3.7.3.7.3.7.3.7.3.7.3.7.3,1.3.7,2,1,.7.3.7.3.7.3.7.3.7.3.7.3.7.3.7.3.7.3.7.3.7.3.7.2.7.2.7.2.7.2.7.2.7.2.7.2.7.2.7.2h.7c0,.1.7.3.7.3h.7c0,.1.7.3.7.3h.7c0,.1.7.2.7.2h.7c0,.1.7.2.7.2l3.3.5,1.3.2h.7c0,.1.7.2.7.2h.7c0,.1.7.2.7.2h.7c0,.1.7.3.7.3l.7.2.7.2.7.2.7.2.7.2.7.2.7.2.7.3.7.3.7.3.7.3.7.3.7.4.7.4.7.4.7.4.7.5.7.5.7.5.7.5.7.6.7.6.7.6.7.6.7.6.7.7.7.7.7.7.7.7.7.7.7.8.7.8.7.8.7.8.7.8.7.8.7.8.7.8,1.3,1.7.7.8,1.3,1.7.7.8.7.8.7.8.7.8.7.8.7.8.7.8.7.8.7.8.7.8.7.7.7.7.7.7.7.7.7.7.7.7.7.6.7.6.7.6.7.6.7.5.7.5.7.5.7.5.7.5.7.4.7.4.7.4.7.4.7.4.7.3.7.3.7.3.7.3.7.3.7.3.7.2.7.2.7.2.7.2.7.2.7.2.7.2h.7c0,.1.7.3.7.3h.7c0,.1.7.2.7.2h.7c0,.1.7.2.7.2h.7c0,0,.7.2.7.2h.7c0,0,.7.1.7.1h.7c0,0,.7.1.7.1h.7c0,0,.7.1.7.1h.7s.7,0,.7,0h.7s.7,0,.7,0h.7s1.3,0,1.3,0h.7s.7,0,.7,0h.7s.7,0,.7,0h1.3s2,0,2,0h2.7s.7,0,.7,0h.7s2,0,2,0h2s1.3,0,1.3,0h.7s1.3,0,1.3,0h.7s2.7,0,2.7,0h.7s66.6,0,66.6,0"/>
  <path class="st10" d="M130.8,260.9h.7s.7,0,.7,0h2.7s.7,0,.7,0h.7s.7,0,.7,0h.7s.7,0,.7,0h1.3s1.3,0,1.3,0h1.3s2-.1,2-.1h2c0,0,.7-.1.7-.1h.7s.7,0,.7,0h1.3c0,0,.7-.1.7-.1h1.3c0-.1.7-.2.7-.2h1.3c0-.1,1.3-.3,1.3-.3h.7c0,0,.7-.2.7-.2h.7c0,0,.7-.2.7-.2h.7c0,0,.7-.2.7-.2h.7c0-.1.7-.2.7-.2h.7c0-.1.7-.2.7-.2h.7c0-.1.7-.3.7-.3h.7c0-.1.7-.3.7-.3h.7c0-.1.7-.3.7-.3l.7-.2.7-.2.7-.2.7-.2.7-.2.7-.2.7-.2.7-.2.7-.2.7-.2,1.3-.4.7-.2,1.3-.5,1.3-.5,1.3-.5.7-.2.7-.2,1.3-.5.7-.3.7-.3.7-.3,1.3-.5.7-.3.7-.3.7-.3.7-.3.7-.3.7-.3.7-.3.7-.3.7-.3.7-.3.7-.3,1.3-.6,1.3-.6.7-.3.7-.3,1.3-.6,2-.9.7-.3.7-.3,2-.9.7-.3.7-.3,1.3-.6.7-.3.7-.3.7-.3.7-.3.7-.3,2-.9.7-.3.7-.3,1.3-.6.7-.3.7-.3.7-.3.7-.3.7-.3.7-.3.7-.3.7-.3.7-.3,1.3-.6.7-.3.7-.3.7-.3.7-.3.7-.3,1.3-.6,1.3-.6.7-.3.7-.3.7-.3,1.3-.6.7-.3.7-.3,1.3-.6,1.3-.5.7-.3,1.3-.5.7-.3,2-.8.7-.3.7-.2.7-.3,1.3-.5.7-.3.7-.2,2.7-1,2-.8,1.3-.5,1.3-.5,1.3-.6.7-.3.7-.3.7-.3.7-.3.7-.3.7-.3.7-.3.7-.3.7-.3.7-.3.7-.3.7-.3.7-.3.7-.3.7-.3.7-.3.7-.4.7-.4,1.3-.7.7-.4.7-.4.7-.4,2-1.1,2-1.1.7-.4,1.3-.7.7-.3.7-.3.7-.3.7-.3.7-.3.7-.3.7-.3.7-.3.7-.3.7-.3.7-.3.7-.3.7-.2.7-.2.7-.2.7-.2.7-.2.7-.2h.7c0-.1.7-.3.7-.3h.7c0-.1.7-.2.7-.2h.7c0,0,.7-.1.7-.1h.7s.7,0,.7,0h1.3s.7,0,.7,0h.7c0,0,.7.1.7.1h.7c0,0,.7.2.7.2h.7c0,.1.7.3.7.3l.7.2.7.2.7.2.7.2.7.3.7.3.7.3.7.3.7.3.7.3.7.3.7.4.7.4.7.4.7.4.7.4,1.3.8,2,1.2.7.4.7.4,1.3.8.7.4.7.4.7.4.7.4.7.4.7.4.7.4.7.3.7.3.7.3.7.3.7.3.7.3.7.3.7.3.7.3.7.3,1.3.6,1.3.5,1.3.5.7.3.7.3,1.3.5.7.3,1.3.6.7.3.7.3.7.3.7.3.7.3.7.3.7.3.7.4.7.4.7.4.7.4.7.4.7.4.7.4.7.4.7.5.7.5.7.5.7.5.7.5.7.5.7.5.7.5.7.5.7.6.7.6.7.6.7.6.7.6,1.3,1.2,1.3,1.2.7.6.7.6,1.3,1.2,1.3,1.1.7.6.7.6.7.6.7.5.7.5.7.5.7.5.7.5.7.5.7.5.7.5.7.5.7.5.7.4.7.4.7.4.7.4.7.4.7.4.7.4.7.4.7.3.7.3.7.3.7.3.7.3.7.3.7.3.7.3.7.3.7.2.7.2.7.2.7.2.7.2.7.2.7.2.7.2.7.2.7.2.7.2.7.2h.7c0,.1.7.3.7.3h.7c0,.1.7.3.7.3h.7c0,.1.7.2.7.2h.7c0,.1.7.2.7.2h.7c0,0,.7.2.7.2h.7c0,0,.7.2.7.2h.7c0,0,.7.1.7.1h.7c0,0,1.3.2,1.3.2h.7c0,0,.7.1.7.1h.7s.7,0,.7,0h1.3c0,0,1.3.2,1.3.2h1.3c0,0,1.3.1,1.3.1h1.3s2,.1,2,.1h.7s2.7,0,2.7,0h1.3s.7,0,.7,0h.7s2,0,2,0h.7s.7,0,.7,0h4s.7,0,.7,0h1.3s1.3,0,1.3,0h.7s1.3,0,1.3,0h.7s2.7,0,2.7,0h.7s17.3,0,17.3,0h.7s21.3,0,21.3,0H130.8Z"/>
  <path class="st8" d="M130.8,260.9h.7s.7,0,.7,0h2.7s.7,0,.7,0h.7s.7,0,.7,0h.7s.7,0,.7,0h1.3s1.3,0,1.3,0h1.3s2-.1,2-.1h2c0,0,.7-.1.7-.1h.7s.7,0,.7,0h1.3c0,0,.7-.1.7-.1h1.3c0-.1.7-.2.7-.2h1.3c0-.1,1.3-.3,1.3-.3h.7c0,0,.7-.2.7-.2h.7c0,0,.7-.2.7-.2h.7c0,0,.7-.2.7-.2h.7c0-.1.7-.2.7-.2h.7c0-.1.7-.2.7-.2h.7c0-.1.7-.3.7-.3h.7c0-.1.7-.3.7-.3h.7c0-.1.7-.3.7-.3l.7-.2.7-.2.7-.2.7-.2.7-.2.7-.2.7-.2.7-.2.7-.2.7-.2,1.3-.4.7-.2,1.3-.5,1.3-.5,1.3-.5.7-.2.7-.2,1.3-.5.7-.3.7-.3.7-.3,1.3-.5.7-.3.7-.3.7-.3.7-.3.7-.3.7-.3.7-.3.7-.3.7-.3.7-.3.7-.3,1.3-.6,1.3-.6.7-.3.7-.3,1.3-.6,2-.9.7-.3.7-.3,2-.9.7-.3.7-.3,1.3-.6.7-.3.7-.3.7-.3.7-.3.7-.3,2-.9.7-.3.7-.3,1.3-.6.7-.3.7-.3.7-.3.7-.3.7-.3.7-.3.7-.3.7-.3.7-.3,1.3-.6.7-.3.7-.3.7-.3.7-.3.7-.3,1.3-.6,1.3-.6.7-.3.7-.3.7-.3,1.3-.6.7-.3.7-.3,1.3-.6,1.3-.5.7-.3,1.3-.5.7-.3,2-.8.7-.3.7-.2.7-.3,1.3-.5.7-.3.7-.2,2.7-1,2-.8,1.3-.5,1.3-.5,1.3-.6.7-.3.7-.3.7-.3.7-.3.7-.3.7-.3.7-.3.7-.3.7-.3.7-.3.7-.3.7-.3.7-.3.7-.3.7-.3.7-.3.7-.4.7-.4,1.3-.7.7-.4.7-.4.7-.4,2-1.1,2-1.1.7-.4,1.3-.7.7-.3.7-.3.7-.3.7-.3.7-.3.7-.3.7-.3.7-.3.7-.3.7-.3.7-.3.7-.3.7-.2.7-.2.7-.2.7-.2.7-.2.7-.2h.7c0-.1.7-.3.7-.3h.7c0-.1.7-.2.7-.2h.7c0,0,.7-.1.7-.1h.7s.7,0,.7,0h1.3s.7,0,.7,0h.7c0,0,.7.1.7.1h.7c0,0,.7.2.7.2h.7c0,.1.7.3.7.3l.7.2.7.2.7.2.7.2.7.3.7.3.7.3.7.3.7.3.7.3.7.3.7.4.7.4.7.4.7.4.7.4,1.3.8,2,1.2.7.4.7.4,1.3.8.7.4.7.4.7.4.7.4.7.4.7.4.7.4.7.3.7.3.7.3.7.3.7.3.7.3.7.3.7.3.7.3.7.3,1.3.6,1.3.5,1.3.5.7.3.7.3,1.3.5.7.3,1.3.6.7.3.7.3.7.3.7.3.7.3.7.3.7.3.7.4.7.4.7.4.7.4.7.4.7.4.7.4.7.4.7.5.7.5.7.5.7.5.7.5.7.5.7.5.7.5.7.5.7.6.7.6.7.6.7.6.7.6,1.3,1.2,1.3,1.2.7.6.7.6,1.3,1.2,1.3,1.1.7.6.7.6.7.6.7.5.7.5.7.5.7.5.7.5.7.5.7.5.7.5.7.5.7.5.7.4.7.4.7.4.7.4.7.4.7.4.7.4.7.4.7.3.7.3.7.3.7.3.7.3.7.3.7.3.7.3.7.3.7.2.7.2.7.2.7.2.7.2.7.2.7.2.7.2.7.2.7.2.7.2.7.2h.7c0,.1.7.3.7.3h.7c0,.1.7.3.7.3h.7c0,.1.7.2.7.2h.7c0,.1.7.2.7.2h.7c0,0,.7.2.7.2h.7c0,0,.7.2.7.2h.7c0,0,.7.1.7.1h.7c0,0,1.3.2,1.3.2h.7c0,0,.7.1.7.1h.7s.7,0,.7,0h1.3c0,0,1.3.2,1.3.2h1.3c0,0,1.3.1,1.3.1h1.3s2,.1,2,.1h.7s2.7,0,2.7,0h1.3s.7,0,.7,0h.7s2,0,2,0h.7s.7,0,.7,0h4s.7,0,.7,0h1.3s1.3,0,1.3,0h.7s1.3,0,1.3,0h.7s2.7,0,2.7,0h.7s17.3,0,17.3,0h.7s21.3,0,21.3,0"/>
  <path class="st15" d="M130.8,305h1.3s.7,0,.7,0h.7s.7,0,.7,0h.7s.7,0,.7,0h4s3.3,0,3.3,0h1.3s.7,0,.7,0h.7s.7,0,.7,0h.7s.7,0,.7,0h1.3s.7,0,.7,0h1.3c0,0,.7,0,.7,0h.7s.7,0,.7,0h.7s.7,0,.7,0h1.3c0,0,.7-.2.7-.2h.7c0,0,1.3-.2,1.3-.2h.7c0,0,.7-.2.7-.2h.7c0,0,.7-.2.7-.2h.7c0,0,.7-.2.7-.2h.7c0-.1.7-.2.7-.2h.7c0-.1.7-.3.7-.3h.7c0-.1.7-.3.7-.3l.7-.2.7-.2.7-.2.7-.2.7-.2.7-.2.7-.2.7-.2.7-.2.7-.3.7-.3.7-.3.7-.3.7-.3.7-.3.7-.3.7-.3.7-.3.7-.3.7-.4.7-.4.7-.4.7-.4.7-.4,1.3-.8.7-.4.7-.4,1.3-.8.7-.4.7-.4.7-.4.7-.4.7-.4.7-.4.7-.4.7-.4.7-.4.7-.4.7-.4.7-.4.7-.4.7-.4.7-.3.7-.3.7-.3.7-.3.7-.3.7-.3.7-.3.7-.3.7-.2.7-.2.7-.2.7-.2.7-.2.7-.2.7-.2h.7c0-.1.7-.3.7-.3h.7c0-.1.7-.2.7-.2h.7c0,0,.7-.2.7-.2h.7c0,0,.7-.1.7-.1h.7s.7,0,.7,0h.7s.7,0,.7,0h1.3s.7,0,.7,0h.7s.7,0,.7,0h.7s.7,0,.7,0h.7s.7,0,.7,0h.7s.7,0,.7,0h.7s.7,0,.7,0h.7s.7,0,.7,0h.7s.7,0,.7,0h.7s.7,0,.7,0h.7s.7,0,.7,0h.7s.7,0,.7,0h.7c0,0,.7-.1.7-.1h.7c0,0,.7-.2.7-.2h.7c0-.1.7-.2.7-.2h.7c0-.1.7-.3.7-.3l.7-.2.7-.2.7-.2.7-.2.7-.3.7-.3.7-.3.7-.3.7-.3.7-.3.7-.4.7-.4.7-.4.7-.4.7-.4.7-.4.7-.4.7-.5.7-.5.7-.5.7-.5.7-.5.7-.5.7-.5.7-.5,1.3-1.1.7-.5.7-.5,4-3.3.7-.5,1.3-1.1.7-.5.7-.5.7-.5.7-.5.7-.5.7-.5.7-.5.7-.5.7-.5.7-.5.7-.5.7-.4.7-.4.7-.4.7-.4.7-.4.7-.4.7-.4.7-.3.7-.3.7-.3.7-.3.7-.3.7-.3.7-.2.7-.2.7-.2.7-.2.7-.2.7-.2h.7c0-.1.7-.2.7-.2h.7c0,0,.7-.2.7-.2h.7c0,0,.7,0,.7,0h1.3s.7,0,.7,0h.7c0,0,.7.2.7.2h.7c0,.1.7.3.7.3l.7.2.7.2.7.2.7.2.7.3.7.3.7.3.7.3.7.3.7.4.7.4.7.4.7.4.7.4.7.4.7.4.7.5.7.5.7.5.7.5.7.5,1.3,1,2,1.5,1.3,1,.7.5.7.5.7.5.7.5.7.5.7.4.7.4.7.4.7.4.7.4.7.4.7.4.7.3.7.3.7.3.7.3.7.3.7.3.7.2.7.2.7.2.7.2.7.2.7.2.7.2.7.2h.7c0,.1.7.3.7.3h.7c0,.1.7.2.7.2h.7c0,0,.7.2.7.2h.7c0,0,.7.2.7.2h.7c0,0,.7.1.7.1h.7c0,0,.7.1.7.1h.7s1.3.1,1.3.1h1.3c0,0,1.3.2,1.3.2h.7s1.3.1,1.3.1h1.3c0,0,2,.2,2,.2h1.3c0,0,1.3.2,1.3.2l2,.2h.7c0,0,2,.2,2,.2h1.3c0,.1,1.3.3,1.3.3h1.3c0,.1,2,.4,2,.4h.7c0,0,.7.2.7.2l1.3.2,1.3.2,1.3.2h.7c0,0,1.3.3,1.3.3h.7c0,.1.7.2.7.2h.7c0,.1.7.2.7.2l1.3.3h.7c0,.1.7.3.7.3l.7.2.7.2.7.2.7.2.7.2.7.2.7.2.7.2.7.2.7.2.7.2.7.2.7.2.7.2.7.3.7.3.7.3.7.3.7.3.7.3.7.3.7.3.7.3.7.3.7.3.7.3.7.3.7.4.7.4.7.4.7.4.7.4.7.4.7.4.7.4.7.4.7.4.7.4,3.3,2,.7.4.7.4,1.3.8.7.4,1.3.8.7.4.7.4.7.4.7.4.7.4.7.3.7.3.7.3.7.3.7.3.7.3.7.3.7.3.7.3.7.3.7.3.7.2.7.2.7.2.7.2.7.2.7.2.7.2.7.2.7.2.7.2.7.2h.7c0,.1.7.3.7.3h.7c0,.1.7.3.7.3h.7c0,.1.7.2.7.2h.7c0,.1.7.2.7.2h.7c0,0,.7.2.7.2h.7c0,0,.7.2.7.2h.7c0,0,.7.1.7.1h.7c0,0,.7.1.7.1h.7s.7,0,.7,0h.7s.7,0,.7,0h.7s1.3.1,1.3.1h1.3c0,0,.7,0,.7,0h1.3s1.3,0,1.3,0h2s2,0,2,0h2s.7,0,.7,0h.7s2.7,0,2.7,0h.7s1.3,0,1.3,0h1.3s1.3,0,1.3,0h.7s2,0,2,0h.7s5.3,0,5.3,0h.7s8,0,8,0H130.8Z"/>
  <path class="st8" d="M130.8,305h1.3s.7,0,.7,0h.7s.7,0,.7,0h.7s.7,0,.7,0h4s3.3,0,3.3,0h1.3s.7,0,.7,0h.7s.7,0,.7,0h.7s.7,0,.7,0h1.3s.7,0,.7,0h1.3c0,0,.7,0,.7,0h.7s.7,0,.7,0h.7s.7,0,.7,0h1.3c0,0,.7-.2.7-.2h.7c0,0,1.3-.2,1.3-.2h.7c0,0,.7-.2.7-.2h.7c0,0,.7-.2.7-.2h.7c0,0,.7-.2.7-.2h.7c0-.1.7-.2.7-.2h.7c0-.1.7-.3.7-.3h.7c0-.1.7-.3.7-.3l.7-.2.7-.2.7-.2.7-.2.7-.2.7-.2.7-.2.7-.2.7-.2.7-.3.7-.3.7-.3.7-.3.7-.3.7-.3.7-.3.7-.3.7-.3.7-.3.7-.4.7-.4.7-.4.7-.4.7-.4,1.3-.8.7-.4.7-.4,1.3-.8.7-.4.7-.4.7-.4.7-.4.7-.4.7-.4.7-.4.7-.4.7-.4.7-.4.7-.4.7-.4.7-.4.7-.4.7-.3.7-.3.7-.3.7-.3.7-.3.7-.3.7-.3.7-.3.7-.2.7-.2.7-.2.7-.2.7-.2.7-.2.7-.2h.7c0-.1.7-.3.7-.3h.7c0-.1.7-.2.7-.2h.7c0,0,.7-.2.7-.2h.7c0,0,.7-.1.7-.1h.7s.7,0,.7,0h.7s.7,0,.7,0h1.3s.7,0,.7,0h.7s.7,0,.7,0h.7s.7,0,.7,0h.7s.7,0,.7,0h.7s.7,0,.7,0h.7s.7,0,.7,0h.7s.7,0,.7,0h.7s.7,0,.7,0h.7s.7,0,.7,0h.7s.7,0,.7,0h.7s.7,0,.7,0h.7c0,0,.7-.1.7-.1h.7c0,0,.7-.2.7-.2h.7c0-.1.7-.2.7-.2h.7c0-.1.7-.3.7-.3l.7-.2.7-.2.7-.2.7-.2.7-.3.7-.3.7-.3.7-.3.7-.3.7-.3.7-.4.7-.4.7-.4.7-.4.7-.4.7-.4.7-.4.7-.5.7-.5.7-.5.7-.5.7-.5.7-.5.7-.5.7-.5,1.3-1.1.7-.5.7-.5,4-3.3.7-.5,1.3-1.1.7-.5.7-.5.7-.5.7-.5.7-.5.7-.5.7-.5.7-.5.7-.5.7-.5.7-.5.7-.4.7-.4.7-.4.7-.4.7-.4.7-.4.7-.4.7-.3.7-.3.7-.3.7-.3.7-.3.7-.3.7-.2.7-.2.7-.2.7-.2.7-.2.7-.2h.7c0-.1.7-.2.7-.2h.7c0,0,.7-.2.7-.2h.7c0,0,.7,0,.7,0h1.3s.7,0,.7,0h.7c0,0,.7.2.7.2h.7c0,.1.7.3.7.3l.7.2.7.2.7.2.7.2.7.3.7.3.7.3.7.3.7.3.7.4.7.4.7.4.7.4.7.4.7.4.7.4.7.5.7.5.7.5.7.5.7.5,1.3,1,2,1.5,1.3,1,.7.5.7.5.7.5.7.5.7.5.7.4.7.4.7.4.7.4.7.4.7.4.7.4.7.3.7.3.7.3.7.3.7.3.7.3.7.2.7.2.7.2.7.2.7.2.7.2.7.2.7.2h.7c0,.1.7.3.7.3h.7c0,.1.7.2.7.2h.7c0,0,.7.2.7.2h.7c0,0,.7.2.7.2h.7c0,0,.7.1.7.1h.7c0,0,.7.1.7.1h.7s1.3.1,1.3.1h1.3c0,0,1.3.2,1.3.2h.7s1.3.1,1.3.1h1.3c0,0,2,.2,2,.2h1.3c0,0,1.3.2,1.3.2l2,.2h.7c0,0,2,.2,2,.2h1.3c0,.1,1.3.3,1.3.3h1.3c0,.1,2,.4,2,.4h.7c0,0,.7.2.7.2l1.3.2,1.3.2,1.3.2h.7c0,0,1.3.3,1.3.3h.7c0,.1.7.2.7.2h.7c0,.1.7.2.7.2l1.3.3h.7c0,.1.7.3.7.3l.7.2.7.2.7.2.7.2.7.2.7.2.7.2.7.2.7.2.7.2.7.2.7.2.7.2.7.2.7.3.7.3.7.3.7.3.7.3.7.3.7.3.7.3.7.3.7.3.7.3.7.3.7.3.7.4.7.4.7.4.7.4.7.4.7.4.7.4.7.4.7.4.7.4.7.4,3.3,2,.7.4.7.4,1.3.8.7.4,1.3.8.7.4.7.4.7.4.7.4.7.4.7.3.7.3.7.3.7.3.7.3.7.3.7.3.7.3.7.3.7.3.7.3.7.2.7.2.7.2.7.2.7.2.7.2.7.2.7.2.7.2.7.2.7.2h.7c0,.1.7.3.7.3h.7c0,.1.7.3.7.3h.7c0,.1.7.2.7.2h.7c0,.1.7.2.7.2h.7c0,0,.7.2.7.2h.7c0,0,.7.2.7.2h.7c0,0,.7.1.7.1h.7c0,0,.7.1.7.1h.7s.7,0,.7,0h.7s.7,0,.7,0h.7s1.3.1,1.3.1h1.3c0,0,.7,0,.7,0h1.3s1.3,0,1.3,0h2s2,0,2,0h2s.7,0,.7,0h.7s2.7,0,2.7,0h.7s1.3,0,1.3,0h1.3s1.3,0,1.3,0h.7s2,0,2,0h.7s5.3,0,5.3,0h.7s8,0,8,0"/>
  <path class="st16" d="M130.8,349.1h16.7s4,0,4,0h.7s2,0,2,0h.7s.7,0,.7,0h.7s.7,0,.7,0h.7s.7,0,.7,0h4s.7,0,.7,0h.7s2.7,0,2.7,0h.7s.7,0,.7,0h.7s1.3,0,1.3,0h.7s.7,0,.7,0h.7s.7,0,.7,0h2c0,0,1.3-.1,1.3-.1h.7s1.3,0,1.3,0h1.3c0,0,.7-.1.7-.1h.7s1.3-.1,1.3-.1h1.3c0,0,.7-.2.7-.2h.7c0,0,1.3-.2,1.3-.2h.7c0,0,.7-.1.7-.1h.7c0,0,.7-.1.7-.1h.7c0,0,.7-.2.7-.2h.7c0,0,.7-.2.7-.2l1.3-.2h.7c0-.1.7-.2.7-.2l1.3-.2h.7c0-.1,1.3-.4,1.3-.4h.7c0-.1,1.3-.4,1.3-.4h.7c0-.1.7-.3.7-.3l.7-.2.7-.2.7-.2.7-.2.7-.2.7-.2.7-.2.7-.2.7-.2.7-.2.7-.2.7-.2.7-.2.7-.2.7-.2.7-.2.7-.2.7-.2.7-.3.7-.3.7-.3.7-.3.7-.3.7-.3.7-.3.7-.3.7-.3.7-.3.7-.3.7-.3.7-.3.7-.4.7-.4.7-.4.7-.4.7-.4.7-.4.7-.4.7-.4.7-.4.7-.4.7-.5.7-.5.7-.5.7-.5.7-.5.7-.5.7-.5.7-.5.7-.5.7-.5.7-.5.7-.5,1.3-1,.7-.5.7-.5.7-.5,1.3-1,1.3-1,.7-.5.7-.5.7-.5.7-.5.7-.5.7-.5.7-.5.7-.5.7-.5.7-.4.7-.4.7-.4.7-.4.7-.4.7-.4.7-.4.7-.4.7-.4.7-.4.7-.4.7-.4.7-.4.7-.4,1.3-.7.7-.3,1.3-.7,1.3-.7.7-.4.7-.4.7-.4.7-.4.7-.4.7-.4.7-.4.7-.4.7-.5.7-.5.7-.5.7-.5.7-.5.7-.6.7-.6.7-.6.7-.6.7-.7.7-.7.7-.7.7-.7.7-.8.7-.8.7-.8.7-.8.7-.8.7-.9.7-.9.7-.9.7-.9.7-.9.7-.9.7-.9.7-.9.7-1,.7-1,1.3-1.9.7-1,.7-.9.7-.9.7-.9.7-.9.7-.9.7-.9.7-.8.7-.8.7-.8.7-.8.7-.7.7-.7.7-.6.7-.6.7-.5.7-.5.7-.5.7-.4.7-.4.7-.3.7-.3.7-.2.7-.2h.7c0-.1.7-.2.7-.2h.7s.7,0,.7,0h.7c0,.1.7.3.7.3l.7.2.7.2.7.3.7.4.7.4.7.5.7.5.7.5.7.6.7.6.7.7.7.7.7.7.7.8.7.8.7.8.7.9.7.9.7.9.7,1,.7,1,.7,1,.7,1,.7,1,.7,1.1.7,1.1.7,1.1.7,1.1.7,1.1.7,1.1,1.3,2.2.7,1.1,2,3.4.7,1.1.7,1.1.7,1.1.7,1.1.7,1.1.7,1.1.7,1.1.7,1.1.7,1.1.7,1.1.7,1,.7,1,.7,1,.7,1,.7,1,.7,1,.7,1,.7.9.7.9.7.9.7.9.7.9.7.8.7.8.7.8.7.8.7.8.7.8.7.7.7.7.7.7.7.7.7.6.7.6.7.6.7.6.7.6.7.6.7.5.7.5.7.5.7.5.7.5.7.5.7.4.7.4.7.4.7.4.7.4.7.4.7.4.7.3.7.3.7.3.7.3.7.3.7.3.7.3.7.3.7.3.7.3.7.2.7.2.7.2.7.2.7.2.7.2.7.2.7.2.7.2.7.2,1.3.4.7.2.7.2.7.2.7.2.7.2,1.3.3h.7c0,.1,1.3.4,1.3.4l1.3.3h.7c0,.1.7.2.7.2l1.3.2h.7c0,.1.7.2.7.2h.7c0,0,1.3.3,1.3.3h.7c0,0,.7.2.7.2h.7c0,0,1.3.2,1.3.2h.7c0,0,1.3.2,1.3.2h1.3c0,.1.7.2.7.2h.7s.7,0,.7,0h.7s1.3.1,1.3.1h.7s1.3.1,1.3.1h.7s.7,0,.7,0h2c0,0,1.3.1,1.3.1h1.3s2,0,2,0h.7s.7,0,.7,0h.7s.7,0,.7,0h.7s.7,0,.7,0h.7s1.3,0,1.3,0h.7s.7,0,.7,0h2.7s.7,0,.7,0h1.3s.7,0,.7,0h.7s1.3,0,1.3,0h.7s1.3,0,1.3,0h.7s4,0,4,0h.7s35.3,0,35.3,0H130.8Z"/>
  <path class="st8" d="M130.8,349.1h16.7s4,0,4,0h.7s2,0,2,0h.7s.7,0,.7,0h.7s.7,0,.7,0h.7s.7,0,.7,0h4s.7,0,.7,0h.7s2.7,0,2.7,0h.7s.7,0,.7,0h.7s1.3,0,1.3,0h.7s.7,0,.7,0h.7s.7,0,.7,0h2c0,0,1.3-.1,1.3-.1h.7s1.3,0,1.3,0h1.3c0,0,.7-.1.7-.1h.7s1.3-.1,1.3-.1h1.3c0,0,.7-.2.7-.2h.7c0,0,1.3-.2,1.3-.2h.7c0,0,.7-.1.7-.1h.7c0,0,.7-.1.7-.1h.7c0,0,.7-.2.7-.2h.7c0,0,.7-.2.7-.2l1.3-.2h.7c0-.1.7-.2.7-.2l1.3-.2h.7c0-.1,1.3-.4,1.3-.4h.7c0-.1,1.3-.4,1.3-.4h.7c0-.1.7-.3.7-.3l.7-.2.7-.2.7-.2.7-.2.7-.2.7-.2.7-.2.7-.2.7-.2.7-.2.7-.2.7-.2.7-.2.7-.2.7-.2.7-.2.7-.2.7-.2.7-.3.7-.3.7-.3.7-.3.7-.3.7-.3.7-.3.7-.3.7-.3.7-.3.7-.3.7-.3.7-.3.7-.4.7-.4.7-.4.7-.4.7-.4.7-.4.7-.4.7-.4.7-.4.7-.4.7-.5.7-.5.7-.5.7-.5.7-.5.7-.5.7-.5.7-.5.7-.5.7-.5.7-.5.7-.5,1.3-1,.7-.5.7-.5.7-.5,1.3-1,1.3-1,.7-.5.7-.5.7-.5.7-.5.7-.5.7-.5.7-.5.7-.5.7-.5.7-.4.7-.4.7-.4.7-.4.7-.4.7-.4.7-.4.7-.4.7-.4.7-.4.7-.4.7-.4.7-.4.7-.4,1.3-.7.7-.3,1.3-.7,1.3-.7.7-.4.7-.4.7-.4.7-.4.7-.4.7-.4.7-.4.7-.4.7-.5.7-.5.7-.5.7-.5.7-.5.7-.6.7-.6.7-.6.7-.6.7-.7.7-.7.7-.7.7-.7.7-.8.7-.8.7-.8.7-.8.7-.8.7-.9.7-.9.7-.9.7-.9.7-.9.7-.9.7-.9.7-.9.7-1,.7-1,1.3-1.9.7-1,.7-.9.7-.9.7-.9.7-.9.7-.9.7-.9.7-.8.7-.8.7-.8.7-.8.7-.7.7-.7.7-.6.7-.6.7-.5.7-.5.7-.5.7-.4.7-.4.7-.3.7-.3.7-.2.7-.2h.7c0-.1.7-.2.7-.2h.7s.7,0,.7,0h.7c0,.1.7.3.7.3l.7.2.7.2.7.3.7.4.7.4.7.5.7.5.7.5.7.6.7.6.7.7.7.7.7.7.7.8.7.8.7.8.7.9.7.9.7.9.7,1,.7,1,.7,1,.7,1,.7,1,.7,1.1.7,1.1.7,1.1.7,1.1.7,1.1.7,1.1,1.3,2.2.7,1.1,2,3.4.7,1.1.7,1.1.7,1.1.7,1.1.7,1.1.7,1.1.7,1.1.7,1.1.7,1.1.7,1.1.7,1,.7,1,.7,1,.7,1,.7,1,.7,1,.7,1,.7.9.7.9.7.9.7.9.7.9.7.8.7.8.7.8.7.8.7.8.7.8.7.7.7.7.7.7.7.7.7.6.7.6.7.6.7.6.7.6.7.6.7.5.7.5.7.5.7.5.7.5.7.5.7.4.7.4.7.4.7.4.7.4.7.4.7.4.7.3.7.3.7.3.7.3.7.3.7.3.7.3.7.3.7.3.7.3.7.2.7.2.7.2.7.2.7.2.7.2.7.2.7.2.7.2.7.2,1.3.4.7.2.7.2.7.2.7.2.7.2,1.3.3h.7c0,.1,1.3.4,1.3.4l1.3.3h.7c0,.1.7.2.7.2l1.3.2h.7c0,.1.7.2.7.2h.7c0,0,1.3.3,1.3.3h.7c0,0,.7.2.7.2h.7c0,0,1.3.2,1.3.2h.7c0,0,1.3.2,1.3.2h1.3c0,.1.7.2.7.2h.7s.7,0,.7,0h.7s1.3.1,1.3.1h.7s1.3.1,1.3.1h.7s.7,0,.7,0h2c0,0,1.3.1,1.3.1h1.3s2,0,2,0h.7s.7,0,.7,0h.7s.7,0,.7,0h.7s.7,0,.7,0h.7s1.3,0,1.3,0h.7s.7,0,.7,0h2.7s.7,0,.7,0h1.3s.7,0,.7,0h.7s1.3,0,1.3,0h.7s1.3,0,1.3,0h.7s4,0,4,0h.7s35.3,0,35.3,0"/>
  <path class="st11" d="M130.8,393.1h1.3s2.7,0,2.7,0h.7s1.3,0,1.3,0h.7s1.3,0,1.3,0h1.3s.7,0,.7,0h4s.7,0,.7,0h.7s.7,0,.7,0h.7s2,0,2,0h2s2.7,0,2.7,0h1.3s2,0,2,0h.7s2-.1,2-.1h.7s1.3,0,1.3,0h.7s2-.2,2-.2h1.3c0,0,1.3-.2,1.3-.2l2-.2h.7c0,0,.7-.1.7-.1h1.3c0-.1.7-.2.7-.2h1.3c0-.1.7-.2.7-.2l2-.2h.7c0,0,.7-.2.7-.2h.7c0,0,.7-.2.7-.2h.7c0,0,1.3-.3,1.3-.3h.7c0,0,.7-.2.7-.2l2.7-.4h.7c0,0,2-.4,2-.4h.7c0,0,.7-.2.7-.2l4-.5,2-.3h.7c0,0,2.7-.4,2.7-.4h.7c0,0,.7-.2.7-.2l1.3-.2,2-.3h.7c0,0,.7-.2.7-.2l1.3-.2h.7c0-.1.7-.2.7-.2h.7c0-.1.7-.2.7-.2l1.3-.2,1.3-.3,1.3-.3h.7c0-.1.7-.3.7-.3l.7-.2.7-.2.7-.2.7-.2.7-.2.7-.2.7-.2.7-.2.7-.2.7-.2.7-.2.7-.2.7-.2.7-.2.7-.2.7-.2.7-.2.7-.2.7-.2.7-.2.7-.3,1.3-.5,1.3-.5,1.3-.6.7-.3,1.3-.6.7-.3.7-.3.7-.3.7-.3.7-.3.7-.3.7-.3.7-.3,1.3-.7.7-.3,1.3-.7.7-.4.7-.4.7-.4.7-.4.7-.4.7-.4.7-.4.7-.4.7-.4.7-.4.7-.4.7-.4.7-.5.7-.5.7-.5.7-.5.7-.5.7-.5.7-.5.7-.5.7-.5.7-.5.7-.5.7-.5.7-.5.7-.5,1.3-1.1,1.3-1.1.7-.6.7-.6.7-.6,1.3-1.1.7-.6,1.3-1.1.7-.5.7-.5.7-.5.7-.5.7-.5.7-.5.7-.5.7-.5.7-.5.7-.5.7-.4.7-.4.7-.4.7-.4.7-.4.7-.4.7-.4.7-.3.7-.3.7-.3.7-.3.7-.3.7-.3.7-.3.7-.3.7-.2.7-.2.7-.2.7-.2.7-.2.7-.2.7-.2.7-.2.7-.2h.7c0-.1.7-.3.7-.3h.7c0-.1.7-.3.7-.3h.7c0-.1.7-.2.7-.2h.7c0-.1.7-.2.7-.2h.7c0,0,.7-.2.7-.2h.7c0,0,.7-.1.7-.1h.7c0,0,.7-.1.7-.1h.7s.7,0,.7,0h.7s.7,0,.7,0h.7s.7,0,.7,0h.7s.7,0,.7,0h.7s.7,0,.7,0h.7s.7,0,.7,0h.7c0,0,.7.1.7.1h.7c0,0,.7.2.7.2h.7c0,0,.7.2.7.2h.7c0,.1.7.3.7.3h.7c0,.1.7.3.7.3l.7.2.7.2.7.2.7.2.7.2.7.2.7.2.7.2,1.3.5.7.2,1.3.5.7.3,2,.8.7.3.7.3,1.3.5,2,.8.7.3.7.3.7.3.7.3.7.3,1.3.5.7.2.7.2.7.2.7.2.7.2.7.2.7.2.7.2.7.2.7.2.7.2.7.2,1.3.4,1.3.4.7.2.7.2.7.2,1.3.4,2,.6.7.2.7.2.7.2.7.2.7.2.7.2.7.2.7.2.7.2.7.3.7.3.7.3.7.3.7.3.7.3.7.3.7.3.7.3.7.3.7.3.7.3.7.3.7.3,1.3.7,1.3.7,3.3,1.8.7.4.7.4.7.4.7.3.7.3,1.3.7.7.3.7.3.7.3.7.3.7.3.7.3.7.3.7.3.7.3.7.3,1.3.6.7.3.7.3.7.3,1.3.5,1.3.5.7.3.7.3.7.3,2,.8.7.3,1.3.5,1.3.5,1.3.6.7.3.7.3,1.3.6.7.3.7.3,1.3.6.7.3,1.3.6.7.3.7.3,2,1,.7.3.7.3.7.3,1.3.7,1.3.7.7.3.7.3.7.3,1.3.6.7.3.7.3.7.3,1.3.6.7.3.7.3.7.3.7.3.7.2.7.2.7.2.7.2.7.2.7.2.7.2.7.2.7.2.7.2.7.2.7.2.7.2h.7c0,.1.7.3.7.3h.7c0,.1.7.3.7.3h.7c0,.1.7.2.7.2h.7c0,.1.7.2.7.2l1.3.2h.7c0,0,.7.2.7.2h.7c0,0,.7.1.7.1h1.3c0,.1.7.2.7.2h.7s.7,0,.7,0h.7s.7,0,.7,0h.7s.7,0,.7,0h1.3c0,0,.7,0,.7,0h.7s.7,0,.7,0h.7s2,0,2,0h1.3s2.7,0,2.7,0h2.7s1.3,0,1.3,0h.7s1.3,0,1.3,0h2s.7,0,.7,0h.7s.7,0,.7,0h.7s1.3,0,1.3,0h.7s1.3,0,1.3,0h0s-340.4,0-340.4,0Z"/>
  <path class="st8" d="M475.8,224.7"/>
  <path class="st8" d="M544.5,393.1"/>
  <path class="st8" d="M130.8,393.1h1.3s2.7,0,2.7,0h.7s1.3,0,1.3,0h.7s1.3,0,1.3,0h1.3s.7,0,.7,0h4s.7,0,.7,0h.7s.7,0,.7,0h.7s2,0,2,0h2s2.7,0,2.7,0h1.3s2,0,2,0h.7s2-.1,2-.1h.7s1.3,0,1.3,0h.7s2-.2,2-.2h1.3c0,0,1.3-.2,1.3-.2l2-.2h.7c0,0,.7-.1.7-.1h1.3c0-.1.7-.2.7-.2h1.3c0-.1.7-.2.7-.2l2-.2h.7c0,0,.7-.2.7-.2h.7c0,0,.7-.2.7-.2h.7c0,0,1.3-.3,1.3-.3h.7c0,0,.7-.2.7-.2l2.7-.4h.7c0,0,2-.4,2-.4h.7c0,0,.7-.2.7-.2l4-.5,2-.3h.7c0,0,2.7-.4,2.7-.4h.7c0,0,.7-.2.7-.2l1.3-.2,2-.3h.7c0,0,.7-.2.7-.2l1.3-.2h.7c0-.1.7-.2.7-.2h.7c0-.1.7-.2.7-.2l1.3-.2,1.3-.3,1.3-.3h.7c0-.1.7-.3.7-.3l.7-.2.7-.2.7-.2.7-.2.7-.2.7-.2.7-.2.7-.2.7-.2.7-.2.7-.2.7-.2.7-.2.7-.2.7-.2.7-.2.7-.2.7-.2.7-.2.7-.2.7-.3,1.3-.5,1.3-.5,1.3-.6.7-.3,1.3-.6.7-.3.7-.3.7-.3.7-.3.7-.3.7-.3.7-.3.7-.3,1.3-.7.7-.3,1.3-.7.7-.4.7-.4.7-.4.7-.4.7-.4.7-.4.7-.4.7-.4.7-.4.7-.4.7-.4.7-.4.7-.5.7-.5.7-.5.7-.5.7-.5.7-.5.7-.5.7-.5.7-.5.7-.5.7-.5.7-.5.7-.5.7-.5,1.3-1.1,1.3-1.1.7-.6.7-.6.7-.6,1.3-1.1.7-.6,1.3-1.1.7-.5.7-.5.7-.5.7-.5.7-.5.7-.5.7-.5.7-.5.7-.5.7-.5.7-.4.7-.4.7-.4.7-.4.7-.4.7-.4.7-.4.7-.3.7-.3.7-.3.7-.3.7-.3.7-.3.7-.3.7-.3.7-.2.7-.2.7-.2.7-.2.7-.2.7-.2.7-.2.7-.2.7-.2h.7c0-.1.7-.3.7-.3h.7c0-.1.7-.3.7-.3h.7c0-.1.7-.2.7-.2h.7c0-.1.7-.2.7-.2h.7c0,0,.7-.2.7-.2h.7c0,0,.7-.1.7-.1h.7c0,0,.7-.1.7-.1h.7s.7,0,.7,0h.7s.7,0,.7,0h.7s.7,0,.7,0h.7s.7,0,.7,0h.7s.7,0,.7,0h.7s.7,0,.7,0h.7c0,0,.7.1.7.1h.7c0,0,.7.2.7.2h.7c0,0,.7.2.7.2h.7c0,.1.7.3.7.3h.7c0,.1.7.3.7.3l.7.2.7.2.7.2.7.2.7.2.7.2.7.2.7.2,1.3.5.7.2,1.3.5.7.3,2,.8.7.3.7.3,1.3.5,2,.8.7.3.7.3.7.3.7.3.7.3,1.3.5.7.2.7.2.7.2.7.2.7.2.7.2.7.2.7.2.7.2.7.2.7.2.7.2,1.3.4,1.3.4.7.2.7.2.7.2,1.3.4,2,.6.7.2.7.2.7.2.7.2.7.2.7.2.7.2.7.2.7.2.7.3.7.3.7.3.7.3.7.3.7.3.7.3.7.3.7.3.7.3.7.3.7.3.7.3.7.3,1.3.7,1.3.7,3.3,1.8.7.4.7.4.7.4.7.3.7.3,1.3.7.7.3.7.3.7.3.7.3.7.3.7.3.7.3.7.3.7.3.7.3,1.3.6.7.3.7.3.7.3,1.3.5,1.3.5.7.3.7.3.7.3,2,.8.7.3,1.3.5,1.3.5,1.3.6.7.3.7.3,1.3.6.7.3.7.3,1.3.6.7.3,1.3.6.7.3.7.3,2,1,.7.3.7.3.7.3,1.3.7,1.3.7.7.3.7.3.7.3,1.3.6.7.3.7.3.7.3,1.3.6.7.3.7.3.7.3.7.3.7.2.7.2.7.2.7.2.7.2.7.2.7.2.7.2.7.2.7.2.7.2.7.2.7.2h.7c0,.1.7.3.7.3h.7c0,.1.7.3.7.3h.7c0,.1.7.2.7.2h.7c0,.1.7.2.7.2l1.3.2h.7c0,0,.7.2.7.2h.7c0,0,.7.1.7.1h1.3c0,.1.7.2.7.2h.7s.7,0,.7,0h.7s.7,0,.7,0h.7s.7,0,.7,0h1.3c0,0,.7,0,.7,0h.7s.7,0,.7,0h.7s2,0,2,0h1.3s2.7,0,2.7,0h2.7s1.3,0,1.3,0h.7s1.3,0,1.3,0h2s.7,0,.7,0h.7s.7,0,.7,0h.7s1.3,0,1.3,0h.7s1.3,0,1.3,0"/>
  <path class="st13" d="M130.8,437.2h22s6.7,0,6.7,0h.7s2.7,0,2.7,0h.7s.7,0,.7,0h.7s.7,0,.7,0h.7s.7,0,.7,0h.7s.7,0,.7,0h2.7s.7,0,.7,0h.7s.7,0,.7,0h.7s1.3,0,1.3,0h.7s.7,0,.7,0h2s2,0,2,0h1.3s2,0,2,0h.7s2-.1,2-.1h2c0,0,1.3-.2,1.3-.2h.7s.7,0,.7,0h1.3c0,0,.7-.2.7-.2h1.3c0-.1.7-.2.7-.2h.7c0,0,.7-.1.7-.1h.7c0,0,.7-.1.7-.1l1.3-.2h.7c0,0,.7-.2.7-.2h.7c0,0,.7-.2.7-.2h.7c0,0,.7-.2.7-.2h.7c0-.1.7-.2.7-.2h.7c0-.1,1.3-.3,1.3-.3h.7c0-.1.7-.2.7-.2l1.3-.3,1.3-.3,2-.4,3.3-.7h.7c0-.1,1.3-.4,1.3-.4h.7c0-.1.7-.3.7-.3l2-.4,1.3-.3h.7c0-.1.7-.3.7-.3h.7c0-.1.7-.2.7-.2h.7c0-.1.7-.2.7-.2h.7c0-.1,2.7-.6,2.7-.6h.7c0-.1.7-.2.7-.2l1.3-.2,1.3-.2h.7c0-.1.7-.2.7-.2h.7c0-.1,2-.5,2-.5l1.3-.3h.7c0-.1.7-.3.7-.3l1.3-.3,1.3-.3.7-.2.7-.2,1.3-.3.7-.2.7-.2.7-.2.7-.2.7-.2.7-.2.7-.2.7-.2,1.3-.5.7-.2.7-.2.7-.3.7-.3,1.3-.5,1.3-.6.7-.3,1.3-.6.7-.3.7-.3.7-.3.7-.3.7-.3.7-.3.7-.3.7-.3,1.3-.7,1.3-.7.7-.3.7-.4,1.3-.7.7-.4.7-.4.7-.4.7-.4.7-.4.7-.4.7-.4.7-.4.7-.4.7-.4.7-.4.7-.5.7-.5.7-.5.7-.5.7-.5.7-.5.7-.5.7-.5.7-.5.7-.5.7-.5.7-.6.7-.6.7-.6.7-.6.7-.6.7-.6.7-.6.7-.6.7-.6,3.3-3.1.7-.6.7-.6.7-.6.7-.6.7-.6.7-.6.7-.6.7-.6.7-.5.7-.5.7-.5.7-.5.7-.5.7-.5.7-.4.7-.4.7-.4.7-.4.7-.3.7-.3.7-.3.7-.3.7-.2.7-.2.7-.2h.7c0-.1.7-.3.7-.3h.7c0,0,.7-.2.7-.2h.7s.7,0,.7,0h.7s.7,0,.7,0h.7c0,0,.7.1.7.1h.7c0,.1.7.2.7.2h.7c0,.1.7.3.7.3l.7.2.7.2.7.2.7.2.7.2.7.3.7.3,1.3.5.7.3,1.3.6.7.3,1.3.6.7.3.7.3.7.3.7.3.7.3.7.2.7.2.7.2.7.2.7.2.7.2.7.2.7.2.7.2h.7c0,.1.7.3.7.3h.7c0,.1.7.2.7.2h.7c0,0,.7.1.7.1h.7c0,0,.7,0,.7,0h.7s.7,0,.7,0h.7s.7,0,.7,0h.7s.7,0,.7,0h.7c0,0,.7-.1.7-.1h.7c0,0,.7-.2.7-.2h.7c0,0,.7-.2.7-.2h.7c0-.1.7-.2.7-.2h.7c0-.1,1.3-.4,1.3-.4h.7c0-.1,2.7-.7,2.7-.7l1.3-.3h.7c0-.1.7-.3.7-.3h.7c0-.1.7-.2.7-.2h.7c0-.1.7-.2.7-.2h.7c0,0,.7-.2.7-.2h.7c0,0,.7-.1.7-.1h.7c0,0,.7,0,.7,0h.7s.7,0,.7,0h.7s.7,0,.7,0h.7s.7,0,.7,0h.7c0,0,.7.1.7.1h.7c0,0,.7.2.7.2h.7c0,.1.7.3.7.3l.7.2.7.2.7.2.7.2.7.2.7.3.7.3.7.3.7.3.7.3.7.4.7.4.7.4.7.4.7.4.7.4.7.5.7.5.7.5.7.5.7.5.7.5.7.5.7.5.7.6.7.6.7.6.7.6.7.6.7.6.7.6.7.6,1.3,1.2.7.6,1.3,1.2,2.7,2.5.7.6,1.3,1.2.7.6.7.6.7.6.7.6.7.6.7.6.7.6.7.6.7.6.7.6.7.6.7.6.7.5.7.5.7.5.7.5.7.5.7.5.7.5.7.5.7.5.7.5.7.4.7.4.7.4.7.4.7.4.7.4.7.4.7.4.7.4.7.4.7.3.7.3.7.3.7.3.7.3.7.3.7.3.7.3.7.3.7.3.7.2.7.2.7.2.7.2.7.2.7.2.7.2.7.2.7.2.7.2.7.2h.7c0,.1.7.3.7.3h.7c0,.1.7.3.7.3h.7c0,.1.7.2.7.2h.7c0,.1.7.2.7.2h.7c0,0,.7.2.7.2h.7c0,0,.7.2.7.2h.7c0,0,.7.1.7.1h1.3c0,.1.7.2.7.2h.7c0,0,.7.1.7.1h1.3c0,0,.7.1.7.1h.7s1.3.1,1.3.1h2c0,0,.7.1.7.1h1.3s2,0,2,0h.7s.7,0,.7,0h.7s.7,0,.7,0h.7s.7,0,.7,0h2.7s.7,0,.7,0h0s-340.4,0-340.4,0Z"/>
  <path class="st8" d="M130.8,437.2h22s6.7,0,6.7,0h.7s2.7,0,2.7,0h.7s.7,0,.7,0h.7s.7,0,.7,0h.7s.7,0,.7,0h.7s.7,0,.7,0h2.7s.7,0,.7,0h.7s.7,0,.7,0h.7s1.3,0,1.3,0h.7s.7,0,.7,0h2s2,0,2,0h1.3s2,0,2,0h.7s2-.1,2-.1h2c0,0,1.3-.2,1.3-.2h.7s.7,0,.7,0h1.3c0,0,.7-.2.7-.2h1.3c0-.1.7-.2.7-.2h.7c0,0,.7-.1.7-.1h.7c0,0,.7-.1.7-.1l1.3-.2h.7c0,0,.7-.2.7-.2h.7c0,0,.7-.2.7-.2h.7c0,0,.7-.2.7-.2h.7c0-.1.7-.2.7-.2h.7c0-.1,1.3-.3,1.3-.3h.7c0-.1.7-.2.7-.2l1.3-.3,1.3-.3,2-.4,3.3-.7h.7c0-.1,1.3-.4,1.3-.4h.7c0-.1.7-.3.7-.3l2-.4,1.3-.3h.7c0-.1.7-.3.7-.3h.7c0-.1.7-.2.7-.2h.7c0-.1.7-.2.7-.2h.7c0-.1,2.7-.6,2.7-.6h.7c0-.1.7-.2.7-.2l1.3-.2,1.3-.2h.7c0-.1.7-.2.7-.2h.7c0-.1,2-.5,2-.5l1.3-.3h.7c0-.1.7-.3.7-.3l1.3-.3,1.3-.3.7-.2.7-.2,1.3-.3.7-.2.7-.2.7-.2.7-.2.7-.2.7-.2.7-.2.7-.2,1.3-.5.7-.2.7-.2.7-.3.7-.3,1.3-.5,1.3-.6.7-.3,1.3-.6.7-.3.7-.3.7-.3.7-.3.7-.3.7-.3.7-.3.7-.3,1.3-.7,1.3-.7.7-.3.7-.4,1.3-.7.7-.4.7-.4.7-.4.7-.4.7-.4.7-.4.7-.4.7-.4.7-.4.7-.4.7-.4.7-.5.7-.5.7-.5.7-.5.7-.5.7-.5.7-.5.7-.5.7-.5.7-.5.7-.5.7-.6.7-.6.7-.6.7-.6.7-.6.7-.6.7-.6.7-.6.7-.6,3.3-3.1.7-.6.7-.6.7-.6.7-.6.7-.6.7-.6.7-.6.7-.6.7-.5.7-.5.7-.5.7-.5.7-.5.7-.5.7-.4.7-.4.7-.4.7-.4.7-.3.7-.3.7-.3.7-.3.7-.2.7-.2.7-.2h.7c0-.1.7-.3.7-.3h.7c0,0,.7-.2.7-.2h.7s.7,0,.7,0h.7s.7,0,.7,0h.7c0,0,.7.1.7.1h.7c0,.1.7.2.7.2h.7c0,.1.7.3.7.3l.7.2.7.2.7.2.7.2.7.2.7.3.7.3,1.3.5.7.3,1.3.6.7.3,1.3.6.7.3.7.3.7.3.7.3.7.3.7.2.7.2.7.2.7.2.7.2.7.2.7.2.7.2.7.2h.7c0,.1.7.3.7.3h.7c0,.1.7.2.7.2h.7c0,0,.7.1.7.1h.7c0,0,.7,0,.7,0h.7s.7,0,.7,0h.7s.7,0,.7,0h.7s.7,0,.7,0h.7c0,0,.7-.1.7-.1h.7c0,0,.7-.2.7-.2h.7c0,0,.7-.2.7-.2h.7c0-.1.7-.2.7-.2h.7c0-.1,1.3-.4,1.3-.4h.7c0-.1,2.7-.7,2.7-.7l1.3-.3h.7c0-.1.7-.3.7-.3h.7c0-.1.7-.2.7-.2h.7c0-.1.7-.2.7-.2h.7c0,0,.7-.2.7-.2h.7c0,0,.7-.1.7-.1h.7c0,0,.7,0,.7,0h.7s.7,0,.7,0h.7s.7,0,.7,0h.7s.7,0,.7,0h.7c0,0,.7.1.7.1h.7c0,0,.7.2.7.2h.7c0,.1.7.3.7.3l.7.2.7.2.7.2.7.2.7.2.7.3.7.3.7.3.7.3.7.3.7.4.7.4.7.4.7.4.7.4.7.4.7.5.7.5.7.5.7.5.7.5.7.5.7.5.7.5.7.6.7.6.7.6.7.6.7.6.7.6.7.6.7.6,1.3,1.2.7.6,1.3,1.2,2.7,2.5.7.6,1.3,1.2.7.6.7.6.7.6.7.6.7.6.7.6.7.6.7.6.7.6.7.6.7.6.7.6.7.5.7.5.7.5.7.5.7.5.7.5.7.5.7.5.7.5.7.5.7.4.7.4.7.4.7.4.7.4.7.4.7.4.7.4.7.4.7.4.7.3.7.3.7.3.7.3.7.3.7.3.7.3.7.3.7.3.7.3.7.2.7.2.7.2.7.2.7.2.7.2.7.2.7.2.7.2.7.2.7.2h.7c0,.1.7.3.7.3h.7c0,.1.7.3.7.3h.7c0,.1.7.2.7.2h.7c0,.1.7.2.7.2h.7c0,0,.7.2.7.2h.7c0,0,.7.2.7.2h.7c0,0,.7.1.7.1h1.3c0,.1.7.2.7.2h.7c0,0,.7.1.7.1h1.3c0,0,.7.1.7.1h.7s1.3.1,1.3.1h2c0,0,.7.1.7.1h1.3s2,0,2,0h.7s.7,0,.7,0h.7s.7,0,.7,0h.7s.7,0,.7,0h2.7s.7,0,.7,0"/>
  <path class="st0" d="M488.2,193.2"/>
  <g>
    <line class="st2" x1="584.3" y1="216.9" x2="471.2" y2="216.8"/>
    <line class="st2" x1="584.3" y1="260.8" x2="471.2" y2="260.9"/>
    <line class="st2" x1="583.7" y1="349.1" x2="471.2" y2="349.1"/>
    <path class="st2" d="M471.2,437.2h98.1c8.3,0,15-6.7,15-15v-234.5c0-8.3-6.7-15-15-15h-98.1"/>
  </g>
  <g class="st19">
    <text class="st21" transform="translate(238.8 495.3)"><tspan x="0" y="0">Average Rating Distribution</tspan></text>
  </g>
  <g>
    <path class="st5" d="M471.2,393.1l53.1.6c8.3,0,15.1-6.7,15.1-15v-153.6h-68.2"/>
    <path class="st5" d="M471.2,177.2h53.2c8.3,0,15,6.7,15,15v32.9"/>
    <path class="st5" d="M477.4,393.2l25.4.2v-113.8c0-8.3-6.7-15-15-15h-16.6"/>
  </g>
  <path class="st6" d="M471.2,345.6h11.2c8.3,0,15-6.7,15-15v-134.6c0-8.3-6.9-15.1-15.1-15.1h-11"/>
  <g class="st19">
    <text class="st20" transform="translate(489.8 128)"><tspan x="0" y="0">Significant Differences</tspan></text>
  </g>
  <g>
    <g>
      <line class="st7" x1="584.3" y1="186.5" x2="584.3" y2="186"/>
      <line class="st9" x1="584.3" y1="185" x2="584.3" y2="156.6"/>
      <line class="st7" x1="584.3" y1="156.1" x2="584.3" y2="155.6"/>
    </g>
    <g>
      <line class="st7" x1="503.3" y1="172.6" x2="503.3" y2="172.1"/>
      <line class="st1" x1="503.3" y1="171.2" x2="503.3" y2="156.6"/>
      <line class="st7" x1="503.3" y1="156.1" x2="503.3" y2="155.6"/>
    </g>
    <g>
      <line class="st7" x1="544.5" y1="172.6" x2="544.5" y2="172.1"/>
      <line class="st1" x1="544.5" y1="171.2" x2="544.5" y2="156.6"/>
      <line class="st7" x1="544.5" y1="156.1" x2="544.5" y2="155.6"/>
    </g>
  </g>
  <text class="st22" transform="translate(500.5 149.7)"><tspan x="0" y="0">*</tspan></text>
  <text class="st22" transform="translate(535.8 149.7)"><tspan x="0" y="0">***</tspan></text>
  <text class="st22" transform="translate(572.8 149.7)"><tspan x="0" y="0">****</tspan></text>
  <path class="st2" d="M544.5,437.3v-117.3c0-8.3-6.7-15-15-15h-58.3"/>
  <g class="st19">
    <text class="st20" transform="translate(519.5 534.4)"><tspan x="0" y="0">Source: goodreads.com</tspan><tspan x="-214.1" y="13.2">*p &lt; 0.5, ***p &lt; 0.01, ****p &lt; 0.0001; Games-Howell Post-Hoc Test</tspan></text>
  </g>
</svg>