<?xml version="1.0" encoding="UTF-8"?>
<svg id="Layer_1" xmlns="http://www.w3.org/2000/svg" xmlns:xlink="http://www.w3.org/1999/xlink" version="1.1" viewBox="0 0 646.5 558.5">
  <!-- Generator: Adobe Illustrator 29.2.0, SVG Export Plug-In . SVG Version: 2.1.0 Build 108)  -->
  <defs>
    <style>
      .st0, .st1, .st2, .st3, .st4, .st5, .st6 {
        fill: none;
      }

      .st7 {
        fill: #f3c677;
      }

      .st7, .st8, .st9, .st10, .st11, .st12, .st13 {
        fill-opacity: .9;
      }

      .st8 {
        fill: #c94f4f;
      }

      .st14 {
        font-size: 13px;
      }

      .st14, .st15, .st16, .st17, .st18 {
        isolation: isolate;
      }

      .st14, .st15, .st17, .st18 {
        font-family: Avenir-Book, Avenir;
      }

      .st9 {
        fill: #007f5f;
      }

      .st10 {
        fill: #e58e53;
      }

      .st1 {
        stroke-width: .5px;
      }

      .st1, .st2 {
        stroke: #fff;
      }

      .st1, .st2, .st4 {
        stroke-linejoin: round;
      }

      .st15 {
        font-size: 24px;
      }

      .st2 {
        stroke-width: 1.1px;
      }

      .st19 {
        clip-path: url(#clippath-11);
      }

      .st20 {
        clip-path: url(#clippath-16);
      }

      .st21 {
        clip-path: url(#clippath-10);
      }

      .st22 {
        clip-path: url(#clippath-15);
      }

      .st23 {
        clip-path: url(#clippath-13);
      }

      .st24 {
        clip-path: url(#clippath-14);
      }

      .st25 {
        clip-path: url(#clippath-12);
      }

      .st26 {
        fill: #f8f5ec;
      }

      .st27 {
        clip-path: url(#clippath-1);
      }

      .st28 {
        clip-path: url(#clippath-3);
      }

      .st29 {
        clip-path: url(#clippath-4);
      }

      .st30 {
        clip-path: url(#clippath-2);
      }

      .st31 {
        clip-path: url(#clippath-7);
      }

      .st32 {
        clip-path: url(#clippath-6);
      }

      .st33 {
        clip-path: url(#clippath-9);
      }

      .st34 {
        clip-path: url(#clippath-8);
      }

      .st35 {
        clip-path: url(#clippath-5);
      }

      .st3, .st4 {
        stroke-width: .6px;
      }

      .st3, .st4, .st5, .st6 {
        stroke: #000;
      }

      .st3, .st5, .st6 {
        stroke-miterlimit: 10;
      }

      .st4 {
        stroke-linecap: round;
      }

      .st5, .st6 {
        stroke-width: .2px;
      }

      .st17 {
        font-size: 11px;
      }

      .st6 {
        stroke-dasharray: .9 .9;
      }

      .st11 {
        fill: #2a3b58;
      }

      .st12 {
        fill: #8f6aa3;
      }

      .st18 {
        font-size: 14px;
      }

      .st36 {
        clip-path: url(#clippath);
      }

      .st13 {
        fill: #90d1c9;
      }
    </style>
    <clipPath id="clippath">
      <rect class="st0" x="113.8" y="101.2" width="374.4" height="360.1"/>
    </clipPath>
    <clipPath id="clippath-1">
      <rect class="st0" x="127.9" y="91.6" width="2.2" height="360.1"/>
    </clipPath>
    <clipPath id="clippath-2">
      <rect class="st0" x="224.7" y="91.6" width="1.1" height="360.1"/>
    </clipPath>
    <clipPath id="clippath-3">
      <rect class="st0" x="319.9" y="91.6" width="1.1" height="360.1"/>
    </clipPath>
    <clipPath id="clippath-4">
      <rect class="st0" x="416.1" y="91.6" width="2.2" height="360.1"/>
    </clipPath>
    <clipPath id="clippath-5">
      <rect class="st0" x="113.8" y="436.1" width="374.4" height="1.7"/>
    </clipPath>
    <clipPath id="clippath-6">
      <rect class="st0" x="113.8" y="391.9" width="374.4" height="1.7"/>
    </clipPath>
    <clipPath id="clippath-7">
      <rect class="st0" x="113.8" y="348.6" width="374.4" height="1.7"/>
    </clipPath>
    <clipPath id="clippath-8">
      <rect class="st0" x="113.8" y="304.4" width="374.4" height="1.7"/>
    </clipPath>
    <clipPath id="clippath-9">
      <rect class="st0" x="113.8" y="260.3" width="374.4" height="1.7"/>
    </clipPath>
    <clipPath id="clippath-10">
      <rect class="st0" x="113.8" y="216.1" width="374.4" height="1.7"/>
    </clipPath>
    <clipPath id="clippath-11">
      <rect class="st0" x="129" y="171.9" width="374.4" height="1.7"/>
    </clipPath>
    <clipPath id="clippath-12">
      <rect class="st0" x="176.3" y="91.6" width="2.2" height="360.1"/>
    </clipPath>
    <clipPath id="clippath-13">
      <rect class="st0" x="272" y="91.6" width="2.2" height="360.1"/>
    </clipPath>
    <clipPath id="clippath-14">
      <rect class="st0" x="366.6" y="91.6" width="2.2" height="360.1"/>
    </clipPath>
    <clipPath id="clippath-15">
      <rect class="st0" x="464.5" y="91.6" width="2.2" height="360.1"/>
    </clipPath>
    <clipPath id="clippath-16">
      <rect class="st0" x="130.1" y="103.5" width="342.1" height="70.1"/>
    </clipPath>
  </defs>
  <rect class="st26" width="646.5" height="558.5"/>
  <g class="st16">
    <g class="st16">
      <g class="st16">
        <text class="st14" transform="translate(69.3 173.7)"><tspan x="0" y="0">Classics</tspan></text>
      </g>
    </g>
  </g>
  <g class="st16">
    <g class="st16">
      <g class="st16">
        <text class="st14" transform="translate(74.1 218.7)"><tspan x="0" y="0">Thriller</tspan></text>
      </g>
    </g>
  </g>
  <g class="st16">
    <g class="st16">
      <g class="st16">
        <text class="st14" transform="translate(31.7 262.7)"><tspan x="0" y="0">Literary Ficton</tspan></text>
      </g>
    </g>
  </g>
  <g class="st16">
    <g class="st16">
      <g class="st16">
        <text class="st14" transform="translate(41.8 306.7)"><tspan x="0" y="0">Young Adult</tspan></text>
      </g>
    </g>
  </g>
  <g class="st16">
    <g class="st16">
      <g class="st16">
        <text class="st14" transform="translate(26.8 351.7)"><tspan x="0" y="0">Science Fiction</tspan></text>
      </g>
    </g>
  </g>
  <g class="st16">
    <g class="st16">
      <g class="st16">
        <text class="st14" transform="translate(49.8 395.7)"><tspan x="0" y="0">Romantasy</tspan></text>
      </g>
    </g>
  </g>
  <g class="st16">
    <g class="st16">
      <g class="st16">
        <text class="st14" transform="translate(38.2 439.7)"><tspan x="0" y="0">High Fantasy</tspan></text>
      </g>
    </g>
  </g>
  <g class="st16">
    <g class="st16">
      <g class="st16">
        <text class="st15" transform="translate(18.8 42.3)"><tspan x="0" y="0">Fantasy Book Genres Rated the Highest</tspan></text>
      </g>
    </g>
  </g>
  <g class="st16">
    <g class="st16">
      <g class="st16">
        <text class="st17" transform="translate(168.9 470.7)"><tspan x="0" y="0">3.5</tspan></text>
      </g>
    </g>
  </g>
  <g class="st16">
    <g class="st16">
      <g class="st16">
        <text class="st17" transform="translate(265.4 470.9)"><tspan x="0" y="0">4.0</tspan></text>
      </g>
    </g>
  </g>
  <g class="st16">
    <g class="st16">
      <g class="st16">
        <text class="st17" transform="translate(362 471)"><tspan x="0" y="0">4.5</tspan></text>
      </g>
    </g>
  </g>
  <g class="st16">
    <g class="st16">
      <g class="st16">
        <text class="st17" transform="translate(457.7 471.1)"><tspan x="0" y="0">5.0</tspan></text>
      </g>
    </g>
  </g>
  <g class="st16">
    <g class="st16">
      <g class="st16">
        <text class="st18" transform="translate(20.7 63.2)"><tspan x="0" y="0">according to Goodreads’ 50-most-shelved per genre</tspan></text>
      </g>
    </g>
  </g>
  <g class="st36">
    <path class="st26" d="M113.8,461.3h374.4V101.2H113.8v360.1Z"/>
  </g>
  <g class="st27">
    <path class="st1" d="M128.9,451.7V91.6"/>
  </g>
  <g class="st30">
    <path class="st1" d="M225.1,451.7V91.6"/>
  </g>
  <g class="st28">
    <path class="st1" d="M320.6,451.7V91.6"/>
  </g>
  <g class="st29">
    <path class="st1" d="M417.3,451.7V91.6"/>
  </g>
  <g class="st35">
    <path class="st2" d="M129,437.2h359.2"/>
  </g>
  <g class="st32">
    <path class="st2" d="M128.9,393.1h359.3"/>
  </g>
  <g class="st31">
    <path class="st2" d="M128.9,349.1h359.3"/>
  </g>
  <g class="st34">
    <path class="st2" d="M129,305h359.2"/>
  </g>
  <g class="st33">
    <path class="st2" d="M128.9,260.9h359.3"/>
  </g>
  <g class="st21">
    <path class="st2" d="M129,216.8h359.2"/>
  </g>
  <g class="st19">
    <path class="st2" d="M129,172.8h374.4"/>
  </g>
  <g class="st25">
    <path class="st2" d="M177,451.7V91.6"/>
  </g>
  <g class="st23">
    <path class="st2" d="M273.1,451.7V91.6"/>
  </g>
  <g class="st24">
    <path class="st2" d="M368.1,451.7V91.6"/>
  </g>
  <g class="st22">
    <path class="st2" d="M465.4,451.7V91.6"/>
  </g>
  <g class="st20">
    <g>
      <path class="st9" d="M130.8,172.8h21.1c0-.1.7-.1.7-.1l1.3-.2h.7l1.3-.2h.7l.7-.2h.7l.7-.2h.7c0-.1.7-.2.7-.2h.7c0-.1.7-.2.7-.2h.7c0-.1.7-.3.7-.3h.7c0-.1.7-.3.7-.3h.7c0-.1.7-.3.7-.3l.7-.2.7-.2.7-.2.7-.2.7-.2.7-.2.7-.2,1.3-.4,1.3-.4,1.3-.4,1.3-.4.7-.2.7-.2.7-.2.7-.2.7-.2.7-.2.7-.2.7-.2.7-.2.7-.2.7-.2.7-.2.7-.2.7-.2.7-.2.7-.2h.7c0-.1.7-.3.7-.3h.7c0-.1.7-.3.7-.3h.7c0-.1.7-.2.7-.2h.7c0-.1.7-.2.7-.2h.7l.7-.2h.7l.7-.2h.7l1.3-.2h.7l2.7-.3h.7l1.3-.2h1.4c0-.1.7-.1.7-.1l.7-.2h.7l.7-.2h.7c0-.1.7-.2.7-.2h.7c0-.1.7-.3.7-.3l.7-.2.7-.2.7-.2.7-.2.7-.2.7-.3.7-.3.7-.3.7-.3.7-.3.7-.4.7-.4.7-.4.7-.4.7-.5.7-.5.7-.5.7-.5.7-.6.7-.6.7-.6.7-.6.7-.7.7-.7.7-.7.7-.7.7-.7.7-.8.7-.8.7-.8.7-.8.7-.8.7-.8.7-.9.7-.9.7-.9.7-.9.7-.9.7-.9.7-.9.7-.9,1.3-1.9.7-1,2-2.9,1.3-1.9.7-1,.7-.9.7-.9.7-.9.7-.9.7-.9.7-.9.7-.9.7-.9.7-.9.7-.9.7-.8.7-.8.7-.8.7-.8.7-.8.7-.8.7-.7.7-.7.7-.7.7-.7.7-.7.7-.6.7-.6.7-.6.7-.6.7-.5.7-.5.7-.5.7-.4.7-.4.7-.4.7-.4.7-.3.7-.3.7-.3.7-.3.7-.2.7-.2.7-.2h.7l.7-.3h.7l.7-.2h4.9l.7.2h.7l.7.3.7.2.7.2.7.2.7.2.7.2.7.3.7.3.7.3.7.3.7.3.7.3.7.3.7.3.7.4.7.4.7.4.7.4.7.4.7.4.7.4.7.4.7.4.7.4.7.4.7.4.7.4.7.4.7.4.7.5.7.5.7.5.7.5.7.5.7.5.7.5.7.5.7.5.7.5.7.5.7.6.7.6.7.6.7.6.7.6.7.6.7.6.7.6.7.7.7.7.7.7.7.7.7.7.7.7.7.7.7.7.7.7.7.7.7.7.7.8.7.8.7.8.7.8,2.7,3.1,1.3,1.5.7.8.7.8.7.8.7.7.7.7.7.7.7.7.7.7.7.7.7.7.7.7.7.7.7.7.7.7.7.6.7.6.7.6.7.6.7.6.7.6.7.6.7.5.7.5.7.5.7.5.7.5.7.5.7.5.7.5.7.4.7.4.7.4.7.4.7.4.7.4.7.4.7.4.7.4.7.4.7.4.7.4.7.3.7.3.7.3.7.3.7.3,1.3.6.7.3.7.3.7.3.7.3.7.3.7.3.7.3.7.3.7.2.7.2.7.2.7.2.7.2.7.2.7.2.7.2.7.2.7.2.7.2.7.2.7.2.7.2,1.3.3h.7c0,.1.7.3.7.3l1.3.3h.7c0,.1.7.2.7.2h.7c0,.1.7.2.7.2l1.3.2h.7l.7.2h.7l.7.2h1.4c0,.1,1.3.1,1.3.1,0,.1.7.2.7.2h1.4c0,.1.7.1.7.1h2l1.3.2h84.2H130.8v.6h0Z"/>
      <path class="st4" d="M130.8,172.8h21.1c0-.1.7-.1.7-.1l1.3-.2h.7l1.3-.2h.7l.7-.2h.7l.7-.2h.7c0-.1.7-.2.7-.2h.7c0-.1.7-.2.7-.2h.7c0-.1.7-.3.7-.3h.7c0-.1.7-.3.7-.3h.7c0-.1.7-.3.7-.3l.7-.2.7-.2.7-.2.7-.2.7-.2.7-.2.7-.2,1.3-.4,1.3-.4,1.3-.4,1.3-.4.7-.2.7-.2.7-.2.7-.2.7-.2.7-.2.7-.2.7-.2.7-.2.7-.2.7-.2.7-.2.7-.2.7-.2.7-.2.7-.2h.7c0-.1.7-.3.7-.3h.7c0-.1.7-.3.7-.3h.7c0-.1.7-.2.7-.2h.7c0-.1.7-.2.7-.2h.7l.7-.2h.7l.7-.2h.7l1.3-.2h.7l2.7-.3h.7l1.3-.2h1.4c0-.1.7-.1.7-.1l.7-.2h.7l.7-.2h.7c0-.1.7-.2.7-.2h.7c0-.1.7-.3.7-.3l.7-.2.7-.2.7-.2.7-.2.7-.2.7-.3.7-.3.7-.3.7-.3.7-.3.7-.4.7-.4.7-.4.7-.4.7-.5.7-.5.7-.5.7-.5.7-.6.7-.6.7-.6.7-.6.7-.7.7-.7.7-.7.7-.7.7-.7.7-.8.7-.8.7-.8.7-.8.7-.8.7-.8.7-.9.7-.9.7-.9.7-.9.7-.9.7-.9.7-.9.7-.9,1.3-1.9.7-1,2-2.9,1.3-1.9.7-1,.7-.9.7-.9.7-.9.7-.9.7-.9.7-.9.7-.9.7-.9.7-.9.7-.9.7-.8.7-.8.7-.8.7-.8.7-.8.7-.8.7-.7.7-.7.7-.7.7-.7.7-.7.7-.6.7-.6.7-.6.7-.6.7-.5.7-.5.7-.5.7-.4.7-.4.7-.4.7-.4.7-.3.7-.3.7-.3.7-.3.7-.2.7-.2.7-.2h.7l.7-.3h.7l.7-.2h4.9l.7.2h.7l.7.3.7.2.7.2.7.2.7.2.7.2.7.3.7.3.7.3.7.3.7.3.7.3.7.3.7.3.7.4.7.4.7.4.7.4.7.4.7.4.7.4.7.4.7.4.7.4.7.4.7.4.7.4.7.4.7.4.7.5.7.5.7.5.7.5.7.5.7.5.7.5.7.5.7.5.7.5.7.5.7.6.7.6.7.6.7.6.7.6.7.6.7.6.7.6.7.7.7.7.7.7.7.7.7.7.7.7.7.7.7.7.7.7.7.7.7.7.7.8.7.8.7.8.7.8,2.7,3.1,1.3,1.5.7.8.7.8.7.8.7.7.7.7.7.7.7.7.7.7.7.7.7.7.7.7.7.7.7.7.7.7.7.6.7.6.7.6.7.6.7.6.7.6.7.6.7.5.7.5.7.5.7.5.7.5.7.5.7.5.7.5.7.4.7.4.7.4.7.4.7.4.7.4.7.4.7.4.7.4.7.4.7.4.7.4.7.3.7.3.7.3.7.3.7.3,1.3.6.7.3.7.3.7.3.7.3.7.3.7.3.7.3.7.3.7.2.7.2.7.2.7.2.7.2.7.2.7.2.7.2.7.2.7.2.7.2.7.2.7.2.7.2,1.3.3h.7c0,.1.7.3.7.3l1.3.3h.7c0,.1.7.2.7.2h.7c0,.1.7.2.7.2l1.3.2h.7l.7.2h.7l.7.2h1.4c0,.1,1.3.1,1.3.1,0,.1.7.2.7.2h1.4c0,.1.7.1.7.1h2l1.3.2h84.2"/>
    </g>
  </g>
  <path class="st11" d="M130.8,216.8h30.2c0-.1.7-.1.7-.1h3.5c0-.1.7-.1.7-.1h.7c0-.1.7-.1.7-.1h.7c0-.1.7-.1.7-.1l.7-.2h.7l.7-.2h.7l.7-.2h.7c0-.1.7-.2.7-.2h.7c0-.1.7-.2.7-.2h.7c0-.1.7-.3.7-.3h.7c0-.1.7-.3.7-.3l.7-.2.7-.2.7-.2.7-.2.7-.2.7-.2.7-.2.7-.2.7-.2.7-.2.7-.2.7-.3.7-.3.7-.3.7-.3.7-.3.7-.3.7-.3.7-.3.7-.3.7-.3.7-.3.7-.3.7-.3.7-.3.7-.4.7-.4.7-.4,1.3-.7.7-.4.7-.4,1.3-.8,1.3-.8.7-.4.7-.4,1.3-.8,1.3-.8,1.3-.8.7-.4,2-1.3.7-.4.7-.4.7-.4,1.3-.9,2.7-1.8,1.3-.9,2-1.3.7-.5,1.3-.9.7-.5,1.3-.9.7-.5.7-.5,1.3-.9,1.3-1,.7-.5.7-.5.7-.5.7-.5.7-.5.7-.5.7-.5.7-.5.7-.5.7-.6.7-.6.7-.6.7-.6.7-.6.7-.6.7-.6.7-.6.7-.6.7-.6.7-.6.7-.6.7-.6.7-.7.7-.7,1.3-1.3,3.3-3.3.7-.7.7-.7.7-.7.7-.6.7-.6.7-.6.7-.6.7-.6.7-.6.7-.6.7-.6.7-.5.7-.5.7-.5.7-.5.7-.5.7-.4.7-.4.7-.4.7-.4.7-.3.7-.3.7-.3.7-.2.7-.2.7-.2h.7c0-.1.7-.3.7-.3h1.4c0-.1.7-.1.7-.1h2.8l.7.2h.7c0,.1.7.3.7.3l.7.2.7.2.7.2.7.2.7.3.7.3.7.3.7.3.7.3.7.3.7.3.7.3.7.3.7.3,1.3.7,2,1,.7.3.7.3.7.3.7.3.7.3.7.3.7.3.7.3.7.3.7.3.7.3.7.2.7.2.7.2.7.2.7.2.7.2.7.2.7.2.7.2h.7c0,.1.7.3.7.3h.7c0,.1.7.3.7.3h.7c0,.1.7.2.7.2h.7c0,.1.7.2.7.2l3.3.5,1.3.2h.7c0,.1.7.2.7.2h.7c0,.1.7.2.7.2h.7c0,.1.7.3.7.3l.7.2.7.2.7.2.7.2.7.2.7.2.7.2.7.3.7.3.7.3.7.3.7.3.7.4.7.4.7.4.7.4.7.5.7.5.7.5.7.5.7.6.7.6.7.6.7.6.7.6.7.7.7.7.7.7.7.7.7.7.7.8.7.8.7.8.7.8.7.8.7.8.7.8.7.8,1.3,1.7.7.8,1.3,1.7.7.8.7.8.7.8.7.8.7.8.7.8.7.8.7.8.7.8.7.8.7.7.7.7.7.7.7.7.7.7.7.7.7.6.7.6.7.6.7.6.7.5.7.5.7.5.7.5.7.5.7.4.7.4.7.4.7.4.7.4.7.3.7.3.7.3.7.3.7.3.7.3.7.2.7.2.7.2.7.2.7.2.7.2.7.2h.7c0,.1.7.3.7.3h.7c0,.1.7.2.7.2h.7c0,.1.7.2.7.2h.7l.7.2h1.4c0,.1.7.1.7.1h.7c0,.1.7.1.7.1h.7c0,.1.7.1.7.1h92.3H130.8Z"/>
  <path class="st4" d="M130.8,216.8h30.2c0-.1.7-.1.7-.1h3.5c0-.1.7-.1.7-.1h.7c0-.1.7-.1.7-.1h.7c0-.1.7-.1.7-.1l.7-.2h.7l.7-.2h.7l.7-.2h.7c0-.1.7-.2.7-.2h.7c0-.1.7-.2.7-.2h.7c0-.1.7-.3.7-.3h.7c0-.1.7-.3.7-.3l.7-.2.7-.2.7-.2.7-.2.7-.2.7-.2.7-.2.7-.2.7-.2.7-.2.7-.2.7-.3.7-.3.7-.3.7-.3.7-.3.7-.3.7-.3.7-.3.7-.3.7-.3.7-.3.7-.3.7-.3.7-.3.7-.4.7-.4.7-.4,1.3-.7.7-.4.7-.4,1.3-.8,1.3-.8.7-.4.7-.4,1.3-.8,1.3-.8,1.3-.8.7-.4,2-1.3.7-.4.7-.4.7-.4,1.3-.9,2.7-1.8,1.3-.9,2-1.3.7-.5,1.3-.9.7-.5,1.3-.9.7-.5.7-.5,1.3-.9,1.3-1,.7-.5.7-.5.7-.5.7-.5.7-.5.7-.5.7-.5.7-.5.7-.5.7-.6.7-.6.7-.6.7-.6.7-.6.7-.6.7-.6.7-.6.7-.6.7-.6.7-.6.7-.6.7-.6.7-.7.7-.7,1.3-1.3,3.3-3.3.7-.7.7-.7.7-.7.7-.6.7-.6.7-.6.7-.6.7-.6.7-.6.7-.6.7-.6.7-.5.7-.5.7-.5.7-.5.7-.5.7-.4.7-.4.7-.4.7-.4.7-.3.7-.3.7-.3.7-.2.7-.2.7-.2h.7c0-.1.7-.3.7-.3h1.4c0-.1.7-.1.7-.1h2.8l.7.2h.7c0,.1.7.3.7.3l.7.2.7.2.7.2.7.2.7.3.7.3.7.3.7.3.7.3.7.3.7.3.7.3.7.3.7.3,1.3.7,2,1,.7.3.7.3.7.3.7.3.7.3.7.3.7.3.7.3.7.3.7.3.7.3.7.2.7.2.7.2.7.2.7.2.7.2.7.2.7.2.7.2h.7c0,.1.7.3.7.3h.7c0,.1.7.3.7.3h.7c0,.1.7.2.7.2h.7c0,.1.7.2.7.2l3.3.5,1.3.2h.7c0,.1.7.2.7.2h.7c0,.1.7.2.7.2h.7c0,.1.7.3.7.3l.7.2.7.2.7.2.7.2.7.2.7.2.7.2.7.3.7.3.7.3.7.3.7.3.7.4.7.4.7.4.7.4.7.5.7.5.7.5.7.5.7.6.7.6.7.6.7.6.7.6.7.7.7.7.7.7.7.7.7.7.7.8.7.8.7.8.7.8.7.8.7.8.7.8.7.8,1.3,1.7.7.8,1.3,1.7.7.8.7.8.7.8.7.8.7.8.7.8.7.8.7.8.7.8.7.8.7.7.7.7.7.7.7.7.7.7.7.7.7.6.7.6.7.6.7.6.7.5.7.5.7.5.7.5.7.5.7.4.7.4.7.4.7.4.7.4.7.3.7.3.7.3.7.3.7.3.7.3.7.2.7.2.7.2.7.2.7.2.7.2.7.2h.7c0,.1.7.3.7.3h.7c0,.1.7.2.7.2h.7c0,.1.7.2.7.2h.7l.7.2h1.4c0,.1.7.1.7.1h.7c0,.1.7.1.7.1h.7c0,.1.7.1.7.1h92.3"/>
  <path class="st7" d="M130.8,260.9h13.5c0-.1,2-.1,2-.1h.7c0-.1.7-.1.7-.1h2.7c0-.1,1.3-.1,1.3-.1,0-.1.7-.2.7-.2h1.3c0-.1,1.3-.3,1.3-.3h.7l.7-.2h.7l.7-.2h.7l.7-.2h.7c0-.1.7-.2.7-.2h.7c0-.1.7-.2.7-.2h.7c0-.1.7-.3.7-.3h.7c0-.1.7-.3.7-.3h.7c0-.1.7-.3.7-.3l.7-.2.7-.2.7-.2.7-.2.7-.2.7-.2.7-.2.7-.2.7-.2.7-.2,1.3-.4.7-.2,1.3-.5,1.3-.5,1.3-.5.7-.2.7-.2,1.3-.5.7-.3.7-.3.7-.3,1.3-.5.7-.3.7-.3.7-.3.7-.3.7-.3.7-.3.7-.3.7-.3.7-.3.7-.3.7-.3,1.3-.6,1.3-.6.7-.3.7-.3,1.3-.6,2-.9.7-.3.7-.3,2-.9.7-.3.7-.3,1.3-.6.7-.3.7-.3.7-.3.7-.3.7-.3,2-.9.7-.3.7-.3,1.3-.6.7-.3.7-.3.7-.3.7-.3.7-.3.7-.3.7-.3.7-.3.7-.3,1.3-.6.7-.3.7-.3.7-.3.7-.3.7-.3,1.3-.6,1.3-.6.7-.3.7-.3.7-.3,1.3-.6.7-.3.7-.3,1.3-.6,1.3-.5.7-.3,1.3-.5.7-.3,2-.8.7-.3.7-.2.7-.3,1.3-.5.7-.3.7-.2,2.7-1,2-.8,1.3-.5,1.3-.5,1.3-.6.7-.3.7-.3.7-.3.7-.3.7-.3.7-.3.7-.3.7-.3.7-.3.7-.3.7-.3.7-.3.7-.3.7-.3.7-.3.7-.3.7-.4.7-.4,1.3-.7.7-.4.7-.4.7-.4,2-1.1,2-1.1.7-.4,1.3-.7.7-.3.7-.3.7-.3.7-.3.7-.3.7-.3.7-.3.7-.3.7-.3.7-.3.7-.3.7-.3.7-.2.7-.2.7-.2.7-.2.7-.2.7-.2h.7c0-.1.7-.3.7-.3h.7c0-.1.7-.2.7-.2h1.4c0-.1.7-.1.7-.1h4.1c0,.1.7.1.7.1l.7.2h.7c0,.1.7.3.7.3l.7.2.7.2.7.2.7.2.7.3.7.3.7.3.7.3.7.3.7.3.7.3.7.4.7.4.7.4.7.4.7.4,1.3.8,2,1.2.7.4.7.4,1.3.8.7.4.7.4.7.4.7.4.7.4.7.4.7.4.7.3.7.3.7.3.7.3.7.3.7.3.7.3.7.3.7.3.7.3,1.3.6,1.3.5,1.3.5.7.3.7.3,1.3.5.7.3,1.3.6.7.3.7.3.7.3.7.3.7.3.7.3.7.3.7.4.7.4.7.4.7.4.7.4.7.4.7.4.7.4.7.5.7.5.7.5.7.5.7.5.7.5.7.5.7.5.7.5.7.6.7.6.7.6.7.6.7.6,1.3,1.2,1.3,1.2.7.6.7.6,1.3,1.2,1.3,1.1.7.6.7.6.7.6.7.5.7.5.7.5.7.5.7.5.7.5.7.5.7.5.7.5.7.5.7.4.7.4.7.4.7.4.7.4.7.4.7.4.7.4.7.3.7.3.7.3.7.3.7.3.7.3.7.3.7.3.7.3.7.2.7.2.7.2.7.2.7.2.7.2.7.2.7.2.7.2.7.2.7.2.7.2h.7c0,.1.7.3.7.3h.7c0,.1.7.3.7.3h.7c0,.1.7.2.7.2h.7c0,.1.7.2.7.2h.7l.7.2h.7l.7.2h1.4c0,.1.7.1.7.1l1.3.2h1.4c0,.1.7.1.7.1h2l1.3.2h2.6c0,.1,1.3.1,1.3.1h2c0,.1.7.1.7.1h61.5H130.8Z"/>
  <path class="st4" d="M130.8,260.9h13.5c0-.1,2-.1,2-.1h.7c0-.1.7-.1.7-.1h2.7c0-.1,1.3-.1,1.3-.1,0-.1.7-.2.7-.2h1.3c0-.1,1.3-.3,1.3-.3h.7l.7-.2h.7l.7-.2h.7l.7-.2h.7c0-.1.7-.2.7-.2h.7c0-.1.7-.2.7-.2h.7c0-.1.7-.3.7-.3h.7c0-.1.7-.3.7-.3h.7c0-.1.7-.3.7-.3l.7-.2.7-.2.7-.2.7-.2.7-.2.7-.2.7-.2.7-.2.7-.2.7-.2,1.3-.4.7-.2,1.3-.5,1.3-.5,1.3-.5.7-.2.7-.2,1.3-.5.7-.3.7-.3.7-.3,1.3-.5.7-.3.7-.3.7-.3.7-.3.7-.3.7-.3.7-.3.7-.3.7-.3.7-.3.7-.3,1.3-.6,1.3-.6.7-.3.7-.3,1.3-.6,2-.9.7-.3.7-.3,2-.9.7-.3.7-.3,1.3-.6.7-.3.7-.3.7-.3.7-.3.7-.3,2-.9.7-.3.7-.3,1.3-.6.7-.3.7-.3.7-.3.7-.3.7-.3.7-.3.7-.3.7-.3.7-.3,1.3-.6.7-.3.7-.3.7-.3.7-.3.7-.3,1.3-.6,1.3-.6.7-.3.7-.3.7-.3,1.3-.6.7-.3.7-.3,1.3-.6,1.3-.5.7-.3,1.3-.5.7-.3,2-.8.7-.3.7-.2.7-.3,1.3-.5.7-.3.7-.2,2.7-1,2-.8,1.3-.5,1.3-.5,1.3-.6.7-.3.7-.3.7-.3.7-.3.7-.3.7-.3.7-.3.7-.3.7-.3.7-.3.7-.3.7-.3.7-.3.7-.3.7-.3.7-.3.7-.4.7-.4,1.3-.7.7-.4.7-.4.7-.4,2-1.1,2-1.1.7-.4,1.3-.7.7-.3.7-.3.7-.3.7-.3.7-.3.7-.3.7-.3.7-.3.7-.3.7-.3.7-.3.7-.3.7-.2.7-.2.7-.2.7-.2.7-.2.7-.2h.7c0-.1.7-.3.7-.3h.7c0-.1.7-.2.7-.2h1.4c0-.1.7-.1.7-.1h4.1c0,.1.7.1.7.1l.7.2h.7c0,.1.7.3.7.3l.7.2.7.2.7.2.7.2.7.3.7.3.7.3.7.3.7.3.7.3.7.3.7.4.7.4.7.4.7.4.7.4,1.3.8,2,1.2.7.4.7.4,1.3.8.7.4.7.4.7.4.7.4.7.4.7.4.7.4.7.3.7.3.7.3.7.3.7.3.7.3.7.3.7.3.7.3.7.3,1.3.6,1.3.5,1.3.5.7.3.7.3,1.3.5.7.3,1.3.6.7.3.7.3.7.3.7.3.7.3.7.3.7.3.7.4.7.4.7.4.7.4.7.4.7.4.7.4.7.4.7.5.7.5.7.5.7.5.7.5.7.5.7.5.7.5.7.5.7.6.7.6.7.6.7.6.7.6,1.3,1.2,1.3,1.2.7.6.7.6,1.3,1.2,1.3,1.1.7.6.7.6.7.6.7.5.7.5.7.5.7.5.7.5.7.5.7.5.7.5.7.5.7.5.7.4.7.4.7.4.7.4.7.4.7.4.7.4.7.4.7.3.7.3.7.3.7.3.7.3.7.3.7.3.7.3.7.3.7.2.7.2.7.2.7.2.7.2.7.2.7.2.7.2.7.2.7.2.7.2.7.2h.7c0,.1.7.3.7.3h.7c0,.1.7.3.7.3h.7c0,.1.7.2.7.2h.7c0,.1.7.2.7.2h.7l.7.2h.7l.7.2h1.4c0,.1.7.1.7.1l1.3.2h1.4c0,.1.7.1.7.1h2l1.3.2h2.6c0,.1,1.3.1,1.3.1h2c0,.1.7.1.7.1h61.5"/>
  <path class="st12" d="M130.8,305h25l.7-.2h.7l1.3-.2h.7l.7-.2h.7l.7-.2h.7l.7-.2h.7c0-.1.7-.2.7-.2h.7c0-.1.7-.3.7-.3h.7c0-.1.7-.3.7-.3l.7-.2.7-.2.7-.2.7-.2.7-.2.7-.2.7-.2.7-.2.7-.2.7-.3.7-.3.7-.3.7-.3.7-.3.7-.3.7-.3.7-.3.7-.3.7-.3.7-.4.7-.4.7-.4.7-.4.7-.4,1.3-.8.7-.4.7-.4,1.3-.8.7-.4.7-.4.7-.4.7-.4.7-.4.7-.4.7-.4.7-.4.7-.4.7-.4.7-.4.7-.4.7-.4.7-.4.7-.3.7-.3.7-.3.7-.3.7-.3.7-.3.7-.3.7-.3.7-.2.7-.2.7-.2.7-.2.7-.2.7-.2.7-.2h.7c0-.1.7-.3.7-.3h.7c0-.1.7-.2.7-.2h.7l.7-.2h1.4c0-.1.7-.1.7-.1h19.5c0-.1.7-.1.7-.1l.7-.2h.7c0-.1.7-.2.7-.2h.7c0-.1.7-.3.7-.3l.7-.2.7-.2.7-.2.7-.2.7-.3.7-.3.7-.3.7-.3.7-.3.7-.3.7-.4.7-.4.7-.4.7-.4.7-.4.7-.4.7-.4.7-.5.7-.5.7-.5.7-.5.7-.5.7-.5.7-.5.7-.5,1.3-1.1.7-.5.7-.5,4-3.3.7-.5,1.3-1.1.7-.5.7-.5.7-.5.7-.5.7-.5.7-.5.7-.5.7-.5.7-.5.7-.5.7-.5.7-.4.7-.4.7-.4.7-.4.7-.4.7-.4.7-.4.7-.3.7-.3.7-.3.7-.3.7-.3.7-.3.7-.2.7-.2.7-.2.7-.2.7-.2.7-.2h.7c0-.1.7-.2.7-.2h.7l.7-.2h4.1l.7.2h.7c0,.1.7.3.7.3l.7.2.7.2.7.2.7.2.7.3.7.3.7.3.7.3.7.3.7.4.7.4.7.4.7.4.7.4.7.4.7.4.7.5.7.5.7.5.7.5.7.5,1.3,1,2,1.5,1.3,1,.7.5.7.5.7.5.7.5.7.5.7.4.7.4.7.4.7.4.7.4.7.4.7.4.7.3.7.3.7.3.7.3.7.3.7.3.7.2.7.2.7.2.7.2.7.2.7.2.7.2.7.2h.7c0,.1.7.3.7.3h.7c0,.1.7.2.7.2h.7l.7.2h.7l.7.2h1.4c0,.1.7.1.7.1h.7c0,.1.7.1.7.1h1.3c0,.1,1.3.1,1.3.1l1.3.2h2c0,.1,1.3.1,1.3.1l2,.2h1.3l1.3.2,2,.2h.7l2,.2h1.3c0,.1,1.3.3,1.3.3h1.3c0,.1,2,.4,2,.4h.7l.7.2,1.3.2,1.3.2,1.3.2h.7l1.3.3h.7c0,.1.7.2.7.2h.7c0,.1.7.2.7.2l1.3.3h.7c0,.1.7.3.7.3l.7.2.7.2.7.2.7.2.7.2.7.2.7.2.7.2.7.2.7.2.7.2.7.2.7.2.7.2.7.3.7.3.7.3.7.3.7.3.7.3.7.3.7.3.7.3.7.3.7.3.7.3.7.3.7.4.7.4.7.4.7.4.7.4.7.4.7.4.7.4.7.4.7.4.7.4,3.3,2,.7.4.7.4,1.3.8.7.4,1.3.8.7.4.7.4.7.4.7.4.7.4.7.3.7.3.7.3.7.3.7.3.7.3.7.3.7.3.7.3.7.3.7.3.7.2.7.2.7.2.7.2.7.2.7.2.7.2.7.2.7.2.7.2.7.2h.7c0,.1.7.3.7.3h.7c0,.1.7.3.7.3h.7c0,.1.7.2.7.2h.7c0,.1.7.2.7.2h.7l.7.2h.7l.7.2h1.4c0,.1.7.1.7.1h.7c0,.1.7.1.7.1h4.1c0,.1,1.3.1,1.3.1h35.4H130.8v-.4h0Z"/>
  <path class="st4" d="M130.8,305h25l.7-.2h.7l1.3-.2h.7l.7-.2h.7l.7-.2h.7l.7-.2h.7c0-.1.7-.2.7-.2h.7c0-.1.7-.3.7-.3h.7c0-.1.7-.3.7-.3l.7-.2.7-.2.7-.2.7-.2.7-.2.7-.2.7-.2.7-.2.7-.2.7-.3.7-.3.7-.3.7-.3.7-.3.7-.3.7-.3.7-.3.7-.3.7-.3.7-.4.7-.4.7-.4.7-.4.7-.4,1.3-.8.7-.4.7-.4,1.3-.8.7-.4.7-.4.7-.4.7-.4.7-.4.7-.4.7-.4.7-.4.7-.4.7-.4.7-.4.7-.4.7-.4.7-.4.7-.3.7-.3.7-.3.7-.3.7-.3.7-.3.7-.3.7-.3.7-.2.7-.2.7-.2.7-.2.7-.2.7-.2.7-.2h.7c0-.1.7-.3.7-.3h.7c0-.1.7-.2.7-.2h.7l.7-.2h1.4c0-.1.7-.1.7-.1h19.5c0-.1.7-.1.7-.1l.7-.2h.7c0-.1.7-.2.7-.2h.7c0-.1.7-.3.7-.3l.7-.2.7-.2.7-.2.7-.2.7-.3.7-.3.7-.3.7-.3.7-.3.7-.3.7-.4.7-.4.7-.4.7-.4.7-.4.7-.4.7-.4.7-.5.7-.5.7-.5.7-.5.7-.5.7-.5.7-.5.7-.5,1.3-1.1.7-.5.7-.5,4-3.3.7-.5,1.3-1.1.7-.5.7-.5.7-.5.7-.5.7-.5.7-.5.7-.5.7-.5.7-.5.7-.5.7-.5.7-.4.7-.4.7-.4.7-.4.7-.4.7-.4.7-.4.7-.3.7-.3.7-.3.7-.3.7-.3.7-.3.7-.2.7-.2.7-.2.7-.2.7-.2.7-.2h.7c0-.1.7-.2.7-.2h.7l.7-.2h4.1l.7.2h.7c0,.1.7.3.7.3l.7.2.7.2.7.2.7.2.7.3.7.3.7.3.7.3.7.3.7.4.7.4.7.4.7.4.7.4.7.4.7.4.7.5.7.5.7.5.7.5.7.5,1.3,1,2,1.5,1.3,1,.7.5.7.5.7.5.7.5.7.5.7.4.7.4.7.4.7.4.7.4.7.4.7.4.7.3.7.3.7.3.7.3.7.3.7.3.7.2.7.2.7.2.7.2.7.2.7.2.7.2.7.2h.7c0,.1.7.3.7.3h.7c0,.1.7.2.7.2h.7l.7.2h.7l.7.2h1.4c0,.1.7.1.7.1h.7c0,.1.7.1.7.1h1.3c0,.1,1.3.1,1.3.1l1.3.2h2c0,.1,1.3.1,1.3.1l2,.2h1.3l1.3.2,2,.2h.7l2,.2h1.3c0,.1,1.3.3,1.3.3h1.3c0,.1,2,.4,2,.4h.7l.7.2,1.3.2,1.3.2,1.3.2h.7l1.3.3h.7c0,.1.7.2.7.2h.7c0,.1.7.2.7.2l1.3.3h.7c0,.1.7.3.7.3l.7.2.7.2.7.2.7.2.7.2.7.2.7.2.7.2.7.2.7.2.7.2.7.2.7.2.7.2.7.3.7.3.7.3.7.3.7.3.7.3.7.3.7.3.7.3.7.3.7.3.7.3.7.3.7.4.7.4.7.4.7.4.7.4.7.4.7.4.7.4.7.4.7.4.7.4,3.3,2,.7.4.7.4,1.3.8.7.4,1.3.8.7.4.7.4.7.4.7.4.7.4.7.3.7.3.7.3.7.3.7.3.7.3.7.3.7.3.7.3.7.3.7.3.7.2.7.2.7.2.7.2.7.2.7.2.7.2.7.2.7.2.7.2.7.2h.7c0,.1.7.3.7.3h.7c0,.1.7.3.7.3h.7c0,.1.7.2.7.2h.7c0,.1.7.2.7.2h.7l.7.2h.7l.7.2h1.4c0,.1.7.1.7.1h.7c0,.1.7.1.7.1h4.1c0,.1,1.3.1,1.3.1h35.4"/>
  <path class="st13" d="M130.8,349.1h45.2c0-.1.7-.1.7-.1h3.3c0-.1.7-.1.7-.1h1.3c0-.1,1.3-.1,1.3-.1l.7-.2h.7l1.3-.2h1.4c0-.1.7-.1.7-.1h.7c0-.1.7-.1.7-.1l.7-.2h.7l.7-.2,1.3-.2h.7c0-.1.7-.2.7-.2l1.3-.2h.7c0-.1,1.3-.4,1.3-.4h.7c0-.1,1.3-.4,1.3-.4h.7c0-.1.7-.3.7-.3l.7-.2.7-.2.7-.2.7-.2.7-.2.7-.2.7-.2.7-.2.7-.2.7-.2.7-.2.7-.2.7-.2.7-.2.7-.2.7-.2.7-.2.7-.2.7-.3.7-.3.7-.3.7-.3.7-.3.7-.3.7-.3.7-.3.7-.3.7-.3.7-.3.7-.3.7-.3.7-.4.7-.4.7-.4.7-.4.7-.4.7-.4.7-.4.7-.4.7-.4.7-.4.7-.5.7-.5.7-.5.7-.5.7-.5.7-.5.7-.5.7-.5.7-.5.7-.5.7-.5.7-.5,1.3-1,.7-.5.7-.5.7-.5,1.3-1,1.3-1,.7-.5.7-.5.7-.5.7-.5.7-.5.7-.5.7-.5.7-.5.7-.5.7-.4.7-.4.7-.4.7-.4.7-.4.7-.4.7-.4.7-.4.7-.4.7-.4.7-.4.7-.4.7-.4.7-.4,1.3-.7.7-.3,1.3-.7,1.3-.7.7-.4.7-.4.7-.4.7-.4.7-.4.7-.4.7-.4.7-.4.7-.5.7-.5.7-.5.7-.5.7-.5.7-.6.7-.6.7-.6.7-.6.7-.7.7-.7.7-.7.7-.7.7-.8.7-.8.7-.8.7-.8.7-.8.7-.9.7-.9.7-.9.7-.9.7-.9.7-.9.7-.9.7-.9.7-1,.7-1,1.3-1.9.7-1,.7-.9.7-.9.7-.9.7-.9.7-.9.7-.9.7-.8.7-.8.7-.8.7-.8.7-.7.7-.7.7-.6.7-.6.7-.5.7-.5.7-.5.7-.4.7-.4.7-.3.7-.3.7-.2.7-.2h.7c0-.1.7-.2.7-.2h2.1c0,.1.7.3.7.3l.7.2.7.2.7.3.7.4.7.4.7.5.7.5.7.5.7.6.7.6.7.7.7.7.7.7.7.8.7.8.7.8.7.9.7.9.7.9.7,1,.7,1,.7,1,.7,1,.7,1,.7,1.1.7,1.1.7,1.1.7,1.1.7,1.1.7,1.1,1.3,2.2.7,1.1,2,3.4.7,1.1.7,1.1.7,1.1.7,1.1.7,1.1.7,1.1.7,1.1.7,1.1.7,1.1.7,1.1.7,1,.7,1,.7,1,.7,1,.7,1,.7,1,.7,1,.7.9.7.9.7.9.7.9.7.9.7.8.7.8.7.8.7.8.7.8.7.8.7.7.7.7.7.7.7.7.7.6.7.6.7.6.7.6.7.6.7.6.7.5.7.5.7.5.7.5.7.5.7.5.7.4.7.4.7.4.7.4.7.4.7.4.7.4.7.3.7.3.7.3.7.3.7.3.7.3.7.3.7.3.7.3.7.3.7.2.7.2.7.2.7.2.7.2.7.2.7.2.7.2.7.2.7.2,1.3.4.7.2.7.2.7.2.7.2.7.2,1.3.3h.7c0,.1,1.3.4,1.3.4l1.3.3h.7c0,.1.7.2.7.2l1.3.2h.7c0,.1.7.2.7.2h.7l1.3.3h.7l.7.2h.7l1.3.2h.7l1.3.2h1.3c0,.1.7.2.7.2h3.4c0,.1.7.1.7.1h1.3c0,.1.7.1.7.1h4c0,.1,1.3.1,1.3.1h59.7H130.8v.3h0Z"/>
  <path class="st4" d="M130.8,349.1h45.2c0-.1.7-.1.7-.1h3.3c0-.1.7-.1.7-.1h1.3c0-.1,1.3-.1,1.3-.1l.7-.2h.7l1.3-.2h1.4c0-.1.7-.1.7-.1h.7c0-.1.7-.1.7-.1l.7-.2h.7l.7-.2,1.3-.2h.7c0-.1.7-.2.7-.2l1.3-.2h.7c0-.1,1.3-.4,1.3-.4h.7c0-.1,1.3-.4,1.3-.4h.7c0-.1.7-.3.7-.3l.7-.2.7-.2.7-.2.7-.2.7-.2.7-.2.7-.2.7-.2.7-.2.7-.2.7-.2.7-.2.7-.2.7-.2.7-.2.7-.2.7-.2.7-.2.7-.3.7-.3.7-.3.7-.3.7-.3.7-.3.7-.3.7-.3.7-.3.7-.3.7-.3.7-.3.7-.3.7-.4.7-.4.7-.4.7-.4.7-.4.7-.4.7-.4.7-.4.7-.4.7-.4.7-.5.7-.5.7-.5.7-.5.7-.5.7-.5.7-.5.7-.5.7-.5.7-.5.7-.5.7-.5,1.3-1,.7-.5.7-.5.7-.5,1.3-1,1.3-1,.7-.5.7-.5.7-.5.7-.5.7-.5.7-.5.7-.5.7-.5.7-.5.7-.4.7-.4.7-.4.7-.4.7-.4.7-.4.7-.4.7-.4.7-.4.7-.4.7-.4.7-.4.7-.4.7-.4,1.3-.7.7-.3,1.3-.7,1.3-.7.7-.4.7-.4.7-.4.7-.4.7-.4.7-.4.7-.4.7-.4.7-.5.7-.5.7-.5.7-.5.7-.5.7-.6.7-.6.7-.6.7-.6.7-.7.7-.7.7-.7.7-.7.7-.8.7-.8.7-.8.7-.8.7-.8.7-.9.7-.9.7-.9.7-.9.7-.9.7-.9.7-.9.7-.9.7-1,.7-1,1.3-1.9.7-1,.7-.9.7-.9.7-.9.7-.9.7-.9.7-.9.7-.8.7-.8.7-.8.7-.8.7-.7.7-.7.7-.6.7-.6.7-.5.7-.5.7-.5.7-.4.7-.4.7-.3.7-.3.7-.2.7-.2h.7c0-.1.7-.2.7-.2h2.1c0,.1.7.3.7.3l.7.2.7.2.7.3.7.4.7.4.7.5.7.5.7.5.7.6.7.6.7.7.7.7.7.7.7.8.7.8.7.8.7.9.7.9.7.9.7,1,.7,1,.7,1,.7,1,.7,1,.7,1.1.7,1.1.7,1.1.7,1.1.7,1.1.7,1.1,1.3,2.2.7,1.1,2,3.4.7,1.1.7,1.1.7,1.1.7,1.1.7,1.1.7,1.1.7,1.1.7,1.1.7,1.1.7,1.1.7,1,.7,1,.7,1,.7,1,.7,1,.7,1,.7,1,.7.9.7.9.7.9.7.9.7.9.7.8.7.8.7.8.7.8.7.8.7.8.7.7.7.7.7.7.7.7.7.6.7.6.7.6.7.6.7.6.7.6.7.5.7.5.7.5.7.5.7.5.7.5.7.4.7.4.7.4.7.4.7.4.7.4.7.4.7.3.7.3.7.3.7.3.7.3.7.3.7.3.7.3.7.3.7.3.7.2.7.2.7.2.7.2.7.2.7.2.7.2.7.2.7.2.7.2,1.3.4.7.2.7.2.7.2.7.2.7.2,1.3.3h.7c0,.1,1.3.4,1.3.4l1.3.3h.7c0,.1.7.2.7.2l1.3.2h.7c0,.1.7.2.7.2h.7l1.3.3h.7l.7.2h.7l1.3.2h.7l1.3.2h1.3c0,.1.7.2.7.2h3.4c0,.1.7.1.7.1h1.3c0,.1.7.1.7.1h4c0,.1,1.3.1,1.3.1h59.7"/>
  <path class="st8" d="M130.8,393.1h29.5c0-.1.7-.1.7-.1h2l2-.2h1.3l1.3-.2,2-.2h1.4c0-.1,1.3-.1,1.3-.1,0-.1.7-.2.7-.2h1.3c0-.1.7-.2.7-.2l2-.2h.7l.7-.2h.7l.7-.2h.7l1.3-.3h.7l.7-.2,2.7-.4h.7l2-.4h.7l.7-.2,4-.5,2-.3h.7l2.7-.4h.7l.7-.2,1.3-.2,2-.3h.7l.7-.2,1.3-.2h.7c0-.1.7-.2.7-.2h.7c0-.1.7-.2.7-.2l1.3-.2,1.3-.3,1.3-.3h.7c0-.1.7-.3.7-.3l.7-.2.7-.2.7-.2.7-.2.7-.2.7-.2.7-.2.7-.2.7-.2.7-.2.7-.2.7-.2.7-.2.7-.2.7-.2.7-.2.7-.2.7-.2.7-.2.7-.2.7-.3,1.3-.5,1.3-.5,1.3-.6.7-.3,1.3-.6.7-.3.7-.3.7-.3.7-.3.7-.3.7-.3.7-.3.7-.3,1.3-.7.7-.3,1.3-.7.7-.4.7-.4.7-.4.7-.4.7-.4.7-.4.7-.4.7-.4.7-.4.7-.4.7-.4.7-.4.7-.5.7-.5.7-.5.7-.5.7-.5.7-.5.7-.5.7-.5.7-.5.7-.5.7-.5.7-.5.7-.5.7-.5,1.3-1.1,1.3-1.1.7-.6.7-.6.7-.6,1.3-1.1.7-.6,1.3-1.1.7-.5.7-.5.7-.5.7-.5.7-.5.7-.5.7-.5.7-.5.7-.5.7-.5.7-.4.7-.4.7-.4.7-.4.7-.4.7-.4.7-.4.7-.3.7-.3.7-.3.7-.3.7-.3.7-.3.7-.3.7-.3.7-.2.7-.2.7-.2.7-.2.7-.2.7-.2.7-.2.7-.2.7-.2h.7c0-.1.7-.3.7-.3h.7c0-.1.7-.3.7-.3h.7c0-.1.7-.2.7-.2h.7c0-.1.7-.2.7-.2h.7l.7-.2h1.4c0-.1.7-.1.7-.1h.7c0-.1.7-.1.7-.1h9.1c0,.1.7.1.7.1l.7.2h.7l.7.2h.7c0,.1.7.3.7.3h.7c0,.1.7.3.7.3l.7.2.7.2.7.2.7.2.7.2.7.2.7.2.7.2,1.3.5.7.2,1.3.5.7.3,2,.8.7.3.7.3,1.3.5,2,.8.7.3.7.3.7.3.7.3.7.3,1.3.5.7.2.7.2.7.2.7.2.7.2.7.2.7.2.7.2.7.2.7.2.7.2.7.2,1.3.4,1.3.4.7.2.7.2.7.2,1.3.4,2,.6.7.2.7.2.7.2.7.2.7.2.7.2.7.2.7.2.7.2.7.3.7.3.7.3.7.3.7.3.7.3.7.3.7.3.7.3.7.3.7.3.7.3.7.3.7.3,1.3.7,1.3.7,3.3,1.8.7.4.7.4.7.4.7.3.7.3,1.3.7.7.3.7.3.7.3.7.3.7.3.7.3.7.3.7.3.7.3.7.3,1.3.6.7.3.7.3.7.3,1.3.5,1.3.5.7.3.7.3.7.3,2,.8.7.3,1.3.5,1.3.5,1.3.6.7.3.7.3,1.3.6.7.3.7.3,1.3.6.7.3,1.3.6.7.3.7.3,2,1,.7.3.7.3.7.3,1.3.7,1.3.7.7.3.7.3.7.3,1.3.6.7.3.7.3.7.3,1.3.6.7.3.7.3.7.3.7.3.7.2.7.2.7.2.7.2.7.2.7.2.7.2.7.2.7.2.7.2.7.2.7.2.7.2h.7c0,.1.7.3.7.3h.7c0,.1.7.3.7.3h.7c0,.1.7.2.7.2h.7c0,.1.7.2.7.2l1.3.2h.7l.7.2h1.4c0,.1,1.3.1,1.3.1,0,.1.7.2.7.2h28.4H139.5l-8.7-.2h0Z"/>
  <path class="st4" d="M475.8,224.7"/>
  <path class="st4" d="M544.5,393.1"/>
  <path class="st4" d="M130.8,393.1h29.5c0-.1.7-.1.7-.1h2l2-.2h1.3l1.3-.2,2-.2h1.4c0-.1,1.3-.1,1.3-.1,0-.1.7-.2.7-.2h1.3c0-.1.7-.2.7-.2l2-.2h.7l.7-.2h.7l.7-.2h.7l1.3-.3h.7l.7-.2,2.7-.4h.7l2-.4h.7l.7-.2,4-.5,2-.3h.7l2.7-.4h.7l.7-.2,1.3-.2,2-.3h.7l.7-.2,1.3-.2h.7c0-.1.7-.2.7-.2h.7c0-.1.7-.2.7-.2l1.3-.2,1.3-.3,1.3-.3h.7c0-.1.7-.3.7-.3l.7-.2.7-.2.7-.2.7-.2.7-.2.7-.2.7-.2.7-.2.7-.2.7-.2.7-.2.7-.2.7-.2.7-.2.7-.2.7-.2.7-.2.7-.2.7-.2.7-.2.7-.3,1.3-.5,1.3-.5,1.3-.6.7-.3,1.3-.6.7-.3.7-.3.7-.3.7-.3.7-.3.7-.3.7-.3.7-.3,1.3-.7.7-.3,1.3-.7.7-.4.7-.4.7-.4.7-.4.7-.4.7-.4.7-.4.7-.4.7-.4.7-.4.7-.4.7-.4.7-.5.7-.5.7-.5.7-.5.7-.5.7-.5.7-.5.7-.5.7-.5.7-.5.7-.5.7-.5.7-.5.7-.5,1.3-1.1,1.3-1.1.7-.6.7-.6.7-.6,1.3-1.1.7-.6,1.3-1.1.7-.5.7-.5.7-.5.7-.5.7-.5.7-.5.7-.5.7-.5.7-.5.7-.5.7-.4.7-.4.7-.4.7-.4.7-.4.7-.4.7-.4.7-.3.7-.3.7-.3.7-.3.7-.3.7-.3.7-.3.7-.3.7-.2.7-.2.7-.2.7-.2.7-.2.7-.2.7-.2.7-.2.7-.2h.7c0-.1.7-.3.7-.3h.7c0-.1.7-.3.7-.3h.7c0-.1.7-.2.7-.2h.7c0-.1.7-.2.7-.2h.7l.7-.2h1.4c0-.1.7-.1.7-.1h.7c0-.1.7-.1.7-.1h9.1c0,.1.7.1.7.1l.7.2h.7l.7.2h.7c0,.1.7.3.7.3h.7c0,.1.7.3.7.3l.7.2.7.2.7.2.7.2.7.2.7.2.7.2.7.2,1.3.5.7.2,1.3.5.7.3,2,.8.7.3.7.3,1.3.5,2,.8.7.3.7.3.7.3.7.3.7.3,1.3.5.7.2.7.2.7.2.7.2.7.2.7.2.7.2.7.2.7.2.7.2.7.2.7.2,1.3.4,1.3.4.7.2.7.2.7.2,1.3.4,2,.6.7.2.7.2.7.2.7.2.7.2.7.2.7.2.7.2.7.2.7.3.7.3.7.3.7.3.7.3.7.3.7.3.7.3.7.3.7.3.7.3.7.3.7.3.7.3,1.3.7,1.3.7,3.3,1.8.7.4.7.4.7.4.7.3.7.3,1.3.7.7.3.7.3.7.3.7.3.7.3.7.3.7.3.7.3.7.3.7.3,1.3.6.7.3.7.3.7.3,1.3.5,1.3.5.7.3.7.3.7.3,2,.8.7.3,1.3.5,1.3.5,1.3.6.7.3.7.3,1.3.6.7.3.7.3,1.3.6.7.3,1.3.6.7.3.7.3,2,1,.7.3.7.3.7.3,1.3.7,1.3.7.7.3.7.3.7.3,1.3.6.7.3.7.3.7.3,1.3.6.7.3.7.3.7.3.7.3.7.2.7.2.7.2.7.2.7.2.7.2.7.2.7.2.7.2.7.2.7.2.7.2.7.2h.7c0,.1.7.3.7.3h.7c0,.1.7.3.7.3h.7c0,.1.7.2.7.2h.7c0,.1.7.2.7.2l1.3.2h.7l.7.2h1.4c0,.1,1.3.1,1.3.1,0,.1.7.2.7.2h28.4"/>
  <path class="st10" d="M130.8,437.2h55.9c0-.1,2-.1,2-.1l1.3-.2h2.7l.7-.2h1.3c0-.1.7-.2.7-.2h1.4c0-.1.7-.1.7-.1h.7c0-.1,1.3-.3,1.3-.3h.7l.7-.2h.7l.7-.2h.7l.7-.2h.7c0-.1.7-.2.7-.2h.7c0-.1,1.3-.3,1.3-.3h.7c0-.1.7-.2.7-.2l1.3-.3,1.3-.3,2-.4,3.3-.7h.7c0-.1,1.3-.4,1.3-.4h.7c0-.1.7-.3.7-.3l2-.4,1.3-.3h.7c0-.1.7-.3.7-.3h.7c0-.1.7-.2.7-.2h.7c0-.1.7-.2.7-.2h.7c0-.1,2.7-.6,2.7-.6h.7c0-.1.7-.2.7-.2l1.3-.2,1.3-.2h.7c0-.1.7-.2.7-.2h.7c0-.1,2-.5,2-.5l1.3-.3h.7c0-.1.7-.3.7-.3l1.3-.3,1.3-.3.7-.2.7-.2,1.3-.3.7-.2.7-.2.7-.2.7-.2.7-.2.7-.2.7-.2.7-.2,1.3-.5.7-.2.7-.2.7-.3.7-.3,1.3-.5,1.3-.6.7-.3,1.3-.6.7-.3.7-.3.7-.3.7-.3.7-.3.7-.3.7-.3.7-.3,1.3-.7,1.3-.7.7-.3.7-.4,1.3-.7.7-.4.7-.4.7-.4.7-.4.7-.4.7-.4.7-.4.7-.4.7-.4.7-.4.7-.4.7-.5.7-.5.7-.5.7-.5.7-.5.7-.5.7-.5.7-.5.7-.5.7-.5.7-.5.7-.6.7-.6.7-.6.7-.6.7-.6.7-.6.7-.6.7-.6.7-.6,3.3-3.1.7-.6.7-.6.7-.6.7-.6.7-.6.7-.6.7-.6.7-.6.7-.5.7-.5.7-.5.7-.5.7-.5.7-.5.7-.4.7-.4.7-.4.7-.4.7-.3.7-.3.7-.3.7-.3.7-.2.7-.2.7-.2h.7c0-.1.7-.3.7-.3h.7l.7-.2h4.2c0,.1.7.1.7.1,0,.1.7.2.7.2h.7c0,.1.7.3.7.3l.7.2.7.2.7.2.7.2.7.2.7.3.7.3,1.3.5.7.3,1.3.6.7.3,1.3.6.7.3.7.3.7.3.7.3.7.3.7.2.7.2.7.2.7.2.7.2.7.2.7.2.7.2.7.2h.7c0,.1.7.3.7.3h.7c0,.1.7.2.7.2h1.4c0,.1.7.1.7.1h6.3c0-.1.7-.1.7-.1l.7-.2h.7l.7-.2h.7c0-.1.7-.2.7-.2h.7c0-.1,1.3-.4,1.3-.4h.7c0-.1,2.7-.7,2.7-.7l1.3-.3h.7c0-.1.7-.3.7-.3h.7c0-.1.7-.2.7-.2h.7c0-.1.7-.2.7-.2h.7l.7-.2h1.4c0-.1.7-.1.7-.1h6.3c0,.1.7.1.7.1l.7.2h.7c0,.1.7.3.7.3l.7.2.7.2.7.2.7.2.7.2.7.3.7.3.7.3.7.3.7.3.7.4.7.4.7.4.7.4.7.4.7.4.7.5.7.5.7.5.7.5.7.5.7.5.7.5.7.5.7.6.7.6.7.6.7.6.7.6.7.6.7.6.7.6,1.3,1.2.7.6,1.3,1.2,2.7,2.5.7.6,1.3,1.2.7.6.7.6.7.6.7.6.7.6.7.6.7.6.7.6.7.6.7.6.7.6.7.6.7.5.7.5.7.5.7.5.7.5.7.5.7.5.7.5.7.5.7.5.7.4.7.4.7.4.7.4.7.4.7.4.7.4.7.4.7.4.7.4.7.3.7.3.7.3.7.3.7.3.7.3.7.3.7.3.7.3.7.3.7.2.7.2.7.2.7.2.7.2.7.2.7.2.7.2.7.2.7.2.7.2h.7c0,.1.7.3.7.3h.7c0,.1.7.3.7.3h.7c0,.1.7.2.7.2h.7c0,.1.7.2.7.2h.7l.7.2h.7l.7.2h1.4c0,.1,1.3.1,1.3.1,0,.1.7.2.7.2h1.4c0,.1,1.3.1,1.3.1h.7c0,.1.7.1.7.1h1.3c0,.1,2,.1,2,.1h.7c0,.1,1.3.1,1.3.1h9.6H130.8Z"/>
  <path class="st4" d="M130.8,437.2h55.9c0-.1,2-.1,2-.1l1.3-.2h2.7l.7-.2h1.3c0-.1.7-.2.7-.2h1.4c0-.1.7-.1.7-.1h.7c0-.1,1.3-.3,1.3-.3h.7l.7-.2h.7l.7-.2h.7l.7-.2h.7c0-.1.7-.2.7-.2h.7c0-.1,1.3-.3,1.3-.3h.7c0-.1.7-.2.7-.2l1.3-.3,1.3-.3,2-.4,3.3-.7h.7c0-.1,1.3-.4,1.3-.4h.7c0-.1.7-.3.7-.3l2-.4,1.3-.3h.7c0-.1.7-.3.7-.3h.7c0-.1.7-.2.7-.2h.7c0-.1.7-.2.7-.2h.7c0-.1,2.7-.6,2.7-.6h.7c0-.1.7-.2.7-.2l1.3-.2,1.3-.2h.7c0-.1.7-.2.7-.2h.7c0-.1,2-.5,2-.5l1.3-.3h.7c0-.1.7-.3.7-.3l1.3-.3,1.3-.3.7-.2.7-.2,1.3-.3.7-.2.7-.2.7-.2.7-.2.7-.2.7-.2.7-.2.7-.2,1.3-.5.7-.2.7-.2.7-.3.7-.3,1.3-.5,1.3-.6.7-.3,1.3-.6.7-.3.7-.3.7-.3.7-.3.7-.3.7-.3.7-.3.7-.3,1.3-.7,1.3-.7.7-.3.7-.4,1.3-.7.7-.4.7-.4.7-.4.7-.4.7-.4.7-.4.7-.4.7-.4.7-.4.7-.4.7-.4.7-.5.7-.5.7-.5.7-.5.7-.5.7-.5.7-.5.7-.5.7-.5.7-.5.7-.5.7-.6.7-.6.7-.6.7-.6.7-.6.7-.6.7-.6.7-.6.7-.6,3.3-3.1.7-.6.7-.6.7-.6.7-.6.7-.6.7-.6.7-.6.7-.6.7-.5.7-.5.7-.5.7-.5.7-.5.7-.5.7-.4.7-.4.7-.4.7-.4.7-.3.7-.3.7-.3.7-.3.7-.2.7-.2.7-.2h.7c0-.1.7-.3.7-.3h.7l.7-.2h4.2c0,.1.7.1.7.1,0,.1.7.2.7.2h.7c0,.1.7.3.7.3l.7.2.7.2.7.2.7.2.7.2.7.3.7.3,1.3.5.7.3,1.3.6.7.3,1.3.6.7.3.7.3.7.3.7.3.7.3.7.2.7.2.7.2.7.2.7.2.7.2.7.2.7.2.7.2h.7c0,.1.7.3.7.3h.7c0,.1.7.2.7.2h1.4c0,.1.7.1.7.1h6.3c0-.1.7-.1.7-.1l.7-.2h.7l.7-.2h.7c0-.1.7-.2.7-.2h.7c0-.1,1.3-.4,1.3-.4h.7c0-.1,2.7-.7,2.7-.7l1.3-.3h.7c0-.1.7-.3.7-.3h.7c0-.1.7-.2.7-.2h.7c0-.1.7-.2.7-.2h.7l.7-.2h1.4c0-.1.7-.1.7-.1h6.3c0,.1.7.1.7.1l.7.2h.7c0,.1.7.3.7.3l.7.2.7.2.7.2.7.2.7.2.7.3.7.3.7.3.7.3.7.3.7.4.7.4.7.4.7.4.7.4.7.4.7.5.7.5.7.5.7.5.7.5.7.5.7.5.7.5.7.6.7.6.7.6.7.6.7.6.7.6.7.6.7.6,1.3,1.2.7.6,1.3,1.2,2.7,2.5.7.6,1.3,1.2.7.6.7.6.7.6.7.6.7.6.7.6.7.6.7.6.7.6.7.6.7.6.7.6.7.5.7.5.7.5.7.5.7.5.7.5.7.5.7.5.7.5.7.5.7.4.7.4.7.4.7.4.7.4.7.4.7.4.7.4.7.4.7.4.7.3.7.3.7.3.7.3.7.3.7.3.7.3.7.3.7.3.7.3.7.2.7.2.7.2.7.2.7.2.7.2.7.2.7.2.7.2.7.2.7.2h.7c0,.1.7.3.7.3h.7c0,.1.7.3.7.3h.7c0,.1.7.2.7.2h.7c0,.1.7.2.7.2h.7l.7.2h.7l.7.2h1.4c0,.1,1.3.1,1.3.1,0,.1.7.2.7.2h1.4c0,.1,1.3.1,1.3.1h.7c0,.1.7.1.7.1h1.3c0,.1,2,.1,2,.1h.7c0,.1,1.3.1,1.3.1h9.6"/>
  <path class="st0" d="M488.2,193.2"/>
  <line class="st3" x1="584.3" y1="216.9" x2="560.2" y2="216.9"/>
  <line class="st3" x1="584.3" y1="260.8" x2="560.2" y2="260.8"/>
  <line class="st3" x1="584.3" y1="349.1" x2="560.2" y2="349"/>
  <path class="st3" d="M481.5,437.2h87.8c8.3,0,15-6.7,15-15v-234.5c0-8.3-6.7-15-15-15h-9.1"/>
  <g class="st16">
    <g class="st16">
      <g class="st16">
        <text class="st18" transform="translate(238.8 495.3)"><tspan x="0" y="0">Average Rating Distribution</tspan></text>
      </g>
    </g>
  </g>
  <path class="st3" d="M479.9,393.3l44-.2c8.3,0,15.5-7.8,15.5-16.1v-160.2h-18.5"/>
  <path class="st3" d="M515.3,172.7h9.3c8.3,0,14.8,7.7,14.8,15.9v36.5"/>
  <path class="st3" d="M502.8,393.2v-117.4c0-8.3-6.7-15-15-15h0"/>
  <path class="st3" d="M481,348.8h0c8.3,0,16.4-6.8,16.4-15.1v-145.3c0-8.3-6.7-15.7-14.9-15.7h-1"/>
  <g class="st16">
    <g class="st16">
      <g class="st16">
        <text class="st17" transform="translate(489.8 128)"><tspan x="0" y="0">Significant Differences</tspan></text>
      </g>
    </g>
  </g>
  <g>
    <line class="st5" x1="499.9" y1="171.2" x2="499.9" y2="170.7"/>
    <line class="st6" x1="499.9" y1="437.2" x2="499.9" y2="155.2"/>
    <line class="st5" x1="499.9" y1="154.7" x2="499.9" y2="154.2"/>
  </g>
  <g class="st16">
    <g class="st16">
      <text class="st14" transform="translate(497.5 151.7)"><tspan x="0" y="0">*</tspan></text>
    </g>
  </g>
  <g class="st16">
    <g class="st16">
      <text class="st14" transform="translate(533.8 151.7)"><tspan x="0" y="0">***</tspan></text>
    </g>
  </g>
  <g class="st16">
    <g class="st16">
      <text class="st14" transform="translate(572.8 151.7)"><tspan x="0" y="0">****</tspan></text>
    </g>
  </g>
  <path class="st3" d="M544.5,437.3v-117.3c0-8.3-6.9-15-15.2-15h-14.1"/>
  <g class="st16">
    <g class="st16">
      <g class="st16">
        <text class="st17" transform="translate(519.5 534.4)"><tspan x="0" y="0">Source: goodreads.com</tspan></text>
      </g>
      <g class="st16">
        <text class="st17" transform="translate(305.4 547.6)"><tspan x="0" y="0">*p &lt; 0.05, ***p &lt; 0.01, ****p &lt; 0.0001; Games-Howell Post-Hoc Test</tspan></text>
      </g>
    </g>
  </g>
  <g>
    <line class="st5" x1="584.3" y1="171.7" x2="584.3" y2="171.2"/>
    <line class="st6" x1="584.3" y1="422.2" x2="584.3" y2="155.7"/>
    <line class="st5" x1="584.3" y1="155.2" x2="584.3" y2="154.7"/>
  </g>
  <line class="st3" x1="539.4" y1="216.8" x2="515.3" y2="216.8"/>
  <g>
    <line class="st5" x1="542.1" y1="171.2" x2="542.1" y2="170.7"/>
    <line class="st6" x1="542.1" y1="437.3" x2="542.1" y2="155.2"/>
    <line class="st5" x1="542.1" y1="154.7" x2="542.1" y2="154.2"/>
  </g>
</svg>