<?xml version="1.0" encoding="UTF-8"?>
<svg id="Layer_1" xmlns="http://www.w3.org/2000/svg" xmlns:xlink="http://www.w3.org/1999/xlink" version="1.1" viewBox="0 0 896 560">
  <!-- Generator: Adobe Illustrator 29.2.1, SVG Export Plug-In . SVG Version: 2.1.0 Build 116)  -->
  <defs>
    <style>
      .st0, .st1, .st2 {
        fill: none;
      }

      .st3 {
        fill: #f3c677;
      }

      .st3, .st4, .st5, .st6, .st7, .st8, .st9 {
        fill-opacity: .9;
      }

      .st4 {
        fill: #c94f4f;
      }

      .st5 {
        fill: #007f5f;
      }

      .st6 {
        fill: #e58e53;
      }

      .st10 {
        fill: #f8f5ec;
      }

      .st1 {
        stroke-miterlimit: 10;
      }

      .st1, .st2 {
        stroke: #000;
        stroke-width: .6px;
      }

      .st2 {
        stroke-linecap: round;
        stroke-linejoin: round;
      }

      .st7 {
        fill: #2a3b58;
      }

      .st8 {
        fill: #8f6aa3;
      }

      .st11 {
        clip-path: url(#clippath);
      }

      .st9 {
        fill: #90d1c9;
      }
    </style>
    <clipPath id="clippath">
      <rect class="st0" x="50.8" y="8.7" width="564.5" height="115.7"/>
    </clipPath>
  </defs>
  <rect class="st10" x="-9.1" y=".8" width="905.1" height="558.5"/>
  <g>
    <g class="st11">
      <g>
        <path class="st5" d="M51.9,123h34.8c0-.2,1.2-.2,1.2-.2l2.1-.3h1.2l2.1-.3h1.2l1.2-.3h1.2l1.2-.3h1.2c0-.2,1.2-.3,1.2-.3h1.2c0-.2,1.2-.3,1.2-.3h1.2c0-.2,1.2-.5,1.2-.5h1.2c0-.2,1.2-.5,1.2-.5h1.2c0-.2,1.2-.5,1.2-.5l1.2-.3,1.2-.3,1.2-.3,1.2-.3,1.2-.3,1.2-.3,1.2-.3,2.1-.7,2.1-.7,2.1-.7,2.1-.7,1.2-.3,1.2-.3,1.2-.3,1.2-.3,1.2-.3,1.2-.3,1.2-.3,1.2-.3,1.2-.3,1.2-.3,1.2-.3,1.2-.3,1.2-.3,1.2-.3,1.2-.3,1.2-.3h1.2c0-.2,1.2-.5,1.2-.5h1.2c0-.2,1.2-.5,1.2-.5h1.2c0-.2,1.2-.3,1.2-.3h1.2c0-.2,1.2-.3,1.2-.3h1.2l1.2-.3h1.2l1.2-.3h1.2l2.1-.3h1.2l4.5-.5h1.2l2.1-.3h2.3c0-.2,1.2-.2,1.2-.2l1.2-.3h1.2l1.2-.3h1.2c0-.2,1.2-.3,1.2-.3h1.2c0-.2,1.2-.5,1.2-.5l1.2-.3,1.2-.3,1.2-.3,1.2-.3,1.2-.3,1.2-.5,1.2-.5,1.2-.5,1.2-.5,1.2-.5,1.2-.7,1.2-.7,1.2-.7,1.2-.7,1.2-.8,1.2-.8,1.2-.8,1.2-.8,1.2-1,1.2-1,1.2-1,1.2-1,1.2-1.2,1.2-1.2,1.2-1.2,1.2-1.2,1.2-1.2,1.2-1.3,1.2-1.3,1.2-1.3,1.2-1.3,1.2-1.3,1.2-1.3,1.2-1.5,1.2-1.5,1.2-1.5,1.2-1.5,1.2-1.5,1.2-1.5,1.2-1.5,1.2-1.5,2.1-3.1,1.2-1.7,3.3-4.8,2.1-3.1,1.2-1.6,1.2-1.5,1.2-1.5,1.2-1.5,1.2-1.5,1.2-1.5,1.2-1.5,1.2-1.5,1.2-1.5,1.2-1.5,1.2-1.5,1.2-1.3,1.2-1.3,1.2-1.3,1.2-1.3,1.2-1.3,1.2-1.3,1.2-1.2,1.2-1.2,1.2-1.2,1.2-1.2,1.2-1.2,1.2-1,1.2-1,1.2-1,1.2-1,1.2-.8,1.2-.8,1.2-.8,1.2-.7,1.2-.7,1.2-.7,1.2-.7,1.2-.5,1.2-.5,1.2-.5,1.2-.5,1.2-.3,1.2-.3,1.2-.3h1.2l1.2-.5h1.2l1.2-.3h8.1l1.2.3h1.2l1.2.5,1.2.3,1.2.3,1.2.3,1.2.3,1.2.3,1.2.5,1.2.5,1.2.5,1.2.5,1.2.5,1.2.5,1.2.5,1.2.5,1.2.7,1.2.7,1.2.7,1.2.7,1.2.7,1.2.7,1.2.7,1.2.7,1.2.7,1.2.7,1.2.7,1.2.7,1.2.7,1.2.7,1.2.7,1.2.8,1.2.8,1.2.8,1.2.8,1.2.8,1.2.8,1.2.8,1.2.8,1.2.8,1.2.8,1.2.8,1.2,1,1.2,1,1.2,1,1.2,1,1.2,1,1.2,1,1.2,1,1.2,1,1.2,1.2,1.2,1.2,1.2,1.2,1.2,1.2,1.2,1.2,1.2,1.2,1.2,1.2,1.2,1.2,1.2,1.2,1.2,1.2,1.2,1.2,1.2,1.3,1.2,1.3,1.2,1.3,1.2,1.3,4.5,5.1,2.1,2.5,1.2,1.3,1.2,1.3,1.2,1.3,1.2,1.2,1.2,1.2,1.2,1.2,1.2,1.2,1.2,1.2,1.2,1.2,1.2,1.2,1.2,1.2,1.2,1.2,1.2,1.2,1.2,1.2,1.2,1,1.2,1,1.2,1,1.2,1,1.2,1,1.2,1,1.2,1,1.2.8,1.2.8,1.2.8,1.2.8,1.2.8,1.2.8,1.2.8,1.2.8,1.2.7,1.2.7,1.2.7,1.2.7,1.2.7,1.2.7,1.2.7,1.2.7,1.2.7,1.2.7,1.2.7,1.2.7,1.2.5,1.2.5,1.2.5,1.2.5,1.2.5,2.1,1,1.2.5,1.2.5,1.2.5,1.2.5,1.2.5,1.2.5,1.2.5,1.2.5,1.2.3,1.2.3,1.2.3,1.2.3,1.2.3,1.2.3,1.2.3,1.2.3,1.2.3,1.2.3,1.2.3,1.2.3,1.2.3,1.2.3,2.1.5h1.2c0,.2,1.2.5,1.2.5l2.1.5h1.2c0,.2,1.2.3,1.2.3h1.2c0,.2,1.2.3,1.2.3l2.1.3h1.2l1.2.3h1.2l1.2.3h2.3c0,.2,2.1.2,2.1.2,0,.2,1.2.3,1.2.3h2.3c0,.2,1.2.2,1.2.2h3.3l2.1.3h138.9H51.9v1h0v.2Z"/>
        <path class="st2" d="M0,123h86.8c0-.2,1.2-.2,1.2-.2l2.1-.3h1.2l2.1-.3h1.2l1.2-.3h1.2l1.2-.3h1.2c0-.2,1.2-.3,1.2-.3h1.2c0-.2,1.2-.3,1.2-.3h1.2c0-.2,1.2-.5,1.2-.5h1.2c0-.2,1.2-.5,1.2-.5h1.2c0-.2,1.2-.5,1.2-.5l1.2-.3,1.2-.3,1.2-.3,1.2-.3,1.2-.3,1.2-.3,1.2-.3,2.1-.7,2.1-.7,2.1-.7,2.1-.7,1.2-.3,1.2-.3,1.2-.3,1.2-.3,1.2-.3,1.2-.3,1.2-.3,1.2-.3,1.2-.3,1.2-.3,1.2-.3,1.2-.3,1.2-.3,1.2-.3,1.2-.3,1.2-.3h1.2c0-.2,1.2-.5,1.2-.5h1.2c0-.2,1.2-.5,1.2-.5h1.2c0-.2,1.2-.3,1.2-.3h1.2c0-.2,1.2-.3,1.2-.3h1.2l1.2-.3h1.2l1.2-.3h1.2l2.1-.3h1.2l4.5-.5h1.2l2.1-.3h2.3c0-.2,1.2-.2,1.2-.2l1.2-.3h1.2l1.2-.3h1.2c0-.2,1.2-.3,1.2-.3h1.2c0-.2,1.2-.5,1.2-.5l1.2-.3,1.2-.3,1.2-.3,1.2-.3,1.2-.3,1.2-.5,1.2-.5,1.2-.5,1.2-.5,1.2-.5,1.2-.7,1.2-.7,1.2-.7,1.2-.7,1.2-.8,1.2-.8,1.2-.8,1.2-.8,1.2-1,1.2-1,1.2-1,1.2-1,1.2-1.2,1.2-1.2,1.2-1.2,1.2-1.2,1.2-1.2,1.2-1.3,1.2-1.3,1.2-1.3,1.2-1.3,1.2-1.3,1.2-1.3,1.2-1.5,1.2-1.5,1.2-1.5,1.2-1.5,1.2-1.5,1.2-1.5,1.2-1.5,1.2-1.5,2.1-3.1,1.2-1.7,3.3-4.8,2.1-3.1,1.2-1.6,1.2-1.5,1.2-1.5,1.2-1.5,1.2-1.5,1.2-1.5,1.2-1.5,1.2-1.5,1.2-1.5,1.2-1.5,1.2-1.5,1.2-1.3,1.2-1.3,1.2-1.3,1.2-1.3,1.2-1.3,1.2-1.3,1.2-1.2,1.2-1.2,1.2-1.2,1.2-1.2,1.2-1.2,1.2-1,1.2-1,1.2-1,1.2-1,1.2-.8,1.2-.8,1.2-.8,1.2-.7,1.2-.7,1.2-.7,1.2-.7,1.2-.5,1.2-.5,1.2-.5,1.2-.5,1.2-.3,1.2-.3,1.2-.3h1.2l1.2-.5h1.2l1.2-.3h8.1l1.2.3h1.2l1.2.5,1.2.3,1.2.3,1.2.3,1.2.3,1.2.3,1.2.5,1.2.5,1.2.5,1.2.5,1.2.5,1.2.5,1.2.5,1.2.5,1.2.7,1.2.7,1.2.7,1.2.7,1.2.7,1.2.7,1.2.7,1.2.7,1.2.7,1.2.7,1.2.7,1.2.7,1.2.7,1.2.7,1.2.7,1.2.8,1.2.8,1.2.8,1.2.8,1.2.8,1.2.8,1.2.8,1.2.8,1.2.8,1.2.8,1.2.8,1.2,1,1.2,1,1.2,1,1.2,1,1.2,1,1.2,1,1.2,1,1.2,1,1.2,1.2,1.2,1.2,1.2,1.2,1.2,1.2,1.2,1.2,1.2,1.2,1.2,1.2,1.2,1.2,1.2,1.2,1.2,1.2,1.2,1.2,1.2,1.3,1.2,1.3,1.2,1.3,1.2,1.3,4.5,5.1,2.1,2.5,1.2,1.3,1.2,1.3,1.2,1.3,1.2,1.2,1.2,1.2,1.2,1.2,1.2,1.2,1.2,1.2,1.2,1.2,1.2,1.2,1.2,1.2,1.2,1.2,1.2,1.2,1.2,1.2,1.2,1,1.2,1,1.2,1,1.2,1,1.2,1,1.2,1,1.2,1,1.2.8,1.2.8,1.2.8,1.2.8,1.2.8,1.2.8,1.2.8,1.2.8,1.2.7,1.2.7,1.2.7,1.2.7,1.2.7,1.2.7,1.2.7,1.2.7,1.2.7,1.2.7,1.2.7,1.2.7,1.2.5,1.2.5,1.2.5,1.2.5,1.2.5,2.1,1,1.2.5,1.2.5,1.2.5,1.2.5,1.2.5,1.2.5,1.2.5,1.2.5,1.2.3,1.2.3,1.2.3,1.2.3,1.2.3,1.2.3,1.2.3,1.2.3,1.2.3,1.2.3,1.2.3,1.2.3,1.2.3,1.2.3,2.1.5h1.2c0,.2,1.2.5,1.2.5l2.1.5h1.2c0,.2,1.2.3,1.2.3h1.2c0,.2,1.2.3,1.2.3l2.1.3h1.2l1.2.3h1.2l1.2.3h2.3c0,.2,2.1.2,2.1.2,0,.2,1.2.3,1.2.3h2.3c0,.2,1.2.2,1.2.2h3.3l2.1.3h138.9"/>
      </g>
    </g>
    <path class="st7" d="M51.9,195.6h49.8c0-.2,1.2-.2,1.2-.2h5.8c0-.2,1.2-.2,1.2-.2h1.2c0-.2,1.2-.2,1.2-.2h1.2c0-.2,1.2-.2,1.2-.2l1.2-.3h1.2l1.2-.3h1.2l1.2-.3h1.2c0-.2,1.2-.3,1.2-.3h1.2c0-.2,1.2-.3,1.2-.3h1.2c0-.2,1.2-.5,1.2-.5h1.2c0-.2,1.2-.5,1.2-.5l1.2-.3,1.2-.3,1.2-.3,1.2-.3,1.2-.3,1.2-.3,1.2-.3,1.2-.3,1.2-.3,1.2-.3,1.2-.3,1.2-.5,1.2-.5,1.2-.5,1.2-.5,1.2-.5,1.2-.5,1.2-.5,1.2-.5,1.2-.5,1.2-.5,1.2-.5,1.2-.5,1.2-.5,1.2-.5,1.2-.7,1.2-.7,1.2-.7,2.1-1.2,1.2-.7,1.2-.7,2.1-1.3,2.1-1.3,1.2-.7,1.2-.7,2.1-1.3,2.1-1.3,2.1-1.3,1.2-.7,3.3-2.1,1.2-.7,1.2-.7,1.2-.7,2.1-1.5,4.5-3,2.1-1.5,3.3-2.1,1.2-.8,2.1-1.5,1.2-.8,2.1-1.5,1.2-.8,1.2-.8,2.1-1.5,2.1-1.6,1.2-.8,1.2-.8,1.2-.8,1.2-.8,1.2-.8,1.2-.8,1.2-.8,1.2-.8,1.2-.8,1.2-1,1.2-1,1.2-1,1.2-1,1.2-1,1.2-1,1.2-1,1.2-1,1.2-1,1.2-1,1.2-1,1.2-1,1.2-1,1.2-1.2,1.2-1.2,2.1-2.1,5.4-5.4,1.2-1.2,1.2-1.2,1.2-1.2,1.2-1,1.2-1,1.2-1,1.2-1,1.2-1,1.2-1,1.2-1,1.2-1,1.2-.8,1.2-.8,1.2-.8,1.2-.8,1.2-.8,1.2-.7,1.2-.7,1.2-.7,1.2-.7,1.2-.5,1.2-.5,1.2-.5,1.2-.3,1.2-.3,1.2-.3h1.2c0-.2,1.2-.5,1.2-.5h2.3c0-.2,1.2-.2,1.2-.2h4.6l1.2.3h1.2c0,.2,1.2.5,1.2.5l1.2.3,1.2.3,1.2.3,1.2.3,1.2.5,1.2.5,1.2.5,1.2.5,1.2.5,1.2.5,1.2.5,1.2.5,1.2.5,1.2.5,2.1,1.2,3.3,1.6,1.2.5,1.2.5,1.2.5,1.2.5,1.2.5,1.2.5,1.2.5,1.2.5,1.2.5,1.2.5,1.2.5,1.2.3,1.2.3,1.2.3,1.2.3,1.2.3,1.2.3,1.2.3,1.2.3,1.2.3h1.2c0,.2,1.2.5,1.2.5h1.2c0,.2,1.2.5,1.2.5h1.2c0,.2,1.2.3,1.2.3h1.2c0,.2,1.2.3,1.2.3l5.4.8,2.1.3h1.2c0,.2,1.2.3,1.2.3h1.2c0,.2,1.2.3,1.2.3h1.2c0,.2,1.2.5,1.2.5l1.2.3,1.2.3,1.2.3,1.2.3,1.2.3,1.2.3,1.2.3,1.2.5,1.2.5,1.2.5,1.2.5,1.2.5,1.2.7,1.2.7,1.2.7,1.2.7,1.2.8,1.2.8,1.2.8,1.2.8,1.2,1,1.2,1,1.2,1,1.2,1,1.2,1,1.2,1.2,1.2,1.2,1.2,1.2,1.2,1.2,1.2,1.2,1.2,1.3,1.2,1.3,1.2,1.3,1.2,1.3,1.2,1.3,1.2,1.3,1.2,1.3,1.2,1.3,2.1,2.8,1.2,1.3,2.1,2.8,1.2,1.3,1.2,1.3,1.2,1.3,1.2,1.3,1.2,1.3,1.2,1.3,1.2,1.3,1.2,1.3,1.2,1.3,1.2,1.3,1.2,1.2,1.2,1.2,1.2,1.2,1.2,1.2,1.2,1.2,1.2,1.2,1.2,1,1.2,1,1.2,1,1.2,1,1.2.8,1.2.8,1.2.8,1.2.8,1.2.8,1.2.7,1.2.7,1.2.7,1.2.7,1.2.7,1.2.5,1.2.5,1.2.5,1.2.5,1.2.5,1.2.5,1.2.3,1.2.3,1.2.3,1.2.3,1.2.3,1.2.3,1.2.3h1.2c0,.2,1.2.5,1.2.5h1.2c0,.2,1.2.3,1.2.3h1.2c0,.2,1.2.3,1.2.3h1.2l1.2.3h2.3c0,.2,1.2.2,1.2.2h1.2c0,.2,1.2.2,1.2.2h1.2c0,.2,1.2.2,1.2.2h152.3H51.9Z"/>
    <path class="st2" d="M0,195.6h101.8c0-.2,1.2-.2,1.2-.2h5.8c0-.2,1.2-.2,1.2-.2h1.2c0-.2,1.2-.2,1.2-.2h1.2c0-.2,1.2-.2,1.2-.2l1.2-.3h1.2l1.2-.3h1.2l1.2-.3h1.2c0-.2,1.2-.3,1.2-.3h1.2c0-.2,1.2-.3,1.2-.3h1.2c0-.2,1.2-.5,1.2-.5h1.2c0-.2,1.2-.5,1.2-.5l1.2-.3,1.2-.3,1.2-.3,1.2-.3,1.2-.3,1.2-.3,1.2-.3,1.2-.3,1.2-.3,1.2-.3,1.2-.3,1.2-.5,1.2-.5,1.2-.5,1.2-.5,1.2-.5,1.2-.5,1.2-.5,1.2-.5,1.2-.5,1.2-.5,1.2-.5,1.2-.5,1.2-.5,1.2-.5,1.2-.7,1.2-.7,1.2-.7,2.1-1.2,1.2-.7,1.2-.7,2.1-1.3,2.1-1.3,1.2-.7,1.2-.7,2.1-1.3,2.1-1.3,2.1-1.3,1.2-.7,3.3-2.1,1.2-.7,1.2-.7,1.2-.7,2.1-1.5,4.5-3,2.1-1.5,3.3-2.1,1.2-.8,2.1-1.5,1.2-.8,2.1-1.5,1.2-.8,1.2-.8,2.1-1.5,2.1-1.6,1.2-.8,1.2-.8,1.2-.8,1.2-.8,1.2-.8,1.2-.8,1.2-.8,1.2-.8,1.2-.8,1.2-1,1.2-1,1.2-1,1.2-1,1.2-1,1.2-1,1.2-1,1.2-1,1.2-1,1.2-1,1.2-1,1.2-1,1.2-1,1.2-1.2,1.2-1.2,2.1-2.1,5.4-5.4,1.2-1.2,1.2-1.2,1.2-1.2,1.2-1,1.2-1,1.2-1,1.2-1,1.2-1,1.2-1,1.2-1,1.2-1,1.2-.8,1.2-.8,1.2-.8,1.2-.8,1.2-.8,1.2-.7,1.2-.7,1.2-.7,1.2-.7,1.2-.5,1.2-.5,1.2-.5,1.2-.3,1.2-.3,1.2-.3h1.2c0-.2,1.2-.5,1.2-.5h2.3c0-.2,1.2-.2,1.2-.2h4.6l1.2.3h1.2c0,.2,1.2.5,1.2.5l1.2.3,1.2.3,1.2.3,1.2.3,1.2.5,1.2.5,1.2.5,1.2.5,1.2.5,1.2.5,1.2.5,1.2.5,1.2.5,1.2.5,2.1,1.2,3.3,1.6,1.2.5,1.2.5,1.2.5,1.2.5,1.2.5,1.2.5,1.2.5,1.2.5,1.2.5,1.2.5,1.2.5,1.2.3,1.2.3,1.2.3,1.2.3,1.2.3,1.2.3,1.2.3,1.2.3,1.2.3h1.2c0,.2,1.2.5,1.2.5h1.2c0,.2,1.2.5,1.2.5h1.2c0,.2,1.2.3,1.2.3h1.2c0,.2,1.2.3,1.2.3l5.4.8,2.1.3h1.2c0,.2,1.2.3,1.2.3h1.2c0,.2,1.2.3,1.2.3h1.2c0,.2,1.2.5,1.2.5l1.2.3,1.2.3,1.2.3,1.2.3,1.2.3,1.2.3,1.2.3,1.2.5,1.2.5,1.2.5,1.2.5,1.2.5,1.2.7,1.2.7,1.2.7,1.2.7,1.2.8,1.2.8,1.2.8,1.2.8,1.2,1,1.2,1,1.2,1,1.2,1,1.2,1,1.2,1.2,1.2,1.2,1.2,1.2,1.2,1.2,1.2,1.2,1.2,1.3,1.2,1.3,1.2,1.3,1.2,1.3,1.2,1.3,1.2,1.3,1.2,1.3,1.2,1.3,2.1,2.8,1.2,1.3,2.1,2.8,1.2,1.3,1.2,1.3,1.2,1.3,1.2,1.3,1.2,1.3,1.2,1.3,1.2,1.3,1.2,1.3,1.2,1.3,1.2,1.3,1.2,1.2,1.2,1.2,1.2,1.2,1.2,1.2,1.2,1.2,1.2,1.2,1.2,1,1.2,1,1.2,1,1.2,1,1.2.8,1.2.8,1.2.8,1.2.8,1.2.8,1.2.7,1.2.7,1.2.7,1.2.7,1.2.7,1.2.5,1.2.5,1.2.5,1.2.5,1.2.5,1.2.5,1.2.3,1.2.3,1.2.3,1.2.3,1.2.3,1.2.3,1.2.3h1.2c0,.2,1.2.5,1.2.5h1.2c0,.2,1.2.3,1.2.3h1.2c0,.2,1.2.3,1.2.3h1.2l1.2.3h2.3c0,.2,1.2.2,1.2.2h1.2c0,.2,1.2.2,1.2.2h1.2c0,.2,1.2.2,1.2.2h152.3"/>
    <path class="st3" d="M51.9,268.4h22.3c0-.2,3.3-.2,3.3-.2h1.2c0-.2,1.2-.2,1.2-.2h4.5c0-.2,2.1-.2,2.1-.2,0-.2,1.2-.3,1.2-.3h2.1c0-.2,2.1-.5,2.1-.5h1.2l1.2-.3h1.2l1.2-.3h1.2l1.2-.3h1.2c0-.2,1.2-.3,1.2-.3h1.2c0-.2,1.2-.3,1.2-.3h1.2c0-.2,1.2-.5,1.2-.5h1.2c0-.2,1.2-.5,1.2-.5h1.2c0-.2,1.2-.5,1.2-.5l1.2-.3,1.2-.3,1.2-.3,1.2-.3,1.2-.3,1.2-.3,1.2-.3,1.2-.3,1.2-.3,1.2-.3,2.1-.7,1.2-.3,2.1-.8,2.1-.8,2.1-.8,1.2-.3,1.2-.3,2.1-.8,1.2-.5,1.2-.5,1.2-.5,2.1-.8,1.2-.5,1.2-.5,1.2-.5,1.2-.5,1.2-.5,1.2-.5,1.2-.5,1.2-.5,1.2-.5,1.2-.5,1.2-.5,2.1-1,2.1-1,1.2-.5,1.2-.5,2.1-1,3.3-1.5,1.2-.5,1.2-.5,3.3-1.5,1.2-.5,1.2-.5,2.1-1,1.2-.5,1.2-.5,1.2-.5,1.2-.5,1.2-.5,3.3-1.5,1.2-.5,1.2-.5,2.1-1,1.2-.5,1.2-.5,1.2-.5,1.2-.5,1.2-.5,1.2-.5,1.2-.5,1.2-.5,1.2-.5,2.1-1,1.2-.5,1.2-.5,1.2-.5,1.2-.5,1.2-.5,2.1-1,2.1-1,1.2-.5,1.2-.5,1.2-.5,2.1-1,1.2-.5,1.2-.5,2.1-1,2.1-.8,1.2-.5,2.1-.8,1.2-.5,3.3-1.3,1.2-.5,1.2-.3,1.2-.5,2.1-.8,1.2-.5,1.2-.3,4.5-1.6,3.3-1.3,2.1-.8,2.1-.8,2.1-1,1.2-.5,1.2-.5,1.2-.5,1.2-.5,1.2-.5,1.2-.5,1.2-.5,1.2-.5,1.2-.5,1.2-.5,1.2-.5,1.2-.5,1.2-.5,1.2-.5,1.2-.5,1.2-.5,1.2-.7,1.2-.7,2.1-1.2,1.2-.7,1.2-.7,1.2-.7,3.3-1.8,3.3-1.8,1.2-.7,2.1-1.2,1.2-.5,1.2-.5,1.2-.5,1.2-.5,1.2-.5,1.2-.5,1.2-.5,1.2-.5,1.2-.5,1.2-.5,1.2-.5,1.2-.5,1.2-.3,1.2-.3,1.2-.3,1.2-.3,1.2-.3,1.2-.3h1.2c0-.2,1.2-.5,1.2-.5h1.2c0-.2,1.2-.3,1.2-.3h2.3c0-.2,1.2-.2,1.2-.2h6.8c0,.2,1.2.2,1.2.2l1.2.3h1.2c0,.2,1.2.5,1.2.5l1.2.3,1.2.3,1.2.3,1.2.3,1.2.5,1.2.5,1.2.5,1.2.5,1.2.5,1.2.5,1.2.5,1.2.7,1.2.7,1.2.7,1.2.7,1.2.7,2.1,1.3,3.3,2,1.2.7,1.2.7,2.1,1.3,1.2.7,1.2.7,1.2.7,1.2.7,1.2.7,1.2.7,1.2.7,1.2.5,1.2.5,1.2.5,1.2.5,1.2.5,1.2.5,1.2.5,1.2.5,1.2.5,1.2.5,2.1,1,2.1.8,2.1.8,1.2.5,1.2.5,2.1.8,1.2.5,2.1,1,1.2.5,1.2.5,1.2.5,1.2.5,1.2.5,1.2.5,1.2.5,1.2.7,1.2.7,1.2.7,1.2.7,1.2.7,1.2.7,1.2.7,1.2.7,1.2.8,1.2.8,1.2.8,1.2.8,1.2.8,1.2.8,1.2.8,1.2.8,1.2.8,1.2,1,1.2,1,1.2,1,1.2,1,1.2,1,2.1,2,2.1,2,1.2,1,1.2,1,2.1,2,2.1,1.8,1.2,1,1.2,1,1.2,1,1.2.8,1.2.8,1.2.8,1.2.8,1.2.8,1.2.8,1.2.8,1.2.8,1.2.8,1.2.8,1.2.7,1.2.7,1.2.7,1.2.7,1.2.7,1.2.7,1.2.7,1.2.7,1.2.5,1.2.5,1.2.5,1.2.5,1.2.5,1.2.5,1.2.5,1.2.5,1.2.5,1.2.3,1.2.3,1.2.3,1.2.3,1.2.3,1.2.3,1.2.3,1.2.3,1.2.3,1.2.3,1.2.3,1.2.3h1.2c0,.2,1.2.5,1.2.5h1.2c0,.2,1.2.5,1.2.5h1.2c0,.2,1.2.3,1.2.3h1.2c0,.2,1.2.3,1.2.3h1.2l1.2.3h1.2l1.2.3h2.3c0,.2,1.2.2,1.2.2l2.1.3h2.3c0,.2,1.2.2,1.2.2h3.3l2.1.3h4.3c0,.2,2.1.2,2.1.2h3.3c0,.2,1.2.2,1.2.2h101.5H51.9Z"/>
    <path class="st2" d="M0,268.4h74.2c0-.2,3.3-.2,3.3-.2h1.2c0-.2,1.2-.2,1.2-.2h4.5c0-.2,2.1-.2,2.1-.2,0-.2,1.2-.3,1.2-.3h2.1c0-.2,2.1-.5,2.1-.5h1.2l1.2-.3h1.2l1.2-.3h1.2l1.2-.3h1.2c0-.2,1.2-.3,1.2-.3h1.2c0-.2,1.2-.3,1.2-.3h1.2c0-.2,1.2-.5,1.2-.5h1.2c0-.2,1.2-.5,1.2-.5h1.2c0-.2,1.2-.5,1.2-.5l1.2-.3,1.2-.3,1.2-.3,1.2-.3,1.2-.3,1.2-.3,1.2-.3,1.2-.3,1.2-.3,1.2-.3,2.1-.7,1.2-.3,2.1-.8,2.1-.8,2.1-.8,1.2-.3,1.2-.3,2.1-.8,1.2-.5,1.2-.5,1.2-.5,2.1-.8,1.2-.5,1.2-.5,1.2-.5,1.2-.5,1.2-.5,1.2-.5,1.2-.5,1.2-.5,1.2-.5,1.2-.5,1.2-.5,2.1-1,2.1-1,1.2-.5,1.2-.5,2.1-1,3.3-1.5,1.2-.5,1.2-.5,3.3-1.5,1.2-.5,1.2-.5,2.1-1,1.2-.5,1.2-.5,1.2-.5,1.2-.5,1.2-.5,3.3-1.5,1.2-.5,1.2-.5,2.1-1,1.2-.5,1.2-.5,1.2-.5,1.2-.5,1.2-.5,1.2-.5,1.2-.5,1.2-.5,1.2-.5,2.1-1,1.2-.5,1.2-.5,1.2-.5,1.2-.5,1.2-.5,2.1-1,2.1-1,1.2-.5,1.2-.5,1.2-.5,2.1-1,1.2-.5,1.2-.5,2.1-1,2.1-.8,1.2-.5,2.1-.8,1.2-.5,3.3-1.3,1.2-.5,1.2-.3,1.2-.5,2.1-.8,1.2-.5,1.2-.3,4.5-1.6,3.3-1.3,2.1-.8,2.1-.8,2.1-1,1.2-.5,1.2-.5,1.2-.5,1.2-.5,1.2-.5,1.2-.5,1.2-.5,1.2-.5,1.2-.5,1.2-.5,1.2-.5,1.2-.5,1.2-.5,1.2-.5,1.2-.5,1.2-.5,1.2-.7,1.2-.7,2.1-1.2,1.2-.7,1.2-.7,1.2-.7,3.3-1.8,3.3-1.8,1.2-.7,2.1-1.2,1.2-.5,1.2-.5,1.2-.5,1.2-.5,1.2-.5,1.2-.5,1.2-.5,1.2-.5,1.2-.5,1.2-.5,1.2-.5,1.2-.5,1.2-.3,1.2-.3,1.2-.3,1.2-.3,1.2-.3,1.2-.3h1.2c0-.2,1.2-.5,1.2-.5h1.2c0-.2,1.2-.3,1.2-.3h2.3c0-.2,1.2-.2,1.2-.2h6.8c0,.2,1.2.2,1.2.2l1.2.3h1.2c0,.2,1.2.5,1.2.5l1.2.3,1.2.3,1.2.3,1.2.3,1.2.5,1.2.5,1.2.5,1.2.5,1.2.5,1.2.5,1.2.5,1.2.7,1.2.7,1.2.7,1.2.7,1.2.7,2.1,1.3,3.3,2,1.2.7,1.2.7,2.1,1.3,1.2.7,1.2.7,1.2.7,1.2.7,1.2.7,1.2.7,1.2.7,1.2.5,1.2.5,1.2.5,1.2.5,1.2.5,1.2.5,1.2.5,1.2.5,1.2.5,1.2.5,2.1,1,2.1.8,2.1.8,1.2.5,1.2.5,2.1.8,1.2.5,2.1,1,1.2.5,1.2.5,1.2.5,1.2.5,1.2.5,1.2.5,1.2.5,1.2.7,1.2.7,1.2.7,1.2.7,1.2.7,1.2.7,1.2.7,1.2.7,1.2.8,1.2.8,1.2.8,1.2.8,1.2.8,1.2.8,1.2.8,1.2.8,1.2.8,1.2,1,1.2,1,1.2,1,1.2,1,1.2,1,2.1,2,2.1,2,1.2,1,1.2,1,2.1,2,2.1,1.8,1.2,1,1.2,1,1.2,1,1.2.8,1.2.8,1.2.8,1.2.8,1.2.8,1.2.8,1.2.8,1.2.8,1.2.8,1.2.8,1.2.7,1.2.7,1.2.7,1.2.7,1.2.7,1.2.7,1.2.7,1.2.7,1.2.5,1.2.5,1.2.5,1.2.5,1.2.5,1.2.5,1.2.5,1.2.5,1.2.5,1.2.3,1.2.3,1.2.3,1.2.3,1.2.3,1.2.3,1.2.3,1.2.3,1.2.3,1.2.3,1.2.3,1.2.3h1.2c0,.2,1.2.5,1.2.5h1.2c0,.2,1.2.5,1.2.5h1.2c0,.2,1.2.3,1.2.3h1.2c0,.2,1.2.3,1.2.3h1.2l1.2.3h1.2l1.2.3h2.3c0,.2,1.2.2,1.2.2l2.1.3h2.3c0,.2,1.2.2,1.2.2h3.3l2.1.3h4.3c0,.2,2.1.2,2.1.2h3.3c0,.2,1.2.2,1.2.2h101.5"/>
    <path class="st8" d="M51.9,341.2h41.2l1.2-.3h1.2l2.1-.3h1.2l1.2-.3h1.2l1.2-.3h1.2l1.2-.3h1.2c0-.2,1.2-.3,1.2-.3h1.2c0-.2,1.2-.5,1.2-.5h1.2c0-.2,1.2-.5,1.2-.5l1.2-.3,1.2-.3,1.2-.3,1.2-.3,1.2-.3,1.2-.3,1.2-.3,1.2-.3,1.2-.3,1.2-.5,1.2-.5,1.2-.5,1.2-.5,1.2-.5,1.2-.5,1.2-.5,1.2-.5,1.2-.5,1.2-.5,1.2-.7,1.2-.7,1.2-.7,1.2-.7,1.2-.7,2.1-1.3,1.2-.7,1.2-.7,2.1-1.3,1.2-.7,1.2-.7,1.2-.7,1.2-.7,1.2-.7,1.2-.7,1.2-.7,1.2-.7,1.2-.7,1.2-.7,1.2-.7,1.2-.7,1.2-.7,1.2-.7,1.2-.5,1.2-.5,1.2-.5,1.2-.5,1.2-.5,1.2-.5,1.2-.5,1.2-.5,1.2-.3,1.2-.3,1.2-.3,1.2-.3,1.2-.3,1.2-.3,1.2-.3h1.2c0-.2,1.2-.5,1.2-.5h1.2c0-.2,1.2-.3,1.2-.3h1.2l1.2-.3h2.3c0-.2,1.2-.2,1.2-.2h32.2c0-.2,1.2-.2,1.2-.2l1.2-.3h1.2c0-.2,1.2-.3,1.2-.3h1.2c0-.2,1.2-.5,1.2-.5l1.2-.3,1.2-.3,1.2-.3,1.2-.3,1.2-.5,1.2-.5,1.2-.5,1.2-.5,1.2-.5,1.2-.5,1.2-.7,1.2-.7,1.2-.7,1.2-.7,1.2-.7,1.2-.7,1.2-.7,1.2-.8,1.2-.8,1.2-.8,1.2-.8,1.2-.8,1.2-.8,1.2-.8,1.2-.8,2.1-1.8,1.2-.8,1.2-.8,6.6-5.4,1.2-.8,2.1-1.8,1.2-.8,1.2-.8,1.2-.8,1.2-.8,1.2-.8,1.2-.8,1.2-.8,1.2-.8,1.2-.8,1.2-.8,1.2-.8,1.2-.7,1.2-.7,1.2-.7,1.2-.7,1.2-.7,1.2-.7,1.2-.7,1.2-.5,1.2-.5,1.2-.5,1.2-.5,1.2-.5,1.2-.5,1.2-.3,1.2-.3,1.2-.3,1.2-.3,1.2-.3,1.2-.3h1.2c0-.2,1.2-.3,1.2-.3h1.2l1.2-.3h6.8l1.2.3h1.2c0,.2,1.2.5,1.2.5l1.2.3,1.2.3,1.2.3,1.2.3,1.2.5,1.2.5,1.2.5,1.2.5,1.2.5,1.2.7,1.2.7,1.2.7,1.2.7,1.2.7,1.2.7,1.2.7,1.2.8,1.2.8,1.2.8,1.2.8,1.2.8,2.1,1.6,3.3,2.5,2.1,1.6,1.2.8,1.2.8,1.2.8,1.2.8,1.2.8,1.2.7,1.2.7,1.2.7,1.2.7,1.2.7,1.2.7,1.2.7,1.2.5,1.2.5,1.2.5,1.2.5,1.2.5,1.2.5,1.2.3,1.2.3,1.2.3,1.2.3,1.2.3,1.2.3,1.2.3,1.2.3h1.2c0,.2,1.2.5,1.2.5h1.2c0,.2,1.2.3,1.2.3h1.2l1.2.3h1.2l1.2.3h2.3c0,.2,1.2.2,1.2.2h1.2c0,.2,1.2.2,1.2.2h2.1c0,.2,2.1.2,2.1.2l2.1.3h3.3c0,.2,2.1.2,2.1.2l3.3.3h2.1l2.1.3,3.3.3h1.2l3.3.3h2.1c0,.2,2.1.5,2.1.5h2.1c0,.2,3.3.7,3.3.7h1.2l1.2.3,2.1.3,2.1.3,2.1.3h1.2l2.1.5h1.2c0,.2,1.2.3,1.2.3h1.2c0,.2,1.2.3,1.2.3l2.1.5h1.2c0,.2,1.2.5,1.2.5l1.2.3,1.2.3,1.2.3,1.2.3,1.2.3,1.2.3,1.2.3,1.2.3,1.2.3,1.2.3,1.2.3,1.2.3,1.2.3,1.2.3,1.2.5,1.2.5,1.2.5,1.2.5,1.2.5,1.2.5,1.2.5,1.2.5,1.2.5,1.2.5,1.2.5,1.2.5,1.2.5,1.2.7,1.2.7,1.2.7,1.2.7,1.2.7,1.2.7,1.2.7,1.2.7,1.2.7,1.2.7,1.2.7,5.4,3.3,1.2.7,1.2.7,2.1,1.3,1.2.7,2.1,1.3,1.2.7,1.2.7,1.2.7,1.2.7,1.2.7,1.2.5,1.2.5,1.2.5,1.2.5,1.2.5,1.2.5,1.2.5,1.2.5,1.2.5,1.2.5,1.2.5,1.2.3,1.2.3,1.2.3,1.2.3,1.2.3,1.2.3,1.2.3,1.2.3,1.2.3,1.2.3,1.2.3h1.2c0,.2,1.2.5,1.2.5h1.2c0,.2,1.2.5,1.2.5h1.2c0,.2,1.2.3,1.2.3h1.2c0,.2,1.2.3,1.2.3h1.2l1.2.3h1.2l1.2.3h2.3c0,.2,1.2.2,1.2.2h1.2c0,.2,1.2.2,1.2.2h6.8c0,.2,2.1.2,2.1.2h58.4H51.9v-.7h0Z"/>
    <path class="st2" d="M-1.7,341.2h94.9l1.2-.3h1.2l2.1-.3h1.2l1.2-.3h1.2l1.2-.3h1.2l1.2-.3h1.2c0-.2,1.2-.3,1.2-.3h1.2c0-.2,1.2-.5,1.2-.5h1.2c0-.2,1.2-.5,1.2-.5l1.2-.3,1.2-.3,1.2-.3,1.2-.3,1.2-.3,1.2-.3,1.2-.3,1.2-.3,1.2-.3,1.2-.5,1.2-.5,1.2-.5,1.2-.5,1.2-.5,1.2-.5,1.2-.5,1.2-.5,1.2-.5,1.2-.5,1.2-.7,1.2-.7,1.2-.7,1.2-.7,1.2-.7,2.1-1.3,1.2-.7,1.2-.7,2.1-1.3,1.2-.7,1.2-.7,1.2-.7,1.2-.7,1.2-.7,1.2-.7,1.2-.7,1.2-.7,1.2-.7,1.2-.7,1.2-.7,1.2-.7,1.2-.7,1.2-.7,1.2-.5,1.2-.5,1.2-.5,1.2-.5,1.2-.5,1.2-.5,1.2-.5,1.2-.5,1.2-.3,1.2-.3,1.2-.3,1.2-.3,1.2-.3,1.2-.3,1.2-.3h1.2c0-.2,1.2-.5,1.2-.5h1.2c0-.2,1.2-.3,1.2-.3h1.2l1.2-.3h2.3c0-.2,1.2-.2,1.2-.2h32.2c0-.2,1.2-.2,1.2-.2l1.2-.3h1.2c0-.2,1.2-.3,1.2-.3h1.2c0-.2,1.2-.5,1.2-.5l1.2-.3,1.2-.3,1.2-.3,1.2-.3,1.2-.5,1.2-.5,1.2-.5,1.2-.5,1.2-.5,1.2-.5,1.2-.7,1.2-.7,1.2-.7,1.2-.7,1.2-.7,1.2-.7,1.2-.7,1.2-.8,1.2-.8,1.2-.8,1.2-.8,1.2-.8,1.2-.8,1.2-.8,1.2-.8,2.1-1.8,1.2-.8,1.2-.8,6.6-5.4,1.2-.8,2.1-1.8,1.2-.8,1.2-.8,1.2-.8,1.2-.8,1.2-.8,1.2-.8,1.2-.8,1.2-.8,1.2-.8,1.2-.8,1.2-.8,1.2-.7,1.2-.7,1.2-.7,1.2-.7,1.2-.7,1.2-.7,1.2-.7,1.2-.5,1.2-.5,1.2-.5,1.2-.5,1.2-.5,1.2-.5,1.2-.3,1.2-.3,1.2-.3,1.2-.3,1.2-.3,1.2-.3h1.2c0-.2,1.2-.3,1.2-.3h1.2l1.2-.3h6.8l1.2.3h1.2c0,.2,1.2.5,1.2.5l1.2.3,1.2.3,1.2.3,1.2.3,1.2.5,1.2.5,1.2.5,1.2.5,1.2.5,1.2.7,1.2.7,1.2.7,1.2.7,1.2.7,1.2.7,1.2.7,1.2.8,1.2.8,1.2.8,1.2.8,1.2.8,2.1,1.6,3.3,2.5,2.1,1.6,1.2.8,1.2.8,1.2.8,1.2.8,1.2.8,1.2.7,1.2.7,1.2.7,1.2.7,1.2.7,1.2.7,1.2.7,1.2.5,1.2.5,1.2.5,1.2.5,1.2.5,1.2.5,1.2.3,1.2.3,1.2.3,1.2.3,1.2.3,1.2.3,1.2.3,1.2.3h1.2c0,.2,1.2.5,1.2.5h1.2c0,.2,1.2.3,1.2.3h1.2l1.2.3h1.2l1.2.3h2.3c0,.2,1.2.2,1.2.2h1.2c0,.2,1.2.2,1.2.2h2.1c0,.2,2.1.2,2.1.2l2.1.3h3.3c0,.2,2.1.2,2.1.2l3.3.3h2.1l2.1.3,3.3.3h1.2l3.3.3h2.1c0,.2,2.1.5,2.1.5h2.1c0,.2,3.3.7,3.3.7h1.2l1.2.3,2.1.3,2.1.3,2.1.3h1.2l2.1.5h1.2c0,.2,1.2.3,1.2.3h1.2c0,.2,1.2.3,1.2.3l2.1.5h1.2c0,.2,1.2.5,1.2.5l1.2.3,1.2.3,1.2.3,1.2.3,1.2.3,1.2.3,1.2.3,1.2.3,1.2.3,1.2.3,1.2.3,1.2.3,1.2.3,1.2.3,1.2.5,1.2.5,1.2.5,1.2.5,1.2.5,1.2.5,1.2.5,1.2.5,1.2.5,1.2.5,1.2.5,1.2.5,1.2.5,1.2.7,1.2.7,1.2.7,1.2.7,1.2.7,1.2.7,1.2.7,1.2.7,1.2.7,1.2.7,1.2.7,5.4,3.3,1.2.7,1.2.7,2.1,1.3,1.2.7,2.1,1.3,1.2.7,1.2.7,1.2.7,1.2.7,1.2.7,1.2.5,1.2.5,1.2.5,1.2.5,1.2.5,1.2.5,1.2.5,1.2.5,1.2.5,1.2.5,1.2.5,1.2.3,1.2.3,1.2.3,1.2.3,1.2.3,1.2.3,1.2.3,1.2.3,1.2.3,1.2.3,1.2.3h1.2c0,.2,1.2.5,1.2.5h1.2c0,.2,1.2.5,1.2.5h1.2c0,.2,1.2.3,1.2.3h1.2c0,.2,1.2.3,1.2.3h1.2l1.2.3h1.2l1.2.3h2.3c0,.2,1.2.2,1.2.2h1.2c0,.2,1.2.2,1.2.2h6.8c0,.2,2.1.2,2.1.2h58.4"/>
    <path class="st9" d="M51.9,413.9h74.6c0-.2,1.2-.2,1.2-.2h5.4c0-.2,1.2-.2,1.2-.2h2.1c0-.2,2.1-.2,2.1-.2l1.2-.3h1.2l2.1-.3h2.3c0-.2,1.2-.2,1.2-.2h1.2c0-.2,1.2-.2,1.2-.2l1.2-.3h1.2l1.2-.3,2.1-.3h1.2c0-.2,1.2-.3,1.2-.3l2.1-.3h1.2c0-.2,2.1-.7,2.1-.7h1.2c0-.2,2.1-.7,2.1-.7h1.2c0-.2,1.2-.5,1.2-.5l1.2-.3,1.2-.3,1.2-.3,1.2-.3,1.2-.3,1.2-.3,1.2-.3,1.2-.3,1.2-.3,1.2-.3,1.2-.3,1.2-.3,1.2-.3,1.2-.3,1.2-.3,1.2-.3,1.2-.3,1.2-.3,1.2-.5,1.2-.5,1.2-.5,1.2-.5,1.2-.5,1.2-.5,1.2-.5,1.2-.5,1.2-.5,1.2-.5,1.2-.5,1.2-.5,1.2-.5,1.2-.7,1.2-.7,1.2-.7,1.2-.7,1.2-.7,1.2-.7,1.2-.7,1.2-.7,1.2-.7,1.2-.7,1.2-.8,1.2-.8,1.2-.8,1.2-.8,1.2-.8,1.2-.8,1.2-.8,1.2-.8,1.2-.8,1.2-.8,1.2-.8,1.2-.8,2.1-1.6,1.2-.8,1.2-.8,1.2-.8,2.1-1.6,2.1-1.6,1.2-.8,1.2-.8,1.2-.8,1.2-.8,1.2-.8,1.2-.8,1.2-.8,1.2-.8,1.2-.8,1.2-.7,1.2-.7,1.2-.7,1.2-.7,1.2-.7,1.2-.7,1.2-.7,1.2-.7,1.2-.7,1.2-.7,1.2-.7,1.2-.7,1.2-.7,1.2-.7,2.1-1.2,1.2-.5,2.1-1.2,2.1-1.2,1.2-.7,1.2-.7,1.2-.7,1.2-.7,1.2-.7,1.2-.7,1.2-.7,1.2-.7,1.2-.8,1.2-.8,1.2-.8,1.2-.8,1.2-.8,1.2-1,1.2-1,1.2-1,1.2-1,1.2-1.2,1.2-1.2,1.2-1.2,1.2-1.2,1.2-1.3,1.2-1.3,1.2-1.3,1.2-1.3,1.2-1.3,1.2-1.5,1.2-1.5,1.2-1.5,1.2-1.5,1.2-1.5,1.2-1.5,1.2-1.5,1.2-1.5,1.2-1.6,1.2-1.7,2.1-3.1,1.2-1.6,1.2-1.5,1.2-1.5,1.2-1.5,1.2-1.5,1.2-1.5,1.2-1.5,1.2-1.3,1.2-1.3,1.2-1.3,1.2-1.3,1.2-1.2,1.2-1.2,1.2-1,1.2-1,1.2-.8,1.2-.8,1.2-.8,1.2-.7,1.2-.7,1.2-.5,1.2-.5,1.2-.3,1.2-.3h1.2c0-.2,1.2-.3,1.2-.3h3.5c0,.2,1.2.5,1.2.5l1.2.3,1.2.3,1.2.5,1.2.7,1.2.7,1.2.8,1.2.8,1.2.8,1.2,1,1.2,1,1.2,1.2,1.2,1.2,1.2,1.2,1.2,1.3,1.2,1.3,1.2,1.3,1.2,1.5,1.2,1.5,1.2,1.5,1.2,1.7,1.2,1.6,1.2,1.6,1.2,1.6,1.2,1.6,1.2,1.8,1.2,1.8,1.2,1.8,1.2,1.8,1.2,1.8,1.2,1.8,2.1,3.6,1.2,1.8,3.3,5.6,1.2,1.8,1.2,1.8,1.2,1.8,1.2,1.8,1.2,1.8,1.2,1.8,1.2,1.8,1.2,1.8,1.2,1.8,1.2,1.8,1.2,1.6,1.2,1.6,1.2,1.6,1.2,1.7,1.2,1.6,1.2,1.6,1.2,1.6,1.2,1.5,1.2,1.5,1.2,1.5,1.2,1.5,1.2,1.5,1.2,1.3,1.2,1.3,1.2,1.3,1.2,1.3,1.2,1.3,1.2,1.3,1.2,1.2,1.2,1.2,1.2,1.2,1.2,1.2,1.2,1,1.2,1,1.2,1,1.2,1,1.2,1,1.2,1,1.2.8,1.2.8,1.2.8,1.2.8,1.2.8,1.2.8,1.2.7,1.2.7,1.2.7,1.2.7,1.2.7,1.2.7,1.2.7,1.2.5,1.2.5,1.2.5,1.2.5,1.2.5,1.2.5,1.2.5,1.2.5,1.2.5,1.2.5,1.2.3,1.2.3,1.2.3,1.2.3,1.2.3,1.2.3,1.2.3,1.2.3,1.2.3,1.2.3,2.1.7,1.2.3,1.2.3,1.2.3,1.2.3,1.2.3,2.1.5h1.2c0,.2,2.1.7,2.1.7l2.1.5h1.2c0,.2,1.2.3,1.2.3l2.1.3h1.2c0,.2,1.2.3,1.2.3h1.2l2.1.5h1.2l1.2.3h1.2l2.1.3h1.2l2.1.3h2.1c0,.2,1.2.3,1.2.3h5.6c0,.2,1.2.2,1.2.2h2.1c0,.2,1.2.2,1.2.2h6.6c0,.2,2.1.2,2.1.2h98.5H51.9v.5h0Z"/>
    <path class="st2" d="M0,413.9h126.5c0-.2,1.2-.2,1.2-.2h5.4c0-.2,1.2-.2,1.2-.2h2.1c0-.2,2.1-.2,2.1-.2l1.2-.3h1.2l2.1-.3h2.3c0-.2,1.2-.2,1.2-.2h1.2c0-.2,1.2-.2,1.2-.2l1.2-.3h1.2l1.2-.3,2.1-.3h1.2c0-.2,1.2-.3,1.2-.3l2.1-.3h1.2c0-.2,2.1-.7,2.1-.7h1.2c0-.2,2.1-.7,2.1-.7h1.2c0-.2,1.2-.5,1.2-.5l1.2-.3,1.2-.3,1.2-.3,1.2-.3,1.2-.3,1.2-.3,1.2-.3,1.2-.3,1.2-.3,1.2-.3,1.2-.3,1.2-.3,1.2-.3,1.2-.3,1.2-.3,1.2-.3,1.2-.3,1.2-.3,1.2-.5,1.2-.5,1.2-.5,1.2-.5,1.2-.5,1.2-.5,1.2-.5,1.2-.5,1.2-.5,1.2-.5,1.2-.5,1.2-.5,1.2-.5,1.2-.7,1.2-.7,1.2-.7,1.2-.7,1.2-.7,1.2-.7,1.2-.7,1.2-.7,1.2-.7,1.2-.7,1.2-.8,1.2-.8,1.2-.8,1.2-.8,1.2-.8,1.2-.8,1.2-.8,1.2-.8,1.2-.8,1.2-.8,1.2-.8,1.2-.8,2.1-1.6,1.2-.8,1.2-.8,1.2-.8,2.1-1.6,2.1-1.6,1.2-.8,1.2-.8,1.2-.8,1.2-.8,1.2-.8,1.2-.8,1.2-.8,1.2-.8,1.2-.8,1.2-.7,1.2-.7,1.2-.7,1.2-.7,1.2-.7,1.2-.7,1.2-.7,1.2-.7,1.2-.7,1.2-.7,1.2-.7,1.2-.7,1.2-.7,1.2-.7,2.1-1.2,1.2-.5,2.1-1.2,2.1-1.2,1.2-.7,1.2-.7,1.2-.7,1.2-.7,1.2-.7,1.2-.7,1.2-.7,1.2-.7,1.2-.8,1.2-.8,1.2-.8,1.2-.8,1.2-.8,1.2-1,1.2-1,1.2-1,1.2-1,1.2-1.2,1.2-1.2,1.2-1.2,1.2-1.2,1.2-1.3,1.2-1.3,1.2-1.3,1.2-1.3,1.2-1.3,1.2-1.5,1.2-1.5,1.2-1.5,1.2-1.5,1.2-1.5,1.2-1.5,1.2-1.5,1.2-1.5,1.2-1.6,1.2-1.7,2.1-3.1,1.2-1.6,1.2-1.5,1.2-1.5,1.2-1.5,1.2-1.5,1.2-1.5,1.2-1.5,1.2-1.3,1.2-1.3,1.2-1.3,1.2-1.3,1.2-1.2,1.2-1.2,1.2-1,1.2-1,1.2-.8,1.2-.8,1.2-.8,1.2-.7,1.2-.7,1.2-.5,1.2-.5,1.2-.3,1.2-.3h1.2c0-.2,1.2-.3,1.2-.3h3.5c0,.2,1.2.5,1.2.5l1.2.3,1.2.3,1.2.5,1.2.7,1.2.7,1.2.8,1.2.8,1.2.8,1.2,1,1.2,1,1.2,1.2,1.2,1.2,1.2,1.2,1.2,1.3,1.2,1.3,1.2,1.3,1.2,1.5,1.2,1.5,1.2,1.5,1.2,1.7,1.2,1.6,1.2,1.6,1.2,1.6,1.2,1.6,1.2,1.8,1.2,1.8,1.2,1.8,1.2,1.8,1.2,1.8,1.2,1.8,2.1,3.6,1.2,1.8,3.3,5.6,1.2,1.8,1.2,1.8,1.2,1.8,1.2,1.8,1.2,1.8,1.2,1.8,1.2,1.8,1.2,1.8,1.2,1.8,1.2,1.8,1.2,1.6,1.2,1.6,1.2,1.6,1.2,1.7,1.2,1.6,1.2,1.6,1.2,1.6,1.2,1.5,1.2,1.5,1.2,1.5,1.2,1.5,1.2,1.5,1.2,1.3,1.2,1.3,1.2,1.3,1.2,1.3,1.2,1.3,1.2,1.3,1.2,1.2,1.2,1.2,1.2,1.2,1.2,1.2,1.2,1,1.2,1,1.2,1,1.2,1,1.2,1,1.2,1,1.2.8,1.2.8,1.2.8,1.2.8,1.2.8,1.2.8,1.2.7,1.2.7,1.2.7,1.2.7,1.2.7,1.2.7,1.2.7,1.2.5,1.2.5,1.2.5,1.2.5,1.2.5,1.2.5,1.2.5,1.2.5,1.2.5,1.2.5,1.2.3,1.2.3,1.2.3,1.2.3,1.2.3,1.2.3,1.2.3,1.2.3,1.2.3,1.2.3,2.1.7,1.2.3,1.2.3,1.2.3,1.2.3,1.2.3,2.1.5h1.2c0,.2,2.1.7,2.1.7l2.1.5h1.2c0,.2,1.2.3,1.2.3l2.1.3h1.2c0,.2,1.2.3,1.2.3h1.2l2.1.5h1.2l1.2.3h1.2l2.1.3h1.2l2.1.3h2.1c0,.2,1.2.3,1.2.3h5.6c0,.2,1.2.2,1.2.2h2.1c0,.2,1.2.2,1.2.2h6.6c0,.2,2.1.2,2.1.2h98.5"/>
    <path class="st4" d="M51.9,486.5h48.7c0-.2,1.2-.2,1.2-.2h3.3l3.3-.3h2.1l2.1-.3,3.3-.3h2.3c0-.2,2.1-.2,2.1-.2,0-.2,1.2-.3,1.2-.3h2.1c0-.2,1.2-.3,1.2-.3l3.3-.3h1.2l1.2-.3h1.2l1.2-.3h1.2l2.1-.5h1.2l1.2-.3,4.5-.7h1.2l3.3-.7h1.2l1.2-.3,6.6-.8,3.3-.5h1.2l4.5-.7h1.2l1.2-.3,2.1-.3,3.3-.5h1.2l1.2-.3,2.1-.3h1.2c0-.2,1.2-.3,1.2-.3h1.2c0-.2,1.2-.3,1.2-.3l2.1-.3,2.1-.5,2.1-.5h1.2c0-.2,1.2-.5,1.2-.5l1.2-.3,1.2-.3,1.2-.3,1.2-.3,1.2-.3,1.2-.3,1.2-.3,1.2-.3,1.2-.3,1.2-.3,1.2-.3,1.2-.3,1.2-.3,1.2-.3,1.2-.3,1.2-.3,1.2-.3,1.2-.3,1.2-.3,1.2-.3,1.2-.5,2.1-.8,2.1-.8,2.1-1,1.2-.5,2.1-1,1.2-.5,1.2-.5,1.2-.5,1.2-.5,1.2-.5,1.2-.5,1.2-.5,1.2-.5,2.1-1.2,1.2-.5,2.1-1.2,1.2-.7,1.2-.7,1.2-.7,1.2-.7,1.2-.7,1.2-.7,1.2-.7,1.2-.7,1.2-.7,1.2-.7,1.2-.7,1.2-.7,1.2-.8,1.2-.8,1.2-.8,1.2-.8,1.2-.8,1.2-.8,1.2-.8,1.2-.8,1.2-.8,1.2-.8,1.2-.8,1.2-.8,1.2-.8,1.2-.8,2.1-1.8,2.1-1.8,1.2-1,1.2-1,1.2-1,2.1-1.8,1.2-1,2.1-1.8,1.2-.8,1.2-.8,1.2-.8,1.2-.8,1.2-.8,1.2-.8,1.2-.8,1.2-.8,1.2-.8,1.2-.8,1.2-.7,1.2-.7,1.2-.7,1.2-.7,1.2-.7,1.2-.7,1.2-.7,1.2-.5,1.2-.5,1.2-.5,1.2-.5,1.2-.5,1.2-.5,1.2-.5,1.2-.5,1.2-.3,1.2-.3,1.2-.3,1.2-.3,1.2-.3,1.2-.3,1.2-.3,1.2-.3,1.2-.3h1.2c0-.2,1.2-.5,1.2-.5h1.2c0-.2,1.2-.5,1.2-.5h1.2c0-.2,1.2-.3,1.2-.3h1.2c0-.2,1.2-.3,1.2-.3h1.2l1.2-.3h2.3c0-.2,1.2-.2,1.2-.2h1.2c0-.2,1.2-.2,1.2-.2h15c0,.2,1.2.2,1.2.2l1.2.3h1.2l1.2.3h1.2c0,.2,1.2.5,1.2.5h1.2c0,.2,1.2.5,1.2.5l1.2.3,1.2.3,1.2.3,1.2.3,1.2.3,1.2.3,1.2.3,1.2.3,2.1.8,1.2.3,2.1.8,1.2.5,3.3,1.3,1.2.5,1.2.5,2.1.8,3.3,1.3,1.2.5,1.2.5,1.2.5,1.2.5,1.2.5,2.1.8,1.2.3,1.2.3,1.2.3,1.2.3,1.2.3,1.2.3,1.2.3,1.2.3,1.2.3,1.2.3,1.2.3,1.2.3,2.1.7,2.1.7,1.2.3,1.2.3,1.2.3,2.1.7,3.3,1,1.2.3,1.2.3,1.2.3,1.2.3,1.2.3,1.2.3,1.2.3,1.2.3,1.2.3,1.2.5,1.2.5,1.2.5,1.2.5,1.2.5,1.2.5,1.2.5,1.2.5,1.2.5,1.2.5,1.2.5,1.2.5,1.2.5,1.2.5,2.1,1.2,2.1,1.2,5.4,3,1.2.7,1.2.7,1.2.7,1.2.5,1.2.5,2.1,1.2,1.2.5,1.2.5,1.2.5,1.2.5,1.2.5,1.2.5,1.2.5,1.2.5,1.2.5,1.2.5,2.1,1,1.2.5,1.2.5,1.2.5,2.1.8,2.1.8,1.2.5,1.2.5,1.2.5,3.3,1.3,1.2.5,2.1.8,2.1.8,2.1,1,1.2.5,1.2.5,2.1,1,1.2.5,1.2.5,2.1,1,1.2.5,2.1,1,1.2.5,1.2.5,3.3,1.6,1.2.5,1.2.5,1.2.5,2.1,1.2,2.1,1.2,1.2.5,1.2.5,1.2.5,2.1,1,1.2.5,1.2.5,1.2.5,2.1,1,1.2.5,1.2.5,1.2.5,1.2.5,1.2.3,1.2.3,1.2.3,1.2.3,1.2.3,1.2.3,1.2.3,1.2.3,1.2.3,1.2.3,1.2.3,1.2.3,1.2.3h1.2c0,.2,1.2.5,1.2.5h1.2c0,.2,1.2.5,1.2.5h1.2c0,.2,1.2.3,1.2.3h1.2c0,.2,1.2.3,1.2.3l2.1.3h1.2l1.2.3h2.3c0,.2,2.1.2,2.1.2,0,.2,1.2.3,1.2.3h46.9H66.3l-14.4-.3h0Z"/>
    <path class="st2" d="M0,486.5h100.6c0-.2,1.2-.2,1.2-.2h3.3l3.3-.3h2.1l2.1-.3,3.3-.3h2.3c0-.2,2.1-.2,2.1-.2,0-.2,1.2-.3,1.2-.3h2.1c0-.2,1.2-.3,1.2-.3l3.3-.3h1.2l1.2-.3h1.2l1.2-.3h1.2l2.1-.5h1.2l1.2-.3,4.5-.7h1.2l3.3-.7h1.2l1.2-.3,6.6-.8,3.3-.5h1.2l4.5-.7h1.2l1.2-.3,2.1-.3,3.3-.5h1.2l1.2-.3,2.1-.3h1.2c0-.2,1.2-.3,1.2-.3h1.2c0-.2,1.2-.3,1.2-.3l2.1-.3,2.1-.5,2.1-.5h1.2c0-.2,1.2-.5,1.2-.5l1.2-.3,1.2-.3,1.2-.3,1.2-.3,1.2-.3,1.2-.3,1.2-.3,1.2-.3,1.2-.3,1.2-.3,1.2-.3,1.2-.3,1.2-.3,1.2-.3,1.2-.3,1.2-.3,1.2-.3,1.2-.3,1.2-.3,1.2-.3,1.2-.5,2.1-.8,2.1-.8,2.1-1,1.2-.5,2.1-1,1.2-.5,1.2-.5,1.2-.5,1.2-.5,1.2-.5,1.2-.5,1.2-.5,1.2-.5,2.1-1.2,1.2-.5,2.1-1.2,1.2-.7,1.2-.7,1.2-.7,1.2-.7,1.2-.7,1.2-.7,1.2-.7,1.2-.7,1.2-.7,1.2-.7,1.2-.7,1.2-.7,1.2-.8,1.2-.8,1.2-.8,1.2-.8,1.2-.8,1.2-.8,1.2-.8,1.2-.8,1.2-.8,1.2-.8,1.2-.8,1.2-.8,1.2-.8,1.2-.8,2.1-1.8,2.1-1.8,1.2-1,1.2-1,1.2-1,2.1-1.8,1.2-1,2.1-1.8,1.2-.8,1.2-.8,1.2-.8,1.2-.8,1.2-.8,1.2-.8,1.2-.8,1.2-.8,1.2-.8,1.2-.8,1.2-.7,1.2-.7,1.2-.7,1.2-.7,1.2-.7,1.2-.7,1.2-.7,1.2-.5,1.2-.5,1.2-.5,1.2-.5,1.2-.5,1.2-.5,1.2-.5,1.2-.5,1.2-.3,1.2-.3,1.2-.3,1.2-.3,1.2-.3,1.2-.3,1.2-.3,1.2-.3,1.2-.3h1.2c0-.2,1.2-.5,1.2-.5h1.2c0-.2,1.2-.5,1.2-.5h1.2c0-.2,1.2-.3,1.2-.3h1.2c0-.2,1.2-.3,1.2-.3h1.2l1.2-.3h2.3c0-.2,1.2-.2,1.2-.2h1.2c0-.2,1.2-.2,1.2-.2h15c0,.2,1.2.2,1.2.2l1.2.3h1.2l1.2.3h1.2c0,.2,1.2.5,1.2.5h1.2c0,.2,1.2.5,1.2.5l1.2.3,1.2.3,1.2.3,1.2.3,1.2.3,1.2.3,1.2.3,1.2.3,2.1.8,1.2.3,2.1.8,1.2.5,3.3,1.3,1.2.5,1.2.5,2.1.8,3.3,1.3,1.2.5,1.2.5,1.2.5,1.2.5,1.2.5,2.1.8,1.2.3,1.2.3,1.2.3,1.2.3,1.2.3,1.2.3,1.2.3,1.2.3,1.2.3,1.2.3,1.2.3,1.2.3,2.1.7,2.1.7,1.2.3,1.2.3,1.2.3,2.1.7,3.3,1,1.2.3,1.2.3,1.2.3,1.2.3,1.2.3,1.2.3,1.2.3,1.2.3,1.2.3,1.2.5,1.2.5,1.2.5,1.2.5,1.2.5,1.2.5,1.2.5,1.2.5,1.2.5,1.2.5,1.2.5,1.2.5,1.2.5,1.2.5,2.1,1.2,2.1,1.2,5.4,3,1.2.7,1.2.7,1.2.7,1.2.5,1.2.5,2.1,1.2,1.2.5,1.2.5,1.2.5,1.2.5,1.2.5,1.2.5,1.2.5,1.2.5,1.2.5,1.2.5,2.1,1,1.2.5,1.2.5,1.2.5,2.1.8,2.1.8,1.2.5,1.2.5,1.2.5,3.3,1.3,1.2.5,2.1.8,2.1.8,2.1,1,1.2.5,1.2.5,2.1,1,1.2.5,1.2.5,2.1,1,1.2.5,2.1,1,1.2.5,1.2.5,3.3,1.6,1.2.5,1.2.5,1.2.5,2.1,1.2,2.1,1.2,1.2.5,1.2.5,1.2.5,2.1,1,1.2.5,1.2.5,1.2.5,2.1,1,1.2.5,1.2.5,1.2.5,1.2.5,1.2.3,1.2.3,1.2.3,1.2.3,1.2.3,1.2.3,1.2.3,1.2.3,1.2.3,1.2.3,1.2.3,1.2.3,1.2.3h1.2c0,.2,1.2.5,1.2.5h1.2c0,.2,1.2.5,1.2.5h1.2c0,.2,1.2.3,1.2.3h1.2c0,.2,1.2.3,1.2.3l2.1.3h1.2l1.2.3h2.3c0,.2,2.1.2,2.1.2,0,.2,1.2.3,1.2.3h46.9"/>
    <path class="st6" d="M51.9,559.3h92.2c0-.2,3.3-.2,3.3-.2l2.1-.3h4.5l1.2-.3h2.1c0-.2,1.2-.3,1.2-.3h2.3c0-.2,1.2-.2,1.2-.2h1.2c0-.2,2.1-.5,2.1-.5h1.2l1.2-.3h1.2l1.2-.3h1.2l1.2-.3h1.2c0-.2,1.2-.3,1.2-.3h1.2c0-.2,2.1-.5,2.1-.5h1.2c0-.2,1.2-.3,1.2-.3l2.1-.5,2.1-.5,3.3-.7,5.4-1.2h1.2c0-.2,2.1-.7,2.1-.7h1.2c0-.2,1.2-.5,1.2-.5l3.3-.7,2.1-.5h1.2c0-.2,1.2-.5,1.2-.5h1.2c0-.2,1.2-.3,1.2-.3h1.2c0-.2,1.2-.3,1.2-.3h1.2c0-.2,4.5-1,4.5-1h1.2c0-.2,1.2-.3,1.2-.3l2.1-.3,2.1-.3h1.2c0-.2,1.2-.3,1.2-.3h1.2c0-.2,3.3-.8,3.3-.8l2.1-.5h1.2c0-.2,1.2-.5,1.2-.5l2.1-.5,2.1-.5,1.2-.3,1.2-.3,2.1-.5,1.2-.3,1.2-.3,1.2-.3,1.2-.3,1.2-.3,1.2-.3,1.2-.3,1.2-.3,2.1-.8,1.2-.3,1.2-.3,1.2-.5,1.2-.5,2.1-.8,2.1-1,1.2-.5,2.1-1,1.2-.5,1.2-.5,1.2-.5,1.2-.5,1.2-.5,1.2-.5,1.2-.5,1.2-.5,2.1-1.2,2.1-1.2,1.2-.5,1.2-.7,2.1-1.2,1.2-.7,1.2-.7,1.2-.7,1.2-.7,1.2-.7,1.2-.7,1.2-.7,1.2-.7,1.2-.7,1.2-.7,1.2-.7,1.2-.8,1.2-.8,1.2-.8,1.2-.8,1.2-.8,1.2-.8,1.2-.8,1.2-.8,1.2-.8,1.2-.8,1.2-.8,1.2-1,1.2-1,1.2-1,1.2-1,1.2-1,1.2-1,1.2-1,1.2-1,1.2-1,5.4-5.1,1.2-1,1.2-1,1.2-1,1.2-1,1.2-1,1.2-1,1.2-1,1.2-1,1.2-.8,1.2-.8,1.2-.8,1.2-.8,1.2-.8,1.2-.8,1.2-.7,1.2-.7,1.2-.7,1.2-.7,1.2-.5,1.2-.5,1.2-.5,1.2-.5,1.2-.3,1.2-.3,1.2-.3h1.2c0-.2,1.2-.5,1.2-.5h1.2l1.2-.3h6.9c0,.2,1.2.2,1.2.2,0,.2,1.2.3,1.2.3h1.2c0,.2,1.2.5,1.2.5l1.2.3,1.2.3,1.2.3,1.2.3,1.2.3,1.2.5,1.2.5,2.1.8,1.2.5,2.1,1,1.2.5,2.1,1,1.2.5,1.2.5,1.2.5,1.2.5,1.2.5,1.2.3,1.2.3,1.2.3,1.2.3,1.2.3,1.2.3,1.2.3,1.2.3,1.2.3h1.2c0,.2,1.2.5,1.2.5h1.2c0,.2,1.2.3,1.2.3h2.3c0,.2,1.2.2,1.2.2h10.4c0-.2,1.2-.2,1.2-.2l1.2-.3h1.2l1.2-.3h1.2c0-.2,1.2-.3,1.2-.3h1.2c0-.2,2.1-.7,2.1-.7h1.2c0-.2,4.5-1.2,4.5-1.2l2.1-.5h1.2c0-.2,1.2-.5,1.2-.5h1.2c0-.2,1.2-.3,1.2-.3h1.2c0-.2,1.2-.3,1.2-.3h1.2l1.2-.3h2.3c0-.2,1.2-.2,1.2-.2h10.4c0,.2,1.2.2,1.2.2l1.2.3h1.2c0,.2,1.2.5,1.2.5l1.2.3,1.2.3,1.2.3,1.2.3,1.2.3,1.2.5,1.2.5,1.2.5,1.2.5,1.2.5,1.2.7,1.2.7,1.2.7,1.2.7,1.2.7,1.2.7,1.2.8,1.2.8,1.2.8,1.2.8,1.2.8,1.2.8,1.2.8,1.2.8,1.2,1,1.2,1,1.2,1,1.2,1,1.2,1,1.2,1,1.2,1,1.2,1,2.1,2,1.2,1,2.1,2,4.5,4.1,1.2,1,2.1,2,1.2,1,1.2,1,1.2,1,1.2,1,1.2,1,1.2,1,1.2,1,1.2,1,1.2,1,1.2,1,1.2,1,1.2,1,1.2.8,1.2.8,1.2.8,1.2.8,1.2.8,1.2.8,1.2.8,1.2.8,1.2.8,1.2.8,1.2.7,1.2.7,1.2.7,1.2.7,1.2.7,1.2.7,1.2.7,1.2.7,1.2.7,1.2.7,1.2.5,1.2.5,1.2.5,1.2.5,1.2.5,1.2.5,1.2.5,1.2.5,1.2.5,1.2.5,1.2.3,1.2.3,1.2.3,1.2.3,1.2.3,1.2.3,1.2.3,1.2.3,1.2.3,1.2.3,1.2.3h1.2c0,.2,1.2.5,1.2.5h1.2c0,.2,1.2.5,1.2.5h1.2c0,.2,1.2.3,1.2.3h1.2c0,.2,1.2.3,1.2.3h1.2l1.2.3h1.2l1.2.3h2.3c0,.2,2.1.2,2.1.2,0,.2,1.2.3,1.2.3h2.3c0,.2,2.1.2,2.1.2h1.2c0,.2,1.2.2,1.2.2h2.1c0,.2,3.3.2,3.3.2h1.2c0,.2,2.1.2,2.1.2h15.8H51.9Z"/>
    <path class="st2" d="M0,559.3h144.2c0-.2,3.3-.2,3.3-.2l2.1-.3h4.5l1.2-.3h2.1c0-.2,1.2-.3,1.2-.3h2.3c0-.2,1.2-.2,1.2-.2h1.2c0-.2,2.1-.5,2.1-.5h1.2l1.2-.3h1.2l1.2-.3h1.2l1.2-.3h1.2c0-.2,1.2-.3,1.2-.3h1.2c0-.2,2.1-.5,2.1-.5h1.2c0-.2,1.2-.3,1.2-.3l2.1-.5,2.1-.5,3.3-.7,5.4-1.2h1.2c0-.2,2.1-.7,2.1-.7h1.2c0-.2,1.2-.5,1.2-.5l3.3-.7,2.1-.5h1.2c0-.2,1.2-.5,1.2-.5h1.2c0-.2,1.2-.3,1.2-.3h1.2c0-.2,1.2-.3,1.2-.3h1.2c0-.2,4.5-1,4.5-1h1.2c0-.2,1.2-.3,1.2-.3l2.1-.3,2.1-.3h1.2c0-.2,1.2-.3,1.2-.3h1.2c0-.2,3.3-.8,3.3-.8l2.1-.5h1.2c0-.2,1.2-.5,1.2-.5l2.1-.5,2.1-.5,1.2-.3,1.2-.3,2.1-.5,1.2-.3,1.2-.3,1.2-.3,1.2-.3,1.2-.3,1.2-.3,1.2-.3,1.2-.3,2.1-.8,1.2-.3,1.2-.3,1.2-.5,1.2-.5,2.1-.8,2.1-1,1.2-.5,2.1-1,1.2-.5,1.2-.5,1.2-.5,1.2-.5,1.2-.5,1.2-.5,1.2-.5,1.2-.5,2.1-1.2,2.1-1.2,1.2-.5,1.2-.7,2.1-1.2,1.2-.7,1.2-.7,1.2-.7,1.2-.7,1.2-.7,1.2-.7,1.2-.7,1.2-.7,1.2-.7,1.2-.7,1.2-.7,1.2-.8,1.2-.8,1.2-.8,1.2-.8,1.2-.8,1.2-.8,1.2-.8,1.2-.8,1.2-.8,1.2-.8,1.2-.8,1.2-1,1.2-1,1.2-1,1.2-1,1.2-1,1.2-1,1.2-1,1.2-1,1.2-1,5.4-5.1,1.2-1,1.2-1,1.2-1,1.2-1,1.2-1,1.2-1,1.2-1,1.2-1,1.2-.8,1.2-.8,1.2-.8,1.2-.8,1.2-.8,1.2-.8,1.2-.7,1.2-.7,1.2-.7,1.2-.7,1.2-.5,1.2-.5,1.2-.5,1.2-.5,1.2-.3,1.2-.3,1.2-.3h1.2c0-.2,1.2-.5,1.2-.5h1.2l1.2-.3h6.9c0,.2,1.2.2,1.2.2,0,.2,1.2.3,1.2.3h1.2c0,.2,1.2.5,1.2.5l1.2.3,1.2.3,1.2.3,1.2.3,1.2.3,1.2.5,1.2.5,2.1.8,1.2.5,2.1,1,1.2.5,2.1,1,1.2.5,1.2.5,1.2.5,1.2.5,1.2.5,1.2.3,1.2.3,1.2.3,1.2.3,1.2.3,1.2.3,1.2.3,1.2.3,1.2.3h1.2c0,.2,1.2.5,1.2.5h1.2c0,.2,1.2.3,1.2.3h2.3c0,.2,1.2.2,1.2.2h10.4c0-.2,1.2-.2,1.2-.2l1.2-.3h1.2l1.2-.3h1.2c0-.2,1.2-.3,1.2-.3h1.2c0-.2,2.1-.7,2.1-.7h1.2c0-.2,4.5-1.2,4.5-1.2l2.1-.5h1.2c0-.2,1.2-.5,1.2-.5h1.2c0-.2,1.2-.3,1.2-.3h1.2c0-.2,1.2-.3,1.2-.3h1.2l1.2-.3h2.3c0-.2,1.2-.2,1.2-.2h10.4c0,.2,1.2.2,1.2.2l1.2.3h1.2c0,.2,1.2.5,1.2.5l1.2.3,1.2.3,1.2.3,1.2.3,1.2.3,1.2.5,1.2.5,1.2.5,1.2.5,1.2.5,1.2.7,1.2.7,1.2.7,1.2.7,1.2.7,1.2.7,1.2.8,1.2.8,1.2.8,1.2.8,1.2.8,1.2.8,1.2.8,1.2.8,1.2,1,1.2,1,1.2,1,1.2,1,1.2,1,1.2,1,1.2,1,1.2,1,2.1,2,1.2,1,2.1,2,4.5,4.1,1.2,1,2.1,2,1.2,1,1.2,1,1.2,1,1.2,1,1.2,1,1.2,1,1.2,1,1.2,1,1.2,1,1.2,1,1.2,1,1.2,1,1.2.8,1.2.8,1.2.8,1.2.8,1.2.8,1.2.8,1.2.8,1.2.8,1.2.8,1.2.8,1.2.7,1.2.7,1.2.7,1.2.7,1.2.7,1.2.7,1.2.7,1.2.7,1.2.7,1.2.7,1.2.5,1.2.5,1.2.5,1.2.5,1.2.5,1.2.5,1.2.5,1.2.5,1.2.5,1.2.5,1.2.3,1.2.3,1.2.3,1.2.3,1.2.3,1.2.3,1.2.3,1.2.3,1.2.3,1.2.3,1.2.3h1.2c0,.2,1.2.5,1.2.5h1.2c0,.2,1.2.5,1.2.5h1.2c0,.2,1.2.3,1.2.3h1.2c0,.2,1.2.3,1.2.3h1.2l1.2.3h1.2l1.2.3h2.3c0,.2,2.1.2,2.1.2,0,.2,1.2.3,1.2.3h2.3c0,.2,2.1.2,2.1.2h1.2c0,.2,1.2.2,1.2.2h2.1c0,.2,3.3.2,3.3.2h1.2c0,.2,2.1.2,2.1.2h15.8"/>
  </g>
  <g>
    <line class="st1" x1="800.2" y1="195.5" x2="760.5" y2="195.5"/>
    <line class="st1" x1="800.2" y1="267.9" x2="760.5" y2="267.9"/>
    <line class="st1" x1="800.2" y1="413.6" x2="760.5" y2="413.4"/>
    <path class="st1" d="M630.6,559h144.9c13.7,0,24.8-11.1,24.8-24.8V147.3c0-13.7-11.1-24.8-24.8-24.8h-15"/>
    <path class="st1" d="M628,486.5l72.6-.3c13.7,0,25.6-12.9,25.6-26.6V195.3h-30.5"/>
    <path class="st1" d="M686.4,122.5h15.3c13.7,0,24.4,12.7,24.4,26.2v60.2"/>
    <path class="st1" d="M665.8,486.4v-193.7c0-13.7-11.1-24.8-24.8-24.8h0"/>
    <path class="st1" d="M629.8,413.1h0c13.7,0,27.1-11.2,27.1-24.9v-239.7c0-13.7-11.1-25.9-24.6-25.9h-1.6"/>
    <path class="st1" d="M734.6,559.1v-193.5c0-13.7-11.4-24.8-25.1-24.8h-23.3"/>
    <line class="st1" x1="726.1" y1="195.3" x2="686.4" y2="195.3"/>
  </g>
  <line class="st2" y1="123" x2="51.9" y2="123"/>
</svg>