<?xml version="1.0" encoding="UTF-8"?>
<svg id="Layer_1" xmlns="http://www.w3.org/2000/svg" xmlns:xlink="http://www.w3.org/1999/xlink" version="1.1" viewBox="0 0 365.7 218.9">
  <!-- Generator: Adobe Illustrator 29.2.0, SVG Export Plug-In . SVG Version: 2.1.0 Build 108)  -->
  <defs>
    <style>
      .st0, .st1 {
        fill: none;
      }

      .st2 {
        fill: #f3c677;
      }

      .st2, .st3, .st4, .st5, .st6 {
        fill-opacity: .9;
      }

      .st3 {
        fill: #c94f4f;
      }

      .st4 {
        fill: #e58e53;
      }

      .st7 {
        fill: #f8f5ec;
      }

      .st1 {
        stroke: #000;
        stroke-linecap: round;
        stroke-linejoin: round;
        stroke-width: .6px;
      }

      .st5 {
        fill: #8f6aa3;
      }

      .st6 {
        fill: #90d1c9;
      }
    </style>
  </defs>
  <polygon class="st7" points="-.8 0 365.7 0 365.7 218.9 -.8 219.1 -.8 0"/>
  <path class="st2" d="M-.8,42.8h13.5c0-.1,2-.1,2-.1h.7c0-.1.7-.1.7-.1h2.7c0-.1,1.3-.1,1.3-.1,0-.1.7-.2.7-.2h1.3c0-.1,1.3-.3,1.3-.3h.7l.7-.2h.7l.7-.2h.7l.7-.2h.7c0-.1.7-.2.7-.2h.7c0-.1.7-.2.7-.2h.7c0-.1.7-.3.7-.3h.7c0-.1.7-.3.7-.3h.7c0-.1.7-.3.7-.3l.7-.2.7-.2.7-.2.7-.2.7-.2.7-.2.7-.2.7-.2.7-.2.7-.2,1.3-.4.7-.2,1.3-.5,1.3-.5,1.3-.5.7-.2.7-.2,1.3-.5.7-.3.7-.3.7-.3,1.3-.5.7-.3.7-.3.7-.3.7-.3.7-.3.7-.3.7-.3.7-.3.7-.3.7-.3.7-.3,1.3-.6,1.3-.6.7-.3.7-.3,1.3-.6,2-.9.7-.3.7-.3,2-.9.7-.3.7-.3,1.3-.6.7-.3.7-.3.7-.3.7-.3.7-.3,2-.9.7-.3.7-.3,1.3-.6.7-.3.7-.3.7-.3.7-.3.7-.3.7-.3.7-.3.7-.3.7-.3,1.3-.6.7-.3.7-.3.7-.3.7-.3.7-.3,1.3-.6,1.3-.6.7-.3.7-.3.7-.3,1.3-.6.7-.3.7-.3,1.3-.6,1.3-.5.7-.3,1.3-.5.7-.3,2-.8.7-.3.7-.2.7-.3,1.3-.5.7-.3.7-.2,2.7-1,2-.8,1.3-.5,1.3-.5,1.3-.6.7-.3.7-.3.7-.3.7-.3.7-.3.7-.3.7-.3.7-.3.7-.3.7-.3.7-.3.7-.3.7-.3.7-.3L132.6,0l.7-.3.7-.4.7-.4,1.3-.7.7-.4.7-.4.7-.4,2-1.1,2-1.1.7-.4,1.3-.7.7-.3.7-.3.7-.3.7-.3.7-.3.7-.3.7-.3.7-.3.7-.3.7-.3.7-.3.7-.3.7-.2.7-.2.7-.2.7-.2.7-.2.7-.2h.7c0-.1.7-.3.7-.3h.7c0-.1.7-.2.7-.2h1.4c0-.1.7-.1.7-.1h4.1c0,.1.7.1.7.1l.7.2h.7c0,.1.7.3.7.3l.7.2.7.2.7.2.7.2.7.3.7.3.7.3.7.3.7.3.7.3.7.3.7.4.7.4.7.4.7.4.7.4,1.3.8,2,1.2.7.4.7.4,1.3.8.7.4.7.4.7.4.7.4.7.4.7.4.7.4.7.3.7.3.7.3.7.3.7.3.7.3.7.3.7.3.7.3.7.3,1.3.6,1.3.5,1.3.5.7.3.7.3,1.3.5.7.3,1.3.6.7.3.7.3.7.3.7.3.7.3.7.3.7.3.7.4.7.4.7.4.7.4.7.4.7.4.7.4.7.4.7.5.7.5.7.5.7.5.7.5.7.5.7.5.7.5.7.5.7.6.7.6.7.6.7.6.7.6,1.3,1.2,1.3,1.2.7.6.7.6,1.3,1.2,1.3,1.1.7.6.7.6.7.6.7.5.7.5.7.5.7.5.7.5.7.5.7.5.7.5.7.5.7.5.7.4.7.4.7.4.7.4.7.4.7.4.7.4.7.4.7.3.7.3.7.3.7.3.7.3.7.3.7.3.7.3.7.3.7.2.7.2.7.2.7.2.7.2.7.2.7.2.7.2.7.2.7.2.7.2.7.2h.7c0,.1.7.3.7.3h.7c0,.1.7.3.7.3h.7c0,.1.7.2.7.2h.7c0,.1.7.2.7.2h.7l.7.2h.7l.7.2h1.4c0,.1.7.1.7.1l1.3.2h1.4c0,.1.7.1.7.1h2l1.3.2h2.6c0,.1,1.3.1,1.3.1h2c0,.1.7.1.7.1h61.5H-.8Z"/>
  <path class="st1" d="M-.8,42.8h13.5c0-.1,2-.1,2-.1h.7c0-.1.7-.1.7-.1h2.7c0-.1,1.3-.1,1.3-.1,0-.1.7-.2.7-.2h1.3c0-.1,1.3-.3,1.3-.3h.7l.7-.2h.7l.7-.2h.7l.7-.2h.7c0-.1.7-.2.7-.2h.7c0-.1.7-.2.7-.2h.7c0-.1.7-.3.7-.3h.7c0-.1.7-.3.7-.3h.7c0-.1.7-.3.7-.3l.7-.2.7-.2.7-.2.7-.2.7-.2.7-.2.7-.2.7-.2.7-.2.7-.2,1.3-.4.7-.2,1.3-.5,1.3-.5,1.3-.5.7-.2.7-.2,1.3-.5.7-.3.7-.3.7-.3,1.3-.5.7-.3.7-.3.7-.3.7-.3.7-.3.7-.3.7-.3.7-.3.7-.3.7-.3.7-.3,1.3-.6,1.3-.6.7-.3.7-.3,1.3-.6,2-.9.7-.3.7-.3,2-.9.7-.3.7-.3,1.3-.6.7-.3.7-.3.7-.3.7-.3.7-.3,2-.9.7-.3.7-.3,1.3-.6.7-.3.7-.3.7-.3.7-.3.7-.3.7-.3.7-.3.7-.3.7-.3,1.3-.6.7-.3.7-.3.7-.3.7-.3.7-.3,1.3-.6,1.3-.6.7-.3.7-.3.7-.3,1.3-.6.7-.3.7-.3,1.3-.6,1.3-.5.7-.3,1.3-.5.7-.3,2-.8.7-.3.7-.2.7-.3,1.3-.5.7-.3.7-.2,2.7-1,2-.8,1.3-.5,1.3-.5,1.3-.6.7-.3.7-.3.7-.3.7-.3.7-.3.7-.3.7-.3.7-.3.7-.3.7-.3.7-.3.7-.3.7-.3.7-.3L132.6,0l.7-.3.7-.4.7-.4,1.3-.7.7-.4.7-.4.7-.4,2-1.1,2-1.1.7-.4,1.3-.7.7-.3.7-.3.7-.3.7-.3.7-.3.7-.3.7-.3.7-.3.7-.3.7-.3.7-.3.7-.3.7-.2.7-.2.7-.2.7-.2.7-.2.7-.2h.7c0-.1.7-.3.7-.3h.7c0-.1.7-.2.7-.2h1.4c0-.1.7-.1.7-.1h4.1c0,.1.7.1.7.1l.7.2h.7c0,.1.7.3.7.3l.7.2.7.2.7.2.7.2.7.3.7.3.7.3.7.3.7.3.7.3.7.3.7.4.7.4.7.4.7.4.7.4,1.3.8,2,1.2.7.4.7.4,1.3.8.7.4.7.4.7.4.7.4.7.4.7.4.7.4.7.3.7.3.7.3.7.3.7.3.7.3.7.3.7.3.7.3.7.3,1.3.6,1.3.5,1.3.5.7.3.7.3,1.3.5.7.3,1.3.6.7.3.7.3.7.3.7.3.7.3.7.3.7.3.7.4.7.4.7.4.7.4.7.4.7.4.7.4.7.4.7.5.7.5.7.5.7.5.7.5.7.5.7.5.7.5.7.5.7.6.7.6.7.6.7.6.7.6,1.3,1.2,1.3,1.2.7.6.7.6,1.3,1.2,1.3,1.1.7.6.7.6.7.6.7.5.7.5.7.5.7.5.7.5.7.5.7.5.7.5.7.5.7.5.7.4.7.4.7.4.7.4.7.4.7.4.7.4.7.4.7.3.7.3.7.3.7.3.7.3.7.3.7.3.7.3.7.3.7.2.7.2.7.2.7.2.7.2.7.2.7.2.7.2.7.2.7.2.7.2.7.2h.7c0,.1.7.3.7.3h.7c0,.1.7.3.7.3h.7c0,.1.7.2.7.2h.7c0,.1.7.2.7.2h.7l.7.2h.7l.7.2h1.4c0,.1.7.1.7.1l1.3.2h1.4c0,.1.7.1.7.1h2l1.3.2h2.6c0,.1,1.3.1,1.3.1h2c0,.1.7.1.7.1h61.5"/>
  <path class="st5" d="M-.8,86.9h25l.7-.2h.7l1.3-.2h.7l.7-.2h.7l.7-.2h.7l.7-.2h.7c0-.1.7-.2.7-.2h.7c0-.1.7-.3.7-.3h.7c0-.1.7-.3.7-.3l.7-.2.7-.2.7-.2.7-.2.7-.2.7-.2.7-.2.7-.2.7-.2.7-.3.7-.3.7-.3.7-.3.7-.3.7-.3.7-.3.7-.3.7-.3.7-.3.7-.4.7-.4.7-.4.7-.4.7-.4,1.3-.8.7-.4.7-.4,1.3-.8.7-.4.7-.4.7-.4.7-.4.7-.4.7-.4.7-.4.7-.4.7-.4.7-.4.7-.4.7-.4.7-.4.7-.4.7-.3.7-.3.7-.3.7-.3.7-.3.7-.3.7-.3.7-.3.7-.2.7-.2.7-.2.7-.2.7-.2.7-.2.7-.2h.7c0-.1.7-.3.7-.3h.7c0-.1.7-.2.7-.2h.7l.7-.2h1.4c0-.1.7-.1.7-.1h19.5c0-.1.7-.1.7-.1l.7-.2h.7c0-.1.7-.2.7-.2h.7c0-.1.7-.3.7-.3l.7-.2.7-.2.7-.2.7-.2.7-.3.7-.3.7-.3.7-.3.7-.3.7-.3.7-.4.7-.4.7-.4.7-.4.7-.4.7-.4.7-.4.7-.5.7-.5.7-.5.7-.5.7-.5.7-.5.7-.5.7-.5,1.3-1.1.7-.5.7-.5,4-3.3.7-.5,1.3-1.1.7-.5.7-.5.7-.5.7-.5.7-.5.7-.5.7-.5.7-.5.7-.5.7-.5.7-.5.7-.4.7-.4.7-.4.7-.4.7-.4.7-.4.7-.4.7-.3.7-.3.7-.3.7-.3.7-.3.7-.3.7-.2.7-.2.7-.2.7-.2.7-.2.7-.2h.7c0-.1.7-.2.7-.2h.7l.7-.2h4.1l.7.2h.7c0,.1.7.3.7.3l.7.2.7.2.7.2.7.2.7.3.7.3.7.3.7.3.7.3.7.4.7.4.7.4.7.4.7.4.7.4.7.4.7.5.7.5.7.5.7.5.7.5,1.3,1,2,1.5,1.3,1,.7.5.7.5.7.5.7.5.7.5.7.4.7.4.7.4.7.4.7.4.7.4.7.4.7.3.7.3.7.3.7.3.7.3.7.3.7.2.7.2.7.2.7.2.7.2.7.2.7.2.7.2h.7c0,.1.7.3.7.3h.7c0,.1.7.2.7.2h.7l.7.2h.7l.7.2h1.4c0,.1.7.1.7.1h.7c0,.1.7.1.7.1h1.3c0,.1,1.3.1,1.3.1l1.3.2h2c0,.1,1.3.1,1.3.1l2,.2h1.3l1.3.2,2,.2h.7l2,.2h1.3c0,.1,1.3.3,1.3.3h1.3c0,.1,2,.4,2,.4h.7l.7.2,1.3.2,1.3.2,1.3.2h.7l1.3.3h.7c0,.1.7.2.7.2h.7c0,.1.7.2.7.2l1.3.3h.7c0,.1.7.3.7.3l.7.2.7.2.7.2.7.2.7.2.7.2.7.2.7.2.7.2.7.2.7.2.7.2.7.2.7.2.7.3.7.3.7.3.7.3.7.3.7.3.7.3.7.3.7.3.7.3.7.3.7.3.7.3.7.4.7.4.7.4.7.4.7.4.7.4.7.4.7.4.7.4.7.4.7.4,3.3,2,.7.4.7.4,1.3.8.7.4,1.3.8.7.4.7.4.7.4.7.4.7.4.7.3.7.3.7.3.7.3.7.3.7.3.7.3.7.3.7.3.7.3.7.3.7.2.7.2.7.2.7.2.7.2.7.2.7.2.7.2.7.2.7.2.7.2h.7c0,.1.7.3.7.3h.7c0,.1.7.3.7.3h.7c0,.1.7.2.7.2h.7c0,.1.7.2.7.2h.7l.7.2h.7l.7.2h1.4c0,.1.7.1.7.1h.7c0,.1.7.1.7.1h4.1c0,.1,1.3.1,1.3.1h35.4H-.8v-.4Z"/>
  <path class="st1" d="M-.8,86.9h25l.7-.2h.7l1.3-.2h.7l.7-.2h.7l.7-.2h.7l.7-.2h.7c0-.1.7-.2.7-.2h.7c0-.1.7-.3.7-.3h.7c0-.1.7-.3.7-.3l.7-.2.7-.2.7-.2.7-.2.7-.2.7-.2.7-.2.7-.2.7-.2.7-.3.7-.3.7-.3.7-.3.7-.3.7-.3.7-.3.7-.3.7-.3.7-.3.7-.4.7-.4.7-.4.7-.4.7-.4,1.3-.8.7-.4.7-.4,1.3-.8.7-.4.7-.4.7-.4.7-.4.7-.4.7-.4.7-.4.7-.4.7-.4.7-.4.7-.4.7-.4.7-.4.7-.4.7-.3.7-.3.7-.3.7-.3.7-.3.7-.3.7-.3.7-.3.7-.2.7-.2.7-.2.7-.2.7-.2.7-.2.7-.2h.7c0-.1.7-.3.7-.3h.7c0-.1.7-.2.7-.2h.7l.7-.2h1.4c0-.1.7-.1.7-.1h19.5c0-.1.7-.1.7-.1l.7-.2h.7c0-.1.7-.2.7-.2h.7c0-.1.7-.3.7-.3l.7-.2.7-.2.7-.2.7-.2.7-.3.7-.3.7-.3.7-.3.7-.3.7-.3.7-.4.7-.4.7-.4.7-.4.7-.4.7-.4.7-.4.7-.5.7-.5.7-.5.7-.5.7-.5.7-.5.7-.5.7-.5,1.3-1.1.7-.5.7-.5,4-3.3.7-.5,1.3-1.1.7-.5.7-.5.7-.5.7-.5.7-.5.7-.5.7-.5.7-.5.7-.5.7-.5.7-.5.7-.4.7-.4.7-.4.7-.4.7-.4.7-.4.7-.4.7-.3.7-.3.7-.3.7-.3.7-.3.7-.3.7-.2.7-.2.7-.2.7-.2.7-.2.7-.2h.7c0-.1.7-.2.7-.2h.7l.7-.2h4.1l.7.2h.7c0,.1.7.3.7.3l.7.2.7.2.7.2.7.2.7.3.7.3.7.3.7.3.7.3.7.4.7.4.7.4.7.4.7.4.7.4.7.4.7.5.7.5.7.5.7.5.7.5,1.3,1,2,1.5,1.3,1,.7.5.7.5.7.5.7.5.7.5.7.4.7.4.7.4.7.4.7.4.7.4.7.4.7.3.7.3.7.3.7.3.7.3.7.3.7.2.7.2.7.2.7.2.7.2.7.2.7.2.7.2h.7c0,.1.7.3.7.3h.7c0,.1.7.2.7.2h.7l.7.2h.7l.7.2h1.4c0,.1.7.1.7.1h.7c0,.1.7.1.7.1h1.3c0,.1,1.3.1,1.3.1l1.3.2h2c0,.1,1.3.1,1.3.1l2,.2h1.3l1.3.2,2,.2h.7l2,.2h1.3c0,.1,1.3.3,1.3.3h1.3c0,.1,2,.4,2,.4h.7l.7.2,1.3.2,1.3.2,1.3.2h.7l1.3.3h.7c0,.1.7.2.7.2h.7c0,.1.7.2.7.2l1.3.3h.7c0,.1.7.3.7.3l.7.2.7.2.7.2.7.2.7.2.7.2.7.2.7.2.7.2.7.2.7.2.7.2.7.2.7.2.7.3.7.3.7.3.7.3.7.3.7.3.7.3.7.3.7.3.7.3.7.3.7.3.7.3.7.4.7.4.7.4.7.4.7.4.7.4.7.4.7.4.7.4.7.4.7.4,3.3,2,.7.4.7.4,1.3.8.7.4,1.3.8.7.4.7.4.7.4.7.4.7.4.7.3.7.3.7.3.7.3.7.3.7.3.7.3.7.3.7.3.7.3.7.3.7.2.7.2.7.2.7.2.7.2.7.2.7.2.7.2.7.2.7.2.7.2h.7c0,.1.7.3.7.3h.7c0,.1.7.3.7.3h.7c0,.1.7.2.7.2h.7c0,.1.7.2.7.2h.7l.7.2h.7l.7.2h1.4c0,.1.7.1.7.1h.7c0,.1.7.1.7.1h4.1c0,.1,1.3.1,1.3.1h35.4"/>
  <path class="st6" d="M-.8,131h45.2c0-.1.7-.1.7-.1h3.3c0-.1.7-.1.7-.1h1.3c0-.1,1.3-.1,1.3-.1l.7-.2h.7l1.3-.2h1.4c0-.1.7-.1.7-.1h.7c0-.1.7-.1.7-.1l.7-.2h.7l.7-.2,1.3-.2h.7c0-.1.7-.2.7-.2l1.3-.2h.7c0-.1,1.3-.4,1.3-.4h.7c0-.1,1.3-.4,1.3-.4h.7c0-.1.7-.3.7-.3l.7-.2.7-.2.7-.2.7-.2.7-.2.7-.2.7-.2.7-.2.7-.2.7-.2.7-.2.7-.2.7-.2.7-.2.7-.2.7-.2.7-.2.7-.2.7-.3.7-.3.7-.3.7-.3.7-.3.7-.3.7-.3.7-.3.7-.3.7-.3.7-.3.7-.3.7-.3.7-.4.7-.4.7-.4.7-.4.7-.4.7-.4.7-.4.7-.4.7-.4.7-.4.7-.5.7-.5.7-.5.7-.5.7-.5.7-.5.7-.5.7-.5.7-.5.7-.5.7-.5.7-.5,1.3-1,.7-.5.7-.5.7-.5,1.3-1,1.3-1,.7-.5.7-.5.7-.5.7-.5.7-.5.7-.5.7-.5.7-.5.7-.5.7-.4.7-.4.7-.4.7-.4.7-.4.7-.4.7-.4.7-.4.7-.4.7-.4.7-.4.7-.4.7-.4.7-.4,1.3-.7.7-.3,1.3-.7,1.3-.7.7-.4.7-.4.7-.4.7-.4.7-.4.7-.4.7-.4.7-.4.7-.5.7-.5.7-.5.7-.5.7-.5.7-.6.7-.6.7-.6.7-.6.7-.7.7-.7.7-.7.7-.7.7-.8.7-.8.7-.8.7-.8.7-.8.7-.9.7-.9.7-.9.7-.9.7-.9.7-.9.7-.9.7-.9.7-1,.7-1,1.3-1.9.7-1,.7-.9.7-.9.7-.9.7-.9.7-.9.7-.9.7-.8.7-.8.7-.8.7-.8.7-.7.7-.7.7-.6.7-.6.7-.5.7-.5.7-.5.7-.4.7-.4.7-.3.7-.3.7-.2.7-.2h.7c0-.1.7-.2.7-.2h2.1c0,.1.7.3.7.3l.7.2.7.2.7.3.7.4.7.4.7.5.7.5.7.5.7.6.7.6.7.7.7.7.7.7.7.8.7.8.7.8.7.9.7.9.7.9.7,1,.7,1,.7,1,.7,1,.7,1,.7,1.1.7,1.1.7,1.1.7,1.1.7,1.1.7,1.1,1.3,2.2.7,1.1,2,3.4.7,1.1.7,1.1.7,1.1.7,1.1.7,1.1.7,1.1.7,1.1.7,1.1.7,1.1.7,1.1.7,1,.7,1,.7,1,.7,1,.7,1,.7,1,.7,1,.7.9.7.9.7.9.7.9.7.9.7.8.7.8.7.8.7.8.7.8.7.8.7.7.7.7.7.7.7.7.7.6.7.6.7.6.7.6.7.6.7.6.7.5.7.5.7.5.7.5.7.5.7.5.7.4.7.4.7.4.7.4.7.4.7.4.7.4.7.3.7.3.7.3.7.3.7.3.7.3.7.3.7.3.7.3.7.3.7.2.7.2.7.2.7.2.7.2.7.2.7.2.7.2.7.2.7.2,1.3.4.7.2.7.2.7.2.7.2.7.2,1.3.3h.7c0,.1,1.3.4,1.3.4l1.3.3h.7c0,.1.7.2.7.2l1.3.2h.7c0,.1.7.2.7.2h.7l1.3.3h.7l.7.2h.7l1.3.2h.7l1.3.2h1.3c0,.1.7.2.7.2h3.4c0,.1.7.1.7.1h1.3c0,.1.7.1.7.1h4c0,.1,1.3.1,1.3.1h59.7H-.8v.3Z"/>
  <path class="st1" d="M-.8,131h45.2c0-.1.7-.1.7-.1h3.3c0-.1.7-.1.7-.1h1.3c0-.1,1.3-.1,1.3-.1l.7-.2h.7l1.3-.2h1.4c0-.1.7-.1.7-.1h.7c0-.1.7-.1.7-.1l.7-.2h.7l.7-.2,1.3-.2h.7c0-.1.7-.2.7-.2l1.3-.2h.7c0-.1,1.3-.4,1.3-.4h.7c0-.1,1.3-.4,1.3-.4h.7c0-.1.7-.3.7-.3l.7-.2.7-.2.7-.2.7-.2.7-.2.7-.2.7-.2.7-.2.7-.2.7-.2.7-.2.7-.2.7-.2.7-.2.7-.2.7-.2.7-.2.7-.2.7-.3.7-.3.7-.3.7-.3.7-.3.7-.3.7-.3.7-.3.7-.3.7-.3.7-.3.7-.3.7-.3.7-.4.7-.4.7-.4.7-.4.7-.4.7-.4.7-.4.7-.4.7-.4.7-.4.7-.5.7-.5.7-.5.7-.5.7-.5.7-.5.7-.5.7-.5.7-.5.7-.5.7-.5.7-.5,1.3-1,.7-.5.7-.5.7-.5,1.3-1,1.3-1,.7-.5.7-.5.7-.5.7-.5.7-.5.7-.5.7-.5.7-.5.7-.5.7-.4.7-.4.7-.4.7-.4.7-.4.7-.4.7-.4.7-.4.7-.4.7-.4.7-.4.7-.4.7-.4.7-.4,1.3-.7.7-.3,1.3-.7,1.3-.7.7-.4.7-.4.7-.4.7-.4.7-.4.7-.4.7-.4.7-.4.7-.5.7-.5.7-.5.7-.5.7-.5.7-.6.7-.6.7-.6.7-.6.7-.7.7-.7.7-.7.7-.7.7-.8.7-.8.7-.8.7-.8.7-.8.7-.9.7-.9.7-.9.7-.9.7-.9.7-.9.7-.9.7-.9.7-1,.7-1,1.3-1.9.7-1,.7-.9.7-.9.7-.9.7-.9.7-.9.7-.9.7-.8.7-.8.7-.8.7-.8.7-.7.7-.7.7-.6.7-.6.7-.5.7-.5.7-.5.7-.4.7-.4.7-.3.7-.3.7-.2.7-.2h.7c0-.1.7-.2.7-.2h2.1c0,.1.7.3.7.3l.7.2.7.2.7.3.7.4.7.4.7.5.7.5.7.5.7.6.7.6.7.7.7.7.7.7.7.8.7.8.7.8.7.9.7.9.7.9.7,1,.7,1,.7,1,.7,1,.7,1,.7,1.1.7,1.1.7,1.1.7,1.1.7,1.1.7,1.1,1.3,2.2.7,1.1,2,3.4.7,1.1.7,1.1.7,1.1.7,1.1.7,1.1.7,1.1.7,1.1.7,1.1.7,1.1.7,1.1.7,1,.7,1,.7,1,.7,1,.7,1,.7,1,.7,1,.7.9.7.9.7.9.7.9.7.9.7.8.7.8.7.8.7.8.7.8.7.8.7.7.7.7.7.7.7.7.7.6.7.6.7.6.7.6.7.6.7.6.7.5.7.5.7.5.7.5.7.5.7.5.7.4.7.4.7.4.7.4.7.4.7.4.7.4.7.3.7.3.7.3.7.3.7.3.7.3.7.3.7.3.7.3.7.3.7.2.7.2.7.2.7.2.7.2.7.2.7.2.7.2.7.2.7.2,1.3.4.7.2.7.2.7.2.7.2.7.2,1.3.3h.7c0,.1,1.3.4,1.3.4l1.3.3h.7c0,.1.7.2.7.2l1.3.2h.7c0,.1.7.2.7.2h.7l1.3.3h.7l.7.2h.7l1.3.2h.7l1.3.2h1.3c0,.1.7.2.7.2h3.4c0,.1.7.1.7.1h1.3c0,.1.7.1.7.1h4c0,.1,1.3.1,1.3.1h59.7"/>
  <path class="st3" d="M-.8,175h29.5c0-.1.7-.1.7-.1h2l2-.2h1.3l1.3-.2,2-.2h1.4c0-.1,1.3-.1,1.3-.1,0-.1.7-.2.7-.2h1.3c0-.1.7-.2.7-.2l2-.2h.7l.7-.2h.7l.7-.2h.7l1.3-.3h.7l.7-.2,2.7-.4h.7l2-.4h.7l.7-.2,4-.5,2-.3h.7l2.7-.4h.7l.7-.2,1.3-.2,2-.3h.7l.7-.2,1.3-.2h.7c0-.1.7-.2.7-.2h.7c0-.1.7-.2.7-.2l1.3-.2,1.3-.3,1.3-.3h.7c0-.1.7-.3.7-.3l.7-.2.7-.2.7-.2.7-.2.7-.2.7-.2.7-.2.7-.2.7-.2.7-.2.7-.2.7-.2.7-.2.7-.2.7-.2.7-.2.7-.2.7-.2.7-.2.7-.2.7-.3,1.3-.5,1.3-.5,1.3-.6.7-.3,1.3-.6.7-.3.7-.3.7-.3.7-.3.7-.3.7-.3.7-.3.7-.3,1.3-.7.7-.3,1.3-.7.7-.4.7-.4.7-.4.7-.4.7-.4.7-.4.7-.4.7-.4.7-.4.7-.4.7-.4.7-.4.7-.5.7-.5.7-.5.7-.5.7-.5.7-.5.7-.5.7-.5.7-.5.7-.5.7-.5.7-.5.7-.5.7-.5,1.3-1.1,1.3-1.1.7-.6.7-.6.7-.6,1.3-1.1.7-.6,1.3-1.1.7-.5.7-.5.7-.5.7-.5.7-.5.7-.5.7-.5.7-.5.7-.5.7-.5.7-.4.7-.4.7-.4.7-.4.7-.4.7-.4.7-.4.7-.3.7-.3.7-.3.7-.3.7-.3.7-.3.7-.3.7-.3.7-.2.7-.2.7-.2.7-.2.7-.2.7-.2.7-.2.7-.2.7-.2h.7c0-.1.7-.3.7-.3h.7c0-.1.7-.3.7-.3h.7c0-.1.7-.2.7-.2h.7c0-.1.7-.2.7-.2h.7l.7-.2h1.4c0-.1.7-.1.7-.1h.7c0-.1.7-.1.7-.1h9.1c0,.1.7.1.7.1l.7.2h.7l.7.2h.7c0,.1.7.3.7.3h.7c0,.1.7.3.7.3l.7.2.7.2.7.2.7.2.7.2.7.2.7.2.7.2,1.3.5.7.2,1.3.5.7.3,2,.8.7.3.7.3,1.3.5,2,.8.7.3.7.3.7.3.7.3.7.3,1.3.5.7.2.7.2.7.2.7.2.7.2.7.2.7.2.7.2.7.2.7.2.7.2.7.2,1.3.4,1.3.4.7.2.7.2.7.2,1.3.4,2,.6.7.2.7.2.7.2.7.2.7.2.7.2.7.2.7.2.7.2.7.3.7.3.7.3.7.3.7.3.7.3.7.3.7.3.7.3.7.3.7.3.7.3.7.3.7.3,1.3.7,1.3.7,3.3,1.8.7.4.7.4.7.4.7.3.7.3,1.3.7.7.3.7.3.7.3.7.3.7.3.7.3.7.3.7.3.7.3.7.3,1.3.6.7.3.7.3.7.3,1.3.5,1.3.5.7.3.7.3.7.3,2,.8.7.3,1.3.5,1.3.5,1.3.6.7.3.7.3,1.3.6.7.3.7.3,1.3.6.7.3,1.3.6.7.3.7.3,2,1,.7.3.7.3.7.3,1.3.7,1.3.7.7.3.7.3.7.3,1.3.6.7.3.7.3.7.3,1.3.6.7.3.7.3.7.3.7.3.7.2.7.2.7.2.7.2.7.2.7.2.7.2.7.2.7.2.7.2.7.2.7.2.7.2h.7c0,.1.7.3.7.3h.7c0,.1.7.3.7.3h.7c0,.1.7.2.7.2h.7c0,.1.7.2.7.2l1.3.2h.7l.7.2h1.4c0,.1,1.3.1,1.3.1,0,.1.7.2.7.2h28.4H8l-8.7-.2Z"/>
  <path class="st1" d="M344.2,6.6"/>
  <path class="st1" d="M-.8,175h29.5c0-.1.7-.1.7-.1h2l2-.2h1.3l1.3-.2,2-.2h1.4c0-.1,1.3-.1,1.3-.1,0-.1.7-.2.7-.2h1.3c0-.1.7-.2.7-.2l2-.2h.7l.7-.2h.7l.7-.2h.7l1.3-.3h.7l.7-.2,2.7-.4h.7l2-.4h.7l.7-.2,4-.5,2-.3h.7l2.7-.4h.7l.7-.2,1.3-.2,2-.3h.7l.7-.2,1.3-.2h.7c0-.1.7-.2.7-.2h.7c0-.1.7-.2.7-.2l1.3-.2,1.3-.3,1.3-.3h.7c0-.1.7-.3.7-.3l.7-.2.7-.2.7-.2.7-.2.7-.2.7-.2.7-.2.7-.2.7-.2.7-.2.7-.2.7-.2.7-.2.7-.2.7-.2.7-.2.7-.2.7-.2.7-.2.7-.2.7-.3,1.3-.5,1.3-.5,1.3-.6.7-.3,1.3-.6.7-.3.7-.3.7-.3.7-.3.7-.3.7-.3.7-.3.7-.3,1.3-.7.7-.3,1.3-.7.7-.4.7-.4.7-.4.7-.4.7-.4.7-.4.7-.4.7-.4.7-.4.7-.4.7-.4.7-.4.7-.5.7-.5.7-.5.7-.5.7-.5.7-.5.7-.5.7-.5.7-.5.7-.5.7-.5.7-.5.7-.5.7-.5,1.3-1.1,1.3-1.1.7-.6.7-.6.7-.6,1.3-1.1.7-.6,1.3-1.1.7-.5.7-.5.7-.5.7-.5.7-.5.7-.5.7-.5.7-.5.7-.5.7-.5.7-.4.7-.4.7-.4.7-.4.7-.4.7-.4.7-.4.7-.3.7-.3.7-.3.7-.3.7-.3.7-.3.7-.3.7-.3.7-.2.7-.2.7-.2.7-.2.7-.2.7-.2.7-.2.7-.2.7-.2h.7c0-.1.7-.3.7-.3h.7c0-.1.7-.3.7-.3h.7c0-.1.7-.2.7-.2h.7c0-.1.7-.2.7-.2h.7l.7-.2h1.4c0-.1.7-.1.7-.1h.7c0-.1.7-.1.7-.1h9.1c0,.1.7.1.7.1l.7.2h.7l.7.2h.7c0,.1.7.3.7.3h.7c0,.1.7.3.7.3l.7.2.7.2.7.2.7.2.7.2.7.2.7.2.7.2,1.3.5.7.2,1.3.5.7.3,2,.8.7.3.7.3,1.3.5,2,.8.7.3.7.3.7.3.7.3.7.3,1.3.5.7.2.7.2.7.2.7.2.7.2.7.2.7.2.7.2.7.2.7.2.7.2.7.2,1.3.4,1.3.4.7.2.7.2.7.2,1.3.4,2,.6.7.2.7.2.7.2.7.2.7.2.7.2.7.2.7.2.7.2.7.3.7.3.7.3.7.3.7.3.7.3.7.3.7.3.7.3.7.3.7.3.7.3.7.3.7.3,1.3.7,1.3.7,3.3,1.8.7.4.7.4.7.4.7.3.7.3,1.3.7.7.3.7.3.7.3.7.3.7.3.7.3.7.3.7.3.7.3.7.3,1.3.6.7.3.7.3.7.3,1.3.5,1.3.5.7.3.7.3.7.3,2,.8.7.3,1.3.5,1.3.5,1.3.6.7.3.7.3,1.3.6.7.3.7.3,1.3.6.7.3,1.3.6.7.3.7.3,2,1,.7.3.7.3.7.3,1.3.7,1.3.7.7.3.7.3.7.3,1.3.6.7.3.7.3.7.3,1.3.6.7.3.7.3.7.3.7.3.7.2.7.2.7.2.7.2.7.2.7.2.7.2.7.2.7.2.7.2.7.2.7.2.7.2h.7c0,.1.7.3.7.3h.7c0,.1.7.3.7.3h.7c0,.1.7.2.7.2h.7c0,.1.7.2.7.2l1.3.2h.7l.7.2h1.4c0,.1,1.3.1,1.3.1,0,.1.7.2.7.2h28.4"/>
  <path class="st4" d="M-.8,219.1h55.9c0-.1,2-.1,2-.1l1.3-.2h2.7l.7-.2h1.3c0-.1.7-.2.7-.2h1.4c0-.1.7-.1.7-.1h.7c0-.1,1.3-.3,1.3-.3h.7l.7-.2h.7l.7-.2h.7l.7-.2h.7c0-.1.7-.2.7-.2h.7c0-.1,1.3-.3,1.3-.3h.7c0-.1.7-.2.7-.2l1.3-.3,1.3-.3,2-.4,3.3-.7h.7c0-.1,1.3-.4,1.3-.4h.7c0-.1.7-.3.7-.3l2-.4,1.3-.3h.7c0-.1.7-.3.7-.3h.7c0-.1.7-.2.7-.2h.7c0-.1.7-.2.7-.2h.7c0-.1,2.7-.6,2.7-.6h.7c0-.1.7-.2.7-.2l1.3-.2,1.3-.2h.7c0-.1.7-.2.7-.2h.7c0-.1,2-.5,2-.5l1.3-.3h.7c0-.1.7-.3.7-.3l1.3-.3,1.3-.3.7-.2.7-.2,1.3-.3.7-.2.7-.2.7-.2.7-.2.7-.2.7-.2.7-.2.7-.2,1.3-.5.7-.2.7-.2.7-.3.7-.3,1.3-.5,1.3-.6.7-.3,1.3-.6.7-.3.7-.3.7-.3.7-.3.7-.3.7-.3.7-.3.7-.3,1.3-.7,1.3-.7.7-.3.7-.4,1.3-.7.7-.4.7-.4.7-.4.7-.4.7-.4.7-.4.7-.4.7-.4.7-.4.7-.4.7-.4.7-.5.7-.5.7-.5.7-.5.7-.5.7-.5.7-.5.7-.5.7-.5.7-.5.7-.5.7-.6.7-.6.7-.6.7-.6.7-.6.7-.6.7-.6.7-.6.7-.6,3.3-3.1.7-.6.7-.6.7-.6.7-.6.7-.6.7-.6.7-.6.7-.6.7-.5.7-.5.7-.5.7-.5.7-.5.7-.5.7-.4.7-.4.7-.4.7-.4.7-.3.7-.3.7-.3.7-.3.7-.2.7-.2.7-.2h.7c0-.1.7-.3.7-.3h.7l.7-.2h4.2c0,.1.7.1.7.1,0,.1.7.2.7.2h.7c0,.1.7.3.7.3l.7.2.7.2.7.2.7.2.7.2.7.3.7.3,1.3.5.7.3,1.3.6.7.3,1.3.6.7.3.7.3.7.3.7.3.7.3.7.2.7.2.7.2.7.2.7.2.7.2.7.2.7.2.7.2h.7c0,.1.7.3.7.3h.7c0,.1.7.2.7.2h1.4c0,.1.7.1.7.1h6.3c0-.1.7-.1.7-.1l.7-.2h.7l.7-.2h.7c0-.1.7-.2.7-.2h.7c0-.1,1.3-.4,1.3-.4h.7c0-.1,2.7-.7,2.7-.7l1.3-.3h.7c0-.1.7-.3.7-.3h.7c0-.1.7-.2.7-.2h.7c0-.1.7-.2.7-.2h.7l.7-.2h1.4c0-.1.7-.1.7-.1h6.3c0,.1.7.1.7.1l.7.2h.7c0,.1.7.3.7.3l.7.2.7.2.7.2.7.2.7.2.7.3.7.3.7.3.7.3.7.3.7.4.7.4.7.4.7.4.7.4.7.4.7.5.7.5.7.5.7.5.7.5.7.5.7.5.7.5.7.6.7.6.7.6.7.6.7.6.7.6.7.6.7.6,1.3,1.2.7.6,1.3,1.2,2.7,2.5.7.6,1.3,1.2.7.6.7.6.7.6.7.6.7.6.7.6.7.6.7.6.7.6.7.6.7.6.7.6.7.5.7.5.7.5.7.5.7.5.7.5.7.5.7.5.7.5.7.5.7.4.7.4.7.4.7.4.7.4.7.4.7.4.7.4.7.4.7.4.7.3.7.3.7.3.7.3.7.3.7.3.7.3.7.3.7.3.7.3.7.2.7.2.7.2.7.2.7.2.7.2.7.2.7.2.7.2.7.2.7.2h.7c0,.1.7.3.7.3h.7c0,.1.7.3.7.3h.7c0,.1.7.2.7.2h.7c0,.1.7.2.7.2h.7l.7.2h.7l.7.2h1.4c0,.1,1.3.1,1.3.1,0,.1.7.2.7.2h1.4c0,.1,1.3.1,1.3.1h.7c0,.1.7.1.7.1h1.3c0,.1,2,.1,2,.1h.7c0,.1,1.3.1,1.3.1h9.6H-.8Z"/>
  <path class="st1" d="M-.8,219.1h55.9c0-.1,2-.1,2-.1l1.3-.2h2.7l.7-.2h1.3c0-.1.7-.2.7-.2h1.4c0-.1.7-.1.7-.1h.7c0-.1,1.3-.3,1.3-.3h.7l.7-.2h.7l.7-.2h.7l.7-.2h.7c0-.1.7-.2.7-.2h.7c0-.1,1.3-.3,1.3-.3h.7c0-.1.7-.2.7-.2l1.3-.3,1.3-.3,2-.4,3.3-.7h.7c0-.1,1.3-.4,1.3-.4h.7c0-.1.7-.3.7-.3l2-.4,1.3-.3h.7c0-.1.7-.3.7-.3h.7c0-.1.7-.2.7-.2h.7c0-.1.7-.2.7-.2h.7c0-.1,2.7-.6,2.7-.6h.7c0-.1.7-.2.7-.2l1.3-.2,1.3-.2h.7c0-.1.7-.2.7-.2h.7c0-.1,2-.5,2-.5l1.3-.3h.7c0-.1.7-.3.7-.3l1.3-.3,1.3-.3.7-.2.7-.2,1.3-.3.7-.2.7-.2.7-.2.7-.2.7-.2.7-.2.7-.2.7-.2,1.3-.5.7-.2.7-.2.7-.3.7-.3,1.3-.5,1.3-.6.7-.3,1.3-.6.7-.3.7-.3.7-.3.7-.3.7-.3.7-.3.7-.3.7-.3,1.3-.7,1.3-.7.7-.3.7-.4,1.3-.7.7-.4.7-.4.7-.4.7-.4.7-.4.7-.4.7-.4.7-.4.7-.4.7-.4.7-.4.7-.5.7-.5.7-.5.7-.5.7-.5.7-.5.7-.5.7-.5.7-.5.7-.5.7-.5.7-.6.7-.6.7-.6.7-.6.7-.6.7-.6.7-.6.7-.6.7-.6,3.3-3.1.7-.6.7-.6.7-.6.7-.6.7-.6.7-.6.7-.6.7-.6.7-.5.7-.5.7-.5.7-.5.7-.5.7-.5.7-.4.7-.4.7-.4.7-.4.7-.3.7-.3.7-.3.7-.3.7-.2.7-.2.7-.2h.7c0-.1.7-.3.7-.3h.7l.7-.2h4.2c0,.1.7.1.7.1,0,.1.7.2.7.2h.7c0,.1.7.3.7.3l.7.2.7.2.7.2.7.2.7.2.7.3.7.3,1.3.5.7.3,1.3.6.7.3,1.3.6.7.3.7.3.7.3.7.3.7.3.7.2.7.2.7.2.7.2.7.2.7.2.7.2.7.2.7.2h.7c0,.1.7.3.7.3h.7c0,.1.7.2.7.2h1.4c0,.1.7.1.7.1h6.3c0-.1.7-.1.7-.1l.7-.2h.7l.7-.2h.7c0-.1.7-.2.7-.2h.7c0-.1,1.3-.4,1.3-.4h.7c0-.1,2.7-.7,2.7-.7l1.3-.3h.7c0-.1.7-.3.7-.3h.7c0-.1.7-.2.7-.2h.7c0-.1.7-.2.7-.2h.7l.7-.2h1.4c0-.1.7-.1.7-.1h6.3c0,.1.7.1.7.1l.7.2h.7c0,.1.7.3.7.3l.7.2.7.2.7.2.7.2.7.2.7.3.7.3.7.3.7.3.7.3.7.4.7.4.7.4.7.4.7.4.7.4.7.5.7.5.7.5.7.5.7.5.7.5.7.5.7.5.7.6.7.6.7.6.7.6.7.6.7.6.7.6.7.6,1.3,1.2.7.6,1.3,1.2,2.7,2.5.7.6,1.3,1.2.7.6.7.6.7.6.7.6.7.6.7.6.7.6.7.6.7.6.7.6.7.6.7.6.7.5.7.5.7.5.7.5.7.5.7.5.7.5.7.5.7.5.7.5.7.4.7.4.7.4.7.4.7.4.7.4.7.4.7.4.7.4.7.4.7.3.7.3.7.3.7.3.7.3.7.3.7.3.7.3.7.3.7.3.7.2.7.2.7.2.7.2.7.2.7.2.7.2.7.2.7.2.7.2.7.2h.7c0,.1.7.3.7.3h.7c0,.1.7.3.7.3h.7c0,.1.7.2.7.2h.7c0,.1.7.2.7.2h.7l.7.2h.7l.7.2h1.4c0,.1,1.3.1,1.3.1,0,.1.7.2.7.2h1.4c0,.1,1.3.1,1.3.1h.7c0,.1.7.1.7.1h1.3c0,.1,2,.1,2,.1h.7c0,.1,1.3.1,1.3.1h9.6"/>
  <path class="st0" d="M356.7-24.9"/>
</svg>